# laser beam
v -1.50253 -0.00138 0.23316
v -1.50225 -0.01126 0.23470
v -1.50145 -0.02019 0.23917
v -1.50020 -0.02726 0.24614
v -1.49864 -0.03181 0.25492
v -1.49692 -0.03338 0.26466
v -1.49519 -0.03181 0.27440
v -1.49364 -0.02726 0.28318
v -1.49241 -0.02019 0.29015
v -1.49162 -0.01126 0.29463
v -1.49136 -0.00138 0.29617
v -1.49164 0.00851 0.29463
v -1.49244 0.01743 0.29016
v -1.49368 0.02451 0.28319
v -1.49525 0.02906 0.27441
v -1.49697 0.03062 0.26467
v -1.49870 0.02906 0.25493
v -1.50025 0.02451 0.24615
v -1.50148 0.01743 0.23918
v -1.50226 0.00851 0.23470
v -17.25698 -0.01597 3.02548
v -17.25670 -0.02586 3.02702
v -17.25590 -0.03478 3.03149
v -17.25465 -0.04186 3.03846
v -17.25309 -0.04640 3.04724
v -17.25137 -0.04797 3.05698
v -17.24964 -0.04640 3.06672
v -17.24809 -0.04186 3.07550
v -17.24686 -0.03478 3.08247
v -17.24608 -0.02586 3.08695
v -17.24581 -0.01597 3.08849
v -17.24609 -0.00608 3.08695
v -17.24689 0.00284 3.08248
v -17.24814 0.00992 3.07551
v -17.24970 0.01447 3.06673
v -17.25142 0.01603 3.05699
v -17.25315 0.01447 3.04725
v -17.25470 0.00992 3.03847
v -17.25593 0.00284 3.03150
v -17.25672 -0.00608 3.02702
v -17.25140 -0.01597 3.05698
f 1 2 22
f 1 22 21
f 2 3 23
f 2 23 22
f 3 4 24
f 3 24 23
f 4 5 25
f 4 25 24
f 5 6 26
f 5 26 25
f 6 7 27
f 6 27 26
f 7 8 28
f 7 28 27
f 8 9 29
f 8 29 28
f 9 10 30
f 9 30 29
f 10 11 31
f 10 31 30
f 11 12 32
f 11 32 31
f 12 13 33
f 12 33 32
f 13 14 34
f 13 34 33
f 14 15 35
f 14 35 34
f 15 16 36
f 15 36 35
f 16 17 37
f 16 37 36
f 17 18 38
f 17 38 37
f 18 19 39
f 18 39 38
f 19 20 40
f 19 40 39
f 20 1 21
f 20 21 40
f 21 22 41
f 22 23 41
f 23 24 41
f 24 25 41
f 25 26 41
f 26 27 41
f 27 28 41
f 28 29 41
f 29 30 41
f 30 31 41
f 31 32 41
f 32 33 41
f 33 34 41
f 34 35 41
f 35 36 41
f 36 37 41
f 37 38 41
f 38 39 41
f 39 40 41
f 40 21 41
