# moteur_plaque7_moteur_plaque11_0_14
v -1.375400 -0.021719 0.089082
v -1.373808 -0.047402 0.097241
v -1.374416 -0.047940 0.095666
v -1.376008 -0.022256 0.087509
v -1.372503 -0.073066 0.105512
v -1.373111 -0.073604 0.103939
v -1.373717 -0.067041 0.101544
v -1.374720 -0.048073 0.095306
v -1.375863 -0.029014 0.089376
v -1.447088 -0.019614 0.116699
v -1.445807 -0.042884 0.124056
v -1.456186 -0.042119 0.128277
v -1.457450 -0.019207 0.121025
v -1.444465 -0.066100 0.131573
v -1.454867 -0.064982 0.135672
v -1.455472 -0.059003 0.133945
v -1.456552 -0.042066 0.128508
v -1.457385 -0.025106 0.123098
v -1.456601 -0.041983 0.128774
v -1.457760 -0.019117 0.121401
v -1.455179 -0.064869 0.136041
v -1.454868 -0.064594 0.136844
v -1.456291 -0.041709 0.129576
v -1.457450 -0.018843 0.122205
v -1.455124 -0.023105 0.128952
v -1.454240 -0.040020 0.134495
v -1.453793 -0.040002 0.134473
v -1.455127 -0.017151 0.127039
v -1.453212 -0.057002 0.139799
v -1.452545 -0.062927 0.141686
v -1.441861 -0.063796 0.138315
v -1.443125 -0.040510 0.131001
v -1.444484 -0.017310 0.123441
v -1.443935 -0.073766 0.134293
v -1.454354 -0.072538 0.138328
v -1.443586 -0.073456 0.135197
v -1.454042 -0.072263 0.139135
v -1.457486 -0.011229 0.119605
v -1.457798 -0.011505 0.118798
v -1.447083 -0.011475 0.115364
v -1.447432 -0.011784 0.114460
v -1.372586 -0.019228 0.096369
v -1.370991 -0.044910 0.104534
v -1.372414 -0.046169 0.100850
v -1.374008 -0.020486 0.092688
v -1.369689 -0.070576 0.112799
v -1.371111 -0.071834 0.109118
v -1.442785 -0.072748 0.137271
v -1.453328 -0.071630 0.140985
v -1.441967 -0.072024 0.139389
v -1.452598 -0.070985 0.142874
v -1.453431 -0.063322 0.140566
v -1.454157 -0.063965 0.138686
v -1.455581 -0.041081 0.131415
v -1.456739 -0.018213 0.124046
v -1.454855 -0.040439 0.133292
v -1.456013 -0.017571 0.125927
v -1.456042 -0.009951 0.123344
v -1.456771 -0.010596 0.121455
v -1.445464 -0.010042 0.119556
v -1.446282 -0.010766 0.117438
v -1.371445 -0.025104 0.100814
v -1.370194 -0.044067 0.107028
v -1.370296 -0.044294 0.106336
v -1.371891 -0.018613 0.098169
v -1.369300 -0.063132 0.112982
v -1.368994 -0.069960 0.114599
v -1.441567 -0.071670 0.140424
v -1.452242 -0.070669 0.143797
v -1.441861 -0.063796 0.138315
v -1.452545 -0.062927 0.141686
v -1.453212 -0.057002 0.139799
v -1.453076 -0.063008 0.141486
v -1.454501 -0.040126 0.134210
v -1.455658 -0.017256 0.126846
v -1.454240 -0.040020 0.134495
v -1.455124 -0.023105 0.128952
v -1.455127 -0.017151 0.127039
v -1.455686 -0.009635 0.124267
v -1.444484 -0.017310 0.123441
v -1.445064 -0.009688 0.120591
v -1.386996 -0.021973 0.091610
v -1.385618 -0.047321 0.099577
v -1.415718 -0.045102 0.111819
v -1.417047 -0.020793 0.104157
v -1.384140 -0.072581 0.107804
v -1.414308 -0.069340 0.119691
v -1.383513 -0.080882 0.110894
v -1.413730 -0.077323 0.122595
v -1.382945 -0.080379 0.112365
v -1.413271 -0.076917 0.123783
v -1.381643 -0.079227 0.115737
v -1.412220 -0.075986 0.126506
v -1.380314 -0.078050 0.119179
v -1.411146 -0.075036 0.129286
v -1.379664 -0.077475 0.120862
v -1.410622 -0.074572 0.130645
v -1.379907 -0.068834 0.118766
v -1.410890 -0.066314 0.128543
v -1.412197 -0.041986 0.120938
v -1.413629 -0.017768 0.113009
v -1.410890 -0.066314 0.128543
v -1.379907 -0.068834 0.118766
v -1.381257 -0.043461 0.110870
v -1.382762 -0.018226 0.102572
v -1.414274 -0.009843 0.109933
v -1.414798 -0.010307 0.108574
v -1.413629 -0.017768 0.113009
v -1.382762 -0.018226 0.102572
v -1.383471 -0.009997 0.099271
v -1.384121 -0.010573 0.097588
v -1.415872 -0.011257 0.105794
v -1.416924 -0.012188 0.103071
v -1.385450 -0.011749 0.094145
v -1.386752 -0.012902 0.090773
v -1.417382 -0.012594 0.101883
v -1.387321 -0.013404 0.089302
v -1.375203 -0.048089 0.095341
v -1.376597 -0.022381 0.087269
v -1.373702 -0.073702 0.103691
v -1.372452 -0.081577 0.108414
v -1.373058 -0.082113 0.106845
v -1.369645 -0.079093 0.115682
v -1.371064 -0.080348 0.112011
v -1.369187 -0.069706 0.115383
v -1.368952 -0.078479 0.117478
v -1.370552 -0.043972 0.107387
v -1.372082 -0.018385 0.098961
v -1.369187 -0.069706 0.115383
v -1.369300 -0.063132 0.112982
v -1.370194 -0.044067 0.107028
v -1.371445 -0.025104 0.100814
v -1.372813 -0.010051 0.095582
v -1.373506 -0.010664 0.093787
v -1.372082 -0.018385 0.098961
v -1.374924 -0.011919 0.090115
v -1.376313 -0.013148 0.086518
v -1.376919 -0.013685 0.084949
vt 0.569160 0.157734
vt 0.384791 0.156409
vt 0.384855 0.164279
vt 0.564277 0.165130
vt 0.200412 0.157250
vt 0.205421 0.165093
vt 0.252632 0.167186
vt 0.384832 0.167137
vt 0.517031 0.167207
vt 0.545733 0.687515
vt 0.377005 0.684238
vt 0.375870 0.759393
vt 0.543916 0.763279
vt 0.208268 0.681256
vt 0.207814 0.756128
vt 0.251064 0.759067
vt 0.375841 0.762019
vt 0.500623 0.764371
vt 0.375820 0.763987
vt 0.544774 0.766735
vt 0.206880 0.759563
vt 0.204697 0.763821
vt 0.375789 0.768602
vt 0.546916 0.771148
vt 0.728474 0.714727
vt 0.853474 0.714727
vt 0.853474 0.713131
vt 0.728474 0.713131
vt 0.978474 0.714727
vt 0.978474 0.713131
vt 0.978474 0.711534
vt 0.853474 0.681518
vt 0.728474 0.711534
vt 0.150691 0.680631
vt 0.150873 0.755855
vt 0.145226 0.682109
vt 0.146990 0.759237
vt 0.604725 0.769025
vt 0.600826 0.765415
vt 0.608798 0.690801
vt 0.603284 0.689024
vt 0.592090 0.123575
vt 0.384323 0.119729
vt 0.384554 0.138481
vt 0.580651 0.140994
vt 0.176560 0.120501
vt 0.188455 0.139216
vt 0.132828 0.685434
vt 0.138109 0.766936
vt 0.120096 0.688751
vt 0.129109 0.774767
vt 0.194578 0.783570
vt 0.199630 0.773529
vt 0.375731 0.779165
vt 0.551929 0.781286
vt 0.375659 0.790127
vt 0.556903 0.791758
vt 0.622862 0.785781
vt 0.613739 0.777335
vt 0.634372 0.698962
vt 0.621417 0.694885
vt 0.665196 0.105640
vt 0.384335 0.103249
vt 0.384282 0.109387
vt 0.596818 0.114143
vt 0.103474 0.100859
vt 0.171743 0.110611
vt 0.113632 0.690204
vt 0.124867 0.778549
vt 0.111744 0.766982
vt 0.123005 0.780306
vt 0.134266 0.793630
vt 0.192442 0.788824
vt 0.375586 0.795937
vt 0.558928 0.797168
vt 0.375514 0.799170
vt 0.616761 0.804709
vt 0.628876 0.791602
vt 0.627093 0.789799
vt 0.640991 0.778495
vt 0.640893 0.700724
vt 0.559408 0.245182
vt 0.383679 0.245143
vt 0.380343 0.464684
vt 0.552360 0.466344
vt 0.207958 0.244231
vt 0.208326 0.462736
vt 0.147424 0.242709
vt 0.149228 0.461660
vt 0.139104 0.237333
vt 0.141963 0.459693
vt 0.120029 0.224858
vt 0.125444 0.455073
vt 0.100387 0.212509
vt 0.108385 0.450552
vt 0.090366 0.207511
vt 0.099502 0.448879
vt 0.077672 0.130278
vt 0.094708 0.448630
vt 0.853474 0.589872
vt 0.728474 0.589872
vt 0.978474 0.589872
vt 0.978474 0.468211
vt 0.853474 0.498191
vt 0.728474 0.468211
vt 0.661140 0.456839
vt 0.652264 0.458068
vt 0.665933 0.456716
vt 0.690874 0.134936
vt 0.676202 0.212899
vt 0.666276 0.217327
vt 0.635218 0.461506
vt 0.618712 0.465041
vt 0.646956 0.228250
vt 0.628199 0.239294
vt 0.611454 0.466559
vt 0.619965 0.244085
vt 0.384808 0.170026
vt 0.562489 0.169443
vt 0.207138 0.169400
vt 0.138552 0.160371
vt 0.146216 0.167545
vt 0.102513 0.126960
vt 0.120656 0.143790
vt 0.090573 0.115568
vt 0.094109 0.119037
vt 0.853474 0.466469
vt 0.728474 0.466469
vt 0.978474 0.466469
vt 0.978474 0.464727
vt 0.853474 0.464727
vt 0.728474 0.464727
vt 0.674443 0.123657
vt 0.666146 0.130969
vt 0.678035 0.120288
vt 0.648442 0.146165
vt 0.630988 0.161111
vt 0.623443 0.167670
vn 0.935788 -0.029481 -0.351328
vn 0.937740 -0.056744 -0.342671
vn 0.870734 -0.105173 -0.480376
vn 0.732077 -0.138715 -0.666949
vn 0.938872 -0.083993 -0.333862
vn 0.735516 -0.199082 -0.647598
vn 0.435326 -0.259166 -0.862162
vn 0.407040 -0.257460 -0.876375
vn 0.380420 -0.255133 -0.888925
vn -0.378183 -0.283952 -0.881106
vn -0.378055 -0.301267 -0.875393
vn -0.461660 -0.294104 -0.836883
vn -0.595556 -0.257010 -0.761091
vn -0.376693 -0.318712 -0.869785
vn -0.593552 -0.293462 -0.749384
vn -0.788346 -0.232349 -0.569671
vn -0.832481 -0.210733 -0.512412
vn -0.819732 -0.211217 -0.532379
vn -0.994665 -0.023447 0.100460
vn -0.987317 -0.070997 -0.141999
vn -0.984255 -0.125508 -0.124455
vn -0.935710 0.028838 0.351590
vn -0.937746 0.056732 0.342658
vn -0.938877 0.084675 0.333677
vn -0.064554 0.305328 0.950056
vn 0.034026 0.307235 0.951025
vn 0.172736 0.309370 0.935122
vn 0.296524 0.311426 0.902822
vn -0.115791 0.289700 0.950088
vn 0.297393 0.301211 0.905996
vn 0.309000 0.300401 0.902374
vn 0.308008 0.305427 0.901025
vn 0.308196 0.311341 0.898933
vn -0.252402 -0.890240 -0.379166
vn -0.708471 -0.695312 -0.120871
vn 0.012018 -0.947603 0.319223
vn -0.622157 -0.635350 0.457439
vn -0.698349 0.715311 0.025258
vn -0.771412 0.420245 -0.477826
vn -0.095197 0.952638 -0.288823
vn -0.328893 0.474622 -0.816433
vn 0.935793 -0.029489 -0.351314
vn 0.937753 -0.056730 -0.342638
vn 0.937699 -0.056771 -0.342778
vn 0.935809 -0.029460 -0.351274
vn 0.938870 -0.083984 -0.333870
vn 0.938878 -0.083998 -0.333845
vn 0.012019 -0.947603 0.319224
vn -0.622107 -0.635402 0.457435
vn 0.012018 -0.947603 0.319223
vn -0.622150 -0.635360 0.457437
vn -0.935718 0.028818 0.351570
vn -0.935760 0.028785 0.351462
vn -0.937682 0.056798 0.342822
vn -0.938912 0.084643 0.333586
vn -0.937726 0.056751 0.342709
vn -0.938885 0.084678 0.333654
vn -0.698351 0.715312 0.025174
vn -0.698320 0.715341 0.025214
vn -0.095197 0.952638 -0.288823
vn -0.095196 0.952639 -0.288821
vn 0.997017 0.042793 -0.064235
vn 0.988896 0.009508 -0.148308
vn 0.968776 -0.023731 -0.246800
vn 0.995885 0.089695 -0.012980
vn 0.999024 0.039842 -0.019086
vn 0.999728 0.021568 0.008886
vn 0.223459 -0.475839 0.850672
vn -0.324157 -0.358858 0.875296
vn 0.311099 0.255630 0.915353
vn -0.262740 0.243506 0.933634
vn -0.663376 0.188192 0.724235
vn -0.665385 0.161841 0.728746
vn -0.860820 0.109854 0.496911
vn -0.668907 0.222998 0.709109
vn -0.755654 0.159500 0.635254
vn -0.618965 0.215736 0.755209
vn -0.266560 0.316661 0.910314
vn -0.387582 0.763886 0.516003
vn 0.304276 0.353871 0.884416
vn 0.144690 0.900439 0.410213
vn -0.379398 -0.274996 -0.883422
vn -0.378068 -0.301286 -0.875380
vn -0.378013 -0.301247 -0.875418
vn -0.378959 -0.279134 -0.882312
vn -0.375986 -0.327486 -0.866826
vn -0.376439 -0.323143 -0.868258
vn -0.249605 -0.893735 -0.372740
vn -0.251191 -0.892108 -0.375560
vn 0.012018 -0.947603 0.319224
vn 0.012018 -0.947603 0.319224
vn 0.012018 -0.947603 0.319223
vn 0.012019 -0.947603 0.319225
vn 0.012018 -0.947604 0.319222
vn 0.012017 -0.947605 0.319219
vn 0.219828 -0.487129 0.845210
vn 0.221814 -0.481527 0.847898
vn 0.309821 0.232381 0.921960
vn 0.311084 0.243011 0.918789
vn 0.308084 0.305382 0.901014
vn 0.308092 0.312712 0.898493
vn 0.308878 0.299118 0.902842
vn 0.308929 0.297829 0.903250
vn 0.307981 0.305455 0.901024
vn 0.308154 0.313859 0.898072
vn 0.143358 0.903451 0.404011
vn -0.095197 0.952637 -0.288824
vn 0.304382 0.365090 0.879808
vn 0.303027 0.376297 0.875543
vn 0.141929 0.905972 0.398838
vn -0.095197 0.952637 -0.288824
vn -0.095197 0.952638 -0.288822
vn -0.095196 0.952638 -0.288822
vn -0.095196 0.952638 -0.288822
vn -0.095197 0.952638 -0.288822
vn -0.328644 0.478113 -0.814495
vn -0.327805 0.481569 -0.812795
vn -0.221322 -0.307928 -0.925309
vn 0.009919 -0.273499 -0.961821
vn 0.013404 -0.334540 -0.942286
vn 0.670216 -0.742148 -0.005156
vn 0.345330 -0.789826 -0.506875
vn 0.670268 -0.742101 -0.005191
vn 0.670204 -0.742159 -0.005186
vn 0.892246 0.127939 0.433045
vn 0.736999 -0.452174 0.502366
vn 0.528629 0.284755 0.799667
vn 0.329602 0.313115 0.890686
vn 0.330343 0.296331 0.896137
vn 0.815790 0.210613 0.538636
vn 0.718344 0.246957 0.650380
vn 0.854634 0.211759 0.474088
vn 0.670200 0.731835 0.123489
vn 0.590829 0.665783 -0.455692
vn 0.886133 0.238171 0.397547
vn 0.590765 0.665825 -0.455713
vn 0.590776 0.665833 -0.455687
vn 0.279270 0.380828 -0.881464
f 1/1/1 2/2/2 3/3/3
f 1/1/1 3/3/3 4/4/4
f 2/2/2 5/5/5 6/6/6
f 2/2/2 6/6/6 3/3/3
f 3/3/3 6/6/6 7/7/7
f 3/3/3 7/7/7 8/8/8
f 4/4/4 3/3/3 8/8/8
f 4/4/4 8/8/8 9/9/9
f 10/10/10 11/11/11 12/12/12
f 10/10/10 12/12/12 13/13/13
f 11/11/11 14/14/14 15/15/15
f 11/11/11 15/15/15 12/12/12
f 12/12/12 15/15/15 16/16/16
f 12/12/12 16/16/16 17/17/17
f 13/13/13 12/12/12 17/17/17
f 13/13/13 17/17/17 18/18/18
f 18/18/18 17/17/17 19/19/19
f 18/18/18 19/19/19 20/20/20
f 17/17/17 16/16/16 21/21/21
f 17/17/17 21/21/21 19/19/19
f 19/19/19 21/21/21 22/22/22
f 19/19/19 22/22/22 23/23/23
f 20/20/20 19/19/19 23/23/23
f 20/20/20 23/23/23 24/24/24
f 25/25/25 26/26/26 27/27/27
f 25/25/25 27/27/27 28/28/28
f 26/26/26 29/29/29 30/30/30
f 26/26/26 30/30/30 27/27/27
f 27/27/27 30/30/30 31/31/31
f 27/27/27 31/31/31 32/32/32
f 28/28/28 27/27/27 32/32/32
f 28/28/28 32/32/32 33/33/33
f 14/14/14 34/34/34 35/35/35
f 14/14/14 35/35/35 15/15/15
f 34/34/34 36/36/36 37/37/37
f 34/34/34 37/37/37 35/35/35
f 35/35/35 37/37/37 22/22/22
f 35/35/35 22/22/22 21/21/21
f 15/15/15 35/35/35 21/21/21
f 15/15/15 21/21/21 16/16/16
f 24/24/24 38/38/38 39/39/39
f 24/24/24 39/39/39 20/20/20
f 38/38/38 40/40/40 41/41/41
f 38/38/38 41/41/41 39/39/39
f 39/39/39 41/41/41 10/10/10
f 39/39/39 10/10/10 13/13/13
f 20/20/20 39/39/39 13/13/13
f 20/20/20 13/13/13 18/18/18
f 42/42/42 43/43/43 44/44/44
f 42/42/42 44/44/44 45/45/45
f 43/43/43 46/46/46 47/47/47
f 43/43/43 47/47/47 44/44/44
f 44/44/44 47/47/47 5/5/5
f 44/44/44 5/5/5 2/2/2
f 45/45/45 44/44/44 2/2/2
f 45/45/45 2/2/2 1/1/1
f 36/36/36 48/48/48 49/49/49
f 36/36/36 49/49/49 37/37/37
f 48/48/48 50/50/50 51/51/51
f 48/48/48 51/51/51 49/49/49
f 49/49/49 51/51/51 52/52/52
f 49/49/49 52/52/52 53/53/53
f 37/37/37 49/49/49 53/53/53
f 37/37/37 53/53/53 22/22/22
f 24/24/24 23/23/23 54/54/54
f 24/24/24 54/54/54 55/55/55
f 23/23/23 22/22/22 53/53/53
f 23/23/23 53/53/53 54/54/54
f 54/54/54 53/53/53 52/52/52
f 54/54/54 52/52/52 56/56/56
f 55/55/55 54/54/54 56/56/56
f 55/55/55 56/56/56 57/57/57
f 57/57/57 58/58/58 59/59/59
f 57/57/57 59/59/59 55/55/55
f 58/58/58 60/60/60 61/61/61
f 58/58/58 61/61/61 59/59/59
f 59/59/59 61/61/61 40/40/40
f 59/59/59 40/40/40 38/38/38
f 55/55/55 59/59/59 38/38/38
f 55/55/55 38/38/38 24/24/24
f 62/62/62 63/63/63 64/64/64
f 62/62/62 64/64/64 65/65/65
f 63/63/63 66/66/66 67/67/67
f 63/63/63 67/67/67 64/64/64
f 64/64/64 67/67/67 46/46/46
f 64/64/64 46/46/46 43/43/43
f 65/65/65 64/64/64 43/43/43
f 65/65/65 43/43/43 42/42/42
f 50/50/50 68/68/68 69/69/69
f 50/50/50 69/69/69 51/51/51
f 68/68/68 70/70/70 71/71/71
f 68/68/68 71/71/71 69/69/69
f 69/69/69 71/71/71 72/72/72
f 69/69/69 72/72/72 73/73/73
f 51/51/51 69/69/69 73/73/73
f 51/51/51 73/73/73 52/52/52
f 57/57/57 56/56/56 74/74/74
f 57/57/57 74/74/74 75/75/75
f 56/56/56 52/52/52 73/73/73
f 56/56/56 73/73/73 74/74/74
f 74/74/74 73/73/73 72/72/72
f 74/74/74 72/72/72 76/76/76
f 75/75/75 74/74/74 76/76/76
f 75/75/75 76/76/76 77/77/77
f 77/77/77 78/78/78 79/79/79
f 77/77/77 79/79/79 75/75/75
f 78/78/78 80/80/80 81/81/81
f 78/78/78 81/81/81 79/79/79
f 79/79/79 81/81/81 60/60/60
f 79/79/79 60/60/60 58/58/58
f 75/75/75 79/79/79 58/58/58
f 75/75/75 58/58/58 57/57/57
f 82/82/82 83/83/83 84/84/84
f 82/82/82 84/84/84 85/85/85
f 83/83/83 86/86/86 87/87/87
f 83/83/83 87/87/87 84/84/84
f 84/84/84 87/87/87 14/14/14
f 84/84/84 14/14/14 11/11/11
f 85/85/85 84/84/84 11/11/11
f 85/85/85 11/11/11 10/10/10
f 86/86/86 88/88/88 89/89/89
f 86/86/86 89/89/89 87/87/87
f 88/88/88 90/90/90 91/91/91
f 88/88/88 91/91/91 89/89/89
f 89/89/89 91/91/91 36/36/36
f 89/89/89 36/36/36 34/34/34
f 87/87/87 89/89/89 34/34/34
f 87/87/87 34/34/34 14/14/14
f 90/90/90 92/92/92 93/93/93
f 90/90/90 93/93/93 91/91/91
f 92/92/92 94/94/94 95/95/95
f 92/92/92 95/95/95 93/93/93
f 93/93/93 95/95/95 50/50/50
f 93/93/93 50/50/50 48/48/48
f 91/91/91 93/93/93 48/48/48
f 91/91/91 48/48/48 36/36/36
f 94/94/94 96/96/96 97/97/97
f 94/94/94 97/97/97 95/95/95
f 96/96/96 98/98/98 99/99/99
f 96/96/96 99/99/99 97/97/97
f 97/97/97 99/99/99 70/70/70
f 97/97/97 70/70/70 68/68/68
f 95/95/95 97/97/97 68/68/68
f 95/95/95 68/68/68 50/50/50
f 33/33/33 32/32/32 100/100/100
f 33/33/33 100/100/100 101/101/101
f 32/32/32 31/31/31 102/102/102
f 32/32/32 102/102/102 100/100/100
f 100/100/100 102/102/102 103/103/103
f 100/100/100 103/103/103 104/104/104
f 101/101/101 100/100/100 104/104/104
f 101/101/101 104/104/104 105/105/105
f 60/60/60 81/81/81 106/106/106
f 60/60/60 106/106/106 107/107/107
f 81/81/81 80/80/80 108/108/108
f 81/81/81 108/108/108 106/106/106
f 106/106/106 108/108/108 109/109/109
f 106/106/106 109/109/109 110/110/110
f 107/107/107 106/106/106 110/110/110
f 107/107/107 110/110/110 111/111/111
f 40/40/40 61/61/61 112/112/112
f 40/40/40 112/112/112 113/113/113
f 61/61/61 60/60/60 107/107/107
f 61/61/61 107/107/107 112/112/112
f 112/112/112 107/107/107 111/111/111
f 112/112/112 111/111/111 114/114/114
f 113/113/113 112/112/112 114/114/114
f 113/113/113 114/114/114 115/115/115
f 10/10/10 41/41/41 116/116/116
f 10/10/10 116/116/116 85/85/85
f 41/41/41 40/40/40 113/113/113
f 41/41/41 113/113/113 116/116/116
f 116/116/116 113/113/113 115/115/115
f 116/116/116 115/115/115 117/117/117
f 85/85/85 116/116/116 117/117/117
f 85/85/85 117/117/117 82/82/82
f 9/9/9 8/8/8 118/118/118
f 9/9/9 118/118/118 119/119/119
f 8/8/8 7/7/7 120/120/120
f 8/8/8 120/120/120 118/118/118
f 118/118/118 120/120/120 86/86/86
f 118/118/118 86/86/86 83/83/83
f 119/119/119 118/118/118 83/83/83
f 119/119/119 83/83/83 82/82/82
f 5/5/5 121/121/121 122/122/122
f 5/5/5 122/122/122 6/6/6
f 121/121/121 90/90/90 88/88/88
f 121/121/121 88/88/88 122/122/122
f 122/122/122 88/88/88 86/86/86
f 122/122/122 86/86/86 120/120/120
f 6/6/6 122/122/122 120/120/120
f 6/6/6 120/120/120 7/7/7
f 46/46/46 123/123/123 124/124/124
f 46/46/46 124/124/124 47/47/47
f 123/123/123 94/94/94 92/92/92
f 123/123/123 92/92/92 124/124/124
f 124/124/124 92/92/92 90/90/90
f 124/124/124 90/90/90 121/121/121
f 47/47/47 124/124/124 121/121/121
f 47/47/47 121/121/121 5/5/5
f 66/66/66 125/125/125 126/126/126
f 66/66/66 126/126/126 67/67/67
f 125/125/125 98/98/98 96/96/96
f 125/125/125 96/96/96 126/126/126
f 126/126/126 96/96/96 94/94/94
f 126/126/126 94/94/94 123/123/123
f 67/67/67 126/126/126 123/123/123
f 67/67/67 123/123/123 46/46/46
f 105/105/105 104/104/104 127/127/127
f 105/105/105 127/127/127 128/128/128
f 104/104/104 103/103/103 129/129/129
f 104/104/104 129/129/129 127/127/127
f 127/127/127 129/129/129 130/130/130
f 127/127/127 130/130/130 131/131/131
f 128/128/128 127/127/127 131/131/131
f 128/128/128 131/131/131 132/132/132
f 111/111/111 110/110/110 133/133/133
f 111/111/111 133/133/133 134/134/134
f 110/110/110 109/109/109 135/135/135
f 110/110/110 135/135/135 133/133/133
f 133/133/133 135/135/135 62/62/62
f 133/133/133 62/62/62 65/65/65
f 134/134/134 133/133/133 65/65/65
f 134/134/134 65/65/65 42/42/42
f 115/115/115 114/114/114 136/136/136
f 115/115/115 136/136/136 137/137/137
f 114/114/114 111/111/111 134/134/134
f 114/114/114 134/134/134 136/136/136
f 136/136/136 134/134/134 42/42/42
f 136/136/136 42/42/42 45/45/45
f 137/137/137 136/136/136 45/45/45
f 137/137/137 45/45/45 1/1/1
f 82/82/82 117/117/117 138/138/138
f 82/82/82 138/138/138 119/119/119
f 117/117/117 115/115/115 137/137/137
f 117/117/117 137/137/137 138/138/138
f 138/138/138 137/137/137 1/1/1
f 138/138/138 1/1/1 4/4/4
f 119/119/119 138/138/138 4/4/4
f 119/119/119 4/4/4 9/9/9
