# moteur_cube_moteur_cube1_0_24
v -1.109448 -0.012263 -0.071279
v -1.122196 -0.029681 -0.069031
v -1.130061 -0.027837 -0.079694
v -1.120416 -0.011563 -0.081395
v -1.139359 -0.045273 -0.066005
v -1.142992 -0.042405 -0.077414
v -1.144616 -0.038628 -0.077951
v -1.136751 -0.027837 -0.079625
v -1.129517 -0.011563 -0.080901
v -1.173470 0.042096 -0.059991
v -1.156857 0.047293 -0.062920
v -1.156062 0.044084 -0.075109
v -1.169133 0.039228 -0.072804
v -1.139359 0.042096 -0.066005
v -1.142992 0.039228 -0.077414
v -1.144616 0.035451 -0.077951
v -1.156252 0.039228 -0.076187
v -1.167790 0.035451 -0.073864
v -1.173470 -0.045273 -0.059991
v -1.187979 -0.029681 -0.057432
v -1.182063 -0.027837 -0.070524
v -1.169133 -0.042405 -0.072804
v -1.198072 -0.012263 -0.055653
v -1.191709 -0.011563 -0.068824
v -1.182987 -0.011563 -0.071473
v -1.175753 -0.027837 -0.072748
v -1.167790 -0.038628 -0.073864
v -1.156857 -0.050470 -0.062920
v -1.156062 -0.047261 -0.075109
v -1.156252 -0.042405 -0.076187
v -1.156316 -0.027837 -0.076546
v -1.156316 -0.011563 -0.076546
v -1.195132 -0.059450 0.022329
v -1.159847 -0.065350 0.016303
v -1.149186 -0.042592 0.014675
v -1.210072 -0.042592 0.025159
v -1.119123 -0.059450 0.008927
v -1.088386 -0.042592 0.003703
v -1.059887 -0.017169 -0.001322
v -1.138568 -0.017169 0.012803
v -1.217335 -0.017169 0.026440
v -1.122196 0.026504 -0.069031
v -1.130061 0.024660 -0.079694
v -1.109448 0.009086 -0.071279
v -1.120416 0.008386 -0.081395
v -1.129517 0.008386 -0.080901
v -1.136751 0.024660 -0.079625
v -1.217335 0.013992 0.026440
v -1.138568 0.013992 0.012803
v -1.149186 0.039415 0.014675
v -1.210072 0.039415 0.025159
v -1.059887 0.013992 -0.001322
v -1.088386 0.039415 0.003703
v -1.119123 0.056273 0.008927
v -1.159847 0.062173 0.016303
v -1.195132 0.056273 0.022329
v -1.198072 0.009086 -0.055653
v -1.187979 0.026504 -0.057432
v -1.182063 0.024660 -0.070524
v -1.191709 0.008386 -0.068824
v -1.175753 0.024660 -0.072748
v -1.182987 0.008386 -0.071473
v -1.156316 0.008386 -0.076546
v -1.156316 0.024660 -0.076546
v -1.105199 -0.001589 -0.072028
v -1.117200 -0.001589 -0.081962
v -1.127106 -0.001589 -0.081326
v -1.135029 -0.001589 0.012179
v -1.219756 -0.001589 0.026867
v -1.050387 -0.001589 -0.002997
v -1.201436 -0.001589 -0.055059
v -1.194924 -0.001589 -0.068257
v -1.185399 -0.001589 -0.071048
v -1.156316 -0.001589 -0.076546
v -1.118600 -0.062482 -0.003416
v -1.162660 -0.069726 0.004353
v -1.159748 -0.060098 -0.029226
v -1.128969 -0.053877 -0.034653
v -1.200526 -0.062482 0.011030
v -1.186988 -0.053877 -0.024423
v -1.224505 -0.040748 0.015258
v -1.206232 -0.035214 -0.021029
v -1.237282 -0.016468 0.017511
v -1.217666 -0.014366 -0.019013
v -1.241541 -0.001589 0.018262
v -1.221478 -0.001589 -0.018341
v -1.237282 0.013291 0.017511
v -1.217666 0.011189 -0.019013
v -1.224505 0.037571 0.015258
v -1.206232 0.032037 -0.021029
v -1.200526 0.059305 0.011030
v -1.186988 0.050700 -0.024423
v -1.162660 0.066549 0.004353
v -1.159748 0.056921 -0.029226
v -1.118600 0.059305 -0.003416
v -1.128969 0.050700 -0.034653
v -1.076039 0.037571 -0.010921
v -1.099107 0.032037 -0.039918
v -1.044680 0.013291 -0.016450
v -1.077054 0.011189 -0.043807
v -1.034227 -0.001589 -0.018293
v -1.069703 -0.001589 -0.045103
v -1.044680 -0.016468 -0.016450
v -1.077054 -0.014366 -0.043807
v -1.076039 -0.040748 -0.010921
v -1.099107 -0.035214 -0.039918
v -1.195132 -0.059450 0.022329
v -1.204924 -0.065350 0.023497
v -1.163516 -0.072936 0.016196
v -1.159847 -0.065350 0.016303
v -1.115028 -0.065350 0.007646
v -1.119123 -0.059450 0.008927
v -1.217335 -0.017169 0.026440
v -1.243706 -0.017169 0.030336
v -1.230482 -0.042592 0.028004
v -1.210072 -0.042592 0.025159
v -1.217335 0.013992 0.026440
v -1.243706 0.013992 0.030336
v -1.248114 -0.001589 0.031113
v -1.219756 -0.001589 0.026867
v -1.195132 0.056273 0.022329
v -1.204924 0.062173 0.023497
v -1.230482 0.039415 0.028004
v -1.210072 0.039415 0.025159
v -1.119123 0.056273 0.008927
v -1.115028 0.062173 0.007646
v -1.163516 0.069759 0.016196
v -1.159847 0.062173 0.016303
v -1.059887 0.013992 -0.001322
v -1.033774 0.013992 -0.006681
v -1.068235 0.039415 -0.000605
v -1.088386 0.039415 0.003703
v -1.059887 -0.017169 -0.001322
v -1.033774 -0.017169 -0.006681
v -1.022288 -0.001589 -0.008706
v -1.050387 -0.001589 -0.002997
v -1.068235 -0.042592 -0.000605
v -1.088386 -0.042592 0.003703
v -1.017397 -0.012263 0.450770
v -1.024170 -0.011563 0.464440
v -1.033816 -0.027837 0.466141
v -1.030145 -0.029681 0.453017
v -1.032892 -0.011563 0.467090
v -1.040126 -0.027837 0.468365
v -1.048089 -0.038628 0.469481
v -1.046746 -0.042405 0.468421
v -1.047308 -0.045273 0.456044
v -1.081418 0.042096 0.462058
v -1.072887 0.039228 0.473031
v -1.059817 0.044084 0.470726
v -1.064806 0.047293 0.459129
v -1.071263 0.035451 0.473567
v -1.059627 0.039228 0.471804
v -1.048089 0.035451 0.469481
v -1.046746 0.039228 0.468421
v -1.047308 0.042096 0.456044
v -1.081418 -0.045273 0.462058
v -1.072887 -0.042405 0.473031
v -1.085818 -0.027837 0.475311
v -1.095927 -0.029681 0.464617
v -1.071263 -0.038628 0.473567
v -1.079128 -0.027837 0.475242
v -1.086362 -0.011563 0.476518
v -1.095463 -0.011563 0.477011
v -1.106020 -0.012263 0.466396
v -1.059817 -0.047261 0.470726
v -1.064806 -0.050470 0.459129
v -1.059627 -0.042405 0.471804
v -1.059563 -0.027837 0.472163
v -1.059563 -0.011563 0.472163
v -1.130441 -0.059450 0.389211
v -1.145448 -0.042592 0.391661
v -1.084648 -0.042592 0.380689
v -1.095223 -0.065350 0.382805
v -1.152711 -0.017169 0.392942
v -1.074030 -0.017169 0.378817
v -0.995263 -0.017169 0.365180
v -1.023762 -0.042592 0.370205
v -1.054432 -0.059450 0.375808
v -1.033816 0.024660 0.466141
v -1.030145 0.026504 0.453017
v -1.040126 0.024660 0.468365
v -1.032892 0.008386 0.467090
v -1.024170 0.008386 0.464440
v -1.017397 0.009086 0.450770
v -1.152711 0.013992 0.392942
v -1.145448 0.039415 0.391661
v -1.084648 0.039415 0.380689
v -1.074030 0.013992 0.378817
v -1.130441 0.056273 0.389211
v -1.095223 0.062173 0.382805
v -1.054432 0.056273 0.375808
v -1.023762 0.039415 0.370205
v -0.995263 0.013992 0.365180
v -1.106020 0.009086 0.466396
v -1.095463 0.008386 0.477011
v -1.085818 0.024660 0.475311
v -1.095927 0.026504 0.464617
v -1.086362 0.008386 0.476518
v -1.079128 0.024660 0.475242
v -1.059563 0.024660 0.472163
v -1.059563 0.008386 0.472163
v -1.020955 -0.001589 0.463874
v -1.013148 -0.001589 0.450020
v -1.030480 -0.001589 0.466664
v -1.155132 -0.001589 0.393369
v -1.070490 -0.001589 0.378193
v -0.985763 -0.001589 0.363505
v -1.098678 -0.001589 0.477578
v -1.109384 -0.001589 0.466989
v -1.088773 -0.001589 0.476943
v -1.059563 -0.001589 0.472163
v -1.049645 -0.062482 0.387642
v -1.048487 -0.053877 0.421785
v -1.079266 -0.060098 0.427212
v -1.093706 -0.069726 0.395411
v -1.106505 -0.053877 0.432016
v -1.131572 -0.062482 0.402088
v -1.125749 -0.035214 0.435409
v -1.155551 -0.040748 0.406316
v -1.137184 -0.014366 0.437425
v -1.168328 -0.016468 0.408569
v -1.140996 -0.001589 0.438097
v -1.172587 -0.001589 0.409320
v -1.137184 0.011189 0.437425
v -1.168328 0.013291 0.408569
v -1.125749 0.032037 0.435409
v -1.155551 0.037571 0.406316
v -1.106505 0.050700 0.432016
v -1.131572 0.059305 0.402088
v -1.079266 0.056921 0.427212
v -1.093706 0.066549 0.395411
v -1.048487 0.050700 0.421785
v -1.049645 0.059305 0.387642
v -1.018625 0.032037 0.416520
v -1.007084 0.037571 0.380138
v -0.996572 0.011189 0.412631
v -0.975726 0.013291 0.374608
v -0.989221 -0.001589 0.411335
v -0.965273 -0.001589 0.372765
v -0.996572 -0.014366 0.412631
v -0.975726 -0.016468 0.374608
v -1.018625 -0.035214 0.416520
v -1.007084 -0.040748 0.380138
v -1.130441 -0.059450 0.389211
v -1.095223 -0.065350 0.382805
v -1.098633 -0.072936 0.384161
v -1.140042 -0.065350 0.391462
v -1.054432 -0.059450 0.375808
v -1.050146 -0.065350 0.375611
v -1.152711 -0.017169 0.392942
v -1.145448 -0.042592 0.391661
v -1.165599 -0.042592 0.395969
v -1.178823 -0.017169 0.398300
v -1.152711 0.013992 0.392942
v -1.155132 -0.001589 0.393369
v -1.183232 -0.001589 0.399078
v -1.178823 0.013992 0.398300
v -1.130441 0.056273 0.389211
v -1.145448 0.039415 0.391661
v -1.165599 0.039415 0.395969
v -1.140042 0.062173 0.391462
v -1.054432 0.056273 0.375808
v -1.095223 0.062173 0.382805
v -1.098633 0.069759 0.384161
v -1.050146 0.062173 0.375611
v -0.995263 0.013992 0.365180
v -1.023762 0.039415 0.370205
v -1.003352 0.039415 0.367360
v -0.968892 0.013992 0.361284
v -0.995263 -0.017169 0.365180
v -0.985763 -0.001589 0.363505
v -0.957405 -0.001589 0.359259
v -0.968892 -0.017169 0.361284
v -1.023762 -0.042592 0.370205
v -1.003352 -0.042592 0.367360
vt 0.350756 0.460712
vt 0.386447 0.428638
vt 0.371842 0.407223
vt 0.344881 0.430912
vt 0.417591 0.386520
vt 0.395851 0.377674
vt 0.388555 0.375312
vt 0.370318 0.392792
vt 0.343555 0.410653
vt 0.233648 0.312080
vt 0.224025 0.350471
vt 0.246371 0.356157
vt 0.252001 0.331404
vt 0.235707 0.390889
vt 0.257264 0.381111
vt 0.264064 0.378660
vt 0.256436 0.356182
vt 0.260553 0.333899
vt 0.414573 0.306959
vt 0.381932 0.273767
vt 0.371278 0.300136
vt 0.396961 0.326806
vt 0.345732 0.250976
vt 0.342054 0.279667
vt 0.341583 0.299976
vt 0.369793 0.314502
vt 0.388878 0.329807
vt 0.426713 0.345252
vt 0.404688 0.351761
vt 0.394600 0.352140
vt 0.369554 0.353636
vt 0.342270 0.355323
vt 0.021431 0.122137
vt 0.072944 0.122137
vt 0.072944 0.104966
vt 0.021431 0.104966
vt 0.124457 0.122137
vt 0.124457 0.104966
vt 0.124457 0.087795
vt 0.072944 0.087795
vt 0.021431 0.087795
vt 0.268441 0.431623
vt 0.282188 0.409622
vt 0.304959 0.462126
vt 0.309407 0.432173
vt 0.309803 0.411878
vt 0.282944 0.395250
vt 0.021431 0.053453
vt 0.072944 0.053453
vt 0.072944 0.036282
vt 0.021431 0.036282
vt 0.124457 0.053453
vt 0.124457 0.036282
vt 0.124457 0.019111
vt 0.072944 0.019111
vt 0.021431 0.019111
vt 0.300325 0.252650
vt 0.264826 0.277427
vt 0.276647 0.303502
vt 0.305490 0.281216
vt 0.278921 0.317714
vt 0.306942 0.301382
vt 0.308681 0.356608
vt 0.281438 0.356455
vt 0.327996 0.471848
vt 0.327187 0.439249
vt 0.326695 0.417013
vt 0.072944 0.070624
vt 0.021431 0.070624
vt 0.124457 0.070624
vt 0.322912 0.243885
vt 0.323709 0.273316
vt 0.324231 0.295536
vt 0.325468 0.356272
vt 0.539283 0.434802
vt 0.548355 0.305371
vt 0.487569 0.325368
vt 0.478422 0.410720
vt 0.509195 0.191304
vt 0.461966 0.249176
vt 0.437294 0.123495
vt 0.409683 0.198626
vt 0.363538 0.090099
vt 0.354663 0.170484
vt 0.318816 0.079270
vt 0.320851 0.161518
vt 0.274668 0.091879
vt 0.287450 0.172225
vt 0.202637 0.128795
vt 0.233668 0.203099
vt 0.134092 0.200105
vt 0.183810 0.256108
vt 0.100406 0.315896
vt 0.162183 0.333215
vt 0.115548 0.444647
vt 0.175626 0.417816
vt 0.193488 0.554840
vt 0.230975 0.493308
vt 0.282869 0.630410
vt 0.293926 0.546369
vt 0.332334 0.655295
vt 0.330174 0.563680
vt 0.380626 0.628419
vt 0.365692 0.544665
vt 0.466492 0.548703
vt 0.426452 0.488749
vt 0.545975 0.143179
vt 0.526315 0.171191
vt 0.570165 0.298523
vt 0.572489 0.298249
vt 0.561116 0.443295
vt 0.599002 0.453318
vt 0.352185 0.047266
vt 0.367047 0.061728
vt 0.447530 0.097160
vt 0.449080 0.095222
vt 0.283898 0.048146
vt 0.269784 0.063551
vt 0.318099 0.050195
vt 0.318041 0.047706
vt 0.095208 0.153726
vt 0.116101 0.180688
vt 0.191197 0.102790
vt 0.189553 0.100936
vt 0.056631 0.466006
vt 0.094001 0.454136
vt 0.078256 0.310020
vt 0.075920 0.309866
vt 0.298773 0.689858
vt 0.278348 0.659755
vt 0.179676 0.576383
vt 0.177702 0.577932
vt 0.367495 0.688867
vt 0.386500 0.657621
vt 0.333086 0.687245
vt 0.333134 0.689363
vt 0.481203 0.569649
vt 0.483249 0.571093
vt 0.744944 0.618046
vt 0.738936 0.646327
vt 0.763815 0.669031
vt 0.778140 0.648801
vt 0.737456 0.665397
vt 0.762234 0.682598
vt 0.779075 0.699308
vt 0.785894 0.697194
vt 0.806951 0.688978
vt 0.632954 0.757150
vt 0.650818 0.739010
vt 0.645971 0.715727
vt 0.624397 0.720815
vt 0.658897 0.736787
vt 0.655387 0.715809
vt 0.662850 0.694751
vt 0.656566 0.692410
vt 0.635908 0.682784
vt 0.803254 0.764073
vt 0.786529 0.745029
vt 0.762204 0.769856
vt 0.772157 0.795052
vt 0.778963 0.742133
vt 0.760945 0.756324
vt 0.734374 0.769678
vt 0.734595 0.788817
vt 0.737812 0.816168
vt 0.793945 0.721667
vt 0.815087 0.728059
vt 0.784510 0.721194
vt 0.761116 0.719466
vt 0.735631 0.717526
vt 0.050756 0.984474
vt 0.050756 0.960960
vt 0.121298 0.960960
vt 0.121298 0.984474
vt 0.050756 0.937446
vt 0.121298 0.937446
vt 0.191841 0.937446
vt 0.191841 0.960960
vt 0.191841 0.984474
vt 0.680159 0.665755
vt 0.667168 0.644623
vt 0.680682 0.679290
vt 0.705926 0.663838
vt 0.705787 0.644712
vt 0.701856 0.616162
vt 0.050756 0.890418
vt 0.050756 0.866904
vt 0.121298 0.866904
vt 0.121298 0.890418
vt 0.050756 0.843390
vt 0.121298 0.843390
vt 0.191841 0.843390
vt 0.191841 0.866904
vt 0.191841 0.890418
vt 0.695057 0.814040
vt 0.700332 0.786908
vt 0.673550 0.765561
vt 0.661902 0.790225
vt 0.701940 0.767931
vt 0.675883 0.752222
vt 0.678758 0.715788
vt 0.704224 0.715909
vt 0.722487 0.638229
vt 0.723648 0.607235
vt 0.721769 0.659176
vt 0.050756 0.913932
vt 0.121298 0.913932
vt 0.191841 0.913932
vt 0.717326 0.794580
vt 0.716236 0.822592
vt 0.718071 0.773648
vt 0.719925 0.716415
vt 0.925070 0.644081
vt 0.865993 0.666476
vt 0.873601 0.747541
vt 0.932051 0.767133
vt 0.848299 0.819545
vt 0.893187 0.875109
vt 0.798066 0.866899
vt 0.823843 0.938742
vt 0.745538 0.892955
vt 0.753213 0.969646
vt 0.713349 0.901066
vt 0.710490 0.979434
vt 0.681772 0.890528
vt 0.668577 0.966949
vt 0.631077 0.860636
vt 0.600374 0.931033
vt 0.584319 0.809777
vt 0.535797 0.862442
vt 0.564551 0.736341
vt 0.504762 0.751931
vt 0.578198 0.656225
vt 0.520484 0.629756
vt 0.631688 0.585328
vt 0.596182 0.526174
vt 0.692177 0.535816
vt 0.682474 0.455656
vt 0.726823 0.519855
vt 0.729976 0.432673
vt 0.760352 0.538283
vt 0.775757 0.458702
vt 0.817493 0.591940
vt 0.856880 0.535221
vt 0.927747 0.921282
vt 0.955192 0.774143
vt 0.952997 0.773855
vt 0.909443 0.894427
vt 0.982637 0.627004
vt 0.946230 0.636192
vt 0.741937 1.010282
vt 0.834842 0.965782
vt 0.833398 0.963927
vt 0.756274 0.996709
vt 0.676864 1.008689
vt 0.709401 1.009485
vt 0.709483 1.007128
vt 0.663571 0.993879
vt 0.498164 0.906112
vt 0.587514 0.957400
vt 0.589089 0.955659
vt 0.518273 0.880693
vt 0.464129 0.608546
vt 0.481146 0.757329
vt 0.483358 0.757208
vt 0.499815 0.620398
vt 0.698415 0.399384
vt 0.581272 0.503965
vt 0.583117 0.505459
vt 0.678469 0.427661
vt 0.763879 0.401136
vt 0.731147 0.400260
vt 0.731076 0.402271
vt 0.781751 0.430965
vt 0.873258 0.514070
vt 0.871309 0.515417
vn 0.595105 -0.396308 -0.699135
vn 0.571207 -0.607008 -0.552507
vn 0.344364 -0.381628 -0.857772
vn 0.325945 -0.230264 -0.916918
vn 0.393419 -0.843592 -0.365478
vn 0.252914 -0.602434 -0.757039
vn -0.087766 -0.109573 -0.990096
vn -0.081843 -0.074108 -0.993886
vn -0.105607 -0.026067 -0.994066
vn -0.534156 0.760552 -0.369104
vn -0.035092 0.958909 -0.281535
vn -0.070941 0.742317 -0.666283
vn -0.466199 0.555531 -0.688508
vn 0.413137 0.837134 -0.358503
vn 0.269902 0.610266 -0.744801
vn -0.082442 0.122565 -0.989030
vn -0.169435 0.141451 -0.975338
vn -0.256160 0.109574 -0.960404
vn -0.528654 -0.768198 -0.361106
vn -0.748941 -0.508910 -0.424379
vn -0.597778 -0.346684 -0.722822
vn -0.460022 -0.567442 -0.682927
vn -0.832067 -0.332105 -0.444265
vn -0.631213 -0.228029 -0.741332
vn -0.245013 -0.031011 -0.969024
vn -0.267620 -0.072788 -0.960771
vn -0.260798 -0.122565 -0.957582
vn -0.070512 -0.954826 -0.288680
vn -0.101062 -0.737418 -0.667833
vn -0.174369 -0.141450 -0.974468
vn -0.171042 -0.014996 -0.985150
vn -0.172741 -0.000835 -0.984967
vn 0.169146 -0.013522 0.985498
vn 0.170994 -0.010308 0.985218
vn 0.173245 -0.005737 0.984862
vn 0.170204 -0.004971 0.985396
vn 0.181975 -0.027186 0.982927
vn 0.177882 -0.006906 0.984028
vn 0.176838 -0.002275 0.984237
vn 0.173659 -0.000207 0.984806
vn 0.170707 -0.000573 0.985322
vn 0.573842 0.618189 -0.537166
vn 0.357163 0.393181 -0.847256
vn 0.597744 0.417667 -0.684293
vn 0.335305 0.248488 -0.908749
vn -0.101188 0.031011 -0.994384
vn -0.077123 0.072788 -0.994361
vn 0.170319 0.000487 0.985389
vn 0.174088 0.000420 0.984730
vn 0.174553 0.006535 0.984626
vn 0.169007 0.005166 0.985601
vn 0.176552 0.002148 0.984289
vn 0.176989 0.005837 0.984196
vn 0.178168 0.017718 0.983841
vn 0.172939 0.011652 0.984864
vn 0.165212 0.019111 0.986073
vn -0.832028 0.334108 -0.442833
vn -0.753393 0.498953 -0.428305
vn -0.600402 0.348321 -0.719854
vn -0.634473 0.230323 -0.737832
vn -0.263022 0.074108 -0.961939
vn -0.240753 0.026067 -0.970236
vn -0.174555 0.000835 -0.984647
vn -0.176214 0.014996 -0.984238
vn 0.629525 0.011925 -0.776889
vn 0.373847 0.009121 -0.927446
vn -0.103962 0.001614 -0.994580
vn 0.174072 0.000025 0.984733
vn 0.170719 -0.000059 0.985320
vn 0.176572 0.000039 0.984288
vn -0.885638 0.001211 -0.464375
vn -0.692248 0.000060 -0.721659
vn -0.242474 -0.001614 -0.970157
vn -0.173648 0.000000 -0.984808
vn 0.246553 -0.914957 -0.319477
vn -0.062463 -0.958578 -0.277897
vn -0.072348 -0.953441 -0.292772
vn 0.287383 -0.893393 -0.345342
vn -0.459599 -0.809641 -0.365034
vn -0.481257 -0.792462 -0.374693
vn -0.738179 -0.517612 -0.432631
vn -0.736756 -0.512159 -0.441456
vn -0.838739 -0.305600 -0.450695
vn -0.829263 -0.312203 -0.463522
vn -0.884019 -0.000112 -0.467451
vn -0.876627 0.001055 -0.481170
vn -0.837650 0.304989 -0.453127
vn -0.828815 0.313940 -0.463150
vn -0.738810 0.517762 -0.431372
vn -0.741123 0.503423 -0.444187
vn -0.458982 0.813802 -0.356457
vn -0.484449 0.790508 -0.374709
vn -0.058690 0.959114 -0.276869
vn -0.050303 0.956118 -0.288631
vn 0.245406 0.908703 -0.337690
vn 0.299346 0.885002 -0.356599
vn 0.412702 0.772701 -0.482296
vn 0.463952 0.722333 -0.512819
vn 0.501855 0.589371 -0.633075
vn 0.532256 0.530243 -0.659959
vn 0.623310 -0.003172 -0.781968
vn 0.613669 0.010329 -0.789496
vn 0.511530 -0.597781 -0.617248
vn 0.537788 -0.515926 -0.666786
vn 0.419422 -0.784416 -0.456921
vn 0.470403 -0.722508 -0.506659
vn 0.153445 -0.061169 0.986262
vn -0.346863 -0.780658 0.519865
vn 0.060719 -0.848497 0.525705
vn 0.175429 -0.097701 0.979632
vn 0.350615 -0.801118 0.485056
vn 0.196066 -0.076680 0.977588
vn 0.144247 -0.009255 0.989498
vn -0.757892 -0.329424 0.563098
vn -0.646194 -0.537909 0.541375
vn 0.138567 -0.029949 0.989900
vn 0.146703 0.006910 0.989156
vn -0.758386 0.328399 0.563032
vn -0.843751 -0.001069 0.536733
vn 0.147433 -0.000659 0.989072
vn 0.151028 0.056417 0.986918
vn -0.349705 0.780002 0.518945
vn -0.643587 0.543417 0.538975
vn 0.139426 0.032997 0.989683
vn 0.193712 0.079032 0.977870
vn 0.345405 0.800926 0.489093
vn 0.057911 0.849241 0.524820
vn 0.179006 0.099267 0.978827
vn 0.202157 0.032504 0.978814
vn 0.724430 0.609693 0.321677
vn 0.542220 0.723048 0.428016
vn 0.208300 0.067441 0.975737
vn 0.200591 -0.027609 0.979286
vn 0.726284 -0.610797 0.315338
vn 0.989558 -0.003956 0.144084
vn 0.199724 0.000980 0.979852
vn 0.544671 -0.726540 0.418896
vn 0.207819 -0.070229 0.975643
vn 0.804522 -0.401080 0.438040
vn 0.625510 -0.233157 0.744563
vn 0.620547 -0.384756 0.683289
vn 0.728150 -0.611130 0.310353
vn 0.240755 -0.026068 0.970236
vn 0.263024 -0.074111 0.961939
vn 0.256162 -0.109575 0.960403
vn 0.497916 -0.604990 0.621343
vn 0.494735 -0.845863 0.199382
vn -0.381745 0.765862 0.517422
vn -0.206734 0.559625 0.802546
vn 0.159620 0.745024 0.647658
vn 0.061179 0.961498 0.267917
vn 0.087763 0.109579 0.990096
vn 0.174370 0.141455 0.974467
vn 0.260799 0.122569 0.957581
vn 0.509561 0.612761 0.604046
vn 0.510635 0.839366 0.186323
vn -0.379342 -0.773133 0.508297
vn -0.202914 -0.571309 0.795256
vn -0.320562 -0.350447 0.880015
vn -0.568204 -0.514193 0.642457
vn 0.082439 -0.122568 0.989030
vn 0.077120 -0.072791 0.994361
vn 0.101185 -0.031011 0.994384
vn -0.346647 -0.230841 0.909147
vn -0.641243 -0.336120 0.689805
vn 0.132186 -0.740299 0.659155
vn 0.030897 -0.957709 0.286076
vn 0.169436 -0.141453 0.975337
vn 0.176214 -0.014996 0.984238
vn 0.174555 -0.000835 0.984647
vn -0.178115 -0.013522 -0.983917
vn -0.177086 -0.004971 -0.984183
vn -0.174045 -0.005737 -0.984721
vn -0.176283 -0.010308 -0.984286
vn -0.176587 -0.000573 -0.984285
vn -0.173638 -0.000207 -0.984810
vn -0.170456 -0.002273 -0.985363
vn -0.169403 -0.006906 -0.985523
vn -0.165181 -0.027187 -0.985889
vn 0.629003 0.396075 0.668940
vn 0.725386 0.621780 0.295304
vn 0.267622 0.072793 0.960770
vn 0.245018 0.031010 0.969023
vn 0.631442 0.251266 0.733585
vn 0.801668 0.421972 0.423401
vn -0.176975 0.000487 -0.984215
vn -0.178281 0.005166 -0.983966
vn -0.172735 0.006535 -0.984947
vn -0.173208 0.000421 -0.984885
vn -0.182009 0.019111 -0.983111
vn -0.174333 0.011652 -0.984618
vn -0.169070 0.017717 -0.985445
vn -0.170300 0.005838 -0.985375
vn -0.170742 0.002147 -0.985313
vn -0.641662 0.338093 0.688450
vn -0.350894 0.233116 0.906934
vn -0.324035 0.352117 0.878074
vn -0.571126 0.504398 0.647609
vn 0.105604 0.026069 0.994067
vn 0.081841 0.074109 0.993886
vn 0.171042 0.014996 0.985150
vn 0.172741 0.000835 0.984967
vn 0.675538 0.009082 0.737269
vn 0.866503 0.011828 0.499031
vn 0.242476 0.001614 0.970156
vn -0.176576 -0.000059 -0.984287
vn -0.173224 0.000025 -0.984882
vn -0.170723 0.000039 -0.985319
vn -0.411936 0.000049 0.911213
vn -0.686336 0.001199 0.727283
vn 0.103960 -0.001615 0.994580
vn 0.173648 0.000000 0.984808
vn 0.340084 -0.917418 0.206606
vn 0.387585 -0.896071 0.216415
vn 0.030445 -0.956568 0.289914
vn 0.034666 -0.961326 0.273221
vn -0.330094 -0.797993 0.504227
vn -0.312347 -0.814906 0.488229
vn -0.551559 -0.517961 0.653834
vn -0.555386 -0.523182 0.646396
vn -0.633005 -0.316379 0.706547
vn -0.645768 -0.309398 0.698037
vn -0.672955 0.001045 0.739682
vn -0.683867 -0.000108 0.729607
vn -0.632700 0.318096 0.706049
vn -0.643940 0.308804 0.699987
vn -0.554790 0.509374 0.657834
vn -0.556412 0.523325 0.645397
vn -0.332982 0.796145 0.505248
vn -0.314683 0.818912 0.479957
vn 0.049404 0.959044 0.278914
vn 0.037785 0.961817 0.271073
vn 0.402472 0.887941 0.222658
vn 0.345190 0.911401 0.224035
vn 0.612807 0.727044 0.309636
vn 0.553280 0.777254 0.299595
vn 0.730965 0.535866 0.422537
vn 0.691962 0.595292 0.408432
vn 0.856598 0.010216 0.515884
vn 0.862514 -0.003091 0.506024
vn 0.738493 -0.521902 0.426903
vn 0.695461 -0.603403 0.390179
vn 0.616551 -0.727169 0.301811
vn 0.550877 -0.788477 0.273566
vn -0.193130 -0.061169 -0.979265
vn -0.170204 -0.097701 -0.980553
vn -0.122778 -0.846071 -0.518738
vn -0.502390 -0.778519 -0.376181
vn -0.150112 -0.076684 -0.985691
vn 0.162026 -0.798882 -0.579253
vn -0.202880 -0.009255 -0.979160
vn -0.208356 -0.029949 -0.977595
vn -0.790663 -0.536407 -0.295159
vn -0.902791 -0.328367 -0.277749
vn -0.200456 0.006909 -0.979678
vn -0.199741 -0.000659 -0.979849
vn -0.974737 -0.001053 -0.223353
vn -0.903230 0.327347 -0.277525
vn -0.195626 0.056416 -0.979054
vn -0.207473 0.032997 -0.977684
vn -0.787446 0.541868 -0.293782
vn -0.504706 0.777903 -0.374351
vn -0.152419 0.079036 -0.985151
vn -0.166568 0.099266 -0.981020
vn -0.125091 0.846812 -0.516974
vn 0.155792 0.798658 -0.581270
vn -0.144809 0.032503 -0.988926
vn -0.137986 0.067438 -0.988136
vn 0.360189 0.720580 -0.592476
vn 0.566559 0.607860 -0.556342
vn -0.146442 -0.027607 -0.988834
vn -0.147450 0.000981 -0.989069
vn 0.877190 -0.003927 -0.480128
vn 0.570414 -0.609090 -0.551033
vn -0.138405 -0.070228 -0.987883
vn 0.365549 -0.724165 -0.584772
f 1/1/1 2/2/2 3/3/3
f 1/1/1 3/3/3 4/4/4
f 2/2/2 5/5/5 6/6/6
f 2/2/2 6/6/6 3/3/3
f 3/3/3 6/6/6 7/7/7
f 3/3/3 7/7/7 8/8/8
f 4/4/4 3/3/3 8/8/8
f 4/4/4 8/8/8 9/9/9
f 10/10/10 11/11/11 12/12/12
f 10/10/10 12/12/12 13/13/13
f 11/11/11 14/14/14 15/15/15
f 11/11/11 15/15/15 12/12/12
f 12/12/12 15/15/15 16/16/16
f 12/12/12 16/16/16 17/17/17
f 13/13/13 12/12/12 17/17/17
f 13/13/13 17/17/17 18/18/18
f 19/19/19 20/20/20 21/21/21
f 19/19/19 21/21/21 22/22/22
f 20/20/20 23/23/23 24/24/24
f 20/20/20 24/24/24 21/21/21
f 21/21/21 24/24/24 25/25/25
f 21/21/21 25/25/25 26/26/26
f 22/22/22 21/21/21 26/26/26
f 22/22/22 26/26/26 27/27/27
f 5/5/5 28/28/28 29/29/29
f 5/5/5 29/29/29 6/6/6
f 28/28/28 19/19/19 22/22/22
f 28/28/28 22/22/22 29/29/29
f 29/29/29 22/22/22 27/27/27
f 29/29/29 27/27/27 30/30/30
f 6/6/6 29/29/29 30/30/30
f 6/6/6 30/30/30 7/7/7
f 7/7/7 30/30/30 31/31/31
f 7/7/7 31/31/31 8/8/8
f 30/30/30 27/27/27 26/26/26
f 30/30/30 26/26/26 31/31/31
f 31/31/31 26/26/26 25/25/25
f 31/31/31 25/25/25 32/32/32
f 8/8/8 31/31/31 32/32/32
f 8/8/8 32/32/32 9/9/9
f 33/33/33 34/34/34 35/35/35
f 33/33/33 35/35/35 36/36/36
f 34/34/34 37/37/37 38/38/38
f 34/34/34 38/38/38 35/35/35
f 35/35/35 38/38/38 39/39/39
f 35/35/35 39/39/39 40/40/40
f 36/36/36 35/35/35 40/40/40
f 36/36/36 40/40/40 41/41/41
f 14/14/14 42/42/42 43/43/43
f 14/14/14 43/43/43 15/15/15
f 42/42/42 44/44/44 45/45/45
f 42/42/42 45/45/45 43/43/43
f 43/43/43 45/45/45 46/46/46
f 43/43/43 46/46/46 47/47/47
f 15/15/15 43/43/43 47/47/47
f 15/15/15 47/47/47 16/16/16
f 48/48/48 49/49/49 50/50/50
f 48/48/48 50/50/50 51/51/51
f 49/49/49 52/52/52 53/53/53
f 49/49/49 53/53/53 50/50/50
f 50/50/50 53/53/53 54/54/54
f 50/50/50 54/54/54 55/55/55
f 51/51/51 50/50/50 55/55/55
f 51/51/51 55/55/55 56/56/56
f 57/57/57 58/58/58 59/59/59
f 57/57/57 59/59/59 60/60/60
f 58/58/58 10/10/10 13/13/13
f 58/58/58 13/13/13 59/59/59
f 59/59/59 13/13/13 18/18/18
f 59/59/59 18/18/18 61/61/61
f 60/60/60 59/59/59 61/61/61
f 60/60/60 61/61/61 62/62/62
f 46/46/46 63/63/63 64/64/64
f 46/46/46 64/64/64 47/47/47
f 63/63/63 62/62/62 61/61/61
f 63/63/63 61/61/61 64/64/64
f 64/64/64 61/61/61 18/18/18
f 64/64/64 18/18/18 17/17/17
f 47/47/47 64/64/64 17/17/17
f 47/47/47 17/17/17 16/16/16
f 44/44/44 65/65/65 66/66/66
f 44/44/44 66/66/66 45/45/45
f 65/65/65 1/1/1 4/4/4
f 65/65/65 4/4/4 66/66/66
f 66/66/66 4/4/4 9/9/9
f 66/66/66 9/9/9 67/67/67
f 45/45/45 66/66/66 67/67/67
f 45/45/45 67/67/67 46/46/46
f 41/41/41 40/40/40 68/68/68
f 41/41/41 68/68/68 69/69/69
f 40/40/40 39/39/39 70/70/70
f 40/40/40 70/70/70 68/68/68
f 68/68/68 70/70/70 52/52/52
f 68/68/68 52/52/52 49/49/49
f 69/69/69 68/68/68 49/49/49
f 69/69/69 49/49/49 48/48/48
f 23/23/23 71/71/71 72/72/72
f 23/23/23 72/72/72 24/24/24
f 71/71/71 57/57/57 60/60/60
f 71/71/71 60/60/60 72/72/72
f 72/72/72 60/60/60 62/62/62
f 72/72/72 62/62/62 73/73/73
f 24/24/24 72/72/72 73/73/73
f 24/24/24 73/73/73 25/25/25
f 9/9/9 32/32/32 74/74/74
f 9/9/9 74/74/74 67/67/67
f 32/32/32 25/25/25 73/73/73
f 32/32/32 73/73/73 74/74/74
f 74/74/74 73/73/73 62/62/62
f 74/74/74 62/62/62 63/63/63
f 67/67/67 74/74/74 63/63/63
f 67/67/67 63/63/63 46/46/46
f 75/75/75 76/76/76 77/77/77
f 75/75/75 77/77/77 78/78/78
f 76/76/76 79/79/79 80/80/80
f 76/76/76 80/80/80 77/77/77
f 77/77/77 80/80/80 19/19/19
f 77/77/77 19/19/19 28/28/28
f 78/78/78 77/77/77 28/28/28
f 78/78/78 28/28/28 5/5/5
f 79/79/79 81/81/81 82/82/82
f 79/79/79 82/82/82 80/80/80
f 81/81/81 83/83/83 84/84/84
f 81/81/81 84/84/84 82/82/82
f 82/82/82 84/84/84 23/23/23
f 82/82/82 23/23/23 20/20/20
f 80/80/80 82/82/82 20/20/20
f 80/80/80 20/20/20 19/19/19
f 83/83/83 85/85/85 86/86/86
f 83/83/83 86/86/86 84/84/84
f 85/85/85 87/87/87 88/88/88
f 85/85/85 88/88/88 86/86/86
f 86/86/86 88/88/88 57/57/57
f 86/86/86 57/57/57 71/71/71
f 84/84/84 86/86/86 71/71/71
f 84/84/84 71/71/71 23/23/23
f 87/87/87 89/89/89 90/90/90
f 87/87/87 90/90/90 88/88/88
f 89/89/89 91/91/91 92/92/92
f 89/89/89 92/92/92 90/90/90
f 90/90/90 92/92/92 10/10/10
f 90/90/90 10/10/10 58/58/58
f 88/88/88 90/90/90 58/58/58
f 88/88/88 58/58/58 57/57/57
f 91/91/91 93/93/93 94/94/94
f 91/91/91 94/94/94 92/92/92
f 93/93/93 95/95/95 96/96/96
f 93/93/93 96/96/96 94/94/94
f 94/94/94 96/96/96 14/14/14
f 94/94/94 14/14/14 11/11/11
f 92/92/92 94/94/94 11/11/11
f 92/92/92 11/11/11 10/10/10
f 95/95/95 97/97/97 98/98/98
f 95/95/95 98/98/98 96/96/96
f 97/97/97 99/99/99 100/100/100
f 97/97/97 100/100/100 98/98/98
f 98/98/98 100/100/100 44/44/44
f 98/98/98 44/44/44 42/42/42
f 96/96/96 98/98/98 42/42/42
f 96/96/96 42/42/42 14/14/14
f 99/99/99 101/101/101 102/102/102
f 99/99/99 102/102/102 100/100/100
f 101/101/101 103/103/103 104/104/104
f 101/101/101 104/104/104 102/102/102
f 102/102/102 104/104/104 1/1/1
f 102/102/102 1/1/1 65/65/65
f 100/100/100 102/102/102 65/65/65
f 100/100/100 65/65/65 44/44/44
f 103/103/103 105/105/105 106/106/106
f 103/103/103 106/106/106 104/104/104
f 105/105/105 75/75/75 78/78/78
f 105/105/105 78/78/78 106/106/106
f 106/106/106 78/78/78 5/5/5
f 106/106/106 5/5/5 2/2/2
f 104/104/104 106/106/106 2/2/2
f 104/104/104 2/2/2 1/1/1
f 107/107/107 108/108/108 109/109/109
f 107/107/107 109/109/109 110/110/110
f 108/108/108 79/79/79 76/76/76
f 108/108/108 76/76/76 109/109/109
f 109/109/109 76/76/76 75/75/75
f 109/109/109 75/75/75 111/111/111
f 110/110/110 109/109/109 111/111/111
f 110/110/110 111/111/111 112/112/112
f 113/113/113 114/114/114 115/115/115
f 113/113/113 115/115/115 116/116/116
f 114/114/114 83/83/83 81/81/81
f 114/114/114 81/81/81 115/115/115
f 115/115/115 81/81/81 79/79/79
f 115/115/115 79/79/79 108/108/108
f 116/116/116 115/115/115 108/108/108
f 116/116/116 108/108/108 107/107/107
f 117/117/117 118/118/118 119/119/119
f 117/117/117 119/119/119 120/120/120
f 118/118/118 87/87/87 85/85/85
f 118/118/118 85/85/85 119/119/119
f 119/119/119 85/85/85 83/83/83
f 119/119/119 83/83/83 114/114/114
f 120/120/120 119/119/119 114/114/114
f 120/120/120 114/114/114 113/113/113
f 121/121/121 122/122/122 123/123/123
f 121/121/121 123/123/123 124/124/124
f 122/122/122 91/91/91 89/89/89
f 122/122/122 89/89/89 123/123/123
f 123/123/123 89/89/89 87/87/87
f 123/123/123 87/87/87 118/118/118
f 124/124/124 123/123/123 118/118/118
f 124/124/124 118/118/118 117/117/117
f 125/125/125 126/126/126 127/127/127
f 125/125/125 127/127/127 128/128/128
f 126/126/126 95/95/95 93/93/93
f 126/126/126 93/93/93 127/127/127
f 127/127/127 93/93/93 91/91/91
f 127/127/127 91/91/91 122/122/122
f 128/128/128 127/127/127 122/122/122
f 128/128/128 122/122/122 121/121/121
f 129/129/129 130/130/130 131/131/131
f 129/129/129 131/131/131 132/132/132
f 130/130/130 99/99/99 97/97/97
f 130/130/130 97/97/97 131/131/131
f 131/131/131 97/97/97 95/95/95
f 131/131/131 95/95/95 126/126/126
f 132/132/132 131/131/131 126/126/126
f 132/132/132 126/126/126 125/125/125
f 133/133/133 134/134/134 135/135/135
f 133/133/133 135/135/135 136/136/136
f 134/134/134 103/103/103 101/101/101
f 134/134/134 101/101/101 135/135/135
f 135/135/135 101/101/101 99/99/99
f 135/135/135 99/99/99 130/130/130
f 136/136/136 135/135/135 130/130/130
f 136/136/136 130/130/130 129/129/129
f 112/112/112 111/111/111 137/137/137
f 112/112/112 137/137/137 138/138/138
f 111/111/111 75/75/75 105/105/105
f 111/111/111 105/105/105 137/137/137
f 137/137/137 105/105/105 103/103/103
f 137/137/137 103/103/103 134/134/134
f 138/138/138 137/137/137 134/134/134
f 138/138/138 134/134/134 133/133/133
f 139/139/139 140/140/140 141/141/141
f 139/139/139 141/141/141 142/142/142
f 140/140/140 143/143/143 144/144/144
f 140/140/140 144/144/144 141/141/141
f 141/141/141 144/144/144 145/145/145
f 141/141/141 145/145/145 146/146/146
f 142/142/142 141/141/141 146/146/146
f 142/142/142 146/146/146 147/147/147
f 148/148/148 149/149/149 150/150/150
f 148/148/148 150/150/150 151/151/151
f 149/149/149 152/152/152 153/153/153
f 149/149/149 153/153/153 150/150/150
f 150/150/150 153/153/153 154/154/154
f 150/150/150 154/154/154 155/155/155
f 151/151/151 150/150/150 155/155/155
f 151/151/151 155/155/155 156/156/156
f 157/157/157 158/158/158 159/159/159
f 157/157/157 159/159/159 160/160/160
f 158/158/158 161/161/161 162/162/162
f 158/158/158 162/162/162 159/159/159
f 159/159/159 162/162/162 163/163/163
f 159/159/159 163/163/163 164/164/164
f 160/160/160 159/159/159 164/164/164
f 160/160/160 164/164/164 165/165/165
f 147/147/147 146/146/146 166/166/166
f 147/147/147 166/166/166 167/167/167
f 146/146/146 145/145/145 168/168/168
f 146/146/146 168/168/168 166/166/166
f 166/166/166 168/168/168 161/161/161
f 166/166/166 161/161/161 158/158/158
f 167/167/167 166/166/166 158/158/158
f 167/167/167 158/158/158 157/157/157
f 145/145/145 144/144/144 169/169/169
f 145/145/145 169/169/169 168/168/168
f 144/144/144 143/143/143 170/170/170
f 144/144/144 170/170/170 169/169/169
f 169/169/169 170/170/170 163/163/163
f 169/169/169 163/163/163 162/162/162
f 168/168/168 169/169/169 162/162/162
f 168/168/168 162/162/162 161/161/161
f 171/171/171 172/172/172 173/173/173
f 171/171/171 173/173/173 174/174/174
f 172/172/172 175/175/175 176/176/176
f 172/172/172 176/176/176 173/173/173
f 173/173/173 176/176/176 177/177/177
f 173/173/173 177/177/177 178/178/178
f 174/174/174 173/173/173 178/178/178
f 174/174/174 178/178/178 179/179/179
f 156/156/156 155/155/155 180/180/180
f 156/156/156 180/180/180 181/181/181
f 155/155/155 154/154/154 182/182/182
f 155/155/155 182/182/182 180/180/180
f 180/180/180 182/182/182 183/183/183
f 180/180/180 183/183/183 184/184/184
f 181/181/181 180/180/180 184/184/184
f 181/181/181 184/184/184 185/185/185
f 186/186/186 187/187/187 188/188/188
f 186/186/186 188/188/188 189/189/189
f 187/187/187 190/190/190 191/191/191
f 187/187/187 191/191/191 188/188/188
f 188/188/188 191/191/191 192/192/192
f 188/188/188 192/192/192 193/193/193
f 189/189/189 188/188/188 193/193/193
f 189/189/189 193/193/193 194/194/194
f 195/195/195 196/196/196 197/197/197
f 195/195/195 197/197/197 198/198/198
f 196/196/196 199/199/199 200/200/200
f 196/196/196 200/200/200 197/197/197
f 197/197/197 200/200/200 152/152/152
f 197/197/197 152/152/152 149/149/149
f 198/198/198 197/197/197 149/149/149
f 198/198/198 149/149/149 148/148/148
f 183/183/183 182/182/182 201/201/201
f 183/183/183 201/201/201 202/202/202
f 182/182/182 154/154/154 153/153/153
f 182/182/182 153/153/153 201/201/201
f 201/201/201 153/153/153 152/152/152
f 201/201/201 152/152/152 200/200/200
f 202/202/202 201/201/201 200/200/200
f 202/202/202 200/200/200 199/199/199
f 185/185/185 184/184/184 203/203/203
f 185/185/185 203/203/203 204/204/204
f 184/184/184 183/183/183 205/205/205
f 184/184/184 205/205/205 203/203/203
f 203/203/203 205/205/205 143/143/143
f 203/203/203 143/143/143 140/140/140
f 204/204/204 203/203/203 140/140/140
f 204/204/204 140/140/140 139/139/139
f 175/175/175 206/206/206 207/207/207
f 175/175/175 207/207/207 176/176/176
f 206/206/206 186/186/186 189/189/189
f 206/206/206 189/189/189 207/207/207
f 207/207/207 189/189/189 194/194/194
f 207/207/207 194/194/194 208/208/208
f 176/176/176 207/207/207 208/208/208
f 176/176/176 208/208/208 177/177/177
f 165/165/165 164/164/164 209/209/209
f 165/165/165 209/209/209 210/210/210
f 164/164/164 163/163/163 211/211/211
f 164/164/164 211/211/211 209/209/209
f 209/209/209 211/211/211 199/199/199
f 209/209/209 199/199/199 196/196/196
f 210/210/210 209/209/209 196/196/196
f 210/210/210 196/196/196 195/195/195
f 143/143/143 205/205/205 212/212/212
f 143/143/143 212/212/212 170/170/170
f 205/205/205 183/183/183 202/202/202
f 205/205/205 202/202/202 212/212/212
f 212/212/212 202/202/202 199/199/199
f 212/212/212 199/199/199 211/211/211
f 170/170/170 212/212/212 211/211/211
f 170/170/170 211/211/211 163/163/163
f 213/213/213 214/214/214 215/215/215
f 213/213/213 215/215/215 216/216/216
f 214/214/214 147/147/147 167/167/167
f 214/214/214 167/167/167 215/215/215
f 215/215/215 167/167/167 157/157/157
f 215/215/215 157/157/157 217/217/217
f 216/216/216 215/215/215 217/217/217
f 216/216/216 217/217/217 218/218/218
f 218/218/218 217/217/217 219/219/219
f 218/218/218 219/219/219 220/220/220
f 217/217/217 157/157/157 160/160/160
f 217/217/217 160/160/160 219/219/219
f 219/219/219 160/160/160 165/165/165
f 219/219/219 165/165/165 221/221/221
f 220/220/220 219/219/219 221/221/221
f 220/220/220 221/221/221 222/222/222
f 222/222/222 221/221/221 223/223/223
f 222/222/222 223/223/223 224/224/224
f 221/221/221 165/165/165 210/210/210
f 221/221/221 210/210/210 223/223/223
f 223/223/223 210/210/210 195/195/195
f 223/223/223 195/195/195 225/225/225
f 224/224/224 223/223/223 225/225/225
f 224/224/224 225/225/225 226/226/226
f 226/226/226 225/225/225 227/227/227
f 226/226/226 227/227/227 228/228/228
f 225/225/225 195/195/195 198/198/198
f 225/225/225 198/198/198 227/227/227
f 227/227/227 198/198/198 148/148/148
f 227/227/227 148/148/148 229/229/229
f 228/228/228 227/227/227 229/229/229
f 228/228/228 229/229/229 230/230/230
f 230/230/230 229/229/229 231/231/231
f 230/230/230 231/231/231 232/232/232
f 229/229/229 148/148/148 151/151/151
f 229/229/229 151/151/151 231/231/231
f 231/231/231 151/151/151 156/156/156
f 231/231/231 156/156/156 233/233/233
f 232/232/232 231/231/231 233/233/233
f 232/232/232 233/233/233 234/234/234
f 234/234/234 233/233/233 235/235/235
f 234/234/234 235/235/235 236/236/236
f 233/233/233 156/156/156 181/181/181
f 233/233/233 181/181/181 235/235/235
f 235/235/235 181/181/181 185/185/185
f 235/235/235 185/185/185 237/237/237
f 236/236/236 235/235/235 237/237/237
f 236/236/236 237/237/237 238/238/238
f 238/238/238 237/237/237 239/239/239
f 238/238/238 239/239/239 240/240/240
f 237/237/237 185/185/185 204/204/204
f 237/237/237 204/204/204 239/239/239
f 239/239/239 204/204/204 139/139/139
f 239/239/239 139/139/139 241/241/241
f 240/240/240 239/239/239 241/241/241
f 240/240/240 241/241/241 242/242/242
f 242/242/242 241/241/241 243/243/243
f 242/242/242 243/243/243 244/244/244
f 241/241/241 139/139/139 142/142/142
f 241/241/241 142/142/142 243/243/243
f 243/243/243 142/142/142 147/147/147
f 243/243/243 147/147/147 214/214/214
f 244/244/244 243/243/243 214/214/214
f 244/244/244 214/214/214 213/213/213
f 245/245/245 246/246/246 247/247/247
f 245/245/245 247/247/247 248/248/248
f 246/246/246 249/249/249 250/250/250
f 246/246/246 250/250/250 247/247/247
f 247/247/247 250/250/250 213/213/213
f 247/247/247 213/213/213 216/216/216
f 248/248/248 247/247/247 216/216/216
f 248/248/248 216/216/216 218/218/218
f 251/251/251 252/252/252 253/253/253
f 251/251/251 253/253/253 254/254/254
f 252/252/252 245/245/245 248/248/248
f 252/252/252 248/248/248 253/253/253
f 253/253/253 248/248/248 218/218/218
f 253/253/253 218/218/218 220/220/220
f 254/254/254 253/253/253 220/220/220
f 254/254/254 220/220/220 222/222/222
f 255/255/255 256/256/256 257/257/257
f 255/255/255 257/257/257 258/258/258
f 256/256/256 251/251/251 254/254/254
f 256/256/256 254/254/254 257/257/257
f 257/257/257 254/254/254 222/222/222
f 257/257/257 222/222/222 224/224/224
f 258/258/258 257/257/257 224/224/224
f 258/258/258 224/224/224 226/226/226
f 259/259/259 260/260/260 261/261/261
f 259/259/259 261/261/261 262/262/262
f 260/260/260 255/255/255 258/258/258
f 260/260/260 258/258/258 261/261/261
f 261/261/261 258/258/258 226/226/226
f 261/261/261 226/226/226 228/228/228
f 262/262/262 261/261/261 228/228/228
f 262/262/262 228/228/228 230/230/230
f 263/263/263 264/264/264 265/265/265
f 263/263/263 265/265/265 266/266/266
f 264/264/264 259/259/259 262/262/262
f 264/264/264 262/262/262 265/265/265
f 265/265/265 262/262/262 230/230/230
f 265/265/265 230/230/230 232/232/232
f 266/266/266 265/265/265 232/232/232
f 266/266/266 232/232/232 234/234/234
f 267/267/267 268/268/268 269/269/269
f 267/267/267 269/269/269 270/270/270
f 268/268/268 263/263/263 266/266/266
f 268/268/268 266/266/266 269/269/269
f 269/269/269 266/266/266 234/234/234
f 269/269/269 234/234/234 236/236/236
f 270/270/270 269/269/269 236/236/236
f 270/270/270 236/236/236 238/238/238
f 271/271/271 272/272/272 273/273/273
f 271/271/271 273/273/273 274/274/274
f 272/272/272 267/267/267 270/270/270
f 272/272/272 270/270/270 273/273/273
f 273/273/273 270/270/270 238/238/238
f 273/273/273 238/238/238 240/240/240
f 274/274/274 273/273/273 240/240/240
f 274/274/274 240/240/240 242/242/242
f 249/249/249 275/275/275 276/276/276
f 249/249/249 276/276/276 250/250/250
f 275/275/275 271/271/271 274/274/274
f 275/275/275 274/274/274 276/276/276
f 276/276/276 274/274/274 242/242/242
f 276/276/276 242/242/242 244/244/244
f 250/250/250 276/276/276 244/244/244
f 250/250/250 244/244/244 213/213/213
