# moteur_plaque2_moteur_plaque11_0_19
v -1.322084 0.021276 0.391455
v -1.323378 0.046959 0.383244
v -1.323411 0.047497 0.384931
v -1.322117 0.021813 0.393141
v -1.324981 0.072623 0.375025
v -1.325014 0.073161 0.376711
v -1.324765 0.066598 0.379169
v -1.323574 0.047630 0.385374
v -1.322619 0.028571 0.391337
v -1.398893 0.019171 0.390022
v -1.400206 0.042441 0.382671
v -1.411403 0.041676 0.382254
v -1.410110 0.018764 0.389501
v -1.401516 0.065657 0.375148
v -1.412693 0.064539 0.374854
v -1.412671 0.058560 0.376684
v -1.411826 0.041623 0.382162
v -1.410758 0.024663 0.387531
v -1.411963 0.041540 0.381929
v -1.410531 0.018674 0.389254
v -1.413112 0.064426 0.374614
v -1.413095 0.064151 0.373753
v -1.411946 0.041266 0.381069
v -1.410514 0.018400 0.388393
v -1.410636 0.022662 0.381256
v -1.411701 0.039577 0.375746
v -1.411274 0.039559 0.375614
v -1.409985 0.016708 0.383055
v -1.412549 0.056559 0.370410
v -1.412567 0.062484 0.368408
v -1.401375 0.063353 0.367922
v -1.400061 0.040067 0.375227
v -1.398753 0.016866 0.382797
v -1.401948 0.073323 0.372411
v -1.413119 0.072095 0.372183
v -1.401929 0.073013 0.371441
v -1.413102 0.071820 0.371318
v -1.409659 0.010786 0.390848
v -1.409675 0.011062 0.391713
v -1.398432 0.011032 0.391275
v -1.398451 0.011341 0.392244
v -1.321932 0.018785 0.383645
v -1.323226 0.044467 0.375427
v -1.323303 0.045726 0.379376
v -1.322008 0.020043 0.387590
v -1.324829 0.070133 0.367215
v -1.324906 0.071391 0.371160
v -1.401886 0.072304 0.369219
v -1.413063 0.071187 0.369335
v -1.401842 0.071581 0.366949
v -1.413024 0.070542 0.367311
v -1.413018 0.062879 0.369764
v -1.413057 0.063522 0.371779
v -1.411907 0.040638 0.379098
v -1.410475 0.017770 0.386419
v -1.411868 0.039996 0.377086
v -1.410436 0.017128 0.384404
v -1.409580 0.009508 0.386841
v -1.409620 0.010153 0.388865
v -1.398345 0.009599 0.386782
v -1.398389 0.010323 0.389052
v -1.322380 0.024661 0.379077
v -1.323329 0.043623 0.372810
v -1.323189 0.043851 0.373496
v -1.321894 0.018170 0.381716
v -1.324526 0.062689 0.366909
v -1.324791 0.069517 0.365286
v -1.401820 0.071227 0.365840
v -1.413005 0.070226 0.366321
v -1.401375 0.063353 0.367922
v -1.412567 0.062484 0.368408
v -1.412549 0.056559 0.370410
v -1.412998 0.062565 0.368778
v -1.411849 0.039683 0.376103
v -1.410417 0.016813 0.383418
v -1.411701 0.039577 0.375746
v -1.410636 0.022662 0.381256
v -1.409985 0.016708 0.383055
v -1.409561 0.009192 0.385851
v -1.398753 0.016866 0.382797
v -1.398323 0.009245 0.385673
v -1.333844 0.021530 0.393045
v -1.335275 0.046878 0.385087
v -1.367747 0.044659 0.383879
v -1.366375 0.020350 0.391533
v -1.336700 0.072138 0.376851
v -1.369114 0.068897 0.375999
v -1.337168 0.080439 0.373734
v -1.369564 0.076880 0.373072
v -1.337137 0.079936 0.372157
v -1.369540 0.076474 0.371799
v -1.337066 0.078783 0.368543
v -1.369483 0.075543 0.368881
v -1.336995 0.077607 0.364853
v -1.369424 0.074593 0.365901
v -1.336960 0.077032 0.363049
v -1.369396 0.074129 0.364445
v -1.336471 0.068391 0.365102
v -1.368930 0.065871 0.366512
v -1.367557 0.041543 0.374106
v -1.366191 0.017325 0.382047
v -1.368930 0.065871 0.366512
v -1.336471 0.068391 0.365102
v -1.335039 0.043018 0.372984
v -1.333616 0.017783 0.381296
v -1.365744 0.009400 0.385157
v -1.365773 0.009864 0.386614
v -1.366191 0.017325 0.382047
v -1.333616 0.017783 0.381296
v -1.333152 0.009554 0.384641
v -1.333188 0.010130 0.386445
v -1.365831 0.010814 0.389593
v -1.365887 0.011745 0.392511
v -1.333259 0.011306 0.390135
v -1.333330 0.012459 0.393749
v -1.365912 0.012151 0.393784
v -1.333360 0.012961 0.395325
v -1.324039 0.047646 0.385506
v -1.322589 0.021938 0.393568
v -1.325484 0.073259 0.377146
v -1.325926 0.081134 0.372281
v -1.325958 0.081670 0.373962
v -1.325774 0.078650 0.364491
v -1.325851 0.079905 0.368426
v -1.325241 0.069263 0.364615
v -1.325737 0.078036 0.362566
v -1.323788 0.043529 0.372596
v -1.322345 0.017942 0.381037
v -1.325241 0.069263 0.364615
v -1.324526 0.062689 0.366909
v -1.323329 0.043623 0.372810
v -1.322380 0.024661 0.379077
v -1.321876 0.009608 0.384462
v -1.321913 0.010221 0.386386
v -1.322345 0.017942 0.381037
v -1.321990 0.011476 0.390322
v -1.322065 0.012705 0.394177
v -1.322097 0.013242 0.395858
vt 0.569160 0.157734
vt 0.384791 0.156409
vt 0.384855 0.164279
vt 0.564277 0.165130
vt 0.200412 0.157250
vt 0.205421 0.165093
vt 0.252632 0.167186
vt 0.384832 0.167137
vt 0.517031 0.167207
vt 0.545733 0.687515
vt 0.377005 0.684238
vt 0.375870 0.759393
vt 0.543916 0.763279
vt 0.208268 0.681256
vt 0.207814 0.756128
vt 0.251064 0.759067
vt 0.375841 0.762019
vt 0.500623 0.764371
vt 0.375820 0.763987
vt 0.544774 0.766735
vt 0.206880 0.759563
vt 0.204697 0.763821
vt 0.375789 0.768602
vt 0.546916 0.771148
vt 0.728474 0.714727
vt 0.853474 0.714727
vt 0.853474 0.713131
vt 0.728474 0.713131
vt 0.978474 0.714727
vt 0.978474 0.713131
vt 0.978474 0.711534
vt 0.853474 0.681518
vt 0.728474 0.711534
vt 0.150691 0.680631
vt 0.150873 0.755855
vt 0.145226 0.682109
vt 0.146990 0.759237
vt 0.604725 0.769025
vt 0.600826 0.765415
vt 0.608798 0.690801
vt 0.603284 0.689024
vt 0.592090 0.123575
vt 0.384323 0.119729
vt 0.384554 0.138481
vt 0.580651 0.140994
vt 0.176560 0.120501
vt 0.188455 0.139216
vt 0.132828 0.685434
vt 0.138109 0.766936
vt 0.120096 0.688751
vt 0.129109 0.774767
vt 0.194578 0.783570
vt 0.199630 0.773529
vt 0.375731 0.779165
vt 0.551929 0.781286
vt 0.375659 0.790127
vt 0.556903 0.791758
vt 0.622862 0.785781
vt 0.613739 0.777335
vt 0.634372 0.698962
vt 0.621417 0.694885
vt 0.665196 0.105640
vt 0.384335 0.103249
vt 0.384282 0.109387
vt 0.596818 0.114143
vt 0.103474 0.100859
vt 0.171743 0.110611
vt 0.113632 0.690204
vt 0.124867 0.778549
vt 0.111744 0.766982
vt 0.123005 0.780306
vt 0.134266 0.793630
vt 0.192442 0.788824
vt 0.375586 0.795937
vt 0.558928 0.797168
vt 0.375514 0.799170
vt 0.616761 0.804709
vt 0.628876 0.791602
vt 0.627093 0.789799
vt 0.640991 0.778495
vt 0.640893 0.700724
vt 0.559408 0.245182
vt 0.383679 0.245143
vt 0.380343 0.464684
vt 0.552360 0.466344
vt 0.207958 0.244231
vt 0.208326 0.462736
vt 0.147424 0.242709
vt 0.149228 0.461660
vt 0.139104 0.237333
vt 0.141963 0.459693
vt 0.120029 0.224858
vt 0.125444 0.455073
vt 0.100387 0.212509
vt 0.108385 0.450552
vt 0.090366 0.207511
vt 0.099502 0.448879
vt 0.077672 0.130278
vt 0.094708 0.448630
vt 0.853474 0.589872
vt 0.728474 0.589872
vt 0.978474 0.589872
vt 0.978474 0.468211
vt 0.853474 0.498191
vt 0.728474 0.468211
vt 0.661140 0.456839
vt 0.652264 0.458068
vt 0.665933 0.456716
vt 0.690874 0.134936
vt 0.676202 0.212899
vt 0.666276 0.217327
vt 0.635218 0.461506
vt 0.618712 0.465041
vt 0.646956 0.228250
vt 0.628199 0.239294
vt 0.611454 0.466559
vt 0.619965 0.244085
vt 0.384808 0.170026
vt 0.562489 0.169443
vt 0.207138 0.169400
vt 0.138552 0.160371
vt 0.146216 0.167545
vt 0.102513 0.126960
vt 0.120656 0.143790
vt 0.090573 0.115568
vt 0.094109 0.119037
vt 0.853474 0.466469
vt 0.728474 0.466469
vt 0.978474 0.466469
vt 0.978474 0.464727
vt 0.853474 0.464727
vt 0.728474 0.464727
vt 0.674443 0.123657
vt 0.666146 0.130969
vt 0.678035 0.120288
vt 0.648442 0.146165
vt 0.630988 0.161111
vt 0.623443 0.167670
vn 0.999515 0.029481 0.010082
vn 0.998388 0.056744 0.001280
vn 0.982521 0.105173 0.153597
vn 0.916038 0.138715 0.376342
vn 0.996439 0.083993 -0.007385
vn 0.912650 0.199082 0.356982
vn 0.703950 0.259166 0.661277
vn 0.682231 0.257460 0.684307
vn 0.661508 0.255133 0.705205
vn -0.054020 0.283952 0.957315
vn -0.055853 0.301267 0.951903
vn -0.147588 0.294104 0.944310
vn -0.299331 0.257010 0.918883
vn -0.056491 0.318712 0.946167
vn -0.301452 0.293462 0.907197
vn -0.545964 0.232349 0.804945
vn -0.607021 0.210733 0.766236
vn -0.588212 0.211217 0.780637
vn -0.969039 0.023447 0.245794
vn -0.879209 0.070997 0.471118
vn -0.882331 0.125508 0.453585
vn -0.999530 -0.028838 -0.010355
vn -0.998389 -0.056732 -0.001265
vn -0.996380 -0.084675 0.007561
vn -0.385599 -0.305328 -0.870682
vn -0.293296 -0.307235 -0.905309
vn -0.157512 -0.309370 -0.937806
vn -0.030142 -0.311426 -0.949792
vn -0.433757 -0.289700 -0.853187
vn -0.030411 -0.301211 -0.953073
vn -0.018265 -0.300401 -0.953638
vn -0.018736 -0.305427 -0.952031
vn -0.017843 -0.311341 -0.950131
vn -0.107497 0.890240 0.442626
vn -0.624405 0.695312 0.355893
vn -0.097888 0.947603 -0.304082
vn -0.741090 0.635350 -0.217061
vn -0.664872 -0.715311 0.215115
vn -0.561465 -0.420245 0.712848
vn 0.009327 -0.952638 0.303965
vn -0.029822 -0.474622 0.879684
vn 0.999514 0.029489 0.010067
vn 0.998389 0.056730 0.001244
vn 0.998386 0.056771 0.001394
vn 0.999516 0.029460 0.010024
vn 0.996440 0.083984 -0.007378
vn 0.996438 0.083998 -0.007404
vn -0.097887 0.947603 -0.304083
vn -0.741041 0.635402 -0.217075
vn -0.097887 0.947603 -0.304082
vn -0.741082 0.635360 -0.217062
vn -0.999531 -0.028818 -0.010334
vn -0.999533 -0.028785 -0.010218
vn -0.998385 -0.056798 -0.001441
vn -0.996382 -0.084643 0.007658
vn -0.998387 -0.056751 -0.001320
vn -0.996379 -0.084678 0.007586
vn -0.664845 -0.715312 0.215194
vn -0.664830 -0.715341 0.215147
vn 0.009327 -0.952638 0.303964
vn 0.009327 -0.952639 0.303962
vn 0.958859 -0.042793 -0.280638
vn 0.979982 -0.009508 -0.198859
vn 0.994762 0.023731 -0.099425
vn 0.940265 -0.089695 -0.328415
vn 0.945303 -0.039842 -0.323752
vn 0.936398 -0.021568 -0.350278
vn -0.080964 0.475839 -0.875798
vn -0.603977 0.358858 -0.711641
vn -0.020732 -0.255630 -0.966552
vn -0.566217 -0.243506 -0.787466
vn -0.871072 -0.188192 -0.453671
vn -0.874503 -0.161841 -0.457222
vn -0.978860 -0.109854 -0.172526
vn -0.871097 -0.222998 -0.437564
vn -0.927352 -0.159500 -0.338494
vn -0.839934 -0.215736 -0.497966
vn -0.561830 -0.316661 -0.764247
vn -0.540691 -0.763886 -0.352324
vn -0.016563 -0.353871 -0.935148
vn -0.004337 -0.900439 -0.434961
vn -0.054370 0.274996 0.959907
vn -0.055870 0.301286 0.951895
vn -0.055805 0.301247 0.951912
vn -0.054337 0.279134 0.958713
vn -0.056839 0.327486 0.943145
vn -0.056775 0.323143 0.944645
vn -0.107067 0.893735 0.435631
vn -0.107593 0.892108 0.438824
vn -0.097888 0.947603 -0.304083
vn -0.097887 0.947603 -0.304083
vn -0.097887 0.947603 -0.304082
vn -0.097887 0.947603 -0.304084
vn -0.097887 0.947604 -0.304081
vn -0.097887 0.947605 -0.304078
vn -0.082508 0.487129 -0.869424
vn -0.081561 0.481527 -0.872628
vn -0.024193 -0.232381 -0.972324
vn -0.021921 -0.243011 -0.969776
vn -0.018660 -0.305382 -0.952047
vn -0.017791 -0.312712 -0.949681
vn -0.018540 -0.299118 -0.954036
vn -0.018632 -0.297829 -0.954437
vn -0.018761 -0.305455 -0.952022
vn -0.017588 -0.313859 -0.949307
vn -0.003467 -0.903451 -0.428677
vn 0.009327 -0.952637 0.303965
vn -0.014887 -0.365090 -0.930853
vn -0.014702 -0.376297 -0.926383
vn -0.003041 -0.905972 -0.423328
vn 0.009328 -0.952637 0.303965
vn 0.009327 -0.952638 0.303963
vn 0.009327 -0.952638 0.303963
vn 0.009328 -0.952638 0.303963
vn 0.009327 -0.952638 0.303963
vn -0.030250 -0.478113 0.877777
vn -0.030043 -0.481569 0.875893
vn 0.108500 0.307928 0.945203
vn 0.338283 0.273499 0.900424
vn 0.334877 0.334540 0.880875
vn 0.631561 0.742148 -0.224382
vn 0.497865 0.789826 0.358197
vn 0.631621 0.742101 -0.224367
vn 0.631560 0.742159 -0.224350
vn 0.690327 -0.127939 -0.712095
vn 0.520733 0.452174 -0.724138
vn 0.223246 -0.284755 -0.932242
vn 0.005092 -0.313115 -0.949701
vn 0.003924 -0.296331 -0.955077
vn 0.582367 -0.210613 -0.785169
vn 0.452580 -0.246957 -0.856845
vn 0.640945 -0.211759 -0.737799
vn 0.587546 -0.731835 -0.345263
vn 0.711053 -0.665783 0.226135
vn 0.696723 -0.238171 -0.676647
vn 0.711000 -0.665825 0.226177
vn 0.711002 -0.665833 0.226149
vn 0.563907 -0.380828 0.732789
f 1/1/1 2/2/2 3/3/3
f 1/1/1 3/3/3 4/4/4
f 2/2/2 5/5/5 6/6/6
f 2/2/2 6/6/6 3/3/3
f 3/3/3 6/6/6 7/7/7
f 3/3/3 7/7/7 8/8/8
f 4/4/4 3/3/3 8/8/8
f 4/4/4 8/8/8 9/9/9
f 10/10/10 11/11/11 12/12/12
f 10/10/10 12/12/12 13/13/13
f 11/11/11 14/14/14 15/15/15
f 11/11/11 15/15/15 12/12/12
f 12/12/12 15/15/15 16/16/16
f 12/12/12 16/16/16 17/17/17
f 13/13/13 12/12/12 17/17/17
f 13/13/13 17/17/17 18/18/18
f 18/18/18 17/17/17 19/19/19
f 18/18/18 19/19/19 20/20/20
f 17/17/17 16/16/16 21/21/21
f 17/17/17 21/21/21 19/19/19
f 19/19/19 21/21/21 22/22/22
f 19/19/19 22/22/22 23/23/23
f 20/20/20 19/19/19 23/23/23
f 20/20/20 23/23/23 24/24/24
f 25/25/25 26/26/26 27/27/27
f 25/25/25 27/27/27 28/28/28
f 26/26/26 29/29/29 30/30/30
f 26/26/26 30/30/30 27/27/27
f 27/27/27 30/30/30 31/31/31
f 27/27/27 31/31/31 32/32/32
f 28/28/28 27/27/27 32/32/32
f 28/28/28 32/32/32 33/33/33
f 14/14/14 34/34/34 35/35/35
f 14/14/14 35/35/35 15/15/15
f 34/34/34 36/36/36 37/37/37
f 34/34/34 37/37/37 35/35/35
f 35/35/35 37/37/37 22/22/22
f 35/35/35 22/22/22 21/21/21
f 15/15/15 35/35/35 21/21/21
f 15/15/15 21/21/21 16/16/16
f 24/24/24 38/38/38 39/39/39
f 24/24/24 39/39/39 20/20/20
f 38/38/38 40/40/40 41/41/41
f 38/38/38 41/41/41 39/39/39
f 39/39/39 41/41/41 10/10/10
f 39/39/39 10/10/10 13/13/13
f 20/20/20 39/39/39 13/13/13
f 20/20/20 13/13/13 18/18/18
f 42/42/42 43/43/43 44/44/44
f 42/42/42 44/44/44 45/45/45
f 43/43/43 46/46/46 47/47/47
f 43/43/43 47/47/47 44/44/44
f 44/44/44 47/47/47 5/5/5
f 44/44/44 5/5/5 2/2/2
f 45/45/45 44/44/44 2/2/2
f 45/45/45 2/2/2 1/1/1
f 36/36/36 48/48/48 49/49/49
f 36/36/36 49/49/49 37/37/37
f 48/48/48 50/50/50 51/51/51
f 48/48/48 51/51/51 49/49/49
f 49/49/49 51/51/51 52/52/52
f 49/49/49 52/52/52 53/53/53
f 37/37/37 49/49/49 53/53/53
f 37/37/37 53/53/53 22/22/22
f 24/24/24 23/23/23 54/54/54
f 24/24/24 54/54/54 55/55/55
f 23/23/23 22/22/22 53/53/53
f 23/23/23 53/53/53 54/54/54
f 54/54/54 53/53/53 52/52/52
f 54/54/54 52/52/52 56/56/56
f 55/55/55 54/54/54 56/56/56
f 55/55/55 56/56/56 57/57/57
f 57/57/57 58/58/58 59/59/59
f 57/57/57 59/59/59 55/55/55
f 58/58/58 60/60/60 61/61/61
f 58/58/58 61/61/61 59/59/59
f 59/59/59 61/61/61 40/40/40
f 59/59/59 40/40/40 38/38/38
f 55/55/55 59/59/59 38/38/38
f 55/55/55 38/38/38 24/24/24
f 62/62/62 63/63/63 64/64/64
f 62/62/62 64/64/64 65/65/65
f 63/63/63 66/66/66 67/67/67
f 63/63/63 67/67/67 64/64/64
f 64/64/64 67/67/67 46/46/46
f 64/64/64 46/46/46 43/43/43
f 65/65/65 64/64/64 43/43/43
f 65/65/65 43/43/43 42/42/42
f 50/50/50 68/68/68 69/69/69
f 50/50/50 69/69/69 51/51/51
f 68/68/68 70/70/70 71/71/71
f 68/68/68 71/71/71 69/69/69
f 69/69/69 71/71/71 72/72/72
f 69/69/69 72/72/72 73/73/73
f 51/51/51 69/69/69 73/73/73
f 51/51/51 73/73/73 52/52/52
f 57/57/57 56/56/56 74/74/74
f 57/57/57 74/74/74 75/75/75
f 56/56/56 52/52/52 73/73/73
f 56/56/56 73/73/73 74/74/74
f 74/74/74 73/73/73 72/72/72
f 74/74/74 72/72/72 76/76/76
f 75/75/75 74/74/74 76/76/76
f 75/75/75 76/76/76 77/77/77
f 77/77/77 78/78/78 79/79/79
f 77/77/77 79/79/79 75/75/75
f 78/78/78 80/80/80 81/81/81
f 78/78/78 81/81/81 79/79/79
f 79/79/79 81/81/81 60/60/60
f 79/79/79 60/60/60 58/58/58
f 75/75/75 79/79/79 58/58/58
f 75/75/75 58/58/58 57/57/57
f 82/82/82 83/83/83 84/84/84
f 82/82/82 84/84/84 85/85/85
f 83/83/83 86/86/86 87/87/87
f 83/83/83 87/87/87 84/84/84
f 84/84/84 87/87/87 14/14/14
f 84/84/84 14/14/14 11/11/11
f 85/85/85 84/84/84 11/11/11
f 85/85/85 11/11/11 10/10/10
f 86/86/86 88/88/88 89/89/89
f 86/86/86 89/89/89 87/87/87
f 88/88/88 90/90/90 91/91/91
f 88/88/88 91/91/91 89/89/89
f 89/89/89 91/91/91 36/36/36
f 89/89/89 36/36/36 34/34/34
f 87/87/87 89/89/89 34/34/34
f 87/87/87 34/34/34 14/14/14
f 90/90/90 92/92/92 93/93/93
f 90/90/90 93/93/93 91/91/91
f 92/92/92 94/94/94 95/95/95
f 92/92/92 95/95/95 93/93/93
f 93/93/93 95/95/95 50/50/50
f 93/93/93 50/50/50 48/48/48
f 91/91/91 93/93/93 48/48/48
f 91/91/91 48/48/48 36/36/36
f 94/94/94 96/96/96 97/97/97
f 94/94/94 97/97/97 95/95/95
f 96/96/96 98/98/98 99/99/99
f 96/96/96 99/99/99 97/97/97
f 97/97/97 99/99/99 70/70/70
f 97/97/97 70/70/70 68/68/68
f 95/95/95 97/97/97 68/68/68
f 95/95/95 68/68/68 50/50/50
f 33/33/33 32/32/32 100/100/100
f 33/33/33 100/100/100 101/101/101
f 32/32/32 31/31/31 102/102/102
f 32/32/32 102/102/102 100/100/100
f 100/100/100 102/102/102 103/103/103
f 100/100/100 103/103/103 104/104/104
f 101/101/101 100/100/100 104/104/104
f 101/101/101 104/104/104 105/105/105
f 60/60/60 81/81/81 106/106/106
f 60/60/60 106/106/106 107/107/107
f 81/81/81 80/80/80 108/108/108
f 81/81/81 108/108/108 106/106/106
f 106/106/106 108/108/108 109/109/109
f 106/106/106 109/109/109 110/110/110
f 107/107/107 106/106/106 110/110/110
f 107/107/107 110/110/110 111/111/111
f 40/40/40 61/61/61 112/112/112
f 40/40/40 112/112/112 113/113/113
f 61/61/61 60/60/60 107/107/107
f 61/61/61 107/107/107 112/112/112
f 112/112/112 107/107/107 111/111/111
f 112/112/112 111/111/111 114/114/114
f 113/113/113 112/112/112 114/114/114
f 113/113/113 114/114/114 115/115/115
f 10/10/10 41/41/41 116/116/116
f 10/10/10 116/116/116 85/85/85
f 41/41/41 40/40/40 113/113/113
f 41/41/41 113/113/113 116/116/116
f 116/116/116 113/113/113 115/115/115
f 116/116/116 115/115/115 117/117/117
f 85/85/85 116/116/116 117/117/117
f 85/85/85 117/117/117 82/82/82
f 9/9/9 8/8/8 118/118/118
f 9/9/9 118/118/118 119/119/119
f 8/8/8 7/7/7 120/120/120
f 8/8/8 120/120/120 118/118/118
f 118/118/118 120/120/120 86/86/86
f 118/118/118 86/86/86 83/83/83
f 119/119/119 118/118/118 83/83/83
f 119/119/119 83/83/83 82/82/82
f 5/5/5 121/121/121 122/122/122
f 5/5/5 122/122/122 6/6/6
f 121/121/121 90/90/90 88/88/88
f 121/121/121 88/88/88 122/122/122
f 122/122/122 88/88/88 86/86/86
f 122/122/122 86/86/86 120/120/120
f 6/6/6 122/122/122 120/120/120
f 6/6/6 120/120/120 7/7/7
f 46/46/46 123/123/123 124/124/124
f 46/46/46 124/124/124 47/47/47
f 123/123/123 94/94/94 92/92/92
f 123/123/123 92/92/92 124/124/124
f 124/124/124 92/92/92 90/90/90
f 124/124/124 90/90/90 121/121/121
f 47/47/47 124/124/124 121/121/121
f 47/47/47 121/121/121 5/5/5
f 66/66/66 125/125/125 126/126/126
f 66/66/66 126/126/126 67/67/67
f 125/125/125 98/98/98 96/96/96
f 125/125/125 96/96/96 126/126/126
f 126/126/126 96/96/96 94/94/94
f 126/126/126 94/94/94 123/123/123
f 67/67/67 126/126/126 123/123/123
f 67/67/67 123/123/123 46/46/46
f 105/105/105 104/104/104 127/127/127
f 105/105/105 127/127/127 128/128/128
f 104/104/104 103/103/103 129/129/129
f 104/104/104 129/129/129 127/127/127
f 127/127/127 129/129/129 130/130/130
f 127/127/127 130/130/130 131/131/131
f 128/128/128 127/127/127 131/131/131
f 128/128/128 131/131/131 132/132/132
f 111/111/111 110/110/110 133/133/133
f 111/111/111 133/133/133 134/134/134
f 110/110/110 109/109/109 135/135/135
f 110/110/110 135/135/135 133/133/133
f 133/133/133 135/135/135 62/62/62
f 133/133/133 62/62/62 65/65/65
f 134/134/134 133/133/133 65/65/65
f 134/134/134 65/65/65 42/42/42
f 115/115/115 114/114/114 136/136/136
f 115/115/115 136/136/136 137/137/137
f 114/114/114 111/111/111 134/134/134
f 114/114/114 134/134/134 136/136/136
f 136/136/136 134/134/134 42/42/42
f 136/136/136 42/42/42 45/45/45
f 137/137/137 136/136/136 45/45/45
f 137/137/137 45/45/45 1/1/1
f 82/82/82 117/117/117 138/138/138
f 82/82/82 138/138/138 119/119/119
f 117/117/117 115/115/115 137/137/137
f 117/117/117 137/137/137 138/138/138
f 138/138/138 137/137/137 1/1/1
f 138/138/138 1/1/1 4/4/4
f 119/119/119 138/138/138 4/4/4
f 119/119/119 4/4/4 9/9/9
