# moteur_plaque8_moteur_plaque11_0_13
v -1.372503 0.072623 0.105512
v -1.373808 0.046959 0.097241
v -1.374416 0.047497 0.095666
v -1.373111 0.073161 0.103939
v -1.375400 0.021276 0.089082
v -1.376008 0.021813 0.087509
v -1.375863 0.028571 0.089376
v -1.374720 0.047630 0.095306
v -1.373717 0.066598 0.101544
v -1.444465 0.065657 0.131573
v -1.445807 0.042441 0.124056
v -1.456186 0.041676 0.128277
v -1.454867 0.064539 0.135672
v -1.447088 0.019171 0.116698
v -1.457450 0.018764 0.121025
v -1.457385 0.024663 0.123099
v -1.456552 0.041623 0.128508
v -1.455472 0.058560 0.133945
v -1.456601 0.041540 0.128774
v -1.455179 0.064426 0.136041
v -1.457760 0.018674 0.121401
v -1.457450 0.018400 0.122205
v -1.456291 0.041266 0.129576
v -1.454869 0.064151 0.136844
v -1.453212 0.056559 0.139799
v -1.454240 0.039577 0.134495
v -1.453793 0.039559 0.134473
v -1.452545 0.062484 0.141686
v -1.455124 0.022662 0.128952
v -1.455127 0.016708 0.127039
v -1.444484 0.016866 0.123441
v -1.443125 0.040067 0.131001
v -1.441861 0.063353 0.138315
v -1.447432 0.011341 0.114460
v -1.457798 0.011062 0.118798
v -1.447083 0.011032 0.115364
v -1.457486 0.010786 0.119605
v -1.454042 0.071820 0.139135
v -1.454354 0.072095 0.138328
v -1.443586 0.073013 0.135197
v -1.443935 0.073323 0.134293
v -1.369689 0.070133 0.112799
v -1.370991 0.044467 0.104534
v -1.372414 0.045726 0.100850
v -1.371111 0.071391 0.109118
v -1.372586 0.018785 0.096369
v -1.374008 0.020043 0.092688
v -1.446282 0.010323 0.117438
v -1.456771 0.010153 0.121455
v -1.445464 0.009599 0.119556
v -1.456042 0.009508 0.123344
v -1.456013 0.017128 0.125927
v -1.456739 0.017770 0.124046
v -1.455581 0.040638 0.131415
v -1.454157 0.063522 0.138686
v -1.454855 0.039996 0.133292
v -1.453432 0.062879 0.140566
v -1.452598 0.070542 0.142874
v -1.453328 0.071187 0.140985
v -1.441967 0.071581 0.139389
v -1.442785 0.072304 0.137271
v -1.369300 0.062689 0.112983
v -1.370194 0.043623 0.107028
v -1.370296 0.043851 0.106336
v -1.368994 0.069517 0.114599
v -1.371445 0.024661 0.100814
v -1.371891 0.018170 0.098169
v -1.445064 0.009245 0.120591
v -1.455685 0.009192 0.124267
v -1.444484 0.016866 0.123441
v -1.455127 0.016708 0.127039
v -1.455124 0.022662 0.128952
v -1.455657 0.016813 0.126846
v -1.454501 0.039683 0.134210
v -1.453076 0.062565 0.141486
v -1.454240 0.039577 0.134495
v -1.453212 0.056559 0.139799
v -1.452545 0.062484 0.141686
v -1.452242 0.070226 0.143797
v -1.441861 0.063353 0.138315
v -1.441567 0.071227 0.140424
v -1.384140 0.072138 0.107804
v -1.385618 0.046878 0.099577
v -1.415718 0.044659 0.111819
v -1.414308 0.068897 0.119691
v -1.386996 0.021529 0.091610
v -1.417047 0.020350 0.104157
v -1.387321 0.012961 0.089302
v -1.417382 0.012151 0.101883
v -1.386752 0.012459 0.090773
v -1.416924 0.011745 0.103071
v -1.385450 0.011306 0.094145
v -1.415872 0.010814 0.105794
v -1.384121 0.010130 0.097588
v -1.414798 0.009864 0.108574
v -1.383471 0.009554 0.099271
v -1.414274 0.009400 0.109933
v -1.382762 0.017783 0.102572
v -1.413629 0.017325 0.113009
v -1.412197 0.041543 0.120938
v -1.410890 0.065871 0.128543
v -1.413629 0.017325 0.113009
v -1.382762 0.017783 0.102572
v -1.381257 0.043018 0.110870
v -1.379907 0.068391 0.118766
v -1.410622 0.074129 0.130645
v -1.411146 0.074593 0.129286
v -1.410890 0.065871 0.128543
v -1.379907 0.068391 0.118766
v -1.379664 0.077032 0.120863
v -1.380314 0.077607 0.119179
v -1.412220 0.075543 0.126506
v -1.413271 0.076474 0.123783
v -1.381643 0.078783 0.115737
v -1.382945 0.079936 0.112365
v -1.413730 0.076880 0.122595
v -1.383513 0.080439 0.110894
v -1.375203 0.047646 0.095341
v -1.373702 0.073259 0.103691
v -1.376597 0.021938 0.087269
v -1.376313 0.012705 0.086518
v -1.376919 0.013242 0.084949
v -1.373506 0.010221 0.093786
v -1.374924 0.011476 0.090115
v -1.372083 0.017942 0.098962
v -1.372813 0.009608 0.095582
v -1.370552 0.043529 0.107387
v -1.369187 0.069263 0.115383
v -1.372083 0.017942 0.098962
v -1.371445 0.024661 0.100814
v -1.370194 0.043623 0.107028
v -1.369300 0.062689 0.112983
v -1.368952 0.078036 0.117478
v -1.369645 0.078650 0.115683
v -1.369187 0.069263 0.115383
v -1.371064 0.079905 0.112011
v -1.372452 0.081134 0.108414
v -1.373058 0.081670 0.106845
vt 0.569160 0.157734
vt 0.384791 0.156409
vt 0.384855 0.164279
vt 0.564277 0.165130
vt 0.200412 0.157250
vt 0.205421 0.165093
vt 0.252632 0.167186
vt 0.384832 0.167137
vt 0.517031 0.167207
vt 0.545733 0.687515
vt 0.377005 0.684238
vt 0.375870 0.759393
vt 0.543916 0.763279
vt 0.208268 0.681256
vt 0.207814 0.756128
vt 0.251064 0.759067
vt 0.375841 0.762019
vt 0.500623 0.764371
vt 0.375820 0.763987
vt 0.544774 0.766735
vt 0.206880 0.759563
vt 0.204697 0.763821
vt 0.375789 0.768602
vt 0.546916 0.771148
vt 0.728474 0.714727
vt 0.853474 0.714727
vt 0.853474 0.713131
vt 0.728474 0.713131
vt 0.978474 0.714727
vt 0.978474 0.713131
vt 0.978474 0.711534
vt 0.853474 0.681518
vt 0.728474 0.711534
vt 0.150691 0.680631
vt 0.150873 0.755855
vt 0.145226 0.682109
vt 0.146990 0.759237
vt 0.604725 0.769025
vt 0.600826 0.765415
vt 0.608798 0.690801
vt 0.603284 0.689024
vt 0.592090 0.123575
vt 0.384323 0.119729
vt 0.384554 0.138481
vt 0.580651 0.140994
vt 0.176560 0.120501
vt 0.188455 0.139216
vt 0.132828 0.685434
vt 0.138109 0.766936
vt 0.120096 0.688751
vt 0.129109 0.774767
vt 0.194578 0.783570
vt 0.199630 0.773529
vt 0.375731 0.779165
vt 0.551929 0.781286
vt 0.375659 0.790127
vt 0.556903 0.791758
vt 0.622862 0.785781
vt 0.613739 0.777335
vt 0.634372 0.698962
vt 0.621417 0.694885
vt 0.665196 0.105640
vt 0.384335 0.103249
vt 0.384282 0.109387
vt 0.596818 0.114143
vt 0.103474 0.100859
vt 0.171743 0.110611
vt 0.113632 0.690204
vt 0.124867 0.778549
vt 0.111744 0.766982
vt 0.123005 0.780306
vt 0.134266 0.793630
vt 0.192442 0.788824
vt 0.375586 0.795937
vt 0.558928 0.797168
vt 0.375514 0.799170
vt 0.616761 0.804709
vt 0.628876 0.791602
vt 0.627093 0.789799
vt 0.640991 0.778495
vt 0.640893 0.700724
vt 0.559408 0.245182
vt 0.383679 0.245143
vt 0.380343 0.464684
vt 0.552360 0.466344
vt 0.207958 0.244231
vt 0.208326 0.462736
vt 0.147424 0.242709
vt 0.149228 0.461660
vt 0.139104 0.237333
vt 0.141963 0.459693
vt 0.120029 0.224858
vt 0.125444 0.455073
vt 0.100387 0.212509
vt 0.108385 0.450552
vt 0.090366 0.207511
vt 0.099502 0.448879
vt 0.077672 0.130278
vt 0.094708 0.448630
vt 0.853474 0.589872
vt 0.728474 0.589872
vt 0.978474 0.589872
vt 0.978474 0.468211
vt 0.853474 0.498191
vt 0.728474 0.468211
vt 0.661140 0.456839
vt 0.652264 0.458068
vt 0.665933 0.456716
vt 0.690874 0.134936
vt 0.676202 0.212899
vt 0.666276 0.217327
vt 0.635218 0.461506
vt 0.618712 0.465041
vt 0.646956 0.228250
vt 0.628199 0.239294
vt 0.611454 0.466559
vt 0.619965 0.244085
vt 0.384808 0.170026
vt 0.562489 0.169443
vt 0.207138 0.169400
vt 0.138552 0.160371
vt 0.146216 0.167545
vt 0.102513 0.126960
vt 0.120656 0.143790
vt 0.090573 0.115568
vt 0.094109 0.119037
vt 0.853474 0.466469
vt 0.728474 0.466469
vt 0.978474 0.466469
vt 0.978474 0.464727
vt 0.853474 0.464727
vt 0.728474 0.464727
vt 0.674443 0.123657
vt 0.666146 0.130969
vt 0.678035 0.120288
vt 0.648442 0.146165
vt 0.630988 0.161111
vt 0.623443 0.167670
vn 0.938864 0.084004 -0.333882
vn 0.937740 0.056737 -0.342674
vn 0.870674 0.104108 -0.480717
vn 0.735486 0.199123 -0.647619
vn 0.935796 0.029478 -0.351306
vn 0.732111 0.138732 -0.666909
vn 0.434525 0.244965 -0.866706
vn 0.407040 0.257459 -0.876375
vn 0.381221 0.269324 -0.884384
vn -0.376211 0.318911 -0.869920
vn -0.378037 0.301583 -0.875292
vn -0.461687 0.293619 -0.837038
vn -0.593502 0.293423 -0.749439
vn -0.378646 0.284084 -0.880865
vn -0.595612 0.256952 -0.761067
vn -0.788916 0.222247 -0.572903
vn -0.832461 0.211096 -0.512296
vn -0.819182 0.220960 -0.529261
vn -0.994611 0.024402 0.100766
vn -0.984241 0.125532 -0.124548
vn -0.987333 0.070965 -0.141908
vn -0.938861 -0.084684 0.333720
vn -0.937746 -0.056738 0.342656
vn -0.935725 -0.028818 0.351550
vn -0.064047 -0.296341 0.952932
vn 0.034129 -0.305421 0.951606
vn 0.172777 -0.308645 0.935354
vn 0.297117 -0.300920 0.906184
vn -0.116585 -0.303772 0.945585
vn 0.296834 -0.311111 0.902829
vn 0.308410 -0.310854 0.899029
vn 0.307981 -0.305906 0.900871
vn 0.308840 -0.299929 0.902585
vn -0.329429 -0.474975 -0.816012
vn -0.771413 -0.420240 -0.477829
vn -0.095197 -0.952638 -0.288823
vn -0.698363 -0.715298 0.025254
vn -0.622142 0.635357 0.457449
vn -0.708471 0.695313 -0.120865
vn 0.012018 0.947604 0.319222
vn -0.251891 0.890144 -0.379730
vn 0.938868 0.083988 -0.333875
vn 0.937753 0.056728 -0.342638
vn 0.937700 0.056781 -0.342775
vn 0.938886 0.083987 -0.333826
vn 0.935796 0.029489 -0.351307
vn 0.935801 0.029463 -0.351295
vn -0.095196 -0.952638 -0.288821
vn -0.698318 -0.715343 0.025219
vn -0.095197 -0.952638 -0.288822
vn -0.698356 -0.715305 0.025246
vn -0.938870 -0.084688 0.333693
vn -0.938911 -0.084647 0.333587
vn -0.937681 -0.056787 0.342826
vn -0.935761 -0.028788 0.351459
vn -0.937726 -0.056754 0.342708
vn -0.935732 -0.028801 0.351533
vn -0.622141 0.635407 0.457382
vn -0.622109 0.635404 0.457430
vn 0.012018 0.947603 0.319223
vn 0.012019 0.947603 0.319225
vn 0.997741 -0.029960 -0.060129
vn 0.989015 -0.007393 -0.147631
vn 0.968835 0.024781 -0.246464
vn 0.999728 -0.021569 0.008819
vn 0.997960 -0.058687 -0.025116
vn 0.995882 -0.089735 -0.012926
vn 0.145822 -0.900186 0.410367
vn -0.387506 -0.763906 0.516030
vn 0.305503 -0.354801 0.883620
vn -0.266866 -0.316621 0.910238
vn -0.664000 -0.199267 0.720691
vn -0.668835 -0.222992 0.709179
vn -0.860879 -0.110904 0.496575
vn -0.665454 -0.161789 0.728695
vn -0.755770 -0.161554 0.634596
vn -0.618046 -0.199446 0.760421
vn -0.262435 -0.243549 0.933709
vn -0.324234 0.358865 0.875265
vn 0.309757 -0.256718 0.915503
vn 0.222365 0.476248 0.850730
vn -0.376429 0.327622 -0.866582
vn -0.378053 0.301561 -0.875292
vn -0.377992 0.301610 -0.875302
vn -0.376451 0.323586 -0.868088
vn -0.378936 0.275201 -0.883556
vn -0.378897 0.279590 -0.882194
vn -0.327215 -0.481807 -0.812891
vn -0.328534 -0.478697 -0.814196
vn -0.095197 -0.952638 -0.288822
vn -0.095196 -0.952638 -0.288822
vn -0.095197 -0.952638 -0.288823
vn -0.095196 -0.952639 -0.288820
vn -0.095197 -0.952638 -0.288823
vn -0.095198 -0.952637 -0.288826
vn 0.141237 -0.905788 0.399500
vn 0.143696 -0.903014 0.404868
vn 0.301644 -0.377304 0.875587
vn 0.304088 -0.366997 0.879115
vn 0.308053 -0.305943 0.900834
vn 0.308891 -0.298555 0.903023
vn 0.308142 -0.312149 0.898672
vn 0.308048 -0.313434 0.898257
vn 0.307957 -0.305880 0.900889
vn 0.309084 -0.297389 0.903342
vn 0.221551 0.482411 0.847464
vn 0.012017 0.947604 0.319222
vn 0.311158 -0.244985 0.918239
vn 0.311094 -0.233312 0.921296
vn 0.220556 0.487590 0.844755
vn 0.012018 0.947604 0.319222
vn 0.012018 0.947603 0.319223
vn 0.012018 0.947603 0.319224
vn 0.012018 0.947603 0.319224
vn 0.012018 0.947603 0.319223
vn -0.251350 0.891820 -0.376139
vn -0.250218 0.893546 -0.372781
vn -0.221256 0.309091 -0.924937
vn 0.013360 0.334477 -0.942309
vn 0.009956 0.273430 -0.961840
vn 0.590775 -0.665833 -0.455687
vn 0.279280 -0.380823 -0.881463
vn 0.590833 -0.665780 -0.455690
vn 0.590763 -0.665823 -0.455717
vn 0.886023 -0.238235 0.397752
vn 0.670195 -0.731838 0.123501
vn 0.528532 -0.286476 0.799116
vn 0.330573 -0.295904 0.896193
vn 0.329419 -0.312715 0.890894
vn 0.814997 -0.224669 0.534139
vn 0.718172 -0.250003 0.649405
vn 0.855842 -0.190342 0.480941
vn 0.737004 0.452179 0.502354
vn 0.670264 0.742105 -0.005191
vn 0.892355 -0.127883 0.432837
vn 0.670205 0.742158 -0.005182
vn 0.670216 0.742148 -0.005156
vn 0.345321 0.789832 -0.506872
f 1/1/1 2/2/2 3/3/3
f 1/1/1 3/3/3 4/4/4
f 2/2/2 5/5/5 6/6/6
f 2/2/2 6/6/6 3/3/3
f 3/3/3 6/6/6 7/7/7
f 3/3/3 7/7/7 8/8/8
f 4/4/4 3/3/3 8/8/8
f 4/4/4 8/8/8 9/9/9
f 10/10/10 11/11/11 12/12/12
f 10/10/10 12/12/12 13/13/13
f 11/11/11 14/14/14 15/15/15
f 11/11/11 15/15/15 12/12/12
f 12/12/12 15/15/15 16/16/16
f 12/12/12 16/16/16 17/17/17
f 13/13/13 12/12/12 17/17/17
f 13/13/13 17/17/17 18/18/18
f 18/18/18 17/17/17 19/19/19
f 18/18/18 19/19/19 20/20/20
f 17/17/17 16/16/16 21/21/21
f 17/17/17 21/21/21 19/19/19
f 19/19/19 21/21/21 22/22/22
f 19/19/19 22/22/22 23/23/23
f 20/20/20 19/19/19 23/23/23
f 20/20/20 23/23/23 24/24/24
f 25/25/25 26/26/26 27/27/27
f 25/25/25 27/27/27 28/28/28
f 26/26/26 29/29/29 30/30/30
f 26/26/26 30/30/30 27/27/27
f 27/27/27 30/30/30 31/31/31
f 27/27/27 31/31/31 32/32/32
f 28/28/28 27/27/27 32/32/32
f 28/28/28 32/32/32 33/33/33
f 14/14/14 34/34/34 35/35/35
f 14/14/14 35/35/35 15/15/15
f 34/34/34 36/36/36 37/37/37
f 34/34/34 37/37/37 35/35/35
f 35/35/35 37/37/37 22/22/22
f 35/35/35 22/22/22 21/21/21
f 15/15/15 35/35/35 21/21/21
f 15/15/15 21/21/21 16/16/16
f 24/24/24 38/38/38 39/39/39
f 24/24/24 39/39/39 20/20/20
f 38/38/38 40/40/40 41/41/41
f 38/38/38 41/41/41 39/39/39
f 39/39/39 41/41/41 10/10/10
f 39/39/39 10/10/10 13/13/13
f 20/20/20 39/39/39 13/13/13
f 20/20/20 13/13/13 18/18/18
f 42/42/42 43/43/43 44/44/44
f 42/42/42 44/44/44 45/45/45
f 43/43/43 46/46/46 47/47/47
f 43/43/43 47/47/47 44/44/44
f 44/44/44 47/47/47 5/5/5
f 44/44/44 5/5/5 2/2/2
f 45/45/45 44/44/44 2/2/2
f 45/45/45 2/2/2 1/1/1
f 36/36/36 48/48/48 49/49/49
f 36/36/36 49/49/49 37/37/37
f 48/48/48 50/50/50 51/51/51
f 48/48/48 51/51/51 49/49/49
f 49/49/49 51/51/51 52/52/52
f 49/49/49 52/52/52 53/53/53
f 37/37/37 49/49/49 53/53/53
f 37/37/37 53/53/53 22/22/22
f 24/24/24 23/23/23 54/54/54
f 24/24/24 54/54/54 55/55/55
f 23/23/23 22/22/22 53/53/53
f 23/23/23 53/53/53 54/54/54
f 54/54/54 53/53/53 52/52/52
f 54/54/54 52/52/52 56/56/56
f 55/55/55 54/54/54 56/56/56
f 55/55/55 56/56/56 57/57/57
f 57/57/57 58/58/58 59/59/59
f 57/57/57 59/59/59 55/55/55
f 58/58/58 60/60/60 61/61/61
f 58/58/58 61/61/61 59/59/59
f 59/59/59 61/61/61 40/40/40
f 59/59/59 40/40/40 38/38/38
f 55/55/55 59/59/59 38/38/38
f 55/55/55 38/38/38 24/24/24
f 62/62/62 63/63/63 64/64/64
f 62/62/62 64/64/64 65/65/65
f 63/63/63 66/66/66 67/67/67
f 63/63/63 67/67/67 64/64/64
f 64/64/64 67/67/67 46/46/46
f 64/64/64 46/46/46 43/43/43
f 65/65/65 64/64/64 43/43/43
f 65/65/65 43/43/43 42/42/42
f 50/50/50 68/68/68 69/69/69
f 50/50/50 69/69/69 51/51/51
f 68/68/68 70/70/70 71/71/71
f 68/68/68 71/71/71 69/69/69
f 69/69/69 71/71/71 72/72/72
f 69/69/69 72/72/72 73/73/73
f 51/51/51 69/69/69 73/73/73
f 51/51/51 73/73/73 52/52/52
f 57/57/57 56/56/56 74/74/74
f 57/57/57 74/74/74 75/75/75
f 56/56/56 52/52/52 73/73/73
f 56/56/56 73/73/73 74/74/74
f 74/74/74 73/73/73 72/72/72
f 74/74/74 72/72/72 76/76/76
f 75/75/75 74/74/74 76/76/76
f 75/75/75 76/76/76 77/77/77
f 77/77/77 78/78/78 79/79/79
f 77/77/77 79/79/79 75/75/75
f 78/78/78 80/80/80 81/81/81
f 78/78/78 81/81/81 79/79/79
f 79/79/79 81/81/81 60/60/60
f 79/79/79 60/60/60 58/58/58
f 75/75/75 79/79/79 58/58/58
f 75/75/75 58/58/58 57/57/57
f 82/82/82 83/83/83 84/84/84
f 82/82/82 84/84/84 85/85/85
f 83/83/83 86/86/86 87/87/87
f 83/83/83 87/87/87 84/84/84
f 84/84/84 87/87/87 14/14/14
f 84/84/84 14/14/14 11/11/11
f 85/85/85 84/84/84 11/11/11
f 85/85/85 11/11/11 10/10/10
f 86/86/86 88/88/88 89/89/89
f 86/86/86 89/89/89 87/87/87
f 88/88/88 90/90/90 91/91/91
f 88/88/88 91/91/91 89/89/89
f 89/89/89 91/91/91 36/36/36
f 89/89/89 36/36/36 34/34/34
f 87/87/87 89/89/89 34/34/34
f 87/87/87 34/34/34 14/14/14
f 90/90/90 92/92/92 93/93/93
f 90/90/90 93/93/93 91/91/91
f 92/92/92 94/94/94 95/95/95
f 92/92/92 95/95/95 93/93/93
f 93/93/93 95/95/95 50/50/50
f 93/93/93 50/50/50 48/48/48
f 91/91/91 93/93/93 48/48/48
f 91/91/91 48/48/48 36/36/36
f 94/94/94 96/96/96 97/97/97
f 94/94/94 97/97/97 95/95/95
f 96/96/96 98/98/98 99/99/99
f 96/96/96 99/99/99 97/97/97
f 97/97/97 99/99/99 70/70/70
f 97/97/97 70/70/70 68/68/68
f 95/95/95 97/97/97 68/68/68
f 95/95/95 68/68/68 50/50/50
f 33/33/33 32/32/32 100/100/100
f 33/33/33 100/100/100 101/101/101
f 32/32/32 31/31/31 102/102/102
f 32/32/32 102/102/102 100/100/100
f 100/100/100 102/102/102 103/103/103
f 100/100/100 103/103/103 104/104/104
f 101/101/101 100/100/100 104/104/104
f 101/101/101 104/104/104 105/105/105
f 60/60/60 81/81/81 106/106/106
f 60/60/60 106/106/106 107/107/107
f 81/81/81 80/80/80 108/108/108
f 81/81/81 108/108/108 106/106/106
f 106/106/106 108/108/108 109/109/109
f 106/106/106 109/109/109 110/110/110
f 107/107/107 106/106/106 110/110/110
f 107/107/107 110/110/110 111/111/111
f 40/40/40 61/61/61 112/112/112
f 40/40/40 112/112/112 113/113/113
f 61/61/61 60/60/60 107/107/107
f 61/61/61 107/107/107 112/112/112
f 112/112/112 107/107/107 111/111/111
f 112/112/112 111/111/111 114/114/114
f 113/113/113 112/112/112 114/114/114
f 113/113/113 114/114/114 115/115/115
f 10/10/10 41/41/41 116/116/116
f 10/10/10 116/116/116 85/85/85
f 41/41/41 40/40/40 113/113/113
f 41/41/41 113/113/113 116/116/116
f 116/116/116 113/113/113 115/115/115
f 116/116/116 115/115/115 117/117/117
f 85/85/85 116/116/116 117/117/117
f 85/85/85 117/117/117 82/82/82
f 9/9/9 8/8/8 118/118/118
f 9/9/9 118/118/118 119/119/119
f 8/8/8 7/7/7 120/120/120
f 8/8/8 120/120/120 118/118/118
f 118/118/118 120/120/120 86/86/86
f 118/118/118 86/86/86 83/83/83
f 119/119/119 118/118/118 83/83/83
f 119/119/119 83/83/83 82/82/82
f 5/5/5 121/121/121 122/122/122
f 5/5/5 122/122/122 6/6/6
f 121/121/121 90/90/90 88/88/88
f 121/121/121 88/88/88 122/122/122
f 122/122/122 88/88/88 86/86/86
f 122/122/122 86/86/86 120/120/120
f 6/6/6 122/122/122 120/120/120
f 6/6/6 120/120/120 7/7/7
f 46/46/46 123/123/123 124/124/124
f 46/46/46 124/124/124 47/47/47
f 123/123/123 94/94/94 92/92/92
f 123/123/123 92/92/92 124/124/124
f 124/124/124 92/92/92 90/90/90
f 124/124/124 90/90/90 121/121/121
f 47/47/47 124/124/124 121/121/121
f 47/47/47 121/121/121 5/5/5
f 66/66/66 125/125/125 126/126/126
f 66/66/66 126/126/126 67/67/67
f 125/125/125 98/98/98 96/96/96
f 125/125/125 96/96/96 126/126/126
f 126/126/126 96/96/96 94/94/94
f 126/126/126 94/94/94 123/123/123
f 67/67/67 126/126/126 123/123/123
f 67/67/67 123/123/123 46/46/46
f 105/105/105 104/104/104 127/127/127
f 105/105/105 127/127/127 128/128/128
f 104/104/104 103/103/103 129/129/129
f 104/104/104 129/129/129 127/127/127
f 127/127/127 129/129/129 130/130/130
f 127/127/127 130/130/130 131/131/131
f 128/128/128 127/127/127 131/131/131
f 128/128/128 131/131/131 132/132/132
f 111/111/111 110/110/110 133/133/133
f 111/111/111 133/133/133 134/134/134
f 110/110/110 109/109/109 135/135/135
f 110/110/110 135/135/135 133/133/133
f 133/133/133 135/135/135 62/62/62
f 133/133/133 62/62/62 65/65/65
f 134/134/134 133/133/133 65/65/65
f 134/134/134 65/65/65 42/42/42
f 115/115/115 114/114/114 136/136/136
f 115/115/115 136/136/136 137/137/137
f 114/114/114 111/111/111 134/134/134
f 114/114/114 134/134/134 136/136/136
f 136/136/136 134/134/134 42/42/42
f 136/136/136 42/42/42 45/45/45
f 137/137/137 136/136/136 45/45/45
f 137/137/137 45/45/45 1/1/1
f 82/82/82 117/117/117 138/138/138
f 82/82/82 138/138/138 119/119/119
f 117/117/117 115/115/115 137/137/137
f 117/117/117 137/137/137 138/138/138
f 138/138/138 137/137/137 1/1/1
f 138/138/138 1/1/1 4/4/4
f 119/119/119 138/138/138 4/4/4
f 119/119/119 4/4/4 9/9/9
