# moteur_plaque4_moteur_plaque11_0_17
v -1.336954 -0.139584 0.307122
v -1.333010 -0.123742 0.328622
v -1.333152 -0.125151 0.329687
v -1.337096 -0.140991 0.308186
v -1.329369 -0.107849 0.350137
v -1.329512 -0.109257 0.351201
v -1.330642 -0.113628 0.345836
v -1.333342 -0.125498 0.329976
v -1.336259 -0.137131 0.313979
v -1.412341 -0.126207 0.313754
v -1.408915 -0.111914 0.333280
v -1.419956 -0.109911 0.333749
v -1.423330 -0.123992 0.314527
v -1.405475 -0.097477 0.352697
v -1.416569 -0.095702 0.352874
v -1.417751 -0.099267 0.347875
v -1.420368 -0.109772 0.333719
v -1.422758 -0.120217 0.319479
v -1.420488 -0.109556 0.333581
v -1.423727 -0.123719 0.314411
v -1.416969 -0.095443 0.352738
v -1.416896 -0.094724 0.352195
v -1.420415 -0.108838 0.333038
v -1.423655 -0.123000 0.313868
v -1.422227 -0.114979 0.315521
v -1.419825 -0.104414 0.329671
v -1.419394 -0.104367 0.329560
v -1.422785 -0.118611 0.310461
v -1.417220 -0.094029 0.343917
v -1.416023 -0.090320 0.348808
v -1.404864 -0.091445 0.348139
v -1.408286 -0.105699 0.328584
v -1.411730 -0.120175 0.309196
v -1.404309 -0.092474 0.359025
v -1.415422 -0.090795 0.359121
v -1.404227 -0.091664 0.358414
v -1.415349 -0.090072 0.358575
v -1.424365 -0.127794 0.307445
v -1.424438 -0.128516 0.307991
v -1.413382 -0.129971 0.306490
v -1.413464 -0.130781 0.307102
v -1.336294 -0.133063 0.302196
v -1.332348 -0.117217 0.323691
v -1.332682 -0.120513 0.326182
v -1.336627 -0.136357 0.304684
v -1.328709 -0.101329 0.345211
v -1.329042 -0.104623 0.347699
v -1.404038 -0.089809 0.357011
v -1.415181 -0.088417 0.357324
v -1.403847 -0.087914 0.355580
v -1.415010 -0.086727 0.356047
v -1.416559 -0.091394 0.349679
v -1.416729 -0.093076 0.350950
v -1.420248 -0.107193 0.331795
v -1.423488 -0.121352 0.312623
v -1.420078 -0.105513 0.330526
v -1.423318 -0.119670 0.311351
v -1.424026 -0.124448 0.304917
v -1.424197 -0.126138 0.306194
v -1.413002 -0.126221 0.303656
v -1.413194 -0.128115 0.305088
v -1.335222 -0.126895 0.306246
v -1.332280 -0.115009 0.322051
v -1.332185 -0.115605 0.322473
v -1.336130 -0.131453 0.300979
v -1.329605 -0.103393 0.338102
v -1.328546 -0.099718 0.343994
v -1.403753 -0.086988 0.354880
v -1.414926 -0.085901 0.355423
v -1.404864 -0.091445 0.348139
v -1.416023 -0.090320 0.348808
v -1.417220 -0.094029 0.343917
v -1.416476 -0.090571 0.349057
v -1.419995 -0.104692 0.329905
v -1.423234 -0.118847 0.310730
v -1.419825 -0.104414 0.329671
v -1.422227 -0.114979 0.315521
v -1.422785 -0.118611 0.310461
v -1.423942 -0.123622 0.304293
v -1.411730 -0.120175 0.309196
v -1.412908 -0.125295 0.302956
v -1.348616 -0.139052 0.309274
v -1.344890 -0.123530 0.330560
v -1.376909 -0.117721 0.331920
v -1.380485 -0.132628 0.311515
v -1.341140 -0.107774 0.351670
v -1.373314 -0.102625 0.352184
v -1.339859 -0.102212 0.358472
v -1.372090 -0.097342 0.358749
v -1.339725 -0.100896 0.357477
v -1.371982 -0.096279 0.357945
v -1.339420 -0.097879 0.355197
v -1.371735 -0.093843 0.356104
v -1.339108 -0.094798 0.352870
v -1.371483 -0.091356 0.354225
v -1.338955 -0.093292 0.351732
v -1.371360 -0.090139 0.353306
v -1.340147 -0.097966 0.344258
v -1.372512 -0.094705 0.346199
v -1.376082 -0.109561 0.325755
v -1.379683 -0.124708 0.305530
v -1.372512 -0.094705 0.346199
v -1.340147 -0.097966 0.344258
v -1.343866 -0.113425 0.322925
v -1.347622 -0.129244 0.301863
v -1.380922 -0.130144 0.299081
v -1.381045 -0.131360 0.300000
v -1.379683 -0.124708 0.305530
v -1.347622 -0.129244 0.301863
v -1.348923 -0.134996 0.295204
v -1.349075 -0.136502 0.296342
v -1.381297 -0.133848 0.301879
v -1.381544 -0.136284 0.303720
v -1.349387 -0.139582 0.298670
v -1.349693 -0.142599 0.300949
v -1.381651 -0.137347 0.304523
v -1.349826 -0.143915 0.301944
v -1.333811 -0.125539 0.330089
v -1.337588 -0.141274 0.308499
v -1.330008 -0.109556 0.351492
v -1.328564 -0.102493 0.357315
v -1.328707 -0.103897 0.358376
v -1.327905 -0.095989 0.352401
v -1.328239 -0.099275 0.354883
v -1.328949 -0.099094 0.343587
v -1.327743 -0.094383 0.351187
v -1.332719 -0.114762 0.321945
v -1.336529 -0.130813 0.300594
v -1.328949 -0.099094 0.343587
v -1.329605 -0.103393 0.338102
v -1.332280 -0.115009 0.322051
v -1.335222 -0.126895 0.306246
v -1.337851 -0.136674 0.293863
v -1.338013 -0.138280 0.295076
v -1.336529 -0.130813 0.300594
v -1.338346 -0.141566 0.297559
v -1.338672 -0.144784 0.299991
v -1.338814 -0.146188 0.301052
vt 0.569160 0.157734
vt 0.384791 0.156409
vt 0.384855 0.164279
vt 0.564277 0.165130
vt 0.200412 0.157250
vt 0.205421 0.165093
vt 0.252632 0.167186
vt 0.384832 0.167137
vt 0.517031 0.167207
vt 0.545733 0.687515
vt 0.377005 0.684238
vt 0.375870 0.759393
vt 0.543916 0.763279
vt 0.208268 0.681256
vt 0.207814 0.756128
vt 0.251064 0.759067
vt 0.375841 0.762019
vt 0.500623 0.764371
vt 0.375820 0.763987
vt 0.544774 0.766735
vt 0.206880 0.759563
vt 0.204697 0.763821
vt 0.375789 0.768602
vt 0.546916 0.771148
vt 0.728474 0.714727
vt 0.853474 0.714727
vt 0.853474 0.713131
vt 0.728474 0.713131
vt 0.978474 0.714727
vt 0.978474 0.713131
vt 0.978474 0.711534
vt 0.853474 0.681518
vt 0.728474 0.711534
vt 0.150691 0.680631
vt 0.150873 0.755855
vt 0.145226 0.682109
vt 0.146990 0.759237
vt 0.604725 0.769025
vt 0.600826 0.765415
vt 0.608798 0.690801
vt 0.603284 0.689024
vt 0.592090 0.123575
vt 0.384323 0.119729
vt 0.384554 0.138481
vt 0.580651 0.140994
vt 0.176560 0.120501
vt 0.188455 0.139216
vt 0.132828 0.685434
vt 0.138109 0.766936
vt 0.120096 0.688751
vt 0.129109 0.774767
vt 0.194578 0.783570
vt 0.199630 0.773529
vt 0.375731 0.779165
vt 0.551929 0.781286
vt 0.375659 0.790127
vt 0.556903 0.791758
vt 0.622862 0.785781
vt 0.613739 0.777335
vt 0.634372 0.698962
vt 0.621417 0.694885
vt 0.665196 0.105640
vt 0.384335 0.103249
vt 0.384282 0.109387
vt 0.596818 0.114143
vt 0.103474 0.100859
vt 0.171743 0.110611
vt 0.113632 0.690204
vt 0.124867 0.778549
vt 0.111744 0.766982
vt 0.123005 0.780306
vt 0.134266 0.793630
vt 0.192442 0.788824
vt 0.375586 0.795937
vt 0.558928 0.797168
vt 0.375514 0.799170
vt 0.616761 0.804709
vt 0.628876 0.791602
vt 0.627093 0.789799
vt 0.640991 0.778495
vt 0.640893 0.700724
vt 0.559408 0.245182
vt 0.383679 0.245143
vt 0.380343 0.464684
vt 0.552360 0.466344
vt 0.207958 0.244231
vt 0.208326 0.462736
vt 0.147424 0.242709
vt 0.149228 0.461660
vt 0.139104 0.237333
vt 0.141963 0.459693
vt 0.120029 0.224858
vt 0.125444 0.455073
vt 0.100387 0.212509
vt 0.108385 0.450552
vt 0.090366 0.207511
vt 0.099502 0.448879
vt 0.077672 0.130278
vt 0.094708 0.448630
vt 0.853474 0.589872
vt 0.728474 0.589872
vt 0.978474 0.589872
vt 0.978474 0.468211
vt 0.853474 0.498191
vt 0.728474 0.468211
vt 0.661140 0.456839
vt 0.652264 0.458068
vt 0.665933 0.456716
vt 0.690874 0.134936
vt 0.676202 0.212899
vt 0.666276 0.217327
vt 0.635218 0.461506
vt 0.618712 0.465041
vt 0.646956 0.228250
vt 0.628199 0.239294
vt 0.611454 0.466559
vt 0.619965 0.244085
vt 0.384808 0.170026
vt 0.562489 0.169443
vt 0.207138 0.169400
vt 0.138552 0.160371
vt 0.146216 0.167545
vt 0.102513 0.126960
vt 0.120656 0.143790
vt 0.090573 0.115568
vt 0.094109 0.119037
vt 0.853474 0.466469
vt 0.728474 0.466469
vt 0.978474 0.466469
vt 0.978474 0.464727
vt 0.853474 0.464727
vt 0.728474 0.464727
vt 0.674443 0.123657
vt 0.666146 0.130969
vt 0.678035 0.120288
vt 0.648442 0.146165
vt 0.630988 0.161111
vt 0.623443 0.167670
vn 0.982366 -0.165402 -0.087170
vn 0.986806 -0.148547 -0.064406
vn 0.961268 -0.273622 0.033070
vn 0.875390 -0.460902 0.145815
vn 0.990422 -0.131689 -0.041512
vn 0.884330 -0.423556 0.196370
vn 0.653944 -0.655527 0.377679
vn 0.629674 -0.674037 0.386244
vn 0.606529 -0.690908 0.393406
vn -0.119121 -0.799962 0.588108
vn -0.117417 -0.789239 0.602756
vn -0.207526 -0.769190 0.604383
vn -0.359229 -0.731779 0.579184
vn -0.114483 -0.778370 0.617279
vn -0.353905 -0.709219 0.609721
vn -0.591332 -0.591953 0.547647
vn -0.650113 -0.552293 0.521848
vn -0.633318 -0.568738 0.524829
vn -0.974020 -0.062931 0.217543
vn -0.904834 -0.274112 0.325788
vn -0.896818 -0.240331 0.371428
vn -0.982244 0.165859 0.087684
vn -0.986806 0.148537 0.064421
vn -0.990497 0.131303 0.040924
vn -0.325105 0.784818 -0.527606
vn -0.230948 0.801416 -0.551720
vn -0.094506 0.808769 -0.580484
vn 0.031287 0.798325 -0.601414
vn -0.371746 0.781214 -0.501507
vn 0.033098 0.804598 -0.592896
vn 0.045191 0.803372 -0.593760
vn 0.043711 0.800392 -0.597881
vn 0.043383 0.796637 -0.602900
vn -0.010538 -0.121715 0.992509
vn -0.538619 -0.015349 0.842410
vn 0.096580 0.593797 0.798798
vn -0.595072 0.522026 0.611047
vn -0.794571 -0.312719 -0.520445
vn -0.703403 -0.704796 -0.092124
vn -0.184113 -0.580617 -0.793087
vn -0.211532 -0.965660 -0.150845
vn 0.982369 -0.165385 -0.087167
vn 0.986809 -0.148518 -0.064431
vn 0.986795 -0.148645 -0.064342
vn 0.982371 -0.165354 -0.087209
vn 0.990420 -0.131699 -0.041518
vn 0.990424 -0.131670 -0.041513
vn 0.096580 0.593798 0.798796
vn -0.595014 0.522047 0.611085
vn 0.096580 0.593797 0.798797
vn -0.595063 0.522028 0.611054
vn -0.982244 0.165845 0.087710
vn -0.982254 0.165747 0.087779
vn -0.986792 0.148681 0.064301
vn -0.990505 0.131223 0.040986
vn -0.986802 0.148582 0.064386
vn -0.990500 0.131280 0.040929
vn -0.794555 -0.312798 -0.520423
vn -0.794539 -0.312764 -0.520468
vn -0.184112 -0.580617 -0.793087
vn -0.184112 -0.580615 -0.793088
vn 0.964975 0.091270 -0.245953
vn 0.981491 0.021471 -0.190299
vn 0.989703 -0.063828 -0.128115
vn 0.944668 0.124595 -0.303444
vn 0.957283 0.134800 -0.255809
vn 0.954716 0.166762 -0.246391
vn 0.102796 0.980693 0.166357
vn -0.448036 0.877168 0.172742
vn 0.051696 0.829710 -0.555795
vn -0.501583 0.755810 -0.420910
vn -0.830395 0.510614 -0.222977
vn -0.828982 0.522650 -0.199062
vn -0.956220 0.289301 -0.044131
vn -0.838070 0.484777 -0.250260
vn -0.894373 0.420900 -0.151461
vn -0.799219 0.538447 -0.267064
vn -0.512113 0.710731 -0.482288
vn -0.613948 0.183230 -0.767785
vn 0.035843 0.769250 -0.637942
vn -0.101556 0.129853 -0.986319
vn -0.121249 -0.805099 0.580616
vn -0.117430 -0.789223 0.602774
vn -0.117374 -0.789262 0.602735
vn -0.120392 -0.802708 0.584094
vn -0.113018 -0.772771 0.624541
vn -0.113850 -0.775529 0.620961
vn -0.008713 -0.114154 0.993425
vn -0.009874 -0.117560 0.993017
vn 0.096580 0.593798 0.798797
vn 0.096580 0.593798 0.798797
vn 0.096580 0.593797 0.798797
vn 0.096580 0.593799 0.798796
vn 0.096580 0.593797 0.798798
vn 0.096580 0.593794 0.798800
vn 0.102396 0.978466 0.179217
vn 0.102776 0.979580 0.172800
vn 0.052829 0.842872 -0.535515
vn 0.052996 0.836825 -0.544899
vn 0.043794 0.800408 -0.597853
vn 0.043155 0.795784 -0.604041
vn 0.045181 0.804187 -0.592657
vn 0.045352 0.804976 -0.591571
vn 0.043680 0.800379 -0.597902
vn 0.043119 0.795045 -0.605016
vn -0.101944 0.122893 -0.987170
vn -0.184112 -0.580618 -0.793086
vn 0.035124 0.761484 -0.647231
vn 0.032926 0.753803 -0.656275
vn -0.102575 0.117034 -0.987816
vn -0.184112 -0.580618 -0.793086
vn -0.184112 -0.580616 -0.793087
vn -0.184112 -0.580616 -0.793088
vn -0.184112 -0.580616 -0.793088
vn -0.184112 -0.580616 -0.793087
vn -0.212303 -0.964882 -0.154692
vn -0.212448 -0.964220 -0.158575
vn 0.045403 -0.808048 0.587364
vn 0.270004 -0.814695 0.513196
vn 0.279060 -0.776960 0.564321
vn 0.767481 0.335193 0.546460
vn 0.575605 -0.173642 0.799079
vn 0.767531 0.335154 0.546414
vn 0.767478 0.335166 0.546481
vn 0.738960 0.513412 -0.436288
vn 0.670127 0.731964 0.123119
vn 0.281726 0.748282 -0.600586
vn 0.065497 0.791899 -0.607130
vn 0.067760 0.802314 -0.593044
vn 0.628230 0.574135 -0.525068
vn 0.503614 0.651471 -0.567414
vn 0.679801 0.519739 -0.517437
vn 0.495240 0.000194 -0.868756
vn 0.559563 -0.534968 -0.633008
vn 0.722829 0.445091 -0.528595
vn 0.559499 -0.535011 -0.633027
vn 0.559503 -0.534988 -0.633044
vn 0.402674 -0.897147 -0.181608
f 1/1/1 2/2/2 3/3/3
f 1/1/1 3/3/3 4/4/4
f 2/2/2 5/5/5 6/6/6
f 2/2/2 6/6/6 3/3/3
f 3/3/3 6/6/6 7/7/7
f 3/3/3 7/7/7 8/8/8
f 4/4/4 3/3/3 8/8/8
f 4/4/4 8/8/8 9/9/9
f 10/10/10 11/11/11 12/12/12
f 10/10/10 12/12/12 13/13/13
f 11/11/11 14/14/14 15/15/15
f 11/11/11 15/15/15 12/12/12
f 12/12/12 15/15/15 16/16/16
f 12/12/12 16/16/16 17/17/17
f 13/13/13 12/12/12 17/17/17
f 13/13/13 17/17/17 18/18/18
f 18/18/18 17/17/17 19/19/19
f 18/18/18 19/19/19 20/20/20
f 17/17/17 16/16/16 21/21/21
f 17/17/17 21/21/21 19/19/19
f 19/19/19 21/21/21 22/22/22
f 19/19/19 22/22/22 23/23/23
f 20/20/20 19/19/19 23/23/23
f 20/20/20 23/23/23 24/24/24
f 25/25/25 26/26/26 27/27/27
f 25/25/25 27/27/27 28/28/28
f 26/26/26 29/29/29 30/30/30
f 26/26/26 30/30/30 27/27/27
f 27/27/27 30/30/30 31/31/31
f 27/27/27 31/31/31 32/32/32
f 28/28/28 27/27/27 32/32/32
f 28/28/28 32/32/32 33/33/33
f 14/14/14 34/34/34 35/35/35
f 14/14/14 35/35/35 15/15/15
f 34/34/34 36/36/36 37/37/37
f 34/34/34 37/37/37 35/35/35
f 35/35/35 37/37/37 22/22/22
f 35/35/35 22/22/22 21/21/21
f 15/15/15 35/35/35 21/21/21
f 15/15/15 21/21/21 16/16/16
f 24/24/24 38/38/38 39/39/39
f 24/24/24 39/39/39 20/20/20
f 38/38/38 40/40/40 41/41/41
f 38/38/38 41/41/41 39/39/39
f 39/39/39 41/41/41 10/10/10
f 39/39/39 10/10/10 13/13/13
f 20/20/20 39/39/39 13/13/13
f 20/20/20 13/13/13 18/18/18
f 42/42/42 43/43/43 44/44/44
f 42/42/42 44/44/44 45/45/45
f 43/43/43 46/46/46 47/47/47
f 43/43/43 47/47/47 44/44/44
f 44/44/44 47/47/47 5/5/5
f 44/44/44 5/5/5 2/2/2
f 45/45/45 44/44/44 2/2/2
f 45/45/45 2/2/2 1/1/1
f 36/36/36 48/48/48 49/49/49
f 36/36/36 49/49/49 37/37/37
f 48/48/48 50/50/50 51/51/51
f 48/48/48 51/51/51 49/49/49
f 49/49/49 51/51/51 52/52/52
f 49/49/49 52/52/52 53/53/53
f 37/37/37 49/49/49 53/53/53
f 37/37/37 53/53/53 22/22/22
f 24/24/24 23/23/23 54/54/54
f 24/24/24 54/54/54 55/55/55
f 23/23/23 22/22/22 53/53/53
f 23/23/23 53/53/53 54/54/54
f 54/54/54 53/53/53 52/52/52
f 54/54/54 52/52/52 56/56/56
f 55/55/55 54/54/54 56/56/56
f 55/55/55 56/56/56 57/57/57
f 57/57/57 58/58/58 59/59/59
f 57/57/57 59/59/59 55/55/55
f 58/58/58 60/60/60 61/61/61
f 58/58/58 61/61/61 59/59/59
f 59/59/59 61/61/61 40/40/40
f 59/59/59 40/40/40 38/38/38
f 55/55/55 59/59/59 38/38/38
f 55/55/55 38/38/38 24/24/24
f 62/62/62 63/63/63 64/64/64
f 62/62/62 64/64/64 65/65/65
f 63/63/63 66/66/66 67/67/67
f 63/63/63 67/67/67 64/64/64
f 64/64/64 67/67/67 46/46/46
f 64/64/64 46/46/46 43/43/43
f 65/65/65 64/64/64 43/43/43
f 65/65/65 43/43/43 42/42/42
f 50/50/50 68/68/68 69/69/69
f 50/50/50 69/69/69 51/51/51
f 68/68/68 70/70/70 71/71/71
f 68/68/68 71/71/71 69/69/69
f 69/69/69 71/71/71 72/72/72
f 69/69/69 72/72/72 73/73/73
f 51/51/51 69/69/69 73/73/73
f 51/51/51 73/73/73 52/52/52
f 57/57/57 56/56/56 74/74/74
f 57/57/57 74/74/74 75/75/75
f 56/56/56 52/52/52 73/73/73
f 56/56/56 73/73/73 74/74/74
f 74/74/74 73/73/73 72/72/72
f 74/74/74 72/72/72 76/76/76
f 75/75/75 74/74/74 76/76/76
f 75/75/75 76/76/76 77/77/77
f 77/77/77 78/78/78 79/79/79
f 77/77/77 79/79/79 75/75/75
f 78/78/78 80/80/80 81/81/81
f 78/78/78 81/81/81 79/79/79
f 79/79/79 81/81/81 60/60/60
f 79/79/79 60/60/60 58/58/58
f 75/75/75 79/79/79 58/58/58
f 75/75/75 58/58/58 57/57/57
f 82/82/82 83/83/83 84/84/84
f 82/82/82 84/84/84 85/85/85
f 83/83/83 86/86/86 87/87/87
f 83/83/83 87/87/87 84/84/84
f 84/84/84 87/87/87 14/14/14
f 84/84/84 14/14/14 11/11/11
f 85/85/85 84/84/84 11/11/11
f 85/85/85 11/11/11 10/10/10
f 86/86/86 88/88/88 89/89/89
f 86/86/86 89/89/89 87/87/87
f 88/88/88 90/90/90 91/91/91
f 88/88/88 91/91/91 89/89/89
f 89/89/89 91/91/91 36/36/36
f 89/89/89 36/36/36 34/34/34
f 87/87/87 89/89/89 34/34/34
f 87/87/87 34/34/34 14/14/14
f 90/90/90 92/92/92 93/93/93
f 90/90/90 93/93/93 91/91/91
f 92/92/92 94/94/94 95/95/95
f 92/92/92 95/95/95 93/93/93
f 93/93/93 95/95/95 50/50/50
f 93/93/93 50/50/50 48/48/48
f 91/91/91 93/93/93 48/48/48
f 91/91/91 48/48/48 36/36/36
f 94/94/94 96/96/96 97/97/97
f 94/94/94 97/97/97 95/95/95
f 96/96/96 98/98/98 99/99/99
f 96/96/96 99/99/99 97/97/97
f 97/97/97 99/99/99 70/70/70
f 97/97/97 70/70/70 68/68/68
f 95/95/95 97/97/97 68/68/68
f 95/95/95 68/68/68 50/50/50
f 33/33/33 32/32/32 100/100/100
f 33/33/33 100/100/100 101/101/101
f 32/32/32 31/31/31 102/102/102
f 32/32/32 102/102/102 100/100/100
f 100/100/100 102/102/102 103/103/103
f 100/100/100 103/103/103 104/104/104
f 101/101/101 100/100/100 104/104/104
f 101/101/101 104/104/104 105/105/105
f 60/60/60 81/81/81 106/106/106
f 60/60/60 106/106/106 107/107/107
f 81/81/81 80/80/80 108/108/108
f 81/81/81 108/108/108 106/106/106
f 106/106/106 108/108/108 109/109/109
f 106/106/106 109/109/109 110/110/110
f 107/107/107 106/106/106 110/110/110
f 107/107/107 110/110/110 111/111/111
f 40/40/40 61/61/61 112/112/112
f 40/40/40 112/112/112 113/113/113
f 61/61/61 60/60/60 107/107/107
f 61/61/61 107/107/107 112/112/112
f 112/112/112 107/107/107 111/111/111
f 112/112/112 111/111/111 114/114/114
f 113/113/113 112/112/112 114/114/114
f 113/113/113 114/114/114 115/115/115
f 10/10/10 41/41/41 116/116/116
f 10/10/10 116/116/116 85/85/85
f 41/41/41 40/40/40 113/113/113
f 41/41/41 113/113/113 116/116/116
f 116/116/116 113/113/113 115/115/115
f 116/116/116 115/115/115 117/117/117
f 85/85/85 116/116/116 117/117/117
f 85/85/85 117/117/117 82/82/82
f 9/9/9 8/8/8 118/118/118
f 9/9/9 118/118/118 119/119/119
f 8/8/8 7/7/7 120/120/120
f 8/8/8 120/120/120 118/118/118
f 118/118/118 120/120/120 86/86/86
f 118/118/118 86/86/86 83/83/83
f 119/119/119 118/118/118 83/83/83
f 119/119/119 83/83/83 82/82/82
f 5/5/5 121/121/121 122/122/122
f 5/5/5 122/122/122 6/6/6
f 121/121/121 90/90/90 88/88/88
f 121/121/121 88/88/88 122/122/122
f 122/122/122 88/88/88 86/86/86
f 122/122/122 86/86/86 120/120/120
f 6/6/6 122/122/122 120/120/120
f 6/6/6 120/120/120 7/7/7
f 46/46/46 123/123/123 124/124/124
f 46/46/46 124/124/124 47/47/47
f 123/123/123 94/94/94 92/92/92
f 123/123/123 92/92/92 124/124/124
f 124/124/124 92/92/92 90/90/90
f 124/124/124 90/90/90 121/121/121
f 47/47/47 124/124/124 121/121/121
f 47/47/47 121/121/121 5/5/5
f 66/66/66 125/125/125 126/126/126
f 66/66/66 126/126/126 67/67/67
f 125/125/125 98/98/98 96/96/96
f 125/125/125 96/96/96 126/126/126
f 126/126/126 96/96/96 94/94/94
f 126/126/126 94/94/94 123/123/123
f 67/67/67 126/126/126 123/123/123
f 67/67/67 123/123/123 46/46/46
f 105/105/105 104/104/104 127/127/127
f 105/105/105 127/127/127 128/128/128
f 104/104/104 103/103/103 129/129/129
f 104/104/104 129/129/129 127/127/127
f 127/127/127 129/129/129 130/130/130
f 127/127/127 130/130/130 131/131/131
f 128/128/128 127/127/127 131/131/131
f 128/128/128 131/131/131 132/132/132
f 111/111/111 110/110/110 133/133/133
f 111/111/111 133/133/133 134/134/134
f 110/110/110 109/109/109 135/135/135
f 110/110/110 135/135/135 133/133/133
f 133/133/133 135/135/135 62/62/62
f 133/133/133 62/62/62 65/65/65
f 134/134/134 133/133/133 65/65/65
f 134/134/134 65/65/65 42/42/42
f 115/115/115 114/114/114 136/136/136
f 115/115/115 136/136/136 137/137/137
f 114/114/114 111/111/111 134/134/134
f 114/114/114 134/134/134 136/136/136
f 136/136/136 134/134/134 42/42/42
f 136/136/136 42/42/42 45/45/45
f 137/137/137 136/136/136 45/45/45
f 137/137/137 45/45/45 1/1/1
f 82/82/82 117/117/117 138/138/138
f 82/82/82 138/138/138 119/119/119
f 117/117/117 115/115/115 137/137/137
f 117/117/117 137/137/137 138/138/138
f 138/138/138 137/137/137 1/1/1
f 138/138/138 1/1/1 4/4/4
f 119/119/119 138/138/138 4/4/4
f 119/119/119 4/4/4 9/9/9
