# moteur_plaque6_moteur_plaque11_0_15
v -1.368115 -0.107849 0.130400
v -1.364177 -0.123742 0.151862
v -1.364675 -0.125151 0.150911
v -1.368613 -0.109257 0.129449
v -1.360530 -0.139584 0.173415
v -1.361028 -0.140991 0.172464
v -1.362223 -0.137130 0.166734
v -1.364952 -0.125498 0.150704
v -1.367840 -0.113628 0.134877
v -1.440506 -0.097477 0.154024
v -1.437098 -0.111914 0.173447
v -1.447633 -0.109911 0.176782
v -1.450992 -0.095702 0.157652
v -1.433640 -0.126207 0.192967
v -1.444230 -0.123992 0.195999
v -1.445386 -0.120216 0.191151
v -1.448010 -0.109772 0.176951
v -1.450393 -0.099267 0.162754
v -1.448076 -0.109556 0.177122
v -1.451322 -0.095443 0.157917
v -1.444563 -0.123719 0.196244
v -1.444309 -0.123000 0.196730
v -1.447822 -0.108838 0.177607
v -1.451067 -0.094724 0.158402
v -1.448540 -0.094029 0.166292
v -1.446116 -0.104414 0.180570
v -1.445673 -0.104367 0.180527
v -1.449089 -0.090320 0.161286
v -1.443533 -0.114979 0.194688
v -1.442327 -0.118611 0.199634
v -1.431506 -0.120175 0.197041
v -1.434900 -0.105699 0.177644
v -1.438373 -0.091445 0.158098
v -1.432419 -0.130781 0.199602
v -1.443035 -0.128516 0.202520
v -1.432133 -0.129971 0.200149
v -1.442780 -0.127793 0.203008
v -1.451795 -0.090073 0.151878
v -1.452051 -0.090795 0.151390
v -1.441288 -0.091665 0.148225
v -1.441575 -0.092474 0.147679
v -1.365809 -0.101329 0.134803
v -1.361869 -0.117217 0.156270
v -1.363035 -0.120513 0.154043
v -1.366974 -0.104623 0.132579
v -1.358225 -0.133063 0.177819
v -1.359389 -0.136357 0.175594
v -1.431477 -0.128115 0.201402
v -1.442194 -0.126138 0.204126
v -1.430807 -0.126221 0.202682
v -1.441597 -0.124448 0.205267
v -1.443132 -0.119670 0.198979
v -1.443726 -0.121352 0.197843
v -1.447240 -0.107193 0.178718
v -1.450485 -0.093076 0.159515
v -1.446646 -0.105513 0.179853
v -1.449890 -0.091394 0.160652
v -1.450612 -0.086727 0.154137
v -1.451210 -0.088417 0.152996
v -1.439962 -0.087914 0.150758
v -1.440632 -0.089809 0.149479
v -1.364220 -0.103393 0.141790
v -1.361244 -0.115009 0.157788
v -1.361299 -0.115605 0.157359
v -1.365240 -0.099718 0.135891
v -1.358603 -0.126896 0.173646
v -1.357655 -0.131453 0.178906
v -1.430479 -0.125295 0.203308
v -1.441304 -0.123622 0.205825
v -1.431506 -0.120175 0.197041
v -1.442327 -0.118611 0.199634
v -1.443533 -0.114979 0.194688
v -1.442841 -0.118847 0.199534
v -1.446355 -0.104692 0.180407
v -1.449599 -0.090571 0.161207
v -1.446116 -0.104414 0.180570
v -1.448540 -0.094029 0.166292
v -1.449089 -0.090320 0.161286
v -1.450320 -0.085901 0.154695
v -1.438373 -0.091445 0.158098
v -1.439635 -0.086988 0.151384
v -1.379700 -0.107775 0.132985
v -1.376003 -0.123530 0.154105
v -1.406557 -0.117721 0.163778
v -1.410109 -0.102625 0.143507
v -1.372224 -0.139052 0.175381
v -1.402938 -0.132628 0.184176
v -1.370855 -0.143915 0.182683
v -1.401643 -0.137347 0.191144
v -1.370389 -0.142599 0.183572
v -1.401267 -0.136284 0.191862
v -1.369322 -0.139582 0.185610
v -1.400406 -0.133848 0.193508
v -1.368233 -0.136502 0.187690
v -1.399526 -0.131360 0.195188
v -1.367701 -0.134996 0.188708
v -1.399096 -0.130144 0.196009
v -1.368756 -0.129243 0.182006
v -1.400138 -0.124708 0.189525
v -1.403672 -0.109561 0.169289
v -1.407309 -0.094705 0.148856
v -1.400138 -0.124708 0.189525
v -1.368756 -0.129243 0.182006
v -1.372430 -0.113425 0.160929
v -1.376232 -0.097966 0.139610
v -1.408658 -0.090139 0.141784
v -1.409087 -0.091355 0.140963
v -1.407309 -0.094705 0.148856
v -1.376232 -0.097966 0.139610
v -1.377668 -0.093292 0.132180
v -1.378201 -0.094798 0.131163
v -1.409967 -0.093843 0.139283
v -1.410829 -0.096279 0.137637
v -1.379290 -0.097879 0.129082
v -1.380357 -0.100896 0.127045
v -1.411204 -0.097342 0.136919
v -1.380822 -0.102212 0.126156
v -1.365432 -0.125539 0.150758
v -1.369178 -0.109556 0.129345
v -1.361597 -0.141274 0.172338
v -1.359706 -0.144784 0.180704
v -1.360202 -0.146188 0.179756
v -1.357406 -0.138281 0.185096
v -1.358568 -0.141566 0.182878
v -1.357898 -0.130813 0.179404
v -1.356838 -0.136674 0.186181
v -1.361621 -0.114762 0.158037
v -1.365479 -0.099094 0.136411
v -1.357898 -0.130813 0.179404
v -1.358603 -0.126896 0.173646
v -1.361244 -0.115009 0.157788
v -1.364220 -0.103393 0.141790
v -1.366946 -0.094383 0.128857
v -1.367513 -0.095989 0.127772
v -1.365479 -0.099094 0.136411
v -1.368676 -0.099275 0.125553
v -1.369814 -0.102493 0.123380
v -1.370310 -0.103897 0.122431
vt 0.569160 0.157734
vt 0.384791 0.156409
vt 0.384855 0.164279
vt 0.564277 0.165130
vt 0.200412 0.157250
vt 0.205421 0.165093
vt 0.252632 0.167186
vt 0.384832 0.167137
vt 0.517031 0.167207
vt 0.545733 0.687515
vt 0.377005 0.684238
vt 0.375870 0.759393
vt 0.543916 0.763279
vt 0.208268 0.681256
vt 0.207814 0.756128
vt 0.251064 0.759067
vt 0.375841 0.762019
vt 0.500623 0.764371
vt 0.375820 0.763987
vt 0.544774 0.766735
vt 0.206880 0.759563
vt 0.204697 0.763821
vt 0.375789 0.768602
vt 0.546916 0.771148
vt 0.728474 0.714727
vt 0.853474 0.714727
vt 0.853474 0.713131
vt 0.728474 0.713131
vt 0.978474 0.714727
vt 0.978474 0.713131
vt 0.978474 0.711534
vt 0.853474 0.681518
vt 0.728474 0.711534
vt 0.150691 0.680631
vt 0.150873 0.755855
vt 0.145226 0.682109
vt 0.146990 0.759237
vt 0.604725 0.769025
vt 0.600826 0.765415
vt 0.608798 0.690801
vt 0.603284 0.689024
vt 0.592090 0.123575
vt 0.384323 0.119729
vt 0.384554 0.138481
vt 0.580651 0.140994
vt 0.176560 0.120501
vt 0.188455 0.139216
vt 0.132828 0.685434
vt 0.138109 0.766936
vt 0.120096 0.688751
vt 0.129109 0.774767
vt 0.194578 0.783570
vt 0.199630 0.773529
vt 0.375731 0.779165
vt 0.551929 0.781286
vt 0.375659 0.790127
vt 0.556903 0.791758
vt 0.622862 0.785781
vt 0.613739 0.777335
vt 0.634372 0.698962
vt 0.621417 0.694885
vt 0.665196 0.105640
vt 0.384335 0.103249
vt 0.384282 0.109387
vt 0.596818 0.114143
vt 0.103474 0.100859
vt 0.171743 0.110611
vt 0.113632 0.690204
vt 0.124867 0.778549
vt 0.111744 0.766982
vt 0.123005 0.780306
vt 0.134266 0.793630
vt 0.192442 0.788824
vt 0.375586 0.795937
vt 0.558928 0.797168
vt 0.375514 0.799170
vt 0.616761 0.804709
vt 0.628876 0.791602
vt 0.627093 0.789799
vt 0.640991 0.778495
vt 0.640893 0.700724
vt 0.559408 0.245182
vt 0.383679 0.245143
vt 0.380343 0.464684
vt 0.552360 0.466344
vt 0.207958 0.244231
vt 0.208326 0.462736
vt 0.147424 0.242709
vt 0.149228 0.461660
vt 0.139104 0.237333
vt 0.141963 0.459693
vt 0.120029 0.224858
vt 0.125444 0.455073
vt 0.100387 0.212509
vt 0.108385 0.450552
vt 0.090366 0.207511
vt 0.099502 0.448879
vt 0.077672 0.130278
vt 0.094708 0.448630
vt 0.853474 0.589872
vt 0.728474 0.589872
vt 0.978474 0.589872
vt 0.978474 0.468211
vt 0.853474 0.498191
vt 0.728474 0.468211
vt 0.661140 0.456839
vt 0.652264 0.458068
vt 0.665933 0.456716
vt 0.690874 0.134936
vt 0.676202 0.212899
vt 0.666276 0.217327
vt 0.635218 0.461506
vt 0.618712 0.465041
vt 0.646956 0.228250
vt 0.628199 0.239294
vt 0.611454 0.466559
vt 0.619965 0.244085
vt 0.384808 0.170026
vt 0.562489 0.169443
vt 0.207138 0.169400
vt 0.138552 0.160371
vt 0.146216 0.167545
vt 0.102513 0.126960
vt 0.120656 0.143790
vt 0.090573 0.115568
vt 0.094109 0.119037
vt 0.853474 0.466469
vt 0.728474 0.466469
vt 0.978474 0.466469
vt 0.978474 0.464727
vt 0.853474 0.464727
vt 0.728474 0.464727
vt 0.674443 0.123657
vt 0.666146 0.130969
vt 0.678035 0.120288
vt 0.648442 0.146165
vt 0.630988 0.161111
vt 0.623443 0.167670
vn 0.944882 -0.131705 -0.299752
vn 0.949323 -0.148551 -0.276980
vn 0.892143 -0.274281 -0.358957
vn 0.763802 -0.423568 -0.487028
vn 0.952942 -0.165381 -0.254067
vn 0.772750 -0.460854 -0.436429
vn 0.487430 -0.664304 -0.566667
vn 0.459597 -0.674038 -0.578311
vn 0.433302 -0.682137 -0.589014
vn -0.318246 -0.778356 -0.541185
vn -0.316538 -0.789043 -0.526512
vn -0.401650 -0.769490 -0.496550
vn -0.541037 -0.709274 -0.451896
vn -0.313586 -0.799771 -0.511888
vn -0.535706 -0.731783 -0.421323
vn -0.741485 -0.598196 -0.303910
vn -0.789443 -0.552069 -0.268329
vn -0.776065 -0.562717 -0.284733
vn -0.989824 -0.062341 0.127911
vn -0.969747 -0.240408 -0.042354
vn -0.961712 -0.274040 0.003393
vn -0.944748 0.131344 0.300334
vn -0.949327 0.148533 0.276976
vn -0.953011 0.165825 0.253521
vn -0.126375 0.790372 0.599450
vn -0.028589 0.802538 0.595916
vn 0.109623 0.809217 0.577192
vn 0.233544 0.804818 0.545642
vn -0.175723 0.772517 0.610195
vn 0.235346 0.798480 0.554114
vn 0.247087 0.796912 0.551252
vn 0.245633 0.800096 0.547276
vn 0.245284 0.803690 0.542142
vn -0.147700 -0.965463 0.214628
vn -0.629475 -0.704798 0.327141
vn 0.098243 -0.580617 0.808228
vn -0.568666 -0.312721 0.760806
vn -0.768163 0.522041 -0.370674
vn -0.794258 -0.015343 -0.607387
vn -0.182450 0.593796 -0.783657
vn -0.348778 -0.122188 -0.929206
vn 0.944888 -0.131703 -0.299735
vn 0.949334 -0.148519 -0.276962
vn 0.949289 -0.148639 -0.277050
vn 0.944899 -0.131655 -0.299720
vn 0.952940 -0.165378 -0.254078
vn 0.952948 -0.165374 -0.254050
vn 0.098243 -0.580615 0.808229
vn -0.568610 -0.312759 0.760831
vn 0.098243 -0.580616 0.808228
vn -0.568657 -0.312728 0.760809
vn -0.944753 0.131316 0.300330
vn -0.944787 0.131222 0.300262
vn -0.949276 0.148688 0.277070
vn -0.953039 0.165743 0.253467
vn -0.949311 0.148580 0.277006
vn -0.953018 0.165813 0.253501
vn -0.768162 0.521993 -0.370743
vn -0.768135 0.522042 -0.370729
vn -0.182449 0.593797 -0.783656
vn -0.182449 0.593799 -0.783655
vn 0.989005 0.099200 -0.109671
vn 0.987074 0.022778 -0.158639
vn 0.973680 -0.063180 -0.218990
vn 0.981418 0.166699 -0.095022
vn 0.989827 0.123153 -0.071241
vn 0.991479 0.124633 -0.037896
vn 0.242957 0.130263 0.961251
vn -0.314250 0.183261 0.931484
vn 0.253320 0.768419 0.587674
vn -0.316574 0.710622 0.628329
vn -0.702417 0.503769 0.502819
vn -0.701872 0.484856 0.521814
vn -0.883304 0.288652 0.369396
vn -0.710975 0.522607 0.470528
vn -0.788329 0.419630 0.449942
vn -0.662085 0.548514 0.510661
vn -0.327076 0.755917 0.567107
vn -0.480170 0.877128 -0.009094
vn 0.237519 0.829293 0.505823
vn 0.038553 0.980692 -0.191718
vn -0.320293 -0.772574 -0.548217
vn -0.316549 -0.789053 -0.526490
vn -0.316497 -0.789037 -0.526545
vn -0.319470 -0.775235 -0.544931
vn -0.312085 -0.805085 -0.504422
vn -0.312932 -0.802446 -0.508088
vn -0.144772 -0.964286 0.221796
vn -0.146423 -0.964765 0.218608
vn 0.098243 -0.580616 0.808229
vn 0.098243 -0.580616 0.808229
vn 0.098243 -0.580617 0.808228
vn 0.098244 -0.580614 0.808230
vn 0.098243 -0.580617 0.808228
vn 0.098242 -0.580620 0.808226
vn 0.240678 0.117596 0.963455
vn 0.241993 0.123887 0.962337
vn 0.254207 0.753305 0.606557
vn 0.254481 0.760198 0.597778
vn 0.245714 0.800061 0.547290
vn 0.245056 0.804533 0.540993
vn 0.247082 0.796133 0.552379
vn 0.247251 0.795332 0.553457
vn 0.245603 0.800116 0.547260
vn 0.245014 0.805224 0.539984
vn 0.037124 0.979403 -0.198472
vn -0.182450 0.593796 -0.783657
vn 0.236630 0.835713 0.495571
vn 0.234278 0.842173 0.485653
vn 0.035615 0.978302 -0.204098
vn -0.182449 0.593796 -0.783657
vn -0.182449 0.593797 -0.783656
vn -0.182449 0.593798 -0.783656
vn -0.182449 0.593798 -0.783656
vn -0.182449 0.593797 -0.783656
vn -0.348950 -0.118217 -0.929655
vn -0.348523 -0.114352 -0.930298
vn -0.158397 -0.807329 -0.568446
vn 0.069191 -0.777009 -0.625676
vn 0.078248 -0.814728 -0.574539
vn 0.742274 -0.534988 0.403506
vn 0.440512 -0.897143 0.032928
vn 0.742322 -0.534965 0.403449
vn 0.742264 -0.535015 0.403488
vn 0.859906 0.445245 0.249636
vn 0.762500 0.000204 0.646989
vn 0.470403 0.747219 0.469452
vn 0.266655 0.802536 0.533696
vn 0.268927 0.792188 0.547829
vn 0.772003 0.565448 0.290310
vn 0.667760 0.649588 0.363500
vn 0.812615 0.532976 0.235785
vn 0.587610 0.731955 -0.344900
vn 0.534354 0.335155 -0.775975
vn 0.843736 0.513252 0.157104
vn 0.534287 0.335170 -0.776015
vn 0.534296 0.335193 -0.775999
vn 0.267581 -0.173639 -0.947761
f 1/1/1 2/2/2 3/3/3
f 1/1/1 3/3/3 4/4/4
f 2/2/2 5/5/5 6/6/6
f 2/2/2 6/6/6 3/3/3
f 3/3/3 6/6/6 7/7/7
f 3/3/3 7/7/7 8/8/8
f 4/4/4 3/3/3 8/8/8
f 4/4/4 8/8/8 9/9/9
f 10/10/10 11/11/11 12/12/12
f 10/10/10 12/12/12 13/13/13
f 11/11/11 14/14/14 15/15/15
f 11/11/11 15/15/15 12/12/12
f 12/12/12 15/15/15 16/16/16
f 12/12/12 16/16/16 17/17/17
f 13/13/13 12/12/12 17/17/17
f 13/13/13 17/17/17 18/18/18
f 18/18/18 17/17/17 19/19/19
f 18/18/18 19/19/19 20/20/20
f 17/17/17 16/16/16 21/21/21
f 17/17/17 21/21/21 19/19/19
f 19/19/19 21/21/21 22/22/22
f 19/19/19 22/22/22 23/23/23
f 20/20/20 19/19/19 23/23/23
f 20/20/20 23/23/23 24/24/24
f 25/25/25 26/26/26 27/27/27
f 25/25/25 27/27/27 28/28/28
f 26/26/26 29/29/29 30/30/30
f 26/26/26 30/30/30 27/27/27
f 27/27/27 30/30/30 31/31/31
f 27/27/27 31/31/31 32/32/32
f 28/28/28 27/27/27 32/32/32
f 28/28/28 32/32/32 33/33/33
f 14/14/14 34/34/34 35/35/35
f 14/14/14 35/35/35 15/15/15
f 34/34/34 36/36/36 37/37/37
f 34/34/34 37/37/37 35/35/35
f 35/35/35 37/37/37 22/22/22
f 35/35/35 22/22/22 21/21/21
f 15/15/15 35/35/35 21/21/21
f 15/15/15 21/21/21 16/16/16
f 24/24/24 38/38/38 39/39/39
f 24/24/24 39/39/39 20/20/20
f 38/38/38 40/40/40 41/41/41
f 38/38/38 41/41/41 39/39/39
f 39/39/39 41/41/41 10/10/10
f 39/39/39 10/10/10 13/13/13
f 20/20/20 39/39/39 13/13/13
f 20/20/20 13/13/13 18/18/18
f 42/42/42 43/43/43 44/44/44
f 42/42/42 44/44/44 45/45/45
f 43/43/43 46/46/46 47/47/47
f 43/43/43 47/47/47 44/44/44
f 44/44/44 47/47/47 5/5/5
f 44/44/44 5/5/5 2/2/2
f 45/45/45 44/44/44 2/2/2
f 45/45/45 2/2/2 1/1/1
f 36/36/36 48/48/48 49/49/49
f 36/36/36 49/49/49 37/37/37
f 48/48/48 50/50/50 51/51/51
f 48/48/48 51/51/51 49/49/49
f 49/49/49 51/51/51 52/52/52
f 49/49/49 52/52/52 53/53/53
f 37/37/37 49/49/49 53/53/53
f 37/37/37 53/53/53 22/22/22
f 24/24/24 23/23/23 54/54/54
f 24/24/24 54/54/54 55/55/55
f 23/23/23 22/22/22 53/53/53
f 23/23/23 53/53/53 54/54/54
f 54/54/54 53/53/53 52/52/52
f 54/54/54 52/52/52 56/56/56
f 55/55/55 54/54/54 56/56/56
f 55/55/55 56/56/56 57/57/57
f 57/57/57 58/58/58 59/59/59
f 57/57/57 59/59/59 55/55/55
f 58/58/58 60/60/60 61/61/61
f 58/58/58 61/61/61 59/59/59
f 59/59/59 61/61/61 40/40/40
f 59/59/59 40/40/40 38/38/38
f 55/55/55 59/59/59 38/38/38
f 55/55/55 38/38/38 24/24/24
f 62/62/62 63/63/63 64/64/64
f 62/62/62 64/64/64 65/65/65
f 63/63/63 66/66/66 67/67/67
f 63/63/63 67/67/67 64/64/64
f 64/64/64 67/67/67 46/46/46
f 64/64/64 46/46/46 43/43/43
f 65/65/65 64/64/64 43/43/43
f 65/65/65 43/43/43 42/42/42
f 50/50/50 68/68/68 69/69/69
f 50/50/50 69/69/69 51/51/51
f 68/68/68 70/70/70 71/71/71
f 68/68/68 71/71/71 69/69/69
f 69/69/69 71/71/71 72/72/72
f 69/69/69 72/72/72 73/73/73
f 51/51/51 69/69/69 73/73/73
f 51/51/51 73/73/73 52/52/52
f 57/57/57 56/56/56 74/74/74
f 57/57/57 74/74/74 75/75/75
f 56/56/56 52/52/52 73/73/73
f 56/56/56 73/73/73 74/74/74
f 74/74/74 73/73/73 72/72/72
f 74/74/74 72/72/72 76/76/76
f 75/75/75 74/74/74 76/76/76
f 75/75/75 76/76/76 77/77/77
f 77/77/77 78/78/78 79/79/79
f 77/77/77 79/79/79 75/75/75
f 78/78/78 80/80/80 81/81/81
f 78/78/78 81/81/81 79/79/79
f 79/79/79 81/81/81 60/60/60
f 79/79/79 60/60/60 58/58/58
f 75/75/75 79/79/79 58/58/58
f 75/75/75 58/58/58 57/57/57
f 82/82/82 83/83/83 84/84/84
f 82/82/82 84/84/84 85/85/85
f 83/83/83 86/86/86 87/87/87
f 83/83/83 87/87/87 84/84/84
f 84/84/84 87/87/87 14/14/14
f 84/84/84 14/14/14 11/11/11
f 85/85/85 84/84/84 11/11/11
f 85/85/85 11/11/11 10/10/10
f 86/86/86 88/88/88 89/89/89
f 86/86/86 89/89/89 87/87/87
f 88/88/88 90/90/90 91/91/91
f 88/88/88 91/91/91 89/89/89
f 89/89/89 91/91/91 36/36/36
f 89/89/89 36/36/36 34/34/34
f 87/87/87 89/89/89 34/34/34
f 87/87/87 34/34/34 14/14/14
f 90/90/90 92/92/92 93/93/93
f 90/90/90 93/93/93 91/91/91
f 92/92/92 94/94/94 95/95/95
f 92/92/92 95/95/95 93/93/93
f 93/93/93 95/95/95 50/50/50
f 93/93/93 50/50/50 48/48/48
f 91/91/91 93/93/93 48/48/48
f 91/91/91 48/48/48 36/36/36
f 94/94/94 96/96/96 97/97/97
f 94/94/94 97/97/97 95/95/95
f 96/96/96 98/98/98 99/99/99
f 96/96/96 99/99/99 97/97/97
f 97/97/97 99/99/99 70/70/70
f 97/97/97 70/70/70 68/68/68
f 95/95/95 97/97/97 68/68/68
f 95/95/95 68/68/68 50/50/50
f 33/33/33 32/32/32 100/100/100
f 33/33/33 100/100/100 101/101/101
f 32/32/32 31/31/31 102/102/102
f 32/32/32 102/102/102 100/100/100
f 100/100/100 102/102/102 103/103/103
f 100/100/100 103/103/103 104/104/104
f 101/101/101 100/100/100 104/104/104
f 101/101/101 104/104/104 105/105/105
f 60/60/60 81/81/81 106/106/106
f 60/60/60 106/106/106 107/107/107
f 81/81/81 80/80/80 108/108/108
f 81/81/81 108/108/108 106/106/106
f 106/106/106 108/108/108 109/109/109
f 106/106/106 109/109/109 110/110/110
f 107/107/107 106/106/106 110/110/110
f 107/107/107 110/110/110 111/111/111
f 40/40/40 61/61/61 112/112/112
f 40/40/40 112/112/112 113/113/113
f 61/61/61 60/60/60 107/107/107
f 61/61/61 107/107/107 112/112/112
f 112/112/112 107/107/107 111/111/111
f 112/112/112 111/111/111 114/114/114
f 113/113/113 112/112/112 114/114/114
f 113/113/113 114/114/114 115/115/115
f 10/10/10 41/41/41 116/116/116
f 10/10/10 116/116/116 85/85/85
f 41/41/41 40/40/40 113/113/113
f 41/41/41 113/113/113 116/116/116
f 116/116/116 113/113/113 115/115/115
f 116/116/116 115/115/115 117/117/117
f 85/85/85 116/116/116 117/117/117
f 85/85/85 117/117/117 82/82/82
f 9/9/9 8/8/8 118/118/118
f 9/9/9 118/118/118 119/119/119
f 8/8/8 7/7/7 120/120/120
f 8/8/8 120/120/120 118/118/118
f 118/118/118 120/120/120 86/86/86
f 118/118/118 86/86/86 83/83/83
f 119/119/119 118/118/118 83/83/83
f 119/119/119 83/83/83 82/82/82
f 5/5/5 121/121/121 122/122/122
f 5/5/5 122/122/122 6/6/6
f 121/121/121 90/90/90 88/88/88
f 121/121/121 88/88/88 122/122/122
f 122/122/122 88/88/88 86/86/86
f 122/122/122 86/86/86 120/120/120
f 6/6/6 122/122/122 120/120/120
f 6/6/6 120/120/120 7/7/7
f 46/46/46 123/123/123 124/124/124
f 46/46/46 124/124/124 47/47/47
f 123/123/123 94/94/94 92/92/92
f 123/123/123 92/92/92 124/124/124
f 124/124/124 92/92/92 90/90/90
f 124/124/124 90/90/90 121/121/121
f 47/47/47 124/124/124 121/121/121
f 47/47/47 121/121/121 5/5/5
f 66/66/66 125/125/125 126/126/126
f 66/66/66 126/126/126 67/67/67
f 125/125/125 98/98/98 96/96/96
f 125/125/125 96/96/96 126/126/126
f 126/126/126 96/96/96 94/94/94
f 126/126/126 94/94/94 123/123/123
f 67/67/67 126/126/126 123/123/123
f 67/67/67 123/123/123 46/46/46
f 105/105/105 104/104/104 127/127/127
f 105/105/105 127/127/127 128/128/128
f 104/104/104 103/103/103 129/129/129
f 104/104/104 129/129/129 127/127/127
f 127/127/127 129/129/129 130/130/130
f 127/127/127 130/130/130 131/131/131
f 128/128/128 127/127/127 131/131/131
f 128/128/128 131/131/131 132/132/132
f 111/111/111 110/110/110 133/133/133
f 111/111/111 133/133/133 134/134/134
f 110/110/110 109/109/109 135/135/135
f 110/110/110 135/135/135 133/133/133
f 133/133/133 135/135/135 62/62/62
f 133/133/133 62/62/62 65/65/65
f 134/134/134 133/133/133 65/65/65
f 134/134/134 65/65/65 42/42/42
f 115/115/115 114/114/114 136/136/136
f 115/115/115 136/136/136 137/137/137
f 114/114/114 111/111/111 134/134/134
f 114/114/114 134/134/134 136/136/136
f 136/136/136 134/134/134 42/42/42
f 136/136/136 42/42/42 45/45/45
f 137/137/137 136/136/136 45/45/45
f 137/137/137 45/45/45 1/1/1
f 82/82/82 117/117/117 138/138/138
f 82/82/82 138/138/138 119/119/119
f 117/117/117 115/115/115 137/137/137
f 117/117/117 137/137/137 138/138/138
f 138/138/138 137/137/137 1/1/1
f 138/138/138 1/1/1 4/4/4
f 119/119/119 138/138/138 4/4/4
f 119/119/119 4/4/4 9/9/9
