# moteur_plaque3_moteur_plaque11_0_18
v -1.324981 -0.073066 0.375025
v -1.323378 -0.047402 0.383244
v -1.323411 -0.047940 0.384931
v -1.325014 -0.073604 0.376711
v -1.322084 -0.021719 0.391455
v -1.322117 -0.022256 0.393141
v -1.322619 -0.029014 0.391337
v -1.323574 -0.048073 0.385374
v -1.324764 -0.067041 0.379169
v -1.401516 -0.066100 0.375148
v -1.400206 -0.042884 0.382671
v -1.411403 -0.042119 0.382254
v -1.412693 -0.064982 0.374854
v -1.398893 -0.019614 0.390023
v -1.410110 -0.019207 0.389501
v -1.410759 -0.025106 0.387530
v -1.411826 -0.042066 0.382162
v -1.412671 -0.059003 0.376684
v -1.411963 -0.041983 0.381929
v -1.413112 -0.064869 0.374614
v -1.410531 -0.019117 0.389254
v -1.410514 -0.018843 0.388392
v -1.411946 -0.041709 0.381069
v -1.413095 -0.064594 0.373753
v -1.412549 -0.057002 0.370410
v -1.411701 -0.040020 0.375746
v -1.411274 -0.040002 0.375614
v -1.412567 -0.062927 0.368408
v -1.410636 -0.023105 0.381257
v -1.409985 -0.017151 0.383055
v -1.398753 -0.017310 0.382797
v -1.400061 -0.040510 0.375227
v -1.401375 -0.063796 0.367922
v -1.398451 -0.011784 0.392244
v -1.409675 -0.011505 0.391713
v -1.398432 -0.011475 0.391275
v -1.409659 -0.011229 0.390848
v -1.413102 -0.072263 0.371318
v -1.413119 -0.072538 0.372183
v -1.401929 -0.073456 0.371442
v -1.401948 -0.073766 0.372411
v -1.324829 -0.070576 0.367215
v -1.323226 -0.044910 0.375427
v -1.323303 -0.046169 0.379376
v -1.324906 -0.071834 0.371160
v -1.321932 -0.019228 0.383645
v -1.322008 -0.020486 0.387590
v -1.398389 -0.010766 0.389052
v -1.409620 -0.010596 0.388865
v -1.398345 -0.010042 0.386782
v -1.409580 -0.009951 0.386841
v -1.410436 -0.017571 0.384404
v -1.410475 -0.018213 0.386419
v -1.411907 -0.041081 0.379098
v -1.413057 -0.063965 0.371779
v -1.411868 -0.040439 0.377086
v -1.413018 -0.063322 0.369764
v -1.413024 -0.070985 0.367311
v -1.413063 -0.071630 0.369335
v -1.401842 -0.072024 0.366949
v -1.401886 -0.072748 0.369219
v -1.324526 -0.063132 0.366909
v -1.323329 -0.044067 0.372810
v -1.323189 -0.044294 0.373496
v -1.324791 -0.069960 0.365286
v -1.322380 -0.025104 0.379078
v -1.321894 -0.018613 0.381716
v -1.398323 -0.009688 0.385673
v -1.409561 -0.009635 0.385851
v -1.398753 -0.017310 0.382797
v -1.409985 -0.017151 0.383055
v -1.410636 -0.023105 0.381257
v -1.410417 -0.017256 0.383418
v -1.411849 -0.040126 0.376103
v -1.412998 -0.063008 0.368778
v -1.411701 -0.040020 0.375746
v -1.412549 -0.057002 0.370410
v -1.412567 -0.062927 0.368408
v -1.413005 -0.070669 0.366321
v -1.401375 -0.063796 0.367922
v -1.401820 -0.071670 0.365840
v -1.336700 -0.072581 0.376851
v -1.335275 -0.047321 0.385087
v -1.367747 -0.045102 0.383879
v -1.369114 -0.069340 0.375999
v -1.333845 -0.021973 0.393045
v -1.366375 -0.020793 0.391533
v -1.333360 -0.013404 0.395325
v -1.365912 -0.012594 0.393784
v -1.333330 -0.012902 0.393749
v -1.365887 -0.012188 0.392511
v -1.333259 -0.011749 0.390135
v -1.365831 -0.011257 0.389593
v -1.333188 -0.010573 0.386445
v -1.365772 -0.010307 0.386614
v -1.333152 -0.009997 0.384641
v -1.365744 -0.009843 0.385157
v -1.333616 -0.018226 0.381296
v -1.366191 -0.017768 0.382047
v -1.367557 -0.041986 0.374106
v -1.368930 -0.066314 0.366512
v -1.366191 -0.017768 0.382047
v -1.333616 -0.018226 0.381296
v -1.335039 -0.043461 0.372984
v -1.336471 -0.068834 0.365103
v -1.369396 -0.074572 0.364445
v -1.369425 -0.075036 0.365901
v -1.368930 -0.066314 0.366512
v -1.336471 -0.068834 0.365103
v -1.336960 -0.077475 0.363049
v -1.336995 -0.078050 0.364853
v -1.369483 -0.075986 0.368881
v -1.369540 -0.076917 0.371799
v -1.337066 -0.079227 0.368543
v -1.337137 -0.080379 0.372157
v -1.369564 -0.077323 0.373072
v -1.337168 -0.080882 0.373734
v -1.324039 -0.048089 0.385506
v -1.325484 -0.073702 0.377146
v -1.322589 -0.022381 0.393568
v -1.322065 -0.013148 0.394177
v -1.322097 -0.013685 0.395858
v -1.321913 -0.010664 0.386386
v -1.321990 -0.011919 0.390322
v -1.322345 -0.018385 0.381037
v -1.321876 -0.010051 0.384462
v -1.323788 -0.043972 0.372596
v -1.325241 -0.069706 0.364615
v -1.322345 -0.018385 0.381037
v -1.322380 -0.025104 0.379078
v -1.323329 -0.044067 0.372810
v -1.324526 -0.063132 0.366909
v -1.325737 -0.078479 0.362566
v -1.325774 -0.079093 0.364490
v -1.325241 -0.069706 0.364615
v -1.325851 -0.080348 0.368426
v -1.325926 -0.081577 0.372281
v -1.325958 -0.082113 0.373962
vt 0.569160 0.157734
vt 0.384791 0.156409
vt 0.384855 0.164279
vt 0.564277 0.165130
vt 0.200412 0.157250
vt 0.205421 0.165093
vt 0.252632 0.167186
vt 0.384832 0.167137
vt 0.517031 0.167207
vt 0.545733 0.687515
vt 0.377005 0.684238
vt 0.375870 0.759393
vt 0.543916 0.763279
vt 0.208268 0.681256
vt 0.207814 0.756128
vt 0.251064 0.759067
vt 0.375841 0.762019
vt 0.500623 0.764371
vt 0.375820 0.763987
vt 0.544774 0.766735
vt 0.206880 0.759563
vt 0.204697 0.763821
vt 0.375789 0.768602
vt 0.546916 0.771148
vt 0.728474 0.714727
vt 0.853474 0.714727
vt 0.853474 0.713131
vt 0.728474 0.713131
vt 0.978474 0.714727
vt 0.978474 0.713131
vt 0.978474 0.711534
vt 0.853474 0.681518
vt 0.728474 0.711534
vt 0.150691 0.680631
vt 0.150873 0.755855
vt 0.145226 0.682109
vt 0.146990 0.759237
vt 0.604725 0.769025
vt 0.600826 0.765415
vt 0.608798 0.690801
vt 0.603284 0.689024
vt 0.592090 0.123575
vt 0.384323 0.119729
vt 0.384554 0.138481
vt 0.580651 0.140994
vt 0.176560 0.120501
vt 0.188455 0.139216
vt 0.132828 0.685434
vt 0.138109 0.766936
vt 0.120096 0.688751
vt 0.129109 0.774767
vt 0.194578 0.783570
vt 0.199630 0.773529
vt 0.375731 0.779165
vt 0.551929 0.781286
vt 0.375659 0.790127
vt 0.556903 0.791758
vt 0.622862 0.785781
vt 0.613739 0.777335
vt 0.634372 0.698962
vt 0.621417 0.694885
vt 0.665196 0.105640
vt 0.384335 0.103249
vt 0.384282 0.109387
vt 0.596818 0.114143
vt 0.103474 0.100859
vt 0.171743 0.110611
vt 0.113632 0.690204
vt 0.124867 0.778549
vt 0.111744 0.766982
vt 0.123005 0.780306
vt 0.134266 0.793630
vt 0.192442 0.788824
vt 0.375586 0.795937
vt 0.558928 0.797168
vt 0.375514 0.799170
vt 0.616761 0.804709
vt 0.628876 0.791602
vt 0.627093 0.789799
vt 0.640991 0.778495
vt 0.640893 0.700724
vt 0.559408 0.245182
vt 0.383679 0.245143
vt 0.380343 0.464684
vt 0.552360 0.466344
vt 0.207958 0.244231
vt 0.208326 0.462736
vt 0.147424 0.242709
vt 0.149228 0.461660
vt 0.139104 0.237333
vt 0.141963 0.459693
vt 0.120029 0.224858
vt 0.125444 0.455073
vt 0.100387 0.212509
vt 0.108385 0.450552
vt 0.090366 0.207511
vt 0.099502 0.448879
vt 0.077672 0.130278
vt 0.094708 0.448630
vt 0.853474 0.589872
vt 0.728474 0.589872
vt 0.978474 0.589872
vt 0.978474 0.468211
vt 0.853474 0.498191
vt 0.728474 0.468211
vt 0.661140 0.456839
vt 0.652264 0.458068
vt 0.665933 0.456716
vt 0.690874 0.134936
vt 0.676202 0.212899
vt 0.666276 0.217327
vt 0.635218 0.461506
vt 0.618712 0.465041
vt 0.646956 0.228250
vt 0.628199 0.239294
vt 0.611454 0.466559
vt 0.619965 0.244085
vt 0.384808 0.170026
vt 0.562489 0.169443
vt 0.207138 0.169400
vt 0.138552 0.160371
vt 0.146216 0.167545
vt 0.102513 0.126960
vt 0.120656 0.143790
vt 0.090573 0.115568
vt 0.094109 0.119037
vt 0.853474 0.466469
vt 0.728474 0.466469
vt 0.978474 0.466469
vt 0.978474 0.464727
vt 0.853474 0.464727
vt 0.728474 0.464727
vt 0.674443 0.123657
vt 0.666146 0.130969
vt 0.678035 0.120288
vt 0.648442 0.146165
vt 0.630988 0.161111
vt 0.623443 0.167670
vn 0.996438 -0.084004 -0.007364
vn 0.998388 -0.056737 0.001282
vn 0.982581 -0.104108 0.153938
vn 0.912629 -0.199123 0.357012
vn 0.999515 -0.029478 0.010059
vn 0.916055 -0.138732 0.376293
vn 0.704751 -0.244965 0.665821
vn 0.682231 -0.257459 0.684307
vn 0.660707 -0.269324 0.700664
vn -0.055992 -0.318911 0.946129
vn -0.055871 -0.301583 0.951801
vn -0.147560 -0.293619 0.944465
vn -0.301386 -0.293423 0.907232
vn -0.054538 -0.284084 0.957247
vn -0.299392 -0.256952 0.918880
vn -0.545394 -0.222247 0.808178
vn -0.607042 -0.211096 0.766119
vn -0.588762 -0.220960 0.777519
vn -0.969092 -0.024402 0.245488
vn -0.882285 -0.125532 0.453667
vn -0.879254 -0.070965 0.471038
vn -0.996380 0.084684 0.007515
vn -0.998388 0.056738 -0.001263
vn -0.999531 0.028818 -0.010312
vn -0.386106 0.296341 -0.873558
vn -0.293398 0.305421 -0.905890
vn -0.157553 0.308645 -0.938038
vn -0.030734 0.300920 -0.953154
vn -0.432963 0.303772 -0.848685
vn -0.029853 0.311111 -0.949905
vn -0.017675 0.310854 -0.950293
vn -0.018709 0.305906 -0.951878
vn -0.018487 0.299929 -0.953782
vn -0.030470 0.474975 0.879472
vn -0.561464 0.420240 0.712851
vn 0.009327 0.952638 0.303964
vn -0.664884 0.715298 0.215124
vn -0.741079 -0.635357 -0.217077
vn -0.624406 -0.695313 0.355888
vn -0.097888 -0.947604 -0.304081
vn -0.106825 -0.890144 0.442982
vn 0.996439 -0.083988 -0.007372
vn 0.998389 -0.056728 0.001244
vn 0.998386 -0.056781 0.001391
vn 0.996439 -0.083987 -0.007424
vn 0.999514 -0.029489 0.010060
vn 0.999515 -0.029463 0.010046
vn 0.009328 0.952638 0.303962
vn -0.664830 0.715343 0.215141
vn 0.009327 0.952638 0.303964
vn -0.664875 0.715305 0.215128
vn -0.996379 0.084688 0.007544
vn -0.996382 0.084647 0.007657
vn -0.998385 0.056787 -0.001445
vn -0.999533 0.028788 -0.010215
vn -0.998387 0.056754 -0.001319
vn -0.999532 0.028801 -0.010294
vn -0.741055 -0.635407 -0.217014
vn -0.741041 -0.635404 -0.217070
vn -0.097887 -0.947603 -0.304082
vn -0.097887 -0.947603 -0.304084
vn 0.958135 0.029960 -0.284744
vn 0.979863 0.007393 -0.199535
vn 0.994703 -0.024781 -0.099761
vn 0.936421 0.021569 -0.350215
vn 0.946366 0.058687 -0.317721
vn 0.940244 0.089735 -0.328465
vn -0.003326 0.900186 -0.435493
vn -0.540629 0.763906 -0.352375
vn -0.015137 0.354801 -0.934819
vn -0.562092 0.316621 -0.764071
vn -0.870447 0.199267 -0.450127
vn -0.871053 0.222992 -0.437655
vn -0.978801 0.110904 -0.172190
vn -0.874550 0.161789 -0.457150
vn -0.927236 0.161554 -0.337837
vn -0.840853 0.199446 -0.503178
vn -0.565955 0.243549 -0.787641
vn -0.604039 -0.358865 -0.711585
vn -0.022044 0.256718 -0.966235
vn -0.082012 -0.476248 -0.875478
vn -0.057339 -0.327622 0.943067
vn -0.055886 -0.301561 0.951807
vn -0.055826 -0.301610 0.951796
vn -0.056845 -0.323586 0.944490
vn -0.053889 -0.275201 0.959875
vn -0.054318 -0.279590 0.958582
vn -0.029456 0.481807 0.875782
vn -0.030250 0.478697 0.877459
vn 0.009327 0.952638 0.303963
vn 0.009327 0.952638 0.303963
vn 0.009327 0.952638 0.303964
vn 0.009328 0.952639 0.303961
vn 0.009328 0.952638 0.303964
vn 0.009327 0.952637 0.303968
vn -0.003917 0.905788 -0.423713
vn -0.003443 0.903014 -0.429598
vn -0.016016 0.377304 -0.925951
vn -0.014926 0.366997 -0.930102
vn -0.018628 0.305943 -0.951867
vn -0.018589 0.298555 -0.954211
vn -0.017805 0.312149 -0.949866
vn -0.017751 0.313434 -0.949444
vn -0.018737 0.305880 -0.951886
vn -0.018518 0.297389 -0.954577
vn -0.081660 -0.482411 -0.872130
vn -0.097888 -0.947604 -0.304081
vn -0.021663 0.244985 -0.969285
vn -0.022769 0.233312 -0.972135
vn -0.081668 -0.487590 -0.869244
vn -0.097887 -0.947604 -0.304081
vn -0.097888 -0.947603 -0.304082
vn -0.097887 -0.947603 -0.304083
vn -0.097887 -0.947603 -0.304083
vn -0.097887 -0.947603 -0.304082
vn -0.107544 -0.891820 0.439422
vn -0.107630 -0.893546 0.435879
vn 0.108434 -0.309091 0.944830
vn 0.334843 -0.334477 0.880912
vn 0.338325 -0.273430 0.900429
vn 0.711001 0.665833 0.226149
vn 0.563915 0.380823 0.732785
vn 0.711056 0.665780 0.226132
vn 0.711000 0.665823 0.226181
vn 0.696550 0.238235 -0.676802
vn 0.587537 0.731838 -0.345274
vn 0.223343 0.286476 -0.931692
vn 0.004121 0.295904 -0.955209
vn 0.004848 0.312715 -0.949835
vn 0.583160 0.224669 -0.780672
vn 0.452752 0.250003 -0.855870
vn 0.639737 0.190342 -0.744652
vn 0.520742 -0.452179 -0.724128
vn 0.631618 -0.742105 -0.224366
vn 0.690501 0.127883 -0.711937
vn 0.631559 -0.742158 -0.224355
vn 0.631561 -0.742148 -0.224382
vn 0.497856 -0.789832 0.358197
f 1/1/1 2/2/2 3/3/3
f 1/1/1 3/3/3 4/4/4
f 2/2/2 5/5/5 6/6/6
f 2/2/2 6/6/6 3/3/3
f 3/3/3 6/6/6 7/7/7
f 3/3/3 7/7/7 8/8/8
f 4/4/4 3/3/3 8/8/8
f 4/4/4 8/8/8 9/9/9
f 10/10/10 11/11/11 12/12/12
f 10/10/10 12/12/12 13/13/13
f 11/11/11 14/14/14 15/15/15
f 11/11/11 15/15/15 12/12/12
f 12/12/12 15/15/15 16/16/16
f 12/12/12 16/16/16 17/17/17
f 13/13/13 12/12/12 17/17/17
f 13/13/13 17/17/17 18/18/18
f 18/18/18 17/17/17 19/19/19
f 18/18/18 19/19/19 20/20/20
f 17/17/17 16/16/16 21/21/21
f 17/17/17 21/21/21 19/19/19
f 19/19/19 21/21/21 22/22/22
f 19/19/19 22/22/22 23/23/23
f 20/20/20 19/19/19 23/23/23
f 20/20/20 23/23/23 24/24/24
f 25/25/25 26/26/26 27/27/27
f 25/25/25 27/27/27 28/28/28
f 26/26/26 29/29/29 30/30/30
f 26/26/26 30/30/30 27/27/27
f 27/27/27 30/30/30 31/31/31
f 27/27/27 31/31/31 32/32/32
f 28/28/28 27/27/27 32/32/32
f 28/28/28 32/32/32 33/33/33
f 14/14/14 34/34/34 35/35/35
f 14/14/14 35/35/35 15/15/15
f 34/34/34 36/36/36 37/37/37
f 34/34/34 37/37/37 35/35/35
f 35/35/35 37/37/37 22/22/22
f 35/35/35 22/22/22 21/21/21
f 15/15/15 35/35/35 21/21/21
f 15/15/15 21/21/21 16/16/16
f 24/24/24 38/38/38 39/39/39
f 24/24/24 39/39/39 20/20/20
f 38/38/38 40/40/40 41/41/41
f 38/38/38 41/41/41 39/39/39
f 39/39/39 41/41/41 10/10/10
f 39/39/39 10/10/10 13/13/13
f 20/20/20 39/39/39 13/13/13
f 20/20/20 13/13/13 18/18/18
f 42/42/42 43/43/43 44/44/44
f 42/42/42 44/44/44 45/45/45
f 43/43/43 46/46/46 47/47/47
f 43/43/43 47/47/47 44/44/44
f 44/44/44 47/47/47 5/5/5
f 44/44/44 5/5/5 2/2/2
f 45/45/45 44/44/44 2/2/2
f 45/45/45 2/2/2 1/1/1
f 36/36/36 48/48/48 49/49/49
f 36/36/36 49/49/49 37/37/37
f 48/48/48 50/50/50 51/51/51
f 48/48/48 51/51/51 49/49/49
f 49/49/49 51/51/51 52/52/52
f 49/49/49 52/52/52 53/53/53
f 37/37/37 49/49/49 53/53/53
f 37/37/37 53/53/53 22/22/22
f 24/24/24 23/23/23 54/54/54
f 24/24/24 54/54/54 55/55/55
f 23/23/23 22/22/22 53/53/53
f 23/23/23 53/53/53 54/54/54
f 54/54/54 53/53/53 52/52/52
f 54/54/54 52/52/52 56/56/56
f 55/55/55 54/54/54 56/56/56
f 55/55/55 56/56/56 57/57/57
f 57/57/57 58/58/58 59/59/59
f 57/57/57 59/59/59 55/55/55
f 58/58/58 60/60/60 61/61/61
f 58/58/58 61/61/61 59/59/59
f 59/59/59 61/61/61 40/40/40
f 59/59/59 40/40/40 38/38/38
f 55/55/55 59/59/59 38/38/38
f 55/55/55 38/38/38 24/24/24
f 62/62/62 63/63/63 64/64/64
f 62/62/62 64/64/64 65/65/65
f 63/63/63 66/66/66 67/67/67
f 63/63/63 67/67/67 64/64/64
f 64/64/64 67/67/67 46/46/46
f 64/64/64 46/46/46 43/43/43
f 65/65/65 64/64/64 43/43/43
f 65/65/65 43/43/43 42/42/42
f 50/50/50 68/68/68 69/69/69
f 50/50/50 69/69/69 51/51/51
f 68/68/68 70/70/70 71/71/71
f 68/68/68 71/71/71 69/69/69
f 69/69/69 71/71/71 72/72/72
f 69/69/69 72/72/72 73/73/73
f 51/51/51 69/69/69 73/73/73
f 51/51/51 73/73/73 52/52/52
f 57/57/57 56/56/56 74/74/74
f 57/57/57 74/74/74 75/75/75
f 56/56/56 52/52/52 73/73/73
f 56/56/56 73/73/73 74/74/74
f 74/74/74 73/73/73 72/72/72
f 74/74/74 72/72/72 76/76/76
f 75/75/75 74/74/74 76/76/76
f 75/75/75 76/76/76 77/77/77
f 77/77/77 78/78/78 79/79/79
f 77/77/77 79/79/79 75/75/75
f 78/78/78 80/80/80 81/81/81
f 78/78/78 81/81/81 79/79/79
f 79/79/79 81/81/81 60/60/60
f 79/79/79 60/60/60 58/58/58
f 75/75/75 79/79/79 58/58/58
f 75/75/75 58/58/58 57/57/57
f 82/82/82 83/83/83 84/84/84
f 82/82/82 84/84/84 85/85/85
f 83/83/83 86/86/86 87/87/87
f 83/83/83 87/87/87 84/84/84
f 84/84/84 87/87/87 14/14/14
f 84/84/84 14/14/14 11/11/11
f 85/85/85 84/84/84 11/11/11
f 85/85/85 11/11/11 10/10/10
f 86/86/86 88/88/88 89/89/89
f 86/86/86 89/89/89 87/87/87
f 88/88/88 90/90/90 91/91/91
f 88/88/88 91/91/91 89/89/89
f 89/89/89 91/91/91 36/36/36
f 89/89/89 36/36/36 34/34/34
f 87/87/87 89/89/89 34/34/34
f 87/87/87 34/34/34 14/14/14
f 90/90/90 92/92/92 93/93/93
f 90/90/90 93/93/93 91/91/91
f 92/92/92 94/94/94 95/95/95
f 92/92/92 95/95/95 93/93/93
f 93/93/93 95/95/95 50/50/50
f 93/93/93 50/50/50 48/48/48
f 91/91/91 93/93/93 48/48/48
f 91/91/91 48/48/48 36/36/36
f 94/94/94 96/96/96 97/97/97
f 94/94/94 97/97/97 95/95/95
f 96/96/96 98/98/98 99/99/99
f 96/96/96 99/99/99 97/97/97
f 97/97/97 99/99/99 70/70/70
f 97/97/97 70/70/70 68/68/68
f 95/95/95 97/97/97 68/68/68
f 95/95/95 68/68/68 50/50/50
f 33/33/33 32/32/32 100/100/100
f 33/33/33 100/100/100 101/101/101
f 32/32/32 31/31/31 102/102/102
f 32/32/32 102/102/102 100/100/100
f 100/100/100 102/102/102 103/103/103
f 100/100/100 103/103/103 104/104/104
f 101/101/101 100/100/100 104/104/104
f 101/101/101 104/104/104 105/105/105
f 60/60/60 81/81/81 106/106/106
f 60/60/60 106/106/106 107/107/107
f 81/81/81 80/80/80 108/108/108
f 81/81/81 108/108/108 106/106/106
f 106/106/106 108/108/108 109/109/109
f 106/106/106 109/109/109 110/110/110
f 107/107/107 106/106/106 110/110/110
f 107/107/107 110/110/110 111/111/111
f 40/40/40 61/61/61 112/112/112
f 40/40/40 112/112/112 113/113/113
f 61/61/61 60/60/60 107/107/107
f 61/61/61 107/107/107 112/112/112
f 112/112/112 107/107/107 111/111/111
f 112/112/112 111/111/111 114/114/114
f 113/113/113 112/112/112 114/114/114
f 113/113/113 114/114/114 115/115/115
f 10/10/10 41/41/41 116/116/116
f 10/10/10 116/116/116 85/85/85
f 41/41/41 40/40/40 113/113/113
f 41/41/41 113/113/113 116/116/116
f 116/116/116 113/113/113 115/115/115
f 116/116/116 115/115/115 117/117/117
f 85/85/85 116/116/116 117/117/117
f 85/85/85 117/117/117 82/82/82
f 9/9/9 8/8/8 118/118/118
f 9/9/9 118/118/118 119/119/119
f 8/8/8 7/7/7 120/120/120
f 8/8/8 120/120/120 118/118/118
f 118/118/118 120/120/120 86/86/86
f 118/118/118 86/86/86 83/83/83
f 119/119/119 118/118/118 83/83/83
f 119/119/119 83/83/83 82/82/82
f 5/5/5 121/121/121 122/122/122
f 5/5/5 122/122/122 6/6/6
f 121/121/121 90/90/90 88/88/88
f 121/121/121 88/88/88 122/122/122
f 122/122/122 88/88/88 86/86/86
f 122/122/122 86/86/86 120/120/120
f 6/6/6 122/122/122 120/120/120
f 6/6/6 120/120/120 7/7/7
f 46/46/46 123/123/123 124/124/124
f 46/46/46 124/124/124 47/47/47
f 123/123/123 94/94/94 92/92/92
f 123/123/123 92/92/92 124/124/124
f 124/124/124 92/92/92 90/90/90
f 124/124/124 90/90/90 121/121/121
f 47/47/47 124/124/124 121/121/121
f 47/47/47 121/121/121 5/5/5
f 66/66/66 125/125/125 126/126/126
f 66/66/66 126/126/126 67/67/67
f 125/125/125 98/98/98 96/96/96
f 125/125/125 96/96/96 126/126/126
f 126/126/126 96/96/96 94/94/94
f 126/126/126 94/94/94 123/123/123
f 67/67/67 126/126/126 123/123/123
f 67/67/67 123/123/123 46/46/46
f 105/105/105 104/104/104 127/127/127
f 105/105/105 127/127/127 128/128/128
f 104/104/104 103/103/103 129/129/129
f 104/104/104 129/129/129 127/127/127
f 127/127/127 129/129/129 130/130/130
f 127/127/127 130/130/130 131/131/131
f 128/128/128 127/127/127 131/131/131
f 128/128/128 131/131/131 132/132/132
f 111/111/111 110/110/110 133/133/133
f 111/111/111 133/133/133 134/134/134
f 110/110/110 109/109/109 135/135/135
f 110/110/110 135/135/135 133/133/133
f 133/133/133 135/135/135 62/62/62
f 133/133/133 62/62/62 65/65/65
f 134/134/134 133/133/133 65/65/65
f 134/134/134 65/65/65 42/42/42
f 115/115/115 114/114/114 136/136/136
f 115/115/115 136/136/136 137/137/137
f 114/114/114 111/111/111 134/134/134
f 114/114/114 134/134/134 136/136/136
f 136/136/136 134/134/134 42/42/42
f 136/136/136 42/42/42 45/45/45
f 137/137/137 136/136/136 45/45/45
f 137/137/137 45/45/45 1/1/1
f 82/82/82 117/117/117 138/138/138
f 82/82/82 138/138/138 119/119/119
f 117/117/117 115/115/115 137/137/137
f 117/117/117 137/137/137 138/138/138
f 138/138/138 137/137/137 1/1/1
f 138/138/138 1/1/1 4/4/4
f 119/119/119 138/138/138 4/4/4
f 119/119/119 4/4/4 9/9/9
