# moteur_plaque10_moteur_plaque11_0_11
v -1.344054 0.152427 0.266853
v -1.348593 0.152459 0.240242
v -1.348913 0.154200 0.240299
v -1.344375 0.154166 0.266910
v -1.353430 0.152427 0.213684
v -1.353750 0.154166 0.213740
v -1.352713 0.154482 0.220668
v -1.349147 0.154628 0.240340
v -1.345769 0.154482 0.260045
v -1.418747 0.137749 0.277428
v -1.423007 0.137838 0.253363
v -1.433795 0.135362 0.255266
v -1.429601 0.135283 0.278963
v -1.427234 0.137749 0.229293
v -1.437959 0.135283 0.231563
v -1.437166 0.135153 0.237764
v -1.434189 0.135190 0.255335
v -1.430977 0.135153 0.272864
v -1.434282 0.134923 0.255351
v -1.429969 0.134954 0.279015
v -1.438322 0.134954 0.231640
v -1.438158 0.134065 0.231611
v -1.434119 0.134036 0.255323
v -1.429805 0.134065 0.278986
v -1.429786 0.128679 0.272654
v -1.432970 0.128568 0.255120
v -1.432533 0.128509 0.255043
v -1.428377 0.128631 0.278747
v -1.435975 0.128679 0.237554
v -1.436735 0.128631 0.231347
v -1.425862 0.130293 0.229051
v -1.421593 0.130156 0.253114
v -1.417374 0.130293 0.277187
v -1.428600 0.137484 0.221261
v -1.439309 0.135046 0.223655
v -1.428416 0.136483 0.221229
v -1.439144 0.134153 0.223626
v -1.428000 0.134153 0.286826
v -1.428165 0.135046 0.286855
v -1.417099 0.136483 0.285410
v -1.417283 0.137484 0.285443
v -1.342572 0.144367 0.266592
v -1.347108 0.144392 0.239980
v -1.347859 0.148467 0.240113
v -1.343320 0.148439 0.266724
v -1.351947 0.144367 0.213422
v -1.352696 0.148439 0.213554
v -1.427994 0.134189 0.221154
v -1.438767 0.132107 0.223560
v -1.427563 0.131847 0.221078
v -1.438383 0.130018 0.223492
v -1.437401 0.129949 0.231478
v -1.437784 0.132028 0.231545
v -1.433744 0.132002 0.255257
v -1.429430 0.132028 0.278920
v -1.433362 0.129926 0.255189
v -1.429048 0.129949 0.278853
v -1.427239 0.130018 0.286692
v -1.427624 0.132107 0.286760
v -1.416246 0.131847 0.285260
v -1.416677 0.134189 0.285336
v -1.343441 0.141831 0.259634
v -1.346762 0.141664 0.239919
v -1.346742 0.142400 0.239916
v -1.342205 0.142376 0.266527
v -1.350384 0.141831 0.220258
v -1.351580 0.142376 0.213358
v -1.427352 0.130703 0.221041
v -1.438195 0.128997 0.223459
v -1.425862 0.130293 0.229051
v -1.436735 0.128631 0.231347
v -1.435975 0.128679 0.237554
v -1.437214 0.128932 0.231444
v -1.433175 0.128911 0.255156
v -1.428861 0.128932 0.278820
v -1.432970 0.128568 0.255120
v -1.429786 0.128679 0.272654
v -1.428377 0.128631 0.278747
v -1.427051 0.128997 0.286659
v -1.417374 0.130293 0.277187
v -1.416035 0.130703 0.285222
v -1.355800 0.152052 0.268530
v -1.360446 0.152196 0.242332
v -1.391733 0.145015 0.247849
v -1.387279 0.144899 0.272980
v -1.365040 0.152052 0.216126
v -1.396143 0.144899 0.222710
v -1.366501 0.151620 0.207378
v -1.397556 0.144550 0.214321
v -1.366201 0.149993 0.207325
v -1.397315 0.143237 0.214278
v -1.365515 0.146263 0.207204
v -1.396760 0.140225 0.214180
v -1.364814 0.142456 0.207080
v -1.396195 0.137151 0.214081
v -1.364472 0.140594 0.207020
v -1.395918 0.135647 0.214032
v -1.362809 0.139928 0.215732
v -1.394342 0.135109 0.222393
v -1.389877 0.134930 0.247522
v -1.385478 0.135109 0.272662
v -1.394342 0.135109 0.222393
v -1.362809 0.139928 0.215732
v -1.358148 0.139706 0.241927
v -1.353569 0.139928 0.268136
v -1.384100 0.135647 0.281058
v -1.384376 0.137150 0.281107
v -1.385478 0.135109 0.272662
v -1.353569 0.139928 0.268136
v -1.352152 0.140594 0.276892
v -1.352494 0.142456 0.276952
v -1.384942 0.140225 0.281207
v -1.385496 0.143237 0.281304
v -1.353195 0.146263 0.277076
v -1.353881 0.149993 0.277197
v -1.385738 0.144550 0.281347
v -1.354180 0.151620 0.277250
v -1.349621 0.154680 0.240424
v -1.344908 0.154526 0.266990
v -1.354278 0.154526 0.213847
v -1.355436 0.152330 0.204919
v -1.355755 0.154066 0.204975
v -1.353956 0.144292 0.204658
v -1.354704 0.148352 0.204790
v -1.351899 0.141595 0.213428
v -1.353591 0.142306 0.204594
v -1.347170 0.141358 0.239991
v -1.342528 0.141595 0.266570
v -1.351899 0.141595 0.213428
v -1.350384 0.141831 0.220258
v -1.346762 0.141664 0.239919
v -1.343441 0.141831 0.259634
v -1.341097 0.142306 0.275450
v -1.341462 0.144291 0.275515
v -1.342528 0.141595 0.266570
v -1.342210 0.148352 0.275647
v -1.342942 0.152331 0.275776
v -1.343261 0.154066 0.275832
vt 0.569160 0.157734
vt 0.384791 0.156409
vt 0.384855 0.164279
vt 0.564277 0.165130
vt 0.200412 0.157250
vt 0.205421 0.165093
vt 0.252632 0.167186
vt 0.384832 0.167137
vt 0.517031 0.167207
vt 0.545733 0.687515
vt 0.377005 0.684238
vt 0.375870 0.759393
vt 0.543916 0.763279
vt 0.208268 0.681256
vt 0.207814 0.756128
vt 0.251064 0.759067
vt 0.375841 0.762019
vt 0.500623 0.764371
vt 0.375820 0.763987
vt 0.544774 0.766735
vt 0.206880 0.759563
vt 0.204697 0.763821
vt 0.375789 0.768602
vt 0.546916 0.771148
vt 0.728474 0.714727
vt 0.853474 0.714727
vt 0.853474 0.713131
vt 0.728474 0.713131
vt 0.978474 0.714727
vt 0.978474 0.713131
vt 0.978474 0.711534
vt 0.853474 0.681518
vt 0.728474 0.711534
vt 0.150691 0.680631
vt 0.150873 0.755855
vt 0.145226 0.682109
vt 0.146990 0.759237
vt 0.604725 0.769025
vt 0.600826 0.765415
vt 0.608798 0.690801
vt 0.603284 0.689024
vt 0.592090 0.123575
vt 0.384323 0.119729
vt 0.384554 0.138481
vt 0.580651 0.140994
vt 0.176560 0.120501
vt 0.188455 0.139216
vt 0.132828 0.685434
vt 0.138109 0.766936
vt 0.120096 0.688751
vt 0.129109 0.774767
vt 0.194578 0.783570
vt 0.199630 0.773529
vt 0.375731 0.779165
vt 0.551929 0.781286
vt 0.375659 0.790127
vt 0.556903 0.791758
vt 0.622862 0.785781
vt 0.613739 0.777335
vt 0.634372 0.698962
vt 0.621417 0.694885
vt 0.665196 0.105640
vt 0.384335 0.103249
vt 0.384282 0.109387
vt 0.596818 0.114143
vt 0.103474 0.100859
vt 0.171743 0.110611
vt 0.113632 0.690204
vt 0.124867 0.778549
vt 0.111744 0.766982
vt 0.123005 0.780306
vt 0.134266 0.793630
vt 0.192442 0.788824
vt 0.375586 0.795937
vt 0.558928 0.797168
vt 0.375514 0.799170
vt 0.616761 0.804709
vt 0.628876 0.791602
vt 0.627093 0.789799
vt 0.640991 0.778495
vt 0.640893 0.700724
vt 0.559408 0.245182
vt 0.383679 0.245143
vt 0.380343 0.464684
vt 0.552360 0.466344
vt 0.207958 0.244231
vt 0.208326 0.462736
vt 0.147424 0.242709
vt 0.149228 0.461660
vt 0.139104 0.237333
vt 0.141963 0.459693
vt 0.120029 0.224858
vt 0.125444 0.455073
vt 0.100387 0.212509
vt 0.108385 0.450552
vt 0.090366 0.207511
vt 0.099502 0.448879
vt 0.077672 0.130278
vt 0.094708 0.448630
vt 0.853474 0.589872
vt 0.728474 0.589872
vt 0.978474 0.589872
vt 0.978474 0.468211
vt 0.853474 0.498191
vt 0.728474 0.468211
vt 0.661140 0.456839
vt 0.652264 0.458068
vt 0.665933 0.456716
vt 0.690874 0.134936
vt 0.676202 0.212899
vt 0.666276 0.217327
vt 0.635218 0.461506
vt 0.618712 0.465041
vt 0.646956 0.228250
vt 0.628199 0.239294
vt 0.611454 0.466559
vt 0.619965 0.244085
vt 0.384808 0.170026
vt 0.562489 0.169443
vt 0.207138 0.169400
vt 0.138552 0.160371
vt 0.146216 0.167545
vt 0.102513 0.126960
vt 0.120656 0.143790
vt 0.090573 0.115568
vt 0.094109 0.119037
vt 0.853474 0.466469
vt 0.728474 0.466469
vt 0.978474 0.466469
vt 0.978474 0.464727
vt 0.853474 0.464727
vt 0.728474 0.464727
vt 0.674443 0.123657
vt 0.666146 0.130969
vt 0.678035 0.120288
vt 0.648442 0.146165
vt 0.630988 0.161111
vt 0.623443 0.167670
vn 0.972629 0.183622 -0.142394
vn 0.968063 0.183617 -0.170699
vn 0.926530 0.338623 -0.163941
vn 0.829572 0.546633 -0.114027
vn 0.962679 0.183599 -0.198849
vn 0.818574 0.546595 -0.176554
vn 0.568342 0.815701 -0.107795
vn 0.544635 0.833156 -0.096034
vn 0.522259 0.848589 -0.084513
vn -0.212910 0.975454 0.056204
vn -0.216925 0.975432 0.038419
vn -0.304668 0.950957 0.053462
vn -0.444119 0.890619 0.097749
vn -0.219753 0.975345 0.020262
vn -0.450835 0.890588 0.060004
vn -0.668077 0.735553 0.112407
vn -0.719718 0.682533 0.127100
vn -0.703082 0.699278 0.129174
vn -0.981764 0.077422 0.173621
vn -0.928284 0.317991 0.192794
vn -0.938273 0.317899 0.136326
vn -0.972718 -0.183681 0.141704
vn -0.968068 -0.183599 0.170693
vn -0.962529 -0.183635 0.199539
vn -0.224256 -0.973521 0.044340
vn -0.129469 -0.991298 0.023798
vn 0.007678 -0.999970 -0.000967
vn 0.134151 -0.990797 -0.018046
vn -0.276058 -0.960259 0.041164
vn 0.132587 -0.990757 -0.028664
vn 0.144413 -0.989030 -0.031044
vn 0.144592 -0.989156 -0.025751
vn 0.146218 -0.989056 -0.019690
vn -0.304583 0.671913 -0.675102
vn -0.768280 0.445075 -0.460060
vn -0.216412 -0.008146 -0.976268
vn -0.804927 -0.129358 -0.579101
vn -0.558305 -0.129368 0.819487
vn -0.564597 0.445071 0.695085
vn 0.130542 -0.008145 0.991409
vn -0.054765 0.672328 0.738225
vn 0.972629 0.183611 -0.142407
vn 0.968071 0.183578 -0.170698
vn 0.968044 0.183732 -0.170687
vn 0.972640 0.183562 -0.142394
vn 0.962680 0.183604 -0.198838
vn 0.962680 0.183583 -0.198859
vn -0.216412 -0.008148 -0.976268
vn -0.804887 -0.129347 -0.579160
vn -0.216412 -0.008146 -0.976268
vn -0.804921 -0.129354 -0.579111
vn -0.972725 -0.183656 0.141692
vn -0.972746 -0.183537 0.141700
vn -0.968032 -0.183784 0.170696
vn -0.962548 -0.183535 0.199541
vn -0.968057 -0.183656 0.170693
vn -0.962531 -0.183613 0.199549
vn -0.558288 -0.129290 0.819511
vn -0.558262 -0.129341 0.819521
vn 0.130543 -0.008146 0.991409
vn 0.130543 -0.008148 0.991409
vn 0.979109 -0.117717 -0.165793
vn 0.984632 -0.027348 -0.172488
vn 0.981865 0.078495 -0.172569
vn 0.974294 -0.180030 -0.135426
vn 0.970443 -0.159424 -0.181176
vn 0.961840 -0.180092 -0.205988
vn -0.054373 -0.686608 -0.724992
vn -0.566567 -0.655381 -0.499477
vn 0.136130 -0.987698 -0.076945
vn -0.421153 -0.906305 0.035229
vn -0.768235 -0.626923 0.129548
vn -0.775526 -0.622673 0.104101
vn -0.919936 -0.357194 0.161649
vn -0.764414 -0.622597 0.167463
vn -0.841690 -0.519476 0.147316
vn -0.727962 -0.671779 0.137055
vn -0.407520 -0.906439 0.110887
vn -0.361638 -0.655337 0.663137
vn 0.152726 -0.987954 0.024934
vn 0.195858 -0.686355 0.700398
vn -0.212080 0.975056 0.065489
vn -0.216944 0.975428 0.038400
vn -0.216876 0.975442 0.038435
vn -0.212590 0.975222 0.061215
vn -0.221186 0.975169 0.011089
vn -0.220583 0.975243 0.015644
vn -0.303912 0.666513 -0.680733
vn -0.304536 0.668914 -0.678095
vn -0.216412 -0.008147 -0.976268
vn -0.216412 -0.008147 -0.976268
vn -0.216412 -0.008146 -0.976268
vn -0.216411 -0.008149 -0.976268
vn -0.216412 -0.008145 -0.976268
vn -0.216413 -0.008142 -0.976268
vn -0.058502 -0.677404 -0.733281
vn -0.056271 -0.681980 -0.729203
vn 0.129584 -0.986491 -0.100215
vn 0.133262 -0.987014 -0.089687
vn 0.144661 -0.989145 -0.025808
vn 0.146443 -0.989050 -0.018264
vn 0.143979 -0.989052 -0.032344
vn 0.143724 -0.989045 -0.033673
vn 0.144571 -0.989160 -0.025718
vn 0.146787 -0.989021 -0.017090
vn 0.196464 -0.681257 0.705189
vn 0.130542 -0.008145 0.991409
vn 0.155712 -0.987122 0.036660
vn 0.157216 -0.986367 0.048610
vn 0.196666 -0.676955 0.709264
vn 0.130543 -0.008145 0.991409
vn 0.130543 -0.008146 0.991409
vn 0.130543 -0.008147 0.991409
vn 0.130543 -0.008147 0.991409
vn 0.130543 -0.008146 0.991409
vn -0.054383 0.669392 0.740916
vn -0.053386 0.666594 0.743507
vn -0.056305 0.998358 0.010549
vn 0.179668 0.983727 0.000872
vn 0.168562 0.983717 -0.062345
vn 0.522351 0.123480 -0.843743
vn 0.314726 0.661781 -0.680436
vn 0.522416 0.123490 -0.843701
vn 0.522344 0.123513 -0.843742
vn 0.781218 -0.592483 -0.196630
vn 0.520775 -0.452505 -0.723901
vn 0.375780 -0.924271 -0.067179
vn 0.168918 -0.985415 -0.020597
vn 0.165638 -0.985456 -0.037953
vn 0.697795 -0.704301 -0.130543
vn 0.585184 -0.804099 -0.104810
vn 0.749745 -0.650614 -0.120767
vn 0.736964 -0.452493 0.502129
vn 0.779470 0.123491 0.614147
vn 0.801496 -0.592288 -0.082449
vn 0.779420 0.123509 0.614207
vn 0.779426 0.123480 0.614205
vn 0.528461 0.661782 0.531765
f 1/1/1 2/2/2 3/3/3
f 1/1/1 3/3/3 4/4/4
f 2/2/2 5/5/5 6/6/6
f 2/2/2 6/6/6 3/3/3
f 3/3/3 6/6/6 7/7/7
f 3/3/3 7/7/7 8/8/8
f 4/4/4 3/3/3 8/8/8
f 4/4/4 8/8/8 9/9/9
f 10/10/10 11/11/11 12/12/12
f 10/10/10 12/12/12 13/13/13
f 11/11/11 14/14/14 15/15/15
f 11/11/11 15/15/15 12/12/12
f 12/12/12 15/15/15 16/16/16
f 12/12/12 16/16/16 17/17/17
f 13/13/13 12/12/12 17/17/17
f 13/13/13 17/17/17 18/18/18
f 18/18/18 17/17/17 19/19/19
f 18/18/18 19/19/19 20/20/20
f 17/17/17 16/16/16 21/21/21
f 17/17/17 21/21/21 19/19/19
f 19/19/19 21/21/21 22/22/22
f 19/19/19 22/22/22 23/23/23
f 20/20/20 19/19/19 23/23/23
f 20/20/20 23/23/23 24/24/24
f 25/25/25 26/26/26 27/27/27
f 25/25/25 27/27/27 28/28/28
f 26/26/26 29/29/29 30/30/30
f 26/26/26 30/30/30 27/27/27
f 27/27/27 30/30/30 31/31/31
f 27/27/27 31/31/31 32/32/32
f 28/28/28 27/27/27 32/32/32
f 28/28/28 32/32/32 33/33/33
f 14/14/14 34/34/34 35/35/35
f 14/14/14 35/35/35 15/15/15
f 34/34/34 36/36/36 37/37/37
f 34/34/34 37/37/37 35/35/35
f 35/35/35 37/37/37 22/22/22
f 35/35/35 22/22/22 21/21/21
f 15/15/15 35/35/35 21/21/21
f 15/15/15 21/21/21 16/16/16
f 24/24/24 38/38/38 39/39/39
f 24/24/24 39/39/39 20/20/20
f 38/38/38 40/40/40 41/41/41
f 38/38/38 41/41/41 39/39/39
f 39/39/39 41/41/41 10/10/10
f 39/39/39 10/10/10 13/13/13
f 20/20/20 39/39/39 13/13/13
f 20/20/20 13/13/13 18/18/18
f 42/42/42 43/43/43 44/44/44
f 42/42/42 44/44/44 45/45/45
f 43/43/43 46/46/46 47/47/47
f 43/43/43 47/47/47 44/44/44
f 44/44/44 47/47/47 5/5/5
f 44/44/44 5/5/5 2/2/2
f 45/45/45 44/44/44 2/2/2
f 45/45/45 2/2/2 1/1/1
f 36/36/36 48/48/48 49/49/49
f 36/36/36 49/49/49 37/37/37
f 48/48/48 50/50/50 51/51/51
f 48/48/48 51/51/51 49/49/49
f 49/49/49 51/51/51 52/52/52
f 49/49/49 52/52/52 53/53/53
f 37/37/37 49/49/49 53/53/53
f 37/37/37 53/53/53 22/22/22
f 24/24/24 23/23/23 54/54/54
f 24/24/24 54/54/54 55/55/55
f 23/23/23 22/22/22 53/53/53
f 23/23/23 53/53/53 54/54/54
f 54/54/54 53/53/53 52/52/52
f 54/54/54 52/52/52 56/56/56
f 55/55/55 54/54/54 56/56/56
f 55/55/55 56/56/56 57/57/57
f 57/57/57 58/58/58 59/59/59
f 57/57/57 59/59/59 55/55/55
f 58/58/58 60/60/60 61/61/61
f 58/58/58 61/61/61 59/59/59
f 59/59/59 61/61/61 40/40/40
f 59/59/59 40/40/40 38/38/38
f 55/55/55 59/59/59 38/38/38
f 55/55/55 38/38/38 24/24/24
f 62/62/62 63/63/63 64/64/64
f 62/62/62 64/64/64 65/65/65
f 63/63/63 66/66/66 67/67/67
f 63/63/63 67/67/67 64/64/64
f 64/64/64 67/67/67 46/46/46
f 64/64/64 46/46/46 43/43/43
f 65/65/65 64/64/64 43/43/43
f 65/65/65 43/43/43 42/42/42
f 50/50/50 68/68/68 69/69/69
f 50/50/50 69/69/69 51/51/51
f 68/68/68 70/70/70 71/71/71
f 68/68/68 71/71/71 69/69/69
f 69/69/69 71/71/71 72/72/72
f 69/69/69 72/72/72 73/73/73
f 51/51/51 69/69/69 73/73/73
f 51/51/51 73/73/73 52/52/52
f 57/57/57 56/56/56 74/74/74
f 57/57/57 74/74/74 75/75/75
f 56/56/56 52/52/52 73/73/73
f 56/56/56 73/73/73 74/74/74
f 74/74/74 73/73/73 72/72/72
f 74/74/74 72/72/72 76/76/76
f 75/75/75 74/74/74 76/76/76
f 75/75/75 76/76/76 77/77/77
f 77/77/77 78/78/78 79/79/79
f 77/77/77 79/79/79 75/75/75
f 78/78/78 80/80/80 81/81/81
f 78/78/78 81/81/81 79/79/79
f 79/79/79 81/81/81 60/60/60
f 79/79/79 60/60/60 58/58/58
f 75/75/75 79/79/79 58/58/58
f 75/75/75 58/58/58 57/57/57
f 82/82/82 83/83/83 84/84/84
f 82/82/82 84/84/84 85/85/85
f 83/83/83 86/86/86 87/87/87
f 83/83/83 87/87/87 84/84/84
f 84/84/84 87/87/87 14/14/14
f 84/84/84 14/14/14 11/11/11
f 85/85/85 84/84/84 11/11/11
f 85/85/85 11/11/11 10/10/10
f 86/86/86 88/88/88 89/89/89
f 86/86/86 89/89/89 87/87/87
f 88/88/88 90/90/90 91/91/91
f 88/88/88 91/91/91 89/89/89
f 89/89/89 91/91/91 36/36/36
f 89/89/89 36/36/36 34/34/34
f 87/87/87 89/89/89 34/34/34
f 87/87/87 34/34/34 14/14/14
f 90/90/90 92/92/92 93/93/93
f 90/90/90 93/93/93 91/91/91
f 92/92/92 94/94/94 95/95/95
f 92/92/92 95/95/95 93/93/93
f 93/93/93 95/95/95 50/50/50
f 93/93/93 50/50/50 48/48/48
f 91/91/91 93/93/93 48/48/48
f 91/91/91 48/48/48 36/36/36
f 94/94/94 96/96/96 97/97/97
f 94/94/94 97/97/97 95/95/95
f 96/96/96 98/98/98 99/99/99
f 96/96/96 99/99/99 97/97/97
f 97/97/97 99/99/99 70/70/70
f 97/97/97 70/70/70 68/68/68
f 95/95/95 97/97/97 68/68/68
f 95/95/95 68/68/68 50/50/50
f 33/33/33 32/32/32 100/100/100
f 33/33/33 100/100/100 101/101/101
f 32/32/32 31/31/31 102/102/102
f 32/32/32 102/102/102 100/100/100
f 100/100/100 102/102/102 103/103/103
f 100/100/100 103/103/103 104/104/104
f 101/101/101 100/100/100 104/104/104
f 101/101/101 104/104/104 105/105/105
f 60/60/60 81/81/81 106/106/106
f 60/60/60 106/106/106 107/107/107
f 81/81/81 80/80/80 108/108/108
f 81/81/81 108/108/108 106/106/106
f 106/106/106 108/108/108 109/109/109
f 106/106/106 109/109/109 110/110/110
f 107/107/107 106/106/106 110/110/110
f 107/107/107 110/110/110 111/111/111
f 40/40/40 61/61/61 112/112/112
f 40/40/40 112/112/112 113/113/113
f 61/61/61 60/60/60 107/107/107
f 61/61/61 107/107/107 112/112/112
f 112/112/112 107/107/107 111/111/111
f 112/112/112 111/111/111 114/114/114
f 113/113/113 112/112/112 114/114/114
f 113/113/113 114/114/114 115/115/115
f 10/10/10 41/41/41 116/116/116
f 10/10/10 116/116/116 85/85/85
f 41/41/41 40/40/40 113/113/113
f 41/41/41 113/113/113 116/116/116
f 116/116/116 113/113/113 115/115/115
f 116/116/116 115/115/115 117/117/117
f 85/85/85 116/116/116 117/117/117
f 85/85/85 117/117/117 82/82/82
f 9/9/9 8/8/8 118/118/118
f 9/9/9 118/118/118 119/119/119
f 8/8/8 7/7/7 120/120/120
f 8/8/8 120/120/120 118/118/118
f 118/118/118 120/120/120 86/86/86
f 118/118/118 86/86/86 83/83/83
f 119/119/119 118/118/118 83/83/83
f 119/119/119 83/83/83 82/82/82
f 5/5/5 121/121/121 122/122/122
f 5/5/5 122/122/122 6/6/6
f 121/121/121 90/90/90 88/88/88
f 121/121/121 88/88/88 122/122/122
f 122/122/122 88/88/88 86/86/86
f 122/122/122 86/86/86 120/120/120
f 6/6/6 122/122/122 120/120/120
f 6/6/6 120/120/120 7/7/7
f 46/46/46 123/123/123 124/124/124
f 46/46/46 124/124/124 47/47/47
f 123/123/123 94/94/94 92/92/92
f 123/123/123 92/92/92 124/124/124
f 124/124/124 92/92/92 90/90/90
f 124/124/124 90/90/90 121/121/121
f 47/47/47 124/124/124 121/121/121
f 47/47/47 121/121/121 5/5/5
f 66/66/66 125/125/125 126/126/126
f 66/66/66 126/126/126 67/67/67
f 125/125/125 98/98/98 96/96/96
f 125/125/125 96/96/96 126/126/126
f 126/126/126 96/96/96 94/94/94
f 126/126/126 94/94/94 123/123/123
f 67/67/67 126/126/126 123/123/123
f 67/67/67 123/123/123 46/46/46
f 105/105/105 104/104/104 127/127/127
f 105/105/105 127/127/127 128/128/128
f 104/104/104 103/103/103 129/129/129
f 104/104/104 129/129/129 127/127/127
f 127/127/127 129/129/129 130/130/130
f 127/127/127 130/130/130 131/131/131
f 128/128/128 127/127/127 131/131/131
f 128/128/128 131/131/131 132/132/132
f 111/111/111 110/110/110 133/133/133
f 111/111/111 133/133/133 134/134/134
f 110/110/110 109/109/109 135/135/135
f 110/110/110 135/135/135 133/133/133
f 133/133/133 135/135/135 62/62/62
f 133/133/133 62/62/62 65/65/65
f 134/134/134 133/133/133 65/65/65
f 134/134/134 65/65/65 42/42/42
f 115/115/115 114/114/114 136/136/136
f 115/115/115 136/136/136 137/137/137
f 114/114/114 111/111/111 134/134/134
f 114/114/114 134/134/134 136/136/136
f 136/136/136 134/134/134 42/42/42
f 136/136/136 42/42/42 45/45/45
f 137/137/137 136/136/136 45/45/45
f 137/137/137 45/45/45 1/1/1
f 82/82/82 117/117/117 138/138/138
f 82/82/82 138/138/138 119/119/119
f 117/117/117 115/115/115 137/137/137
f 117/117/117 137/137/137 138/138/138
f 138/138/138 137/137/137 1/1/1
f 138/138/138 1/1/1 4/4/4
f 119/119/119 138/138/138 4/4/4
f 119/119/119 4/4/4 9/9/9
