# moteur_plaque5_moteur_plaque11_0_16
v -1.353429 -0.152870 0.213684
v -1.348593 -0.152902 0.240242
v -1.348913 -0.154643 0.240299
v -1.353750 -0.154610 0.213740
v -1.344054 -0.152870 0.266853
v -1.344375 -0.154610 0.266910
v -1.345769 -0.154925 0.260045
v -1.349147 -0.155072 0.240340
v -1.352712 -0.154925 0.220668
v -1.427234 -0.138192 0.229293
v -1.423007 -0.138281 0.253363
v -1.433795 -0.135805 0.255266
v -1.437959 -0.135726 0.231563
v -1.418747 -0.138193 0.277428
v -1.429601 -0.135726 0.278963
v -1.430977 -0.135596 0.272864
v -1.434189 -0.135633 0.255335
v -1.437166 -0.135596 0.237764
v -1.434282 -0.135366 0.255351
v -1.438322 -0.135397 0.231640
v -1.429969 -0.135397 0.279015
v -1.429805 -0.134508 0.278986
v -1.434119 -0.134479 0.255323
v -1.438159 -0.134508 0.231611
v -1.435975 -0.129122 0.237554
v -1.432970 -0.129011 0.255120
v -1.432533 -0.128953 0.255043
v -1.436735 -0.129074 0.231347
v -1.429786 -0.129122 0.272654
v -1.428377 -0.129074 0.278747
v -1.417374 -0.130736 0.277187
v -1.421593 -0.130599 0.253114
v -1.425862 -0.130736 0.229051
v -1.417283 -0.137927 0.285443
v -1.428165 -0.135489 0.286855
v -1.417099 -0.136926 0.285410
v -1.428000 -0.134596 0.286826
v -1.439144 -0.134597 0.223626
v -1.439309 -0.135489 0.223655
v -1.428416 -0.136926 0.221229
v -1.428600 -0.137927 0.221261
v -1.351947 -0.144810 0.213422
v -1.347108 -0.144836 0.239980
v -1.347859 -0.148910 0.240113
v -1.352696 -0.148882 0.213554
v -1.342572 -0.144810 0.266592
v -1.343320 -0.148882 0.266724
v -1.416677 -0.134632 0.285336
v -1.427624 -0.132550 0.286760
v -1.416246 -0.132291 0.285260
v -1.427239 -0.130461 0.286692
v -1.429048 -0.130392 0.278853
v -1.429430 -0.132472 0.278920
v -1.433744 -0.132445 0.255257
v -1.437784 -0.132472 0.231545
v -1.433362 -0.130369 0.255189
v -1.437401 -0.130392 0.231478
v -1.438383 -0.130461 0.223492
v -1.438767 -0.132550 0.223560
v -1.427563 -0.132291 0.221078
v -1.427994 -0.134632 0.221154
v -1.350384 -0.142274 0.220258
v -1.346762 -0.142107 0.239919
v -1.346742 -0.142843 0.239916
v -1.351580 -0.142820 0.213358
v -1.343441 -0.142274 0.259634
v -1.342205 -0.142820 0.266527
v -1.416035 -0.131146 0.285222
v -1.427051 -0.129440 0.286659
v -1.417374 -0.130736 0.277187
v -1.428377 -0.129074 0.278747
v -1.429786 -0.129122 0.272654
v -1.428860 -0.129375 0.278820
v -1.433175 -0.129354 0.255156
v -1.437214 -0.129375 0.231445
v -1.432970 -0.129011 0.255120
v -1.435975 -0.129122 0.237554
v -1.436735 -0.129074 0.231347
v -1.438195 -0.129440 0.223459
v -1.425862 -0.130736 0.229051
v -1.427352 -0.131146 0.221041
v -1.365040 -0.152495 0.216126
v -1.360446 -0.152639 0.242332
v -1.391733 -0.145459 0.247849
v -1.396143 -0.145342 0.222710
v -1.355800 -0.152495 0.268530
v -1.387279 -0.145342 0.272980
v -1.354180 -0.152063 0.277250
v -1.385738 -0.144994 0.281347
v -1.353881 -0.150436 0.277197
v -1.385496 -0.143680 0.281304
v -1.353195 -0.146707 0.277076
v -1.384942 -0.140668 0.281207
v -1.352494 -0.142899 0.276952
v -1.384376 -0.137594 0.281107
v -1.352152 -0.141038 0.276892
v -1.384100 -0.136091 0.281058
v -1.353569 -0.140371 0.268136
v -1.385478 -0.135552 0.272662
v -1.389877 -0.135373 0.247522
v -1.394342 -0.135552 0.222393
v -1.385478 -0.135552 0.272662
v -1.353569 -0.140371 0.268136
v -1.358148 -0.140149 0.241927
v -1.362809 -0.140371 0.215732
v -1.395918 -0.136091 0.214032
v -1.396195 -0.137594 0.214081
v -1.394342 -0.135552 0.222393
v -1.362809 -0.140371 0.215732
v -1.364472 -0.141038 0.207020
v -1.364814 -0.142899 0.207080
v -1.396760 -0.140668 0.214180
v -1.397315 -0.143680 0.214278
v -1.365515 -0.146707 0.207204
v -1.366201 -0.150436 0.207325
v -1.397556 -0.144994 0.214321
v -1.366501 -0.152063 0.207378
v -1.349621 -0.155123 0.240424
v -1.354278 -0.154970 0.213847
v -1.344908 -0.154970 0.266990
v -1.342942 -0.152774 0.275776
v -1.343261 -0.154509 0.275832
v -1.341462 -0.144735 0.275515
v -1.342210 -0.148796 0.275647
v -1.342529 -0.142038 0.266570
v -1.341097 -0.142749 0.275450
v -1.347170 -0.141801 0.239991
v -1.351899 -0.142038 0.213428
v -1.342529 -0.142038 0.266570
v -1.343441 -0.142274 0.259634
v -1.346762 -0.142107 0.239919
v -1.350384 -0.142274 0.220258
v -1.353591 -0.142749 0.204594
v -1.353956 -0.144735 0.204658
v -1.351899 -0.142038 0.213428
v -1.354704 -0.148796 0.204790
v -1.355436 -0.152774 0.204919
v -1.355755 -0.154509 0.204975
vt 0.569160 0.157734
vt 0.384791 0.156409
vt 0.384855 0.164279
vt 0.564277 0.165130
vt 0.200412 0.157250
vt 0.205421 0.165093
vt 0.252632 0.167186
vt 0.384832 0.167137
vt 0.517031 0.167207
vt 0.545733 0.687515
vt 0.377005 0.684238
vt 0.375870 0.759393
vt 0.543916 0.763279
vt 0.208268 0.681256
vt 0.207814 0.756128
vt 0.251064 0.759067
vt 0.375841 0.762019
vt 0.500623 0.764371
vt 0.375820 0.763987
vt 0.544774 0.766735
vt 0.206880 0.759563
vt 0.204697 0.763821
vt 0.375789 0.768602
vt 0.546916 0.771148
vt 0.728474 0.714727
vt 0.853474 0.714727
vt 0.853474 0.713131
vt 0.728474 0.713131
vt 0.978474 0.714727
vt 0.978474 0.713131
vt 0.978474 0.711534
vt 0.853474 0.681518
vt 0.728474 0.711534
vt 0.150691 0.680631
vt 0.150873 0.755855
vt 0.145226 0.682109
vt 0.146990 0.759237
vt 0.604725 0.769025
vt 0.600826 0.765415
vt 0.608798 0.690801
vt 0.603284 0.689024
vt 0.592090 0.123575
vt 0.384323 0.119729
vt 0.384554 0.138481
vt 0.580651 0.140994
vt 0.176560 0.120501
vt 0.188455 0.139216
vt 0.132828 0.685434
vt 0.138109 0.766936
vt 0.120096 0.688751
vt 0.129109 0.774767
vt 0.194578 0.783570
vt 0.199630 0.773529
vt 0.375731 0.779165
vt 0.551929 0.781286
vt 0.375659 0.790127
vt 0.556903 0.791758
vt 0.622862 0.785781
vt 0.613739 0.777335
vt 0.634372 0.698962
vt 0.621417 0.694885
vt 0.665196 0.105640
vt 0.384335 0.103249
vt 0.384282 0.109387
vt 0.596818 0.114143
vt 0.103474 0.100859
vt 0.171743 0.110611
vt 0.113632 0.690204
vt 0.124867 0.778549
vt 0.111744 0.766982
vt 0.123005 0.780306
vt 0.134266 0.793630
vt 0.192442 0.788824
vt 0.375586 0.795937
vt 0.558928 0.797168
vt 0.375514 0.799170
vt 0.616761 0.804709
vt 0.628876 0.791602
vt 0.627093 0.789799
vt 0.640991 0.778495
vt 0.640893 0.700724
vt 0.559408 0.245182
vt 0.383679 0.245143
vt 0.380343 0.464684
vt 0.552360 0.466344
vt 0.207958 0.244231
vt 0.208326 0.462736
vt 0.147424 0.242709
vt 0.149228 0.461660
vt 0.139104 0.237333
vt 0.141963 0.459693
vt 0.120029 0.224858
vt 0.125444 0.455073
vt 0.100387 0.212509
vt 0.108385 0.450552
vt 0.090366 0.207511
vt 0.099502 0.448879
vt 0.077672 0.130278
vt 0.094708 0.448630
vt 0.853474 0.589872
vt 0.728474 0.589872
vt 0.978474 0.589872
vt 0.978474 0.468211
vt 0.853474 0.498191
vt 0.728474 0.468211
vt 0.661140 0.456839
vt 0.652264 0.458068
vt 0.665933 0.456716
vt 0.690874 0.134936
vt 0.676202 0.212899
vt 0.666276 0.217327
vt 0.635218 0.461506
vt 0.618712 0.465041
vt 0.646956 0.228250
vt 0.628199 0.239294
vt 0.611454 0.466559
vt 0.619965 0.244085
vt 0.384808 0.170026
vt 0.562489 0.169443
vt 0.207138 0.169400
vt 0.138552 0.160371
vt 0.146216 0.167545
vt 0.102513 0.126960
vt 0.120656 0.143790
vt 0.090573 0.115568
vt 0.094109 0.119037
vt 0.853474 0.466469
vt 0.728474 0.466469
vt 0.978474 0.466469
vt 0.978474 0.464727
vt 0.853474 0.464727
vt 0.728474 0.464727
vt 0.674443 0.123657
vt 0.666146 0.130969
vt 0.678035 0.120288
vt 0.648442 0.146165
vt 0.630988 0.161111
vt 0.623443 0.167670
vn 0.962674 -0.183622 -0.198852
vn 0.968065 -0.183617 -0.170692
vn 0.926725 -0.338623 -0.162838
vn 0.818543 -0.546633 -0.176580
vn 0.972632 -0.183599 -0.142399
vn 0.829592 -0.546595 -0.114062
vn 0.570935 -0.815701 -0.093090
vn 0.544636 -0.833156 -0.096034
vn 0.519668 -0.848589 -0.099207
vn -0.219293 -0.975454 0.020005
vn -0.216983 -0.975432 0.038091
vn -0.304579 -0.950957 0.053965
vn -0.450768 -0.890619 0.060043
vn -0.213431 -0.975345 0.056120
vn -0.444169 -0.890588 0.097809
vn -0.666233 -0.735553 0.122868
vn -0.719784 -0.682533 0.126724
vn -0.704861 -0.699278 0.119085
vn -0.981939 -0.077422 0.172633
vn -0.938242 -0.317991 0.136324
vn -0.928314 -0.317899 0.192804
vn -0.962522 0.183681 0.199531
vn -0.968067 0.183599 0.170699
vn -0.972728 0.183635 0.141699
vn -0.225897 0.973521 0.035034
vn -0.129800 0.991298 0.021919
vn 0.007546 0.999970 -0.001718
vn 0.132232 0.990797 -0.028925
vn -0.273489 0.960259 0.055736
vn 0.134395 0.990757 -0.018412
vn 0.146322 0.989030 -0.020220
vn 0.144680 0.989156 -0.025255
vn 0.144135 0.989056 -0.031507
vn -0.055316 -0.671913 0.738562
vn -0.564597 -0.445075 0.695082
vn 0.130542 0.008146 0.991409
vn -0.558320 0.129358 0.819479
vn -0.804916 0.129368 -0.579114
vn -0.768280 -0.445071 -0.460062
vn -0.216412 0.008145 -0.976268
vn -0.303950 -0.672328 -0.674974
vn 0.962678 -0.183611 -0.198840
vn 0.968071 -0.183578 -0.170696
vn 0.968042 -0.183732 -0.170698
vn 0.962684 -0.183562 -0.198856
vn 0.972630 -0.183604 -0.142409
vn 0.972637 -0.183583 -0.142389
vn 0.130543 0.008148 0.991409
vn -0.558262 0.129347 0.819520
vn 0.130543 0.008146 0.991409
vn -0.558311 0.129354 0.819486
vn -0.962524 0.183656 0.199545
vn -0.962547 0.183537 0.199545
vn -0.968034 0.183784 0.170685
vn -0.972746 0.183535 0.141704
vn -0.968056 0.183656 0.170696
vn -0.972733 0.183613 0.141690
vn -0.804909 0.129290 -0.579143
vn -0.804888 0.129341 -0.579161
vn -0.216412 0.008146 -0.976268
vn -0.216412 0.008148 -0.976268
vn 0.976767 0.117717 -0.179081
vn 0.984246 0.027348 -0.174678
vn 0.981673 -0.078495 -0.173656
vn 0.961855 0.180030 -0.205969
vn 0.973884 0.159424 -0.161662
vn 0.974286 0.180092 -0.135403
vn 0.196868 0.686608 0.699866
vn -0.361567 0.655381 0.663132
vn 0.154237 0.987698 0.025745
vn -0.407804 0.906305 0.110939
vn -0.766213 0.626923 0.141016
vn -0.764361 0.622673 0.167423
vn -0.919744 0.357194 0.162736
vn -0.775590 0.622597 0.104081
vn -0.841315 0.519476 0.149443
vn -0.730936 0.671779 0.120188
vn -0.420869 0.906439 0.035180
vn -0.566635 0.655337 -0.499458
vn 0.134987 0.987954 -0.075666
vn -0.055504 0.686355 -0.725146
vn -0.221689 -0.975056 0.010996
vn -0.216994 -0.975428 0.038115
vn -0.216942 -0.975442 0.038059
vn -0.220706 -0.975222 0.015186
vn -0.211640 -0.975169 0.065230
vn -0.212631 -0.975243 0.060743
vn -0.052759 -0.666513 0.743624
vn -0.054248 -0.668914 0.741358
vn 0.130543 0.008147 0.991409
vn 0.130543 0.008147 0.991409
vn 0.130543 0.008146 0.991409
vn 0.130543 0.008149 0.991409
vn 0.130543 0.008145 0.991409
vn 0.130542 0.008142 0.991409
vn 0.195823 0.677404 0.709068
vn 0.196524 0.681980 0.704472
vn 0.156044 0.986491 0.049851
vn 0.155900 0.987014 0.038700
vn 0.144763 0.989145 -0.025226
vn 0.143858 0.989050 -0.032924
vn 0.146358 0.989052 -0.018850
vn 0.146573 0.989045 -0.017514
vn 0.144649 0.989160 -0.025279
vn 0.143779 0.989021 -0.034144
vn -0.056573 0.681257 -0.729855
vn -0.216412 0.008145 -0.976268
vn 0.133783 0.987122 -0.087706
vn 0.131109 0.986367 -0.099449
vn -0.057777 0.676955 -0.733753
vn -0.216412 0.008145 -0.976268
vn -0.216412 0.008146 -0.976268
vn -0.216412 0.008147 -0.976268
vn -0.216412 0.008147 -0.976268
vn -0.216412 0.008146 -0.976268
vn -0.304511 -0.669392 -0.677633
vn -0.304461 -0.666594 -0.680409
vn -0.056517 -0.998358 0.009344
vn 0.168534 -0.983727 -0.062270
vn 0.179719 -0.983717 0.000934
vn 0.779426 -0.123480 0.614205
vn 0.528469 -0.661781 0.531758
vn 0.779473 -0.123490 0.614143
vn 0.779420 -0.123513 0.614206
vn 0.801356 0.592483 -0.082420
vn 0.736957 0.452505 0.502129
vn 0.376095 0.924271 -0.065397
vn 0.165776 0.985415 -0.038419
vn 0.168629 0.985456 -0.020987
vn 0.700361 0.704301 -0.115989
vn 0.585740 0.804099 -0.101655
vn 0.745834 0.650614 -0.142944
vn 0.520781 0.452493 -0.723904
vn 0.522412 -0.123491 -0.843704
vn 0.781360 0.592288 -0.196651
vn 0.522344 -0.123509 -0.843743
vn 0.522351 -0.123480 -0.843743
vn 0.314716 -0.661782 -0.680440
f 1/1/1 2/2/2 3/3/3
f 1/1/1 3/3/3 4/4/4
f 2/2/2 5/5/5 6/6/6
f 2/2/2 6/6/6 3/3/3
f 3/3/3 6/6/6 7/7/7
f 3/3/3 7/7/7 8/8/8
f 4/4/4 3/3/3 8/8/8
f 4/4/4 8/8/8 9/9/9
f 10/10/10 11/11/11 12/12/12
f 10/10/10 12/12/12 13/13/13
f 11/11/11 14/14/14 15/15/15
f 11/11/11 15/15/15 12/12/12
f 12/12/12 15/15/15 16/16/16
f 12/12/12 16/16/16 17/17/17
f 13/13/13 12/12/12 17/17/17
f 13/13/13 17/17/17 18/18/18
f 18/18/18 17/17/17 19/19/19
f 18/18/18 19/19/19 20/20/20
f 17/17/17 16/16/16 21/21/21
f 17/17/17 21/21/21 19/19/19
f 19/19/19 21/21/21 22/22/22
f 19/19/19 22/22/22 23/23/23
f 20/20/20 19/19/19 23/23/23
f 20/20/20 23/23/23 24/24/24
f 25/25/25 26/26/26 27/27/27
f 25/25/25 27/27/27 28/28/28
f 26/26/26 29/29/29 30/30/30
f 26/26/26 30/30/30 27/27/27
f 27/27/27 30/30/30 31/31/31
f 27/27/27 31/31/31 32/32/32
f 28/28/28 27/27/27 32/32/32
f 28/28/28 32/32/32 33/33/33
f 14/14/14 34/34/34 35/35/35
f 14/14/14 35/35/35 15/15/15
f 34/34/34 36/36/36 37/37/37
f 34/34/34 37/37/37 35/35/35
f 35/35/35 37/37/37 22/22/22
f 35/35/35 22/22/22 21/21/21
f 15/15/15 35/35/35 21/21/21
f 15/15/15 21/21/21 16/16/16
f 24/24/24 38/38/38 39/39/39
f 24/24/24 39/39/39 20/20/20
f 38/38/38 40/40/40 41/41/41
f 38/38/38 41/41/41 39/39/39
f 39/39/39 41/41/41 10/10/10
f 39/39/39 10/10/10 13/13/13
f 20/20/20 39/39/39 13/13/13
f 20/20/20 13/13/13 18/18/18
f 42/42/42 43/43/43 44/44/44
f 42/42/42 44/44/44 45/45/45
f 43/43/43 46/46/46 47/47/47
f 43/43/43 47/47/47 44/44/44
f 44/44/44 47/47/47 5/5/5
f 44/44/44 5/5/5 2/2/2
f 45/45/45 44/44/44 2/2/2
f 45/45/45 2/2/2 1/1/1
f 36/36/36 48/48/48 49/49/49
f 36/36/36 49/49/49 37/37/37
f 48/48/48 50/50/50 51/51/51
f 48/48/48 51/51/51 49/49/49
f 49/49/49 51/51/51 52/52/52
f 49/49/49 52/52/52 53/53/53
f 37/37/37 49/49/49 53/53/53
f 37/37/37 53/53/53 22/22/22
f 24/24/24 23/23/23 54/54/54
f 24/24/24 54/54/54 55/55/55
f 23/23/23 22/22/22 53/53/53
f 23/23/23 53/53/53 54/54/54
f 54/54/54 53/53/53 52/52/52
f 54/54/54 52/52/52 56/56/56
f 55/55/55 54/54/54 56/56/56
f 55/55/55 56/56/56 57/57/57
f 57/57/57 58/58/58 59/59/59
f 57/57/57 59/59/59 55/55/55
f 58/58/58 60/60/60 61/61/61
f 58/58/58 61/61/61 59/59/59
f 59/59/59 61/61/61 40/40/40
f 59/59/59 40/40/40 38/38/38
f 55/55/55 59/59/59 38/38/38
f 55/55/55 38/38/38 24/24/24
f 62/62/62 63/63/63 64/64/64
f 62/62/62 64/64/64 65/65/65
f 63/63/63 66/66/66 67/67/67
f 63/63/63 67/67/67 64/64/64
f 64/64/64 67/67/67 46/46/46
f 64/64/64 46/46/46 43/43/43
f 65/65/65 64/64/64 43/43/43
f 65/65/65 43/43/43 42/42/42
f 50/50/50 68/68/68 69/69/69
f 50/50/50 69/69/69 51/51/51
f 68/68/68 70/70/70 71/71/71
f 68/68/68 71/71/71 69/69/69
f 69/69/69 71/71/71 72/72/72
f 69/69/69 72/72/72 73/73/73
f 51/51/51 69/69/69 73/73/73
f 51/51/51 73/73/73 52/52/52
f 57/57/57 56/56/56 74/74/74
f 57/57/57 74/74/74 75/75/75
f 56/56/56 52/52/52 73/73/73
f 56/56/56 73/73/73 74/74/74
f 74/74/74 73/73/73 72/72/72
f 74/74/74 72/72/72 76/76/76
f 75/75/75 74/74/74 76/76/76
f 75/75/75 76/76/76 77/77/77
f 77/77/77 78/78/78 79/79/79
f 77/77/77 79/79/79 75/75/75
f 78/78/78 80/80/80 81/81/81
f 78/78/78 81/81/81 79/79/79
f 79/79/79 81/81/81 60/60/60
f 79/79/79 60/60/60 58/58/58
f 75/75/75 79/79/79 58/58/58
f 75/75/75 58/58/58 57/57/57
f 82/82/82 83/83/83 84/84/84
f 82/82/82 84/84/84 85/85/85
f 83/83/83 86/86/86 87/87/87
f 83/83/83 87/87/87 84/84/84
f 84/84/84 87/87/87 14/14/14
f 84/84/84 14/14/14 11/11/11
f 85/85/85 84/84/84 11/11/11
f 85/85/85 11/11/11 10/10/10
f 86/86/86 88/88/88 89/89/89
f 86/86/86 89/89/89 87/87/87
f 88/88/88 90/90/90 91/91/91
f 88/88/88 91/91/91 89/89/89
f 89/89/89 91/91/91 36/36/36
f 89/89/89 36/36/36 34/34/34
f 87/87/87 89/89/89 34/34/34
f 87/87/87 34/34/34 14/14/14
f 90/90/90 92/92/92 93/93/93
f 90/90/90 93/93/93 91/91/91
f 92/92/92 94/94/94 95/95/95
f 92/92/92 95/95/95 93/93/93
f 93/93/93 95/95/95 50/50/50
f 93/93/93 50/50/50 48/48/48
f 91/91/91 93/93/93 48/48/48
f 91/91/91 48/48/48 36/36/36
f 94/94/94 96/96/96 97/97/97
f 94/94/94 97/97/97 95/95/95
f 96/96/96 98/98/98 99/99/99
f 96/96/96 99/99/99 97/97/97
f 97/97/97 99/99/99 70/70/70
f 97/97/97 70/70/70 68/68/68
f 95/95/95 97/97/97 68/68/68
f 95/95/95 68/68/68 50/50/50
f 33/33/33 32/32/32 100/100/100
f 33/33/33 100/100/100 101/101/101
f 32/32/32 31/31/31 102/102/102
f 32/32/32 102/102/102 100/100/100
f 100/100/100 102/102/102 103/103/103
f 100/100/100 103/103/103 104/104/104
f 101/101/101 100/100/100 104/104/104
f 101/101/101 104/104/104 105/105/105
f 60/60/60 81/81/81 106/106/106
f 60/60/60 106/106/106 107/107/107
f 81/81/81 80/80/80 108/108/108
f 81/81/81 108/108/108 106/106/106
f 106/106/106 108/108/108 109/109/109
f 106/106/106 109/109/109 110/110/110
f 107/107/107 106/106/106 110/110/110
f 107/107/107 110/110/110 111/111/111
f 40/40/40 61/61/61 112/112/112
f 40/40/40 112/112/112 113/113/113
f 61/61/61 60/60/60 107/107/107
f 61/61/61 107/107/107 112/112/112
f 112/112/112 107/107/107 111/111/111
f 112/112/112 111/111/111 114/114/114
f 113/113/113 112/112/112 114/114/114
f 113/113/113 114/114/114 115/115/115
f 10/10/10 41/41/41 116/116/116
f 10/10/10 116/116/116 85/85/85
f 41/41/41 40/40/40 113/113/113
f 41/41/41 113/113/113 116/116/116
f 116/116/116 113/113/113 115/115/115
f 116/116/116 115/115/115 117/117/117
f 85/85/85 116/116/116 117/117/117
f 85/85/85 117/117/117 82/82/82
f 9/9/9 8/8/8 118/118/118
f 9/9/9 118/118/118 119/119/119
f 8/8/8 7/7/7 120/120/120
f 8/8/8 120/120/120 118/118/118
f 118/118/118 120/120/120 86/86/86
f 118/118/118 86/86/86 83/83/83
f 119/119/119 118/118/118 83/83/83
f 119/119/119 83/83/83 82/82/82
f 5/5/5 121/121/121 122/122/122
f 5/5/5 122/122/122 6/6/6
f 121/121/121 90/90/90 88/88/88
f 121/121/121 88/88/88 122/122/122
f 122/122/122 88/88/88 86/86/86
f 122/122/122 86/86/86 120/120/120
f 6/6/6 122/122/122 120/120/120
f 6/6/6 120/120/120 7/7/7
f 46/46/46 123/123/123 124/124/124
f 46/46/46 124/124/124 47/47/47
f 123/123/123 94/94/94 92/92/92
f 123/123/123 92/92/92 124/124/124
f 124/124/124 92/92/92 90/90/90
f 124/124/124 90/90/90 121/121/121
f 47/47/47 124/124/124 121/121/121
f 47/47/47 121/121/121 5/5/5
f 66/66/66 125/125/125 126/126/126
f 66/66/66 126/126/126 67/67/67
f 125/125/125 98/98/98 96/96/96
f 125/125/125 96/96/96 126/126/126
f 126/126/126 96/96/96 94/94/94
f 126/126/126 94/94/94 123/123/123
f 67/67/67 126/126/126 123/123/123
f 67/67/67 123/123/123 46/46/46
f 105/105/105 104/104/104 127/127/127
f 105/105/105 127/127/127 128/128/128
f 104/104/104 103/103/103 129/129/129
f 104/104/104 129/129/129 127/127/127
f 127/127/127 129/129/129 130/130/130
f 127/127/127 130/130/130 131/131/131
f 128/128/128 127/127/127 131/131/131
f 128/128/128 131/131/131 132/132/132
f 111/111/111 110/110/110 133/133/133
f 111/111/111 133/133/133 134/134/134
f 110/110/110 109/109/109 135/135/135
f 110/110/110 135/135/135 133/133/133
f 133/133/133 135/135/135 62/62/62
f 133/133/133 62/62/62 65/65/65
f 134/134/134 133/133/133 65/65/65
f 134/134/134 65/65/65 42/42/42
f 115/115/115 114/114/114 136/136/136
f 115/115/115 136/136/136 137/137/137
f 114/114/114 111/111/111 134/134/134
f 114/114/114 134/134/134 136/136/136
f 136/136/136 134/134/134 42/42/42
f 136/136/136 42/42/42 45/45/45
f 137/137/137 136/136/136 45/45/45
f 137/137/137 45/45/45 1/1/1
f 82/82/82 117/117/117 138/138/138
f 82/82/82 138/138/138 119/119/119
f 117/117/117 115/115/115 137/137/137
f 117/117/117 137/137/137 138/138/138
f 138/138/138 137/137/137 1/1/1
f 138/138/138 1/1/1 4/4/4
f 119/119/119 138/138/138 4/4/4
f 119/119/119 4/4/4 9/9/9
