# phare_main_phare_main1_0_5
v -0.080883 0.034793 -0.262466
v -0.081825 0.024765 -0.267808
v -0.082885 0.035611 -0.273820
v -0.082200 0.044875 -0.269937
v -0.082925 0.016635 -0.271143
v -0.083778 0.027967 -0.275976
v -0.084155 0.030987 -0.275857
v -0.083518 0.036960 -0.274502
v -0.082857 0.046091 -0.270754
v -0.088493 0.046497 -0.270071
v -0.089146 0.037410 -0.273774
v -0.097444 0.037410 -0.272311
v -0.096791 0.046497 -0.268607
v -0.089481 0.029404 -0.275673
v -0.097779 0.029404 -0.274209
v -0.105949 0.029404 -0.272769
v -0.105614 0.037410 -0.270871
v -0.104961 0.046497 -0.267167
v -0.109720 0.046091 -0.266017
v -0.110381 0.036960 -0.269765
v -0.110614 0.035611 -0.268930
v -0.109929 0.044875 -0.265047
v -0.110345 0.030987 -0.271239
v -0.110641 0.027967 -0.271240
v -0.109788 0.016635 -0.266406
v -0.109554 0.024765 -0.262919
v -0.108612 0.034793 -0.257576
v -0.094526 -0.033367 -0.207990
v -0.097223 -0.048477 -0.223281
v -0.089053 -0.048477 -0.224722
v -0.086357 -0.033366 -0.209430
v -0.099311 -0.058943 -0.235122
v -0.091141 -0.058943 -0.236563
v -0.082842 -0.058943 -0.238026
v -0.080755 -0.048477 -0.226185
v -0.078058 -0.033367 -0.210893
v -0.089492 0.025419 -0.275740
v -0.097791 0.025419 -0.274277
v -0.088709 0.013925 -0.271299
v -0.097008 0.013925 -0.269836
v -0.105178 0.013925 -0.268396
v -0.105961 0.025419 -0.272836
v -0.099719 0.064317 -0.237438
v -0.099027 0.064277 -0.233512
v -0.090857 0.064277 -0.234953
v -0.091549 0.064317 -0.238878
v -0.097053 0.059457 -0.222318
v -0.088883 0.059457 -0.223759
v -0.080585 0.059457 -0.225222
v -0.082559 0.064277 -0.236416
v -0.083251 0.064317 -0.240341
v -0.073789 -0.019519 -0.222236
v -0.076155 -0.033455 -0.235653
v -0.079007 -0.004175 -0.251827
v -0.077356 0.007790 -0.242465
v -0.078412 -0.043994 -0.245544
v -0.080683 -0.013497 -0.258428
v -0.086659 -0.016604 -0.259673
v -0.094958 -0.016604 -0.258210
v -0.084581 -0.047507 -0.247886
v -0.092879 -0.047507 -0.246423
v -0.101049 -0.047507 -0.244982
v -0.103128 -0.016604 -0.256769
v -0.101518 -0.019519 -0.217347
v -0.105085 0.007790 -0.237576
v -0.106736 -0.004175 -0.246938
v -0.103884 -0.033455 -0.230763
v -0.107546 -0.013497 -0.253691
v -0.105275 -0.043994 -0.240807
v -0.091809 0.046824 -0.192580
v -0.083639 0.046824 -0.194021
v -0.086502 0.034019 -0.162479
v -0.078332 0.034019 -0.163920
v -0.070034 0.034019 -0.165383
v -0.075341 0.046824 -0.195484
v -0.072569 -0.032655 -0.212407
v -0.075251 -0.047688 -0.227620
v -0.074992 -0.045320 -0.229060
v -0.072352 -0.030520 -0.214082
v -0.077179 -0.055365 -0.236293
v -0.077470 -0.056420 -0.240205
v -0.083713 -0.060120 -0.242965
v -0.092012 -0.060120 -0.241502
v -0.082842 -0.058943 -0.238026
v -0.091141 -0.058943 -0.236563
v -0.099311 -0.058943 -0.235122
v -0.100181 -0.060120 -0.240061
v -0.102721 -0.045320 -0.224170
v -0.100080 -0.030520 -0.209193
v -0.104333 -0.056420 -0.235468
v -0.103369 -0.055365 -0.231675
v -0.102114 -0.047688 -0.222883
v -0.099432 -0.032655 -0.207670
v -0.084336 0.028681 -0.150197
v -0.076166 0.028681 -0.151637
v -0.084564 0.023699 -0.151489
v -0.076394 0.023700 -0.152930
v -0.068096 0.023699 -0.154393
v -0.067868 0.028681 -0.153100
v -0.085054 0.037410 -0.274496
v -0.084401 0.046497 -0.270792
v -0.085389 0.029404 -0.276394
v -0.084618 0.013925 -0.272021
v -0.085401 0.025419 -0.276462
v -0.080489 -0.047507 -0.248607
v -0.082568 -0.016604 -0.260394
v -0.078751 -0.058943 -0.238747
v -0.079622 -0.060120 -0.243686
v -0.076663 -0.048477 -0.226907
v -0.073967 -0.033366 -0.211615
v -0.078751 -0.058943 -0.238747
v -0.077179 -0.055365 -0.236293
v -0.075251 -0.047688 -0.227620
v -0.072569 -0.032655 -0.212407
v -0.063776 0.028681 -0.153822
v -0.065942 0.034019 -0.166104
v -0.064004 0.023700 -0.155115
v -0.063533 0.021108 -0.158904
v -0.062945 0.024981 -0.157829
v -0.065076 0.030738 -0.169916
v -0.071250 0.046824 -0.196205
v -0.076493 0.059457 -0.225944
v -0.070308 0.044646 -0.199588
v -0.075478 0.058373 -0.228906
v -0.078467 0.064277 -0.237138
v -0.079159 0.064317 -0.241063
v -0.077422 0.063587 -0.239929
v -0.078333 0.063617 -0.242836
v -0.099432 -0.032655 -0.207670
v -0.102114 -0.047688 -0.222883
v -0.100929 -0.048477 -0.222628
v -0.098233 -0.033366 -0.207336
v -0.103369 -0.055365 -0.231675
v -0.103017 -0.058943 -0.234469
v -0.103888 -0.060120 -0.239408
v -0.104755 -0.047507 -0.244329
v -0.103017 -0.058943 -0.234469
v -0.106834 -0.016604 -0.256115
v -0.108884 0.013925 -0.267742
v -0.109667 0.025419 -0.272183
v -0.109655 0.029404 -0.272115
v -0.109320 0.037410 -0.270217
v -0.108667 0.046497 -0.266513
v -0.102341 0.058373 -0.224169
v -0.100759 0.059457 -0.221665
v -0.102733 0.064277 -0.232859
v -0.104285 0.063587 -0.235193
v -0.103425 0.064317 -0.236784
v -0.104523 0.063617 -0.238218
v -0.091939 0.030738 -0.165180
v -0.090208 0.034019 -0.161826
v -0.095516 0.046824 -0.191927
v -0.097171 0.044646 -0.194852
v -0.089723 0.021108 -0.154286
v -0.088270 0.023700 -0.150836
v -0.088042 0.028681 -0.149543
v -0.089808 0.024981 -0.153092
v -0.105853 0.062335 -0.244086
v -0.105991 0.061517 -0.242714
v -0.107456 0.058779 -0.253177
v -0.107618 0.057828 -0.251939
v -0.105903 0.049970 -0.242218
v -0.104137 0.055120 -0.232201
v -0.101118 0.062608 -0.245370
v -0.104824 0.062608 -0.244717
v -0.102713 0.059096 -0.254417
v -0.106419 0.059096 -0.253763
v -0.084650 0.062608 -0.248274
v -0.092948 0.062608 -0.246811
v -0.086245 0.059096 -0.257320
v -0.094543 0.059096 -0.255857
v -0.078990 0.062335 -0.248823
v -0.080558 0.062608 -0.248996
v -0.080593 0.058779 -0.257914
v -0.082153 0.059096 -0.258042
v -0.076409 0.055120 -0.237090
v -0.078262 0.061517 -0.247604
v -0.078175 0.049970 -0.247107
v -0.079889 0.057828 -0.256829
v -0.066457 0.020896 -0.180651
v -0.071462 0.038111 -0.209035
v -0.068940 0.007657 -0.194735
v -0.073584 0.028933 -0.221069
v -0.064521 0.012444 -0.166768
v -0.064429 0.013881 -0.169150
v -0.067204 -0.002589 -0.181981
v -0.067070 -0.000919 -0.184127
v -0.068096 0.023699 -0.154393
v -0.069969 0.011965 -0.165019
v -0.065878 0.011965 -0.165740
v -0.064004 0.023700 -0.155115
v -0.072666 -0.003145 -0.180310
v -0.068574 -0.003145 -0.181032
v -0.067204 -0.002589 -0.181981
v -0.064521 0.012444 -0.166768
v -0.063533 0.021108 -0.158904
v -0.084564 0.023699 -0.151489
v -0.086437 0.011965 -0.162115
v -0.078268 0.011965 -0.163555
v -0.076394 0.023700 -0.152930
v -0.089134 -0.003145 -0.177406
v -0.080964 -0.003145 -0.178847
v -0.089723 0.021108 -0.154286
v -0.091384 0.012444 -0.162031
v -0.090144 0.011965 -0.161461
v -0.088270 0.023700 -0.150836
v -0.094067 -0.002589 -0.177244
v -0.092840 -0.003145 -0.176753
v -0.094185 0.020896 -0.175761
v -0.092157 0.013881 -0.164261
v -0.096669 0.007657 -0.189846
v -0.094798 -0.000919 -0.179238
v -0.094067 -0.002589 -0.177244
v -0.091384 0.012444 -0.162031
v -0.099190 0.038111 -0.204146
v -0.101312 0.028933 -0.216179
v -0.108745 0.053364 -0.260487
v -0.108930 0.052280 -0.259384
v -0.107395 0.043194 -0.250676
v -0.103994 0.053725 -0.261682
v -0.107700 0.053725 -0.261029
v -0.087526 0.053725 -0.264586
v -0.095824 0.053725 -0.263123
v -0.081882 0.053364 -0.265224
v -0.083434 0.053725 -0.265307
v -0.079666 0.043194 -0.255565
v -0.081202 0.052280 -0.264273
v -0.071384 -0.005815 -0.208597
v -0.075548 0.018826 -0.232212
v -0.069886 -0.017622 -0.197194
v -0.069711 -0.015719 -0.199105
v -0.075362 -0.018256 -0.195602
v -0.071270 -0.018256 -0.196323
v -0.069886 -0.017622 -0.197194
v -0.091830 -0.018256 -0.192698
v -0.083660 -0.018256 -0.194139
v -0.096749 -0.017622 -0.192457
v -0.095536 -0.018256 -0.192045
v -0.099113 -0.005815 -0.203708
v -0.097439 -0.015719 -0.194215
v -0.096749 -0.017622 -0.192457
v -0.103277 0.018826 -0.227323
v 0.013591 0.034793 0.273321
v 0.014908 0.044875 0.280792
v 0.015593 0.035611 0.284674
v 0.014533 0.024765 0.278663
v 0.014570 0.046091 0.281784
v 0.015231 0.036960 0.285532
v 0.015096 0.030987 0.287023
v 0.015491 0.027967 0.287007
v 0.014639 0.016635 0.282173
v 0.009041 0.046497 0.283069
v 0.000742 0.046497 0.284533
v 0.001395 0.037410 0.288237
v 0.009694 0.037410 0.286773
v -0.007427 0.046497 0.285973
v -0.006774 0.037410 0.289677
v -0.006440 0.029404 0.291575
v 0.001730 0.029404 0.290135
v 0.010029 0.029404 0.288672
v -0.012293 0.046091 0.286520
v -0.012821 0.044875 0.285681
v -0.012136 0.035611 0.289564
v -0.011632 0.036960 0.290269
v -0.014138 0.034793 0.278210
v -0.013196 0.024765 0.283552
v -0.012224 0.016635 0.286910
v -0.011372 0.027967 0.291743
v -0.011094 0.030987 0.291641
v -0.017862 -0.033366 0.226796
v -0.009692 -0.033367 0.225356
v -0.006996 -0.048477 0.240647
v -0.015166 -0.048477 0.242088
v -0.001394 -0.033366 0.223892
v 0.001303 -0.048477 0.239184
v 0.003390 -0.058943 0.251025
v -0.004908 -0.058943 0.252488
v -0.013078 -0.058943 0.253929
v 0.001742 0.025419 0.290202
v 0.010040 0.025419 0.288739
v -0.006428 0.025419 0.291643
v -0.007211 0.013925 0.287202
v 0.000959 0.013925 0.285761
v 0.009257 0.013925 0.284298
v -0.012669 0.064317 0.256244
v -0.004500 0.064317 0.254804
v -0.005192 0.064277 0.250878
v -0.013362 0.064277 0.252319
v 0.003799 0.064317 0.253340
v 0.003107 0.064277 0.249415
v 0.001133 0.059457 0.238221
v -0.007166 0.059457 0.239684
v -0.015335 0.059457 0.241125
v 0.006497 -0.019519 0.233091
v 0.010064 0.007790 0.253320
v 0.011715 -0.004175 0.262682
v 0.008863 -0.033455 0.246508
v 0.012397 -0.013497 0.269458
v 0.010125 -0.043994 0.256574
v -0.001091 -0.016604 0.274135
v 0.007207 -0.016604 0.272672
v -0.009261 -0.016604 0.275575
v -0.011339 -0.047507 0.263789
v -0.003169 -0.047507 0.262348
v 0.005129 -0.047507 0.260885
v -0.021232 -0.019519 0.237980
v -0.018866 -0.033455 0.251397
v -0.016014 -0.004175 0.267572
v -0.017665 0.007790 0.258209
v -0.016738 -0.043994 0.261311
v -0.014466 -0.013497 0.274195
v -0.012409 0.046824 0.209946
v -0.020579 0.046824 0.211387
v -0.004111 0.046824 0.208483
v -0.009419 0.034019 0.178382
v -0.017717 0.034019 0.179845
v -0.025887 0.034019 0.181286
v 0.004282 -0.032655 0.223437
v 0.005059 -0.030520 0.224937
v 0.007700 -0.045320 0.239914
v 0.006965 -0.047688 0.238650
v 0.009184 -0.056420 0.251235
v 0.008120 -0.055365 0.247459
v -0.004037 -0.060120 0.257427
v 0.004261 -0.060120 0.255964
v -0.012207 -0.060120 0.258868
v -0.013078 -0.058943 0.253929
v -0.004908 -0.058943 0.252488
v 0.003390 -0.058943 0.251025
v -0.022669 -0.030520 0.229826
v -0.020028 -0.045320 0.244804
v -0.022581 -0.032655 0.228174
v -0.019898 -0.047688 0.243387
v -0.018070 -0.055365 0.252077
v -0.017679 -0.056420 0.255972
v -0.019883 0.028681 0.167562
v -0.028052 0.028681 0.169003
v -0.011584 0.028681 0.166099
v -0.011356 0.023699 0.167392
v -0.019655 0.023699 0.168855
v -0.027824 0.023699 0.170296
v 0.013132 0.046497 0.282348
v 0.013785 0.037410 0.286052
v 0.014120 0.029404 0.287950
v 0.014132 0.025419 0.288018
v 0.013349 0.013925 0.283577
v 0.011299 -0.016604 0.271950
v 0.009221 -0.047507 0.260163
v 0.008353 -0.060120 0.255242
v 0.007482 -0.058943 0.250303
v 0.002698 -0.033367 0.223171
v 0.005394 -0.048477 0.238463
v 0.004282 -0.032655 0.223437
v 0.006965 -0.047688 0.238650
v 0.008120 -0.055365 0.247459
v 0.007482 -0.058943 0.250303
v -0.005327 0.034019 0.177660
v -0.007493 0.028681 0.165378
v -0.003210 0.030738 0.180946
v -0.005341 0.024981 0.168859
v -0.005526 0.021108 0.170070
v -0.007265 0.023699 0.166671
v 0.005224 0.059457 0.237500
v -0.000019 0.046824 0.207761
v 0.007192 0.058373 0.239936
v 0.002022 0.044646 0.210618
v 0.007890 0.064317 0.252619
v 0.007198 0.064277 0.248694
v 0.009273 0.063617 0.254002
v 0.009135 0.063587 0.250959
v -0.022581 -0.032655 0.228174
v -0.021568 -0.033367 0.227450
v -0.018872 -0.048477 0.242741
v -0.019898 -0.047688 0.243387
v -0.016784 -0.058943 0.254582
v -0.018070 -0.055365 0.252077
v -0.015045 -0.047507 0.264442
v -0.015913 -0.060120 0.259521
v -0.016784 -0.058943 0.254582
v -0.010917 0.013925 0.287856
v -0.012967 -0.016604 0.276229
v -0.010146 0.029404 0.292229
v -0.010134 0.025419 0.292296
v -0.011134 0.046497 0.286627
v -0.010481 0.037410 0.290331
v -0.019671 0.058373 0.244672
v -0.017728 0.063587 0.255696
v -0.017068 0.064277 0.252972
v -0.019042 0.059457 0.241778
v -0.016916 0.063617 0.258620
v -0.016376 0.064317 0.256898
v -0.030073 0.030738 0.185683
v -0.024841 0.044646 0.215355
v -0.024285 0.046824 0.212040
v -0.029593 0.034019 0.181939
v -0.031716 0.021108 0.174688
v -0.032204 0.024981 0.173596
v -0.031759 0.028681 0.169656
v -0.031531 0.023699 0.170949
v -0.016759 0.061517 0.263348
v -0.016160 0.062335 0.264590
v -0.018612 0.055120 0.252834
v -0.016846 0.049970 0.262851
v -0.015132 0.057828 0.272573
v -0.014557 0.058779 0.273681
v -0.014977 0.062608 0.264830
v -0.011271 0.062608 0.264177
v -0.013382 0.059096 0.273877
v -0.009676 0.059096 0.273223
v -0.003101 0.062608 0.262736
v 0.005197 0.062608 0.261273
v -0.001506 0.059096 0.271783
v 0.006793 0.059096 0.270319
v 0.009289 0.062608 0.260552
v 0.010703 0.062335 0.259853
v 0.010884 0.059096 0.269598
v 0.012307 0.058779 0.268944
v 0.010970 0.061517 0.258458
v 0.009116 0.055120 0.247945
v 0.012597 0.057828 0.267684
v 0.010883 0.049970 0.257962
v 0.004169 0.038111 0.219890
v -0.000836 0.020896 0.191506
v 0.006291 0.028933 0.231923
v 0.001648 0.007657 0.205590
v -0.002863 0.013881 0.180005
v -0.003765 0.012444 0.177798
v -0.000223 -0.000919 0.194982
v -0.001083 -0.002589 0.193011
v -0.011356 0.023699 0.167392
v -0.007265 0.023699 0.166671
v -0.005391 0.011965 0.177296
v -0.009483 0.011965 0.178017
v -0.005526 0.021108 0.170070
v -0.003765 0.012444 0.177798
v -0.001083 -0.002589 0.193011
v -0.002695 -0.003145 0.192588
v -0.006786 -0.003145 0.193309
v -0.027824 0.023699 0.170296
v -0.019655 0.023699 0.168855
v -0.017781 0.011965 0.179481
v -0.025951 0.011965 0.180921
v -0.015085 -0.003145 0.194772
v -0.023255 -0.003145 0.196213
v -0.031716 0.021108 0.174688
v -0.031531 0.023699 0.170949
v -0.029657 0.011965 0.181575
v -0.030628 0.012444 0.182535
v -0.026961 -0.003145 0.196866
v -0.027946 -0.002589 0.197748
v -0.030592 0.013881 0.184894
v -0.028564 0.020896 0.196395
v -0.030628 0.012444 0.182535
v -0.027946 -0.002589 0.197748
v -0.027951 -0.000919 0.199871
v -0.026081 0.007657 0.210479
v -0.023559 0.038111 0.224779
v -0.021437 0.028933 0.236813
v -0.013819 0.052280 0.280017
v -0.013268 0.053364 0.280991
v -0.015355 0.043194 0.271310
v -0.012101 0.053725 0.281142
v -0.008395 0.053725 0.280489
v -0.000225 0.053725 0.279048
v 0.008074 0.053725 0.277585
v 0.012165 0.053725 0.276863
v 0.013595 0.053364 0.276254
v 0.013909 0.052280 0.275128
v 0.012374 0.043194 0.266420
v 0.008256 0.018826 0.243067
v 0.004092 -0.005815 0.219452
v 0.002418 -0.015719 0.209959
v 0.001600 -0.017622 0.208224
v 0.000002 -0.018256 0.207879
v -0.004090 -0.018256 0.208601
v 0.001600 -0.017622 0.208224
v -0.012388 -0.018256 0.210064
v -0.020558 -0.018256 0.211505
v -0.024264 -0.018256 0.212158
v -0.025263 -0.017622 0.212961
v -0.025310 -0.015720 0.214849
v -0.023637 -0.005815 0.224341
v -0.025263 -0.017622 0.212961
v -0.019473 0.018826 0.247956
vt 0.707819 0.354055
vt 0.745986 0.346870
vt 0.725750 0.334860
vt 0.695785 0.334193
vt 0.774665 0.338610
vt 0.749098 0.333415
vt 0.741000 0.332123
vt 0.723319 0.334298
vt 0.694105 0.333563
vt 0.693968 0.307988
vt 0.722649 0.308821
vt 0.725247 0.284436
vt 0.696674 0.284394
vt 0.746509 0.310381
vt 0.748887 0.284464
vt 0.750635 0.260274
vt 0.727475 0.261798
vt 0.699312 0.262237
vt 0.699965 0.244224
vt 0.726666 0.245434
vt 0.730118 0.242501
vt 0.701801 0.241866
vt 0.743796 0.246016
vt 0.752203 0.243533
vt 0.779123 0.234357
vt 0.750881 0.226448
vt 0.713172 0.218877
vt 0.225559 0.329017
vt 0.267226 0.329017
vt 0.267226 0.255358
vt 0.225559 0.255358
vt 0.308892 0.349139
vt 0.308892 0.255358
vt 0.308892 0.161577
vt 0.267226 0.180541
vt 0.225559 0.180541
vt 0.757825 0.311747
vt 0.760322 0.284392
vt 0.786232 0.314966
vt 0.788463 0.284243
vt 0.790069 0.254174
vt 0.762190 0.258241
vt 0.598781 0.258642
vt 0.588183 0.257225
vt 0.585519 0.284620
vt 0.596342 0.284742
vt 0.559911 0.253477
vt 0.557518 0.284292
vt 0.555636 0.315609
vt 0.583190 0.312441
vt 0.594147 0.311228
vt 0.772642 0.491060
vt 0.857272 0.435993
vt 0.800575 0.389982
vt 0.739683 0.420709
vt 0.916223 0.378023
vt 0.844072 0.357542
vt 0.861366 0.322087
vt 0.862218 0.284037
vt 0.939100 0.329207
vt 0.938475 0.283762
vt 0.936733 0.239000
vt 0.862204 0.246547
vt 0.771734 0.081099
vt 0.741972 0.151277
vt 0.802615 0.182190
vt 0.855898 0.136454
vt 0.845723 0.214356
vt 0.914192 0.194150
vt 0.485483 0.246074
vt 0.484210 0.283745
vt 0.408494 0.238733
vt 0.408406 0.283264
vt 0.409425 0.328503
vt 0.483768 0.322030
vt 0.803774 0.556812
vt 0.895333 0.464751
vt 0.883836 0.456698
vt 0.787958 0.522009
vt 0.986891 0.372691
vt 0.950022 0.387866
vt 0.975307 0.332424
vt 0.974122 0.283405
vt 0.992036 0.346162
vt 0.989464 0.283008
vt 0.986893 0.219854
vt 0.971792 0.235176
vt 0.881312 0.115969
vt 0.785990 0.050375
vt 0.946720 0.184358
vt 0.983547 0.200421
vt 0.892790 0.108110
vt 0.802032 0.015799
vt 0.372536 0.235173
vt 0.372915 0.283128
vt 0.356279 0.220274
vt 0.357581 0.283165
vt 0.358882 0.346056
vt 0.374446 0.331829
vt 0.722146 0.325530
vt 0.693306 0.324603
vt 0.746041 0.326386
vt 0.784857 0.330532
vt 0.756936 0.326899
vt 0.937591 0.351527
vt 0.859827 0.340749
vt 0.989464 0.359426
vt 0.973893 0.356842
vt 0.267226 0.143651
vt 0.225559 0.143651
vt 0.308892 0.143651
vt 0.308892 0.125725
vt 0.267226 0.125725
vt 0.225559 0.125725
vt 0.376644 0.356058
vt 0.411406 0.350768
vt 0.361250 0.359047
vt 0.363618 0.372038
vt 0.400337 0.386607
vt 0.432637 0.377157
vt 0.484906 0.340878
vt 0.555855 0.331081
vt 0.500534 0.358285
vt 0.565949 0.339739
vt 0.582964 0.326070
vt 0.593762 0.324082
vt 0.590802 0.331267
vt 0.598600 0.328229
vt 0.225559 0.375725
vt 0.267226 0.375725
vt 0.267226 0.362432
vt 0.225559 0.362432
vt 0.308892 0.375725
vt 0.308892 0.362432
vt 0.969769 0.213127
vt 0.934888 0.218731
vt 0.985220 0.210138
vt 0.861146 0.229564
vt 0.789571 0.240572
vt 0.761189 0.246701
vt 0.749215 0.249453
vt 0.726866 0.250332
vt 0.699772 0.249931
vt 0.570920 0.232320
vt 0.561225 0.239514
vt 0.589417 0.244872
vt 0.596910 0.240898
vt 0.599899 0.246946
vt 0.604553 0.243633
vt 0.430838 0.194418
vt 0.409833 0.218595
vt 0.486837 0.229063
vt 0.502132 0.213520
vt 0.360205 0.200333
vt 0.358242 0.210303
vt 0.373796 0.213185
vt 0.397330 0.184935
vt 0.620667 0.243095
vt 0.618349 0.238641
vt 0.647473 0.242902
vt 0.646499 0.238254
vt 0.635649 0.213699
vt 0.598454 0.221815
vt 0.620185 0.259050
vt 0.621157 0.247546
vt 0.646730 0.259492
vt 0.647582 0.247800
vt 0.616222 0.310673
vt 0.618116 0.284665
vt 0.643031 0.310093
vt 0.644821 0.284518
vt 0.615139 0.328970
vt 0.615777 0.323353
vt 0.642222 0.329819
vt 0.642539 0.323434
vt 0.593693 0.350616
vt 0.612664 0.333791
vt 0.630845 0.358682
vt 0.640960 0.334530
vt 0.491405 0.434769
vt 0.543562 0.392246
vt 0.575880 0.489900
vt 0.603973 0.423395
vt 0.454852 0.462263
vt 0.466352 0.454271
vt 0.546085 0.552489
vt 0.562105 0.519430
vt 0.058892 0.161577
vt 0.100559 0.180541
vt 0.100559 0.143651
vt 0.058892 0.143651
vt 0.142225 0.180541
vt 0.142225 0.143651
vt 0.142225 0.125725
vt 0.100559 0.125725
vt 0.058892 0.125725
vt 0.058892 0.349139
vt 0.100559 0.329017
vt 0.100559 0.255358
vt 0.058892 0.255358
vt 0.142225 0.329017
vt 0.142225 0.255358
vt 0.058892 0.375725
vt 0.100559 0.375725
vt 0.100559 0.362432
vt 0.058892 0.362432
vt 0.142225 0.375725
vt 0.142225 0.362432
vt 0.489922 0.137767
vt 0.463776 0.118195
vt 0.574860 0.082766
vt 0.560082 0.053151
vt 0.544214 0.019823
vt 0.452209 0.110078
vt 0.545230 0.180249
vt 0.605909 0.149076
vt 0.673737 0.243329
vt 0.674122 0.239890
vt 0.674325 0.213674
vt 0.672752 0.261011
vt 0.673566 0.248841
vt 0.668188 0.308805
vt 0.670436 0.284424
vt 0.667809 0.331710
vt 0.667576 0.323877
vt 0.669163 0.358911
vt 0.668094 0.334373
vt 0.674235 0.508846
vt 0.671748 0.432365
vt 0.674929 0.554651
vt 0.675010 0.542464
vt 0.183892 0.180541
vt 0.183892 0.143651
vt 0.183892 0.125725
vt 0.183892 0.329017
vt 0.183892 0.255358
vt 0.183892 0.375725
vt 0.183892 0.362432
vt 0.673426 0.063540
vt 0.673201 0.029990
vt 0.673123 0.017811
vt 0.673947 0.139829
vt 0.278935 0.790346
vt 0.290796 0.770801
vt 0.262976 0.771494
vt 0.242833 0.782560
vt 0.292400 0.769636
vt 0.265622 0.771116
vt 0.249157 0.769099
vt 0.241360 0.770134
vt 0.215832 0.773796
vt 0.292694 0.745593
vt 0.290867 0.722171
vt 0.263782 0.722016
vt 0.265868 0.746028
vt 0.288770 0.700206
vt 0.261614 0.699879
vt 0.239157 0.698600
vt 0.241224 0.721908
vt 0.243479 0.747140
vt 0.286533 0.683858
vt 0.285140 0.681001
vt 0.257264 0.681520
vt 0.259697 0.684535
vt 0.274971 0.658156
vt 0.238711 0.665727
vt 0.211645 0.673645
vt 0.235826 0.682359
vt 0.243455 0.684823
vt 0.243592 0.320993
vt 0.243592 0.247334
vt 0.285259 0.247334
vt 0.285259 0.320993
vt 0.243592 0.172517
vt 0.285259 0.172517
vt 0.326926 0.153553
vt 0.326926 0.247334
vt 0.326926 0.341115
vt 0.230180 0.721725
vt 0.232581 0.748012
vt 0.228151 0.696769
vt 0.201434 0.692711
vt 0.202873 0.721322
vt 0.204869 0.750609
vt 0.383485 0.698267
vt 0.385633 0.723414
vt 0.396077 0.723383
vt 0.393673 0.697180
vt 0.387432 0.748932
vt 0.398035 0.749991
vt 0.424653 0.753210
vt 0.423142 0.723297
vt 0.421056 0.693859
vt 0.214886 0.920541
vt 0.247443 0.853798
vt 0.189437 0.823231
vt 0.134144 0.866746
vt 0.148225 0.791154
vt 0.078217 0.810362
vt 0.131524 0.720554
vt 0.132035 0.756899
vt 0.131848 0.684755
vt 0.059903 0.676815
vt 0.057807 0.719706
vt 0.056772 0.763265
vt 0.219166 0.526044
vt 0.138032 0.578754
vt 0.189348 0.622911
vt 0.247640 0.593203
vt 0.081843 0.633907
vt 0.147935 0.653940
vt 0.493797 0.723332
vt 0.492886 0.687252
vt 0.493870 0.759990
vt 0.565430 0.766867
vt 0.566821 0.723448
vt 0.567142 0.680698
vt 0.184185 0.983321
vt 0.199827 0.949959
vt 0.108314 0.886342
vt 0.097216 0.893979
vt 0.045490 0.819571
vt 0.010248 0.804638
vt 0.023400 0.719064
vt 0.021775 0.766091
vt 0.026109 0.672809
vt 0.011746 0.657948
vt 0.008646 0.718523
vt 0.005547 0.779098
vt 0.205572 0.496579
vt 0.113624 0.558938
vt 0.190234 0.463206
vt 0.102668 0.551294
vt 0.015102 0.639381
vt 0.050517 0.624210
vt 0.600993 0.723605
vt 0.601804 0.677536
vt 0.599078 0.770377
vt 0.613904 0.784197
vt 0.615741 0.723782
vt 0.617577 0.663368
vt 0.293119 0.761324
vt 0.266534 0.762511
vt 0.244439 0.763530
vt 0.233768 0.763227
vt 0.206183 0.765623
vt 0.133346 0.774738
vt 0.058001 0.784676
vt 0.022891 0.789540
vt 0.007897 0.791868
vt 0.243592 0.135627
vt 0.285259 0.135627
vt 0.243592 0.117701
vt 0.285259 0.117701
vt 0.326926 0.117701
vt 0.326926 0.135627
vt 0.563327 0.788218
vt 0.596763 0.793627
vt 0.542771 0.813443
vt 0.573811 0.822800
vt 0.609154 0.809082
vt 0.611529 0.796639
vt 0.424179 0.767967
vt 0.492554 0.778015
vt 0.414397 0.776403
vt 0.477428 0.794736
vt 0.387487 0.761322
vt 0.397939 0.763020
vt 0.382819 0.765414
vt 0.390295 0.768170
vt 0.243592 0.367701
vt 0.243592 0.354408
vt 0.285259 0.354408
vt 0.285259 0.367701
vt 0.326926 0.354408
vt 0.326926 0.367701
vt 0.061857 0.657404
vt 0.028247 0.651679
vt 0.013424 0.648665
vt 0.201789 0.679730
vt 0.133043 0.668552
vt 0.238762 0.687980
vt 0.228077 0.685544
vt 0.287534 0.688848
vt 0.260699 0.689020
vt 0.410607 0.673323
vt 0.385327 0.681273
vt 0.392435 0.685367
vt 0.419801 0.680524
vt 0.378059 0.683629
vt 0.382383 0.686989
vt 0.546102 0.637907
vt 0.477175 0.655768
vt 0.491686 0.670958
vt 0.566037 0.661354
vt 0.613977 0.644147
vt 0.578460 0.629038
vt 0.600803 0.656395
vt 0.615777 0.653758
vt 0.365319 0.678226
vt 0.362971 0.682524
vt 0.384700 0.662288
vt 0.349496 0.653518
vt 0.338811 0.677103
vt 0.337758 0.681813
vt 0.362443 0.686890
vt 0.363234 0.698173
vt 0.337619 0.686600
vt 0.338254 0.698083
vt 0.364844 0.723217
vt 0.366261 0.748630
vt 0.339524 0.722881
vt 0.340694 0.748198
vt 0.366476 0.761016
vt 0.367067 0.766485
vt 0.341028 0.761238
vt 0.341442 0.767426
vt 0.369609 0.771142
vt 0.387983 0.787351
vt 0.342854 0.772185
vt 0.352593 0.795513
vt 0.436069 0.827478
vt 0.486020 0.868487
vt 0.377991 0.857407
vt 0.404477 0.920956
vt 0.509987 0.887341
vt 0.520964 0.895118
vt 0.417483 0.949250
vt 0.432774 0.981155
vt 0.076926 0.153553
vt 0.076926 0.135627
vt 0.118592 0.135627
vt 0.118592 0.172517
vt 0.076926 0.117701
vt 0.118592 0.117701
vt 0.160259 0.117701
vt 0.160259 0.135627
vt 0.160259 0.172517
vt 0.076926 0.341115
vt 0.076926 0.247334
vt 0.118592 0.247334
vt 0.118592 0.320993
vt 0.160259 0.247334
vt 0.160259 0.320993
vt 0.076926 0.367701
vt 0.076926 0.354408
vt 0.118592 0.354408
vt 0.118592 0.367701
vt 0.160259 0.354408
vt 0.160259 0.367701
vt 0.515240 0.564320
vt 0.489932 0.582844
vt 0.526401 0.556611
vt 0.438825 0.469074
vt 0.423193 0.501002
vt 0.408801 0.529167
vt 0.436328 0.622997
vt 0.378531 0.592106
vt 0.312204 0.678778
vt 0.312416 0.682604
vt 0.312410 0.653114
vt 0.312911 0.687647
vt 0.313875 0.699184
vt 0.315490 0.722495
vt 0.316904 0.746750
vt 0.317263 0.761120
vt 0.317114 0.768441
vt 0.317003 0.771552
vt 0.315882 0.795588
vt 0.312705 0.865685
vt 0.309548 0.938459
vt 0.308489 0.970526
vt 0.308479 0.982238
vt 0.201926 0.135627
vt 0.201926 0.172517
vt 0.201926 0.117701
vt 0.201926 0.247334
vt 0.201926 0.320993
vt 0.201926 0.354408
vt 0.201926 0.367701
vt 0.314366 0.477844
vt 0.313984 0.509874
vt 0.314530 0.466140
vt 0.313168 0.582555
vn 0.984808 0.000001 -0.173649
vn 0.977952 -0.017473 -0.208096
vn 0.912388 0.040312 -0.407336
vn 0.938434 0.088916 -0.333819
vn 0.869055 -0.132681 -0.476592
vn 0.708131 -0.036235 -0.705150
vn 0.451506 0.151044 -0.879391
vn 0.506971 0.230718 -0.830512
vn 0.552237 0.369975 -0.747096
vn -0.150302 0.500737 -0.852451
vn -0.165142 0.309193 -0.936551
vn -0.165140 0.309193 -0.936551
vn -0.150313 0.500736 -0.852449
vn -0.172254 0.126397 -0.976910
vn -0.172255 0.126403 -0.976909
vn -0.172263 0.126401 -0.976908
vn -0.165135 0.309193 -0.936552
vn -0.150315 0.500738 -0.852448
vn -0.826267 0.337204 -0.451194
vn -0.810586 0.209728 -0.546776
vn -0.999388 0.034809 -0.003309
vn -0.996524 0.067455 0.048879
vn -0.761161 0.147902 -0.631474
vn -0.934466 -0.025797 -0.355117
vn -0.991236 -0.104852 -0.080352
vn -0.988491 -0.013055 0.150716
vn -0.984807 -0.000000 0.173650
vn 0.121101 -0.716663 0.686825
vn 0.117605 -0.735750 0.666964
vn 0.117607 -0.735751 0.666963
vn 0.121106 -0.716664 0.686824
vn 0.114004 -0.754268 0.646593
vn 0.114013 -0.754270 0.646590
vn 0.114019 -0.754268 0.646591
vn 0.117599 -0.735751 0.666964
vn 0.121110 -0.716663 0.686823
vn -0.170896 -0.177398 -0.969188
vn -0.170897 -0.177379 -0.969191
vn -0.161814 -0.362956 -0.917649
vn -0.161807 -0.362954 -0.917651
vn -0.161807 -0.362954 -0.917651
vn -0.170894 -0.177388 -0.969190
vn -0.017252 0.995052 -0.097849
vn 0.035441 0.978950 0.201001
vn 0.035441 0.978949 0.201004
vn -0.017256 0.995052 -0.097849
vn 0.067409 0.921584 0.382280
vn 0.067403 0.921585 0.382280
vn 0.067405 0.921585 0.382279
vn 0.035442 0.978949 0.201005
vn -0.017253 0.995052 -0.097850
vn 0.984808 -0.000001 -0.173648
vn 0.981673 -0.008475 -0.190382
vn 0.980465 -0.011249 -0.196374
vn 0.984808 -0.000000 -0.173648
vn 0.938832 -0.069858 -0.337215
vn 0.916985 -0.091793 -0.388216
vn -0.161945 -0.360919 -0.918429
vn -0.161943 -0.360920 -0.918429
vn -0.161685 -0.364748 -0.916961
vn -0.161685 -0.364748 -0.916961
vn -0.161692 -0.364747 -0.916960
vn -0.161945 -0.360920 -0.918428
vn -0.984808 0.000000 0.173648
vn -0.984808 0.000000 0.173648
vn -0.987609 -0.008345 0.156714
vn -0.986897 -0.005969 0.161243
vn -0.997539 -0.070057 0.002742
vn -0.997574 -0.052552 0.045664
vn 0.067056 0.922430 0.380298
vn 0.067057 0.922430 0.380298
vn 0.067716 0.920835 0.384028
vn 0.067713 0.920835 0.384029
vn 0.067722 0.920835 0.384026
vn 0.067057 0.922430 0.380299
vn 0.990097 -0.133860 -0.042302
vn 0.987660 -0.146397 -0.055632
vn 0.989511 -0.075253 -0.123309
vn 0.991826 -0.067229 -0.108453
vn 0.958756 -0.284149 -0.006820
vn 0.941267 -0.302041 -0.150958
vn -0.080427 -0.886273 -0.456127
vn -0.080420 -0.886279 -0.456117
vn 0.039670 -0.973562 0.224950
vn 0.039677 -0.973557 0.224972
vn 0.039648 -0.973563 0.224951
vn -0.080434 -0.886269 -0.456133
vn -0.975904 -0.058031 0.210344
vn -0.973917 -0.050158 0.221291
vn -0.953121 -0.238289 0.186493
vn -0.940255 -0.192621 0.280746
vn -0.961557 -0.109653 0.251762
vn -0.958250 -0.100070 0.267850
vn 0.156031 0.438864 0.884902
vn 0.156029 0.438863 0.884904
vn 0.167910 -0.254849 0.952291
vn 0.167908 -0.254858 0.952289
vn 0.167929 -0.254839 0.952290
vn 0.156038 0.438869 0.884899
vn -0.039768 0.312248 -0.949168
vn -0.002234 0.499528 -0.866295
vn 0.044158 0.109180 -0.993041
vn 0.310068 -0.329341 -0.891847
vn 0.203406 -0.208326 -0.956675
vn 0.443472 -0.299515 -0.844762
vn 0.396862 -0.308688 -0.864415
vn 0.694794 -0.717575 0.048457
vn 0.428090 -0.760760 -0.487835
vn 0.373796 -0.713383 0.592757
vn 0.374257 -0.691758 0.617578
vn 0.223969 -0.749489 0.622981
vn 0.711401 -0.584684 0.389940
vn 0.600352 -0.638701 0.481288
vn 0.601384 -0.618783 0.505415
vn 0.632582 0.385226 0.671893
vn 0.630125 0.746487 0.213776
vn 0.789320 -0.187844 0.584542
vn 0.984320 -0.156588 0.081203
vn 0.991060 -0.023874 0.131260
vn 0.981002 0.168074 -0.096884
vn 0.590000 0.773677 0.230921
vn 0.514303 0.815186 0.266393
vn 0.972260 0.222598 -0.071833
vn 0.947475 0.318956 -0.023634
vn 0.401321 0.900813 0.165761
vn 0.198452 0.972694 -0.120346
vn 0.813129 0.575144 -0.089617
vn 0.510930 0.829126 -0.226938
vn -0.514358 -0.562923 0.646956
vn -0.524197 -0.572838 0.630138
vn -0.211406 -0.695873 0.686345
vn -0.208113 -0.677137 0.705815
vn -0.715975 -0.472024 0.514367
vn -0.002481 -0.750606 0.660746
vn -0.588050 -0.750579 -0.301378
vn -0.733198 -0.290130 -0.615016
vn -0.681458 -0.675700 0.281150
vn -0.705388 -0.297402 -0.643413
vn -0.648074 -0.316532 -0.692681
vn -0.576557 -0.199850 -0.792238
vn -0.440943 0.108206 -0.890989
vn -0.327023 0.308819 -0.893133
vn -0.337639 0.496816 -0.799484
vn -0.928355 0.248359 0.276542
vn -0.451375 0.785788 0.422845
vn -0.384834 0.874557 0.295047
vn -0.841080 0.507286 0.187736
vn -0.289114 0.956779 -0.031413
vn -0.698754 0.715361 0.001687
vn -0.965641 0.126071 0.227252
vn -0.552082 0.724828 0.412103
vn -0.518889 0.747755 0.414266
vn -0.954961 0.168554 0.244210
vn -0.917399 -0.127155 0.377108
vn -0.592450 -0.176880 0.785950
vn -0.386608 0.378343 0.841065
vn -0.914952 -0.024011 0.402847
vn -0.729380 0.680776 -0.067450
vn -0.971359 0.188149 0.145126
vn -0.779712 0.597231 -0.188051
vn -0.985824 0.127562 0.108991
vn -0.984808 0.000000 0.173649
vn -0.982016 0.025704 0.187040
vn -0.049180 0.959059 -0.278903
vn -0.213378 0.943655 -0.252953
vn -0.082833 0.878907 -0.469746
vn -0.273384 0.859218 -0.432442
vn -0.049179 0.959059 -0.278905
vn -0.049178 0.959058 -0.278907
vn -0.082824 0.878906 -0.469749
vn -0.082830 0.878908 -0.469745
vn 0.593641 0.739426 -0.317554
vn 0.075422 0.950579 -0.301181
vn 0.602127 0.649301 -0.464598
vn 0.062767 0.866736 -0.494802
vn 0.987227 0.030926 -0.156293
vn 0.950598 0.231032 -0.207336
vn 0.984808 0.000002 -0.173649
vn 0.952693 0.167047 -0.253912
vn 0.986186 0.015421 -0.164922
vn 0.986539 0.020678 -0.162212
vn 0.984808 -0.000001 -0.173647
vn 0.984808 -0.000000 -0.173648
vn 0.993243 -0.112333 -0.029155
vn 0.993833 -0.052542 -0.097644
vn 0.990097 -0.133865 -0.042298
vn 0.991826 -0.067231 -0.108450
vn 0.127833 -0.676850 0.724937
vn 0.124513 -0.697025 0.706154
vn 0.377964 -0.672115 0.636714
vn 0.237710 -0.670374 0.702917
vn 0.121110 -0.716663 0.686824
vn 0.374243 -0.691762 0.617582
vn 0.601359 -0.618796 0.505430
vn 0.611197 -0.599621 0.516617
vn 0.780272 -0.466813 0.416247
vn 0.127819 -0.676848 0.724941
vn 0.124514 -0.697024 0.706155
vn 0.124514 -0.697023 0.706155
vn 0.127825 -0.676848 0.724940
vn 0.121100 -0.716663 0.686825
vn 0.121106 -0.716663 0.686824
vn -0.644447 -0.453519 0.615637
vn -0.514389 -0.541377 0.665067
vn -0.207407 -0.653684 0.727791
vn 0.011346 -0.672169 0.740310
vn -0.514394 -0.562906 0.646943
vn -0.208133 -0.677132 0.705813
vn -0.983559 0.012451 0.180158
vn -0.972995 -0.039162 0.227479
vn -0.984808 0.000000 0.173647
vn -0.973916 -0.050160 0.221294
vn -0.958248 -0.100074 0.267856
vn -0.956542 -0.090167 0.277304
vn -0.983099 0.016929 0.182292
vn -0.984808 -0.000001 0.173649
vn -0.817311 0.475599 -0.325282
vn -0.992156 0.094467 0.081863
vn -0.984808 -0.000001 0.173647
vn -0.121100 0.716666 -0.686822
vn -0.320854 0.701510 -0.636346
vn -0.121110 0.716669 -0.686817
vn -0.121105 0.716667 -0.686821
vn 0.588554 0.520428 -0.618675
vn 0.035577 0.707574 -0.705743
vn 0.984808 -0.000001 -0.173648
vn 0.948603 0.124719 -0.290855
vn 0.984808 0.000001 -0.173648
vn 0.984808 0.000000 -0.173648
vn 0.990094 -0.133890 -0.042279
vn 0.991826 -0.067241 -0.108441
vn 0.121101 -0.716663 0.686826
vn 0.374269 -0.691756 0.617573
vn 0.601430 -0.618759 0.505390
vn 0.121111 -0.716662 0.686824
vn 0.121106 -0.716662 0.686825
vn -0.514415 -0.562895 0.646936
vn -0.208127 -0.677131 0.705816
vn -0.984808 0.000000 0.173649
vn -0.973917 -0.050156 0.221290
vn -0.958251 -0.100066 0.267846
vn -0.984808 -0.000000 0.173648
vn 0.984808 0.000001 -0.173648
vn 0.996013 0.088916 -0.007277
vn 0.996682 0.040309 0.070713
vn 0.990148 -0.017474 -0.138933
vn 0.774471 0.369963 0.513150
vn 0.760453 0.230719 0.607026
vn 0.725085 0.151034 0.671893
vn 0.906604 -0.036236 0.420423
vn 0.979647 -0.132684 0.150621
vn 0.150312 0.500734 0.852450
vn 0.150309 0.500737 0.852449
vn 0.165139 0.309196 0.936551
vn 0.165137 0.309198 0.936550
vn 0.150309 0.500735 0.852450
vn 0.165142 0.309197 0.936550
vn 0.172256 0.126397 0.976909
vn 0.172256 0.126395 0.976910
vn 0.172257 0.126394 0.976909
vn -0.622142 0.337193 0.706569
vn -0.953142 0.067458 0.294905
vn -0.937987 0.034808 0.344919
vn -0.574684 0.209733 0.791044
vn -0.984808 -0.000000 0.173647
vn -0.980426 -0.013055 0.196456
vn -0.903973 -0.104855 0.414535
vn -0.756667 -0.025805 0.653291
vn -0.499319 0.147902 0.853701
vn -0.121106 -0.716664 -0.686824
vn -0.121106 -0.716664 -0.686824
vn -0.117603 -0.735751 -0.666963
vn -0.117604 -0.735752 -0.666963
vn -0.121105 -0.716664 -0.686824
vn -0.117604 -0.735751 -0.666963
vn -0.114011 -0.754271 -0.646588
vn -0.114011 -0.754271 -0.646588
vn -0.114011 -0.754271 -0.646588
vn 0.170894 -0.177392 0.969189
vn 0.170894 -0.177396 0.969188
vn 0.170895 -0.177392 0.969189
vn 0.161801 -0.362954 0.917652
vn 0.161807 -0.362955 0.917650
vn 0.161808 -0.362954 0.917651
vn 0.017256 0.995051 0.097852
vn 0.017254 0.995052 0.097850
vn -0.035442 0.978949 -0.201003
vn -0.035443 0.978950 -0.200998
vn 0.017254 0.995051 0.097853
vn -0.035437 0.978950 -0.200999
vn -0.067404 0.921585 -0.382281
vn -0.067405 0.921585 -0.382280
vn -0.067407 0.921585 -0.382280
vn 0.984808 -0.000001 -0.173649
vn 0.984808 -0.000000 -0.173648
vn 0.988499 -0.011249 -0.150807
vn 0.987586 -0.008475 -0.156851
vn 0.994462 -0.091793 0.051179
vn 0.997548 -0.069857 -0.004222
vn 0.161943 -0.360919 0.918429
vn 0.161943 -0.360919 0.918429
vn 0.161945 -0.360919 0.918429
vn 0.161688 -0.364748 0.916960
vn 0.161687 -0.364748 0.916960
vn 0.161681 -0.364749 0.916961
vn -0.984808 0.000000 0.173649
vn -0.982528 -0.005969 0.186020
vn -0.981648 -0.008345 0.190519
vn -0.984808 0.000000 0.173648
vn -0.953031 -0.052551 0.298278
vn -0.938317 -0.070058 0.338605
vn -0.067056 0.922429 -0.380299
vn -0.067054 0.922429 -0.380300
vn -0.067060 0.922429 -0.380298
vn -0.067715 0.920835 -0.384028
vn -0.067713 0.920835 -0.384028
vn -0.067717 0.920835 -0.384027
vn 0.944853 -0.133865 -0.298886
vn 0.969104 -0.067231 -0.237314
vn 0.972010 -0.075253 -0.222560
vn 0.947124 -0.146397 -0.285523
vn 0.936131 -0.302043 -0.180082
vn 0.903266 -0.284153 -0.321509
vn 0.080428 -0.886276 0.456121
vn 0.080426 -0.886274 0.456125
vn 0.080426 -0.886276 0.456122
vn -0.039669 -0.973559 -0.224967
vn -0.039668 -0.973558 -0.224968
vn -0.039671 -0.973559 -0.224964
vn -0.990869 -0.050159 0.125152
vn -0.988991 -0.058029 0.136122
vn -0.992070 -0.100072 0.076040
vn -0.989676 -0.109650 0.092296
vn -0.979571 -0.192621 0.057773
vn -0.959423 -0.238297 0.150738
vn -0.156032 0.438865 -0.884902
vn -0.156032 0.438865 -0.884902
vn -0.156028 0.438866 -0.884902
vn -0.167913 -0.254851 -0.952290
vn -0.167915 -0.254852 -0.952289
vn -0.167916 -0.254849 -0.952290
vn 0.294201 0.499533 0.814808
vn 0.287268 0.312248 0.905526
vn 0.381153 0.109183 0.918042
vn 0.518344 -0.208334 0.829407
vn 0.596406 -0.329339 0.732008
vn 0.668576 -0.308688 0.676549
vn 0.705648 -0.299518 0.642145
vn 0.569123 -0.760759 0.312002
vn 0.636319 -0.717575 -0.283170
vn 0.140463 -0.691759 -0.708336
vn 0.148532 -0.713380 -0.684856
vn 0.392268 -0.618778 -0.680617
vn 0.399547 -0.638697 -0.657593
vn 0.535151 -0.584672 -0.609731
vn -0.002615 -0.749493 -0.662007
vn 0.519002 0.746490 -0.416400
vn 0.364636 0.385231 -0.847725
vn 0.954977 0.168072 -0.244480
vn 0.886400 -0.023871 -0.462305
vn 0.897187 -0.156584 -0.412960
vn 0.541796 -0.187840 -0.819251
vn 0.392180 0.815183 -0.426229
vn 0.475436 0.773678 -0.418786
vn 0.898419 0.318955 -0.301846
vn 0.938195 0.222597 -0.265031
vn 0.227638 0.972696 0.045209
vn 0.320424 0.900814 -0.293024
vn 0.557736 0.829125 0.038500
vn 0.794742 0.575143 -0.193897
vn -0.704651 -0.562900 -0.431985
vn -0.436983 -0.677132 -0.592062
vn -0.433386 -0.695877 -0.572653
vn -0.708084 -0.572849 -0.412869
vn -0.228280 -0.750609 -0.620060
vn -0.848716 -0.472030 -0.238473
vn -0.478624 -0.290134 0.828698
vn -0.449509 -0.750573 0.484336
vn -0.736524 -0.675695 -0.031121
vn -0.372084 -0.316531 0.872560
vn -0.442785 -0.297402 0.845868
vn -0.109632 0.108200 0.988066
vn -0.270822 -0.199857 0.941654
vn -0.043865 0.496818 0.866746
vn -0.001819 0.308821 0.951118
vn -0.966951 0.248359 0.057652
vn -0.854562 0.507293 0.111254
vn -0.462537 0.874558 -0.145632
vn -0.568783 0.785783 -0.242962
vn -0.657199 0.715351 0.237406
vn -0.260940 0.956777 0.128409
vn -0.985130 0.126072 0.116721
vn -0.980895 0.168552 0.097134
vn -0.629281 0.747757 -0.211815
vn -0.659740 0.724825 -0.198424
vn -0.991053 -0.127148 -0.040588
vn -0.997556 -0.024006 -0.065615
vn -0.650954 0.378346 -0.658114
vn -0.825533 -0.176876 -0.535920
vn -0.962414 0.188154 0.195851
vn -0.662333 0.680767 0.312844
vn -0.986765 0.025704 0.160109
vn -0.984808 0.000000 0.173648
vn -0.963647 0.127568 0.234756
vn -0.668401 0.597205 0.443381
vn -0.114015 0.943651 0.310681
vn 0.049177 0.959059 0.278904
vn -0.109020 0.859214 0.499865
vn 0.082831 0.878906 0.469748
vn 0.049178 0.959059 0.278904
vn 0.049179 0.959059 0.278902
vn 0.082828 0.878908 0.469745
vn 0.082829 0.878906 0.469748
vn 0.173883 0.950580 0.257222
vn 0.666454 0.739422 0.095363
vn 0.228238 0.866734 0.443485
vn 0.724740 0.649277 0.230633
vn 0.964184 0.231025 -0.130293
vn 0.981145 0.030926 -0.190784
vn 0.982080 0.167056 -0.087238
vn 0.984808 0.000002 -0.173648
vn 0.982523 0.020678 -0.184987
vn 0.983118 0.015421 -0.182319
vn 0.984808 -0.000000 -0.173648
vn 0.984808 -0.000001 -0.173649
vn 0.967295 -0.052541 -0.248154
vn 0.943316 -0.112329 -0.312309
vn 0.969104 -0.067229 -0.237313
vn 0.944855 -0.133861 -0.298882
vn -0.127827 -0.676849 -0.724939
vn -0.017066 -0.670379 -0.741823
vn 0.137387 -0.672119 -0.727586
vn -0.124514 -0.697025 -0.706154
vn 0.590882 -0.466791 -0.658000
vn 0.397623 -0.599633 -0.694505
vn 0.392267 -0.618778 -0.680618
vn 0.140462 -0.691759 -0.708336
vn -0.121106 -0.716663 -0.686824
vn -0.127826 -0.676849 -0.724939
vn -0.127826 -0.676849 -0.724939
vn -0.124514 -0.697025 -0.706153
vn -0.124514 -0.697025 -0.706154
vn -0.121106 -0.716663 -0.686824
vn -0.121106 -0.716663 -0.686824
vn -0.816129 -0.453533 -0.358109
vn -0.242518 -0.672172 -0.699550
vn -0.443820 -0.653687 -0.612958
vn -0.710839 -0.541376 -0.449021
vn -0.436974 -0.677134 -0.592067
vn -0.704638 -0.562907 -0.431997
vn -0.992119 -0.039163 0.119023
vn -0.985861 0.012451 0.167104
vn -0.993699 -0.090168 0.066575
vn -0.992070 -0.100068 0.076045
vn -0.990869 -0.050157 0.125154
vn -0.984808 0.000000 0.173649
vn -0.986158 0.016929 0.164941
vn -0.984808 -0.000001 0.173648
vn -0.960320 0.094468 0.262413
vn -0.656774 0.475596 0.585198
vn -0.984808 -0.000001 0.173649
vn -0.083877 0.701507 0.707710
vn 0.121104 0.716668 0.686820
vn 0.121106 0.716666 0.686822
vn 0.121104 0.716668 0.686820
vn 0.274826 0.707568 0.651013
vn 0.764663 0.520428 0.380060
vn 0.990874 0.124721 -0.051125
vn 0.984808 -0.000001 -0.173648
vn 0.984808 0.000000 -0.173648
vn 0.984808 0.000001 -0.173648
vn 0.969101 -0.067239 -0.237321
vn 0.944846 -0.133886 -0.298900
vn 0.140471 -0.691756 -0.708337
vn -0.121106 -0.716662 -0.686825
vn 0.392284 -0.618769 -0.680616
vn -0.121106 -0.716662 -0.686825
vn -0.121106 -0.716662 -0.686825
vn -0.436972 -0.677134 -0.592069
vn -0.704634 -0.562909 -0.432000
vn -0.990869 -0.050155 0.125156
vn -0.984808 0.000000 0.173647
vn -0.992070 -0.100064 0.076051
vn -0.984808 -0.000000 0.173648
f 1/1/1 2/2/2 3/3/3
f 1/1/1 3/3/3 4/4/4
f 2/2/2 5/5/5 6/6/6
f 2/2/2 6/6/6 3/3/3
f 3/3/3 6/6/6 7/7/7
f 3/3/3 7/7/7 8/8/8
f 4/4/4 3/3/3 8/8/8
f 4/4/4 8/8/8 9/9/9
f 10/10/10 11/11/11 12/12/12
f 10/10/10 12/12/12 13/13/13
f 11/11/11 14/14/14 15/15/15
f 11/11/11 15/15/15 12/12/12
f 12/12/12 15/15/15 16/16/16
f 12/12/12 16/16/16 17/17/17
f 13/13/13 12/12/12 17/17/17
f 13/13/13 17/17/17 18/18/18
f 19/19/19 20/20/20 21/21/21
f 19/19/19 21/21/21 22/22/22
f 20/20/20 23/23/23 24/24/24
f 20/20/20 24/24/24 21/21/21
f 21/21/21 24/24/24 25/25/25
f 21/21/21 25/25/25 26/26/26
f 22/22/22 21/21/21 26/26/26
f 22/22/22 26/26/26 27/27/27
f 28/28/28 29/29/29 30/30/30
f 28/28/28 30/30/30 31/31/31
f 29/29/29 32/32/32 33/33/33
f 29/29/29 33/33/33 30/30/30
f 30/30/30 33/33/33 34/34/34
f 30/30/30 34/34/34 35/35/35
f 31/31/31 30/30/30 35/35/35
f 31/31/31 35/35/35 36/36/36
f 14/14/14 37/37/37 38/38/38
f 14/14/14 38/38/38 15/15/15
f 37/37/37 39/39/39 40/40/40
f 37/37/37 40/40/40 38/38/38
f 38/38/38 40/40/40 41/41/41
f 38/38/38 41/41/41 42/42/42
f 15/15/15 38/38/38 42/42/42
f 15/15/15 42/42/42 16/16/16
f 43/43/43 44/44/44 45/45/45
f 43/43/43 45/45/45 46/46/46
f 44/44/44 47/47/47 48/48/48
f 44/44/44 48/48/48 45/45/45
f 45/45/45 48/48/48 49/49/49
f 45/45/45 49/49/49 50/50/50
f 46/46/46 45/45/45 50/50/50
f 46/46/46 50/50/50 51/51/51
f 52/52/52 53/53/53 54/54/54
f 52/52/52 54/54/54 55/55/55
f 53/53/53 56/56/56 57/57/57
f 53/53/53 57/57/57 54/54/54
f 54/54/54 57/57/57 5/5/5
f 54/54/54 5/5/5 2/2/2
f 55/55/55 54/54/54 2/2/2
f 55/55/55 2/2/2 1/1/1
f 39/39/39 58/58/58 59/59/59
f 39/39/39 59/59/59 40/40/40
f 58/58/58 60/60/60 61/61/61
f 58/58/58 61/61/61 59/59/59
f 59/59/59 61/61/61 62/62/62
f 59/59/59 62/62/62 63/63/63
f 40/40/40 59/59/59 63/63/63
f 40/40/40 63/63/63 41/41/41
f 64/64/64 65/65/65 66/66/66
f 64/64/64 66/66/66 67/67/67
f 65/65/65 27/27/27 26/26/26
f 65/65/65 26/26/26 66/66/66
f 66/66/66 26/26/26 25/25/25
f 66/66/66 25/25/25 68/68/68
f 67/67/67 66/66/66 68/68/68
f 67/67/67 68/68/68 69/69/69
f 47/47/47 70/70/70 71/71/71
f 47/47/47 71/71/71 48/48/48
f 70/70/70 72/72/72 73/73/73
f 70/70/70 73/73/73 71/71/71
f 71/71/71 73/73/73 74/74/74
f 71/71/71 74/74/74 75/75/75
f 48/48/48 71/71/71 75/75/75
f 48/48/48 75/75/75 49/49/49
f 76/76/76 77/77/77 78/78/78
f 76/76/76 78/78/78 79/79/79
f 77/77/77 80/80/80 81/81/81
f 77/77/77 81/81/81 78/78/78
f 78/78/78 81/81/81 56/56/56
f 78/78/78 56/56/56 53/53/53
f 79/79/79 78/78/78 53/53/53
f 79/79/79 53/53/53 52/52/52
f 60/60/60 82/82/82 83/83/83
f 60/60/60 83/83/83 61/61/61
f 82/82/82 84/84/84 85/85/85
f 82/82/82 85/85/85 83/83/83
f 83/83/83 85/85/85 86/86/86
f 83/83/83 86/86/86 87/87/87
f 61/61/61 83/83/83 87/87/87
f 61/61/61 87/87/87 62/62/62
f 64/64/64 67/67/67 88/88/88
f 64/64/64 88/88/88 89/89/89
f 67/67/67 69/69/69 90/90/90
f 67/67/67 90/90/90 88/88/88
f 88/88/88 90/90/90 91/91/91
f 88/88/88 91/91/91 92/92/92
f 89/89/89 88/88/88 92/92/92
f 89/89/89 92/92/92 93/93/93
f 72/72/72 94/94/94 95/95/95
f 72/72/72 95/95/95 73/73/73
f 94/94/94 96/96/96 97/97/97
f 94/94/94 97/97/97 95/95/95
f 95/95/95 97/97/97 98/98/98
f 95/95/95 98/98/98 99/99/99
f 73/73/73 95/95/95 99/99/99
f 73/73/73 99/99/99 74/74/74
f 9/9/9 8/8/8 100/100/100
f 9/9/9 100/100/100 101/101/101
f 8/8/8 7/7/7 102/102/102
f 8/8/8 102/102/102 100/100/100
f 100/100/100 102/102/102 14/14/14
f 100/100/100 14/14/14 11/11/11
f 101/101/101 100/100/100 11/11/11
f 101/101/101 11/11/11 10/10/10
f 5/5/5 103/103/103 104/104/104
f 5/5/5 104/104/104 6/6/6
f 103/103/103 39/39/39 37/37/37
f 103/103/103 37/37/37 104/104/104
f 104/104/104 37/37/37 14/14/14
f 104/104/104 14/14/14 102/102/102
f 6/6/6 104/104/104 102/102/102
f 6/6/6 102/102/102 7/7/7
f 56/56/56 105/105/105 106/106/106
f 56/56/56 106/106/106 57/57/57
f 105/105/105 60/60/60 58/58/58
f 105/105/105 58/58/58 106/106/106
f 106/106/106 58/58/58 39/39/39
f 106/106/106 39/39/39 103/103/103
f 57/57/57 106/106/106 103/103/103
f 57/57/57 103/103/103 5/5/5
f 80/80/80 107/107/107 108/108/108
f 80/80/80 108/108/108 81/81/81
f 107/107/107 84/84/84 82/82/82
f 107/107/107 82/82/82 108/108/108
f 108/108/108 82/82/82 60/60/60
f 108/108/108 60/60/60 105/105/105
f 81/81/81 108/108/108 105/105/105
f 81/81/81 105/105/105 56/56/56
f 36/36/36 35/35/35 109/109/109
f 36/36/36 109/109/109 110/110/110
f 35/35/35 34/34/34 111/111/111
f 35/35/35 111/111/111 109/109/109
f 109/109/109 111/111/111 112/112/112
f 109/109/109 112/112/112 113/113/113
f 110/110/110 109/109/109 113/113/113
f 110/110/110 113/113/113 114/114/114
f 74/74/74 99/99/99 115/115/115
f 74/74/74 115/115/115 116/116/116
f 99/99/99 98/98/98 117/117/117
f 99/99/99 117/117/117 115/115/115
f 115/115/115 117/117/117 118/118/118
f 115/115/115 118/118/118 119/119/119
f 116/116/116 115/115/115 119/119/119
f 116/116/116 119/119/119 120/120/120
f 49/49/49 75/75/75 121/121/121
f 49/49/49 121/121/121 122/122/122
f 75/75/75 74/74/74 116/116/116
f 75/75/75 116/116/116 121/121/121
f 121/121/121 116/116/116 120/120/120
f 121/121/121 120/120/120 123/123/123
f 122/122/122 121/121/121 123/123/123
f 122/122/122 123/123/123 124/124/124
f 51/51/51 50/50/50 125/125/125
f 51/51/51 125/125/125 126/126/126
f 50/50/50 49/49/49 122/122/122
f 50/50/50 122/122/122 125/125/125
f 125/125/125 122/122/122 124/124/124
f 125/125/125 124/124/124 127/127/127
f 126/126/126 125/125/125 127/127/127
f 126/126/126 127/127/127 128/128/128
f 129/129/129 130/130/130 131/131/131
f 129/129/129 131/131/131 132/132/132
f 130/130/130 133/133/133 134/134/134
f 130/130/130 134/134/134 131/131/131
f 131/131/131 134/134/134 32/32/32
f 131/131/131 32/32/32 29/29/29
f 132/132/132 131/131/131 29/29/29
f 132/132/132 29/29/29 28/28/28
f 62/62/62 87/87/87 135/135/135
f 62/62/62 135/135/135 136/136/136
f 87/87/87 86/86/86 137/137/137
f 87/87/87 137/137/137 135/135/135
f 135/135/135 137/137/137 91/91/91
f 135/135/135 91/91/91 90/90/90
f 136/136/136 135/135/135 90/90/90
f 136/136/136 90/90/90 69/69/69
f 41/41/41 63/63/63 138/138/138
f 41/41/41 138/138/138 139/139/139
f 63/63/63 62/62/62 136/136/136
f 63/63/63 136/136/136 138/138/138
f 138/138/138 136/136/136 69/69/69
f 138/138/138 69/69/69 68/68/68
f 139/139/139 138/138/138 68/68/68
f 139/139/139 68/68/68 25/25/25
f 16/16/16 42/42/42 140/140/140
f 16/16/16 140/140/140 141/141/141
f 42/42/42 41/41/41 139/139/139
f 42/42/42 139/139/139 140/140/140
f 140/140/140 139/139/139 25/25/25
f 140/140/140 25/25/25 24/24/24
f 141/141/141 140/140/140 24/24/24
f 141/141/141 24/24/24 23/23/23
f 18/18/18 17/17/17 142/142/142
f 18/18/18 142/142/142 143/143/143
f 17/17/17 16/16/16 141/141/141
f 17/17/17 141/141/141 142/142/142
f 142/142/142 141/141/141 23/23/23
f 142/142/142 23/23/23 20/20/20
f 143/143/143 142/142/142 20/20/20
f 143/143/143 20/20/20 19/19/19
f 144/144/144 145/145/145 146/146/146
f 144/144/144 146/146/146 147/147/147
f 145/145/145 47/47/47 44/44/44
f 145/145/145 44/44/44 146/146/146
f 146/146/146 44/44/44 43/43/43
f 146/146/146 43/43/43 148/148/148
f 147/147/147 146/146/146 148/148/148
f 147/147/147 148/148/148 149/149/149
f 150/150/150 151/151/151 152/152/152
f 150/150/150 152/152/152 153/153/153
f 151/151/151 72/72/72 70/70/70
f 151/151/151 70/70/70 152/152/152
f 152/152/152 70/70/70 47/47/47
f 152/152/152 47/47/47 145/145/145
f 153/153/153 152/152/152 145/145/145
f 153/153/153 145/145/145 144/144/144
f 154/154/154 155/155/155 156/156/156
f 154/154/154 156/156/156 157/157/157
f 155/155/155 96/96/96 94/94/94
f 155/155/155 94/94/94 156/156/156
f 156/156/156 94/94/94 72/72/72
f 156/156/156 72/72/72 151/151/151
f 157/157/157 156/156/156 151/151/151
f 157/157/157 151/151/151 150/150/150
f 149/149/149 158/158/158 159/159/159
f 149/149/149 159/159/159 147/147/147
f 158/158/158 160/160/160 161/161/161
f 158/158/158 161/161/161 159/159/159
f 159/159/159 161/161/161 162/162/162
f 159/159/159 162/162/162 163/163/163
f 147/147/147 159/159/159 163/163/163
f 147/147/147 163/163/163 144/144/144
f 43/43/43 164/164/164 165/165/165
f 43/43/43 165/165/165 148/148/148
f 164/164/164 166/166/166 167/167/167
f 164/164/164 167/167/167 165/165/165
f 165/165/165 167/167/167 160/160/160
f 165/165/165 160/160/160 158/158/158
f 148/148/148 165/165/165 158/158/158
f 148/148/148 158/158/158 149/149/149
f 51/51/51 168/168/168 169/169/169
f 51/51/51 169/169/169 46/46/46
f 168/168/168 170/170/170 171/171/171
f 168/168/168 171/171/171 169/169/169
f 169/169/169 171/171/171 166/166/166
f 169/169/169 166/166/166 164/164/164
f 46/46/46 169/169/169 164/164/164
f 46/46/46 164/164/164 43/43/43
f 128/128/128 172/172/172 173/173/173
f 128/128/128 173/173/173 126/126/126
f 172/172/172 174/174/174 175/175/175
f 172/172/172 175/175/175 173/173/173
f 173/173/173 175/175/175 170/170/170
f 173/173/173 170/170/170 168/168/168
f 126/126/126 173/173/173 168/168/168
f 126/126/126 168/168/168 51/51/51
f 124/124/124 176/176/176 177/177/177
f 124/124/124 177/177/177 127/127/127
f 176/176/176 178/178/178 179/179/179
f 176/176/176 179/179/179 177/177/177
f 177/177/177 179/179/179 174/174/174
f 177/177/177 174/174/174 172/172/172
f 127/127/127 177/177/177 172/172/172
f 127/127/127 172/172/172 128/128/128
f 120/120/120 180/180/180 181/181/181
f 120/120/120 181/181/181 123/123/123
f 180/180/180 182/182/182 183/183/183
f 180/180/180 183/183/183 181/181/181
f 181/181/181 183/183/183 178/178/178
f 181/181/181 178/178/178 176/176/176
f 123/123/123 181/181/181 176/176/176
f 123/123/123 176/176/176 124/124/124
f 118/118/118 184/184/184 185/185/185
f 118/118/118 185/185/185 119/119/119
f 184/184/184 186/186/186 187/187/187
f 184/184/184 187/187/187 185/185/185
f 185/185/185 187/187/187 182/182/182
f 185/185/185 182/182/182 180/180/180
f 119/119/119 185/185/185 180/180/180
f 119/119/119 180/180/180 120/120/120
f 188/188/188 189/189/189 190/190/190
f 188/188/188 190/190/190 191/191/191
f 189/189/189 192/192/192 193/193/193
f 189/189/189 193/193/193 190/190/190
f 190/190/190 193/193/193 194/194/194
f 190/190/190 194/194/194 195/195/195
f 191/191/191 190/190/190 195/195/195
f 191/191/191 195/195/195 196/196/196
f 197/197/197 198/198/198 199/199/199
f 197/197/197 199/199/199 200/200/200
f 198/198/198 201/201/201 202/202/202
f 198/198/198 202/202/202 199/199/199
f 199/199/199 202/202/202 192/192/192
f 199/199/199 192/192/192 189/189/189
f 200/200/200 199/199/199 189/189/189
f 200/200/200 189/189/189 188/188/188
f 203/203/203 204/204/204 205/205/205
f 203/203/203 205/205/205 206/206/206
f 204/204/204 207/207/207 208/208/208
f 204/204/204 208/208/208 205/205/205
f 205/205/205 208/208/208 201/201/201
f 205/205/205 201/201/201 198/198/198
f 206/206/206 205/205/205 198/198/198
f 206/206/206 198/198/198 197/197/197
f 150/150/150 209/209/209 210/210/210
f 150/150/150 210/210/210 157/157/157
f 209/209/209 211/211/211 212/212/212
f 209/209/209 212/212/212 210/210/210
f 210/210/210 212/212/212 213/213/213
f 210/210/210 213/213/213 214/214/214
f 157/157/157 210/210/210 214/214/214
f 157/157/157 214/214/214 154/154/154
f 144/144/144 163/163/163 215/215/215
f 144/144/144 215/215/215 153/153/153
f 163/163/163 162/162/162 216/216/216
f 163/163/163 216/216/216 215/215/215
f 215/215/215 216/216/216 211/211/211
f 215/215/215 211/211/211 209/209/209
f 153/153/153 215/215/215 209/209/209
f 153/153/153 209/209/209 150/150/150
f 160/160/160 217/217/217 218/218/218
f 160/160/160 218/218/218 161/161/161
f 217/217/217 19/19/19 22/22/22
f 217/217/217 22/22/22 218/218/218
f 218/218/218 22/22/22 27/27/27
f 218/218/218 27/27/27 219/219/219
f 161/161/161 218/218/218 219/219/219
f 161/161/161 219/219/219 162/162/162
f 166/166/166 220/220/220 221/221/221
f 166/166/166 221/221/221 167/167/167
f 220/220/220 18/18/18 143/143/143
f 220/220/220 143/143/143 221/221/221
f 221/221/221 143/143/143 19/19/19
f 221/221/221 19/19/19 217/217/217
f 167/167/167 221/221/221 217/217/217
f 167/167/167 217/217/217 160/160/160
f 170/170/170 222/222/222 223/223/223
f 170/170/170 223/223/223 171/171/171
f 222/222/222 10/10/10 13/13/13
f 222/222/222 13/13/13 223/223/223
f 223/223/223 13/13/13 18/18/18
f 223/223/223 18/18/18 220/220/220
f 171/171/171 223/223/223 220/220/220
f 171/171/171 220/220/220 166/166/166
f 174/174/174 224/224/224 225/225/225
f 174/174/174 225/225/225 175/175/175
f 224/224/224 9/9/9 101/101/101
f 224/224/224 101/101/101 225/225/225
f 225/225/225 101/101/101 10/10/10
f 225/225/225 10/10/10 222/222/222
f 175/175/175 225/225/225 222/222/222
f 175/175/175 222/222/222 170/170/170
f 178/178/178 226/226/226 227/227/227
f 178/178/178 227/227/227 179/179/179
f 226/226/226 1/1/1 4/4/4
f 226/226/226 4/4/4 227/227/227
f 227/227/227 4/4/4 9/9/9
f 227/227/227 9/9/9 224/224/224
f 179/179/179 227/227/227 224/224/224
f 179/179/179 224/224/224 174/174/174
f 182/182/182 228/228/228 229/229/229
f 182/182/182 229/229/229 183/183/183
f 228/228/228 52/52/52 55/55/55
f 228/228/228 55/55/55 229/229/229
f 229/229/229 55/55/55 1/1/1
f 229/229/229 1/1/1 226/226/226
f 183/183/183 229/229/229 226/226/226
f 183/183/183 226/226/226 178/178/178
f 186/186/186 230/230/230 231/231/231
f 186/186/186 231/231/231 187/187/187
f 230/230/230 76/76/76 79/79/79
f 230/230/230 79/79/79 231/231/231
f 231/231/231 79/79/79 52/52/52
f 231/231/231 52/52/52 228/228/228
f 187/187/187 231/231/231 228/228/228
f 187/187/187 228/228/228 182/182/182
f 192/192/192 232/232/232 233/233/233
f 192/192/192 233/233/233 193/193/193
f 232/232/232 36/36/36 110/110/110
f 232/232/232 110/110/110 233/233/233
f 233/233/233 110/110/110 114/114/114
f 233/233/233 114/114/114 234/234/234
f 193/193/193 233/233/233 234/234/234
f 193/193/193 234/234/234 194/194/194
f 201/201/201 235/235/235 236/236/236
f 201/201/201 236/236/236 202/202/202
f 235/235/235 28/28/28 31/31/31
f 235/235/235 31/31/31 236/236/236
f 236/236/236 31/31/31 36/36/36
f 236/236/236 36/36/36 232/232/232
f 202/202/202 236/236/236 232/232/232
f 202/202/202 232/232/232 192/192/192
f 207/207/207 237/237/237 238/238/238
f 207/207/207 238/238/238 208/208/208
f 237/237/237 129/129/129 132/132/132
f 237/237/237 132/132/132 238/238/238
f 238/238/238 132/132/132 28/28/28
f 238/238/238 28/28/28 235/235/235
f 208/208/208 238/238/238 235/235/235
f 208/208/208 235/235/235 201/201/201
f 211/211/211 239/239/239 240/240/240
f 211/211/211 240/240/240 212/212/212
f 239/239/239 64/64/64 89/89/89
f 239/239/239 89/89/89 240/240/240
f 240/240/240 89/89/89 93/93/93
f 240/240/240 93/93/93 241/241/241
f 212/212/212 240/240/240 241/241/241
f 212/212/212 241/241/241 213/213/213
f 211/211/211 216/216/216 242/242/242
f 211/211/211 242/242/242 239/239/239
f 216/216/216 162/162/162 219/219/219
f 216/216/216 219/219/219 242/242/242
f 242/242/242 219/219/219 27/27/27
f 242/242/242 27/27/27 65/65/65
f 239/239/239 242/242/242 65/65/65
f 239/239/239 65/65/65 64/64/64
f 243/243/243 244/244/244 245/245/245
f 243/243/243 245/245/245 246/246/246
f 244/244/244 247/247/247 248/248/248
f 244/244/244 248/248/248 245/245/245
f 245/245/245 248/248/248 249/249/249
f 245/245/245 249/249/249 250/250/250
f 246/246/246 245/245/245 250/250/250
f 246/246/246 250/250/250 251/251/251
f 252/252/252 253/253/253 254/254/254
f 252/252/252 254/254/254 255/255/255
f 253/253/253 256/256/256 257/257/257
f 253/253/253 257/257/257 254/254/254
f 254/254/254 257/257/257 258/258/258
f 254/254/254 258/258/258 259/259/259
f 255/255/255 254/254/254 259/259/259
f 255/255/255 259/259/259 260/260/260
f 261/261/261 262/262/262 263/263/263
f 261/261/261 263/263/263 264/264/264
f 262/262/262 265/265/265 266/266/266
f 262/262/262 266/266/266 263/263/263
f 263/263/263 266/266/266 267/267/267
f 263/263/263 267/267/267 268/268/268
f 264/264/264 263/263/263 268/268/268
f 264/264/264 268/268/268 269/269/269
f 270/270/270 271/271/271 272/272/272
f 270/270/270 272/272/272 273/273/273
f 271/271/271 274/274/274 275/275/275
f 271/271/271 275/275/275 272/272/272
f 272/272/272 275/275/275 276/276/276
f 272/272/272 276/276/276 277/277/277
f 273/273/273 272/272/272 277/277/277
f 273/273/273 277/277/277 278/278/278
f 260/260/260 259/259/259 279/279/279
f 260/260/260 279/279/279 280/280/280
f 259/259/259 258/258/258 281/281/281
f 259/259/259 281/281/281 279/279/279
f 279/279/279 281/281/281 282/282/282
f 279/279/279 282/282/282 283/283/283
f 280/280/280 279/279/279 283/283/283
f 280/280/280 283/283/283 284/284/284
f 285/285/285 286/286/286 287/287/287
f 285/285/285 287/287/287 288/288/288
f 286/286/286 289/289/289 290/290/290
f 286/286/286 290/290/290 287/287/287
f 287/287/287 290/290/290 291/291/291
f 287/287/287 291/291/291 292/292/292
f 288/288/288 287/287/287 292/292/292
f 288/288/288 292/292/292 293/293/293
f 294/294/294 295/295/295 296/296/296
f 294/294/294 296/296/296 297/297/297
f 295/295/295 243/243/243 246/246/246
f 295/295/295 246/246/246 296/296/296
f 296/296/296 246/246/246 251/251/251
f 296/296/296 251/251/251 298/298/298
f 297/297/297 296/296/296 298/298/298
f 297/297/297 298/298/298 299/299/299
f 284/284/284 283/283/283 300/300/300
f 284/284/284 300/300/300 301/301/301
f 283/283/283 282/282/282 302/302/302
f 283/283/283 302/302/302 300/300/300
f 300/300/300 302/302/302 303/303/303
f 300/300/300 303/303/303 304/304/304
f 301/301/301 300/300/300 304/304/304
f 301/301/301 304/304/304 305/305/305
f 306/306/306 307/307/307 308/308/308
f 306/306/306 308/308/308 309/309/309
f 307/307/307 310/310/310 311/311/311
f 307/307/307 311/311/311 308/308/308
f 308/308/308 311/311/311 267/267/267
f 308/308/308 267/267/267 266/266/266
f 309/309/309 308/308/308 266/266/266
f 309/309/309 266/266/266 265/265/265
f 293/293/293 292/292/292 312/312/312
f 293/293/293 312/312/312 313/313/313
f 292/292/292 291/291/291 314/314/314
f 292/292/292 314/314/314 312/312/312
f 312/312/312 314/314/314 315/315/315
f 312/312/312 315/315/315 316/316/316
f 313/313/313 312/312/312 316/316/316
f 313/313/313 316/316/316 317/317/317
f 318/318/318 319/319/319 320/320/320
f 318/318/318 320/320/320 321/321/321
f 319/319/319 294/294/294 297/297/297
f 319/319/319 297/297/297 320/320/320
f 320/320/320 297/297/297 299/299/299
f 320/320/320 299/299/299 322/322/322
f 321/321/321 320/320/320 322/322/322
f 321/321/321 322/322/322 323/323/323
f 305/305/305 304/304/304 324/324/324
f 305/305/305 324/324/324 325/325/325
f 304/304/304 303/303/303 326/326/326
f 304/304/304 326/326/326 324/324/324
f 324/324/324 326/326/326 327/327/327
f 324/324/324 327/327/327 328/328/328
f 325/325/325 324/324/324 328/328/328
f 325/325/325 328/328/328 329/329/329
f 306/306/306 330/330/330 331/331/331
f 306/306/306 331/331/331 307/307/307
f 330/330/330 332/332/332 333/333/333
f 330/330/330 333/333/333 331/331/331
f 331/331/331 333/333/333 334/334/334
f 331/331/331 334/334/334 335/335/335
f 307/307/307 331/331/331 335/335/335
f 307/307/307 335/335/335 310/310/310
f 317/317/317 316/316/316 336/336/336
f 317/317/317 336/336/336 337/337/337
f 316/316/316 315/315/315 338/338/338
f 316/316/316 338/338/338 336/336/336
f 336/336/336 338/338/338 339/339/339
f 336/336/336 339/339/339 340/340/340
f 337/337/337 336/336/336 340/340/340
f 337/337/337 340/340/340 341/341/341
f 247/247/247 342/342/342 343/343/343
f 247/247/247 343/343/343 248/248/248
f 342/342/342 252/252/252 255/255/255
f 342/342/342 255/255/255 343/343/343
f 343/343/343 255/255/255 260/260/260
f 343/343/343 260/260/260 344/344/344
f 248/248/248 343/343/343 344/344/344
f 248/248/248 344/344/344 249/249/249
f 251/251/251 250/250/250 345/345/345
f 251/251/251 345/345/345 346/346/346
f 250/250/250 249/249/249 344/344/344
f 250/250/250 344/344/344 345/345/345
f 345/345/345 344/344/344 260/260/260
f 345/345/345 260/260/260 280/280/280
f 346/346/346 345/345/345 280/280/280
f 346/346/346 280/280/280 284/284/284
f 299/299/299 298/298/298 347/347/347
f 299/299/299 347/347/347 348/348/348
f 298/298/298 251/251/251 346/346/346
f 298/298/298 346/346/346 347/347/347
f 347/347/347 346/346/346 284/284/284
f 347/347/347 284/284/284 301/301/301
f 348/348/348 347/347/347 301/301/301
f 348/348/348 301/301/301 305/305/305
f 323/323/323 322/322/322 349/349/349
f 323/323/323 349/349/349 350/350/350
f 322/322/322 299/299/299 348/348/348
f 322/322/322 348/348/348 349/349/349
f 349/349/349 348/348/348 305/305/305
f 349/349/349 305/305/305 325/325/325
f 350/350/350 349/349/349 325/325/325
f 350/350/350 325/325/325 329/329/329
f 274/274/274 351/351/351 352/352/352
f 274/274/274 352/352/352 275/275/275
f 351/351/351 353/353/353 354/354/354
f 351/351/351 354/354/354 352/352/352
f 352/352/352 354/354/354 355/355/355
f 352/352/352 355/355/355 356/356/356
f 275/275/275 352/352/352 356/356/356
f 275/275/275 356/356/356 276/276/276
f 315/315/315 357/357/357 358/358/358
f 315/315/315 358/358/358 338/338/338
f 357/357/357 359/359/359 360/360/360
f 357/357/357 360/360/360 358/358/358
f 358/358/358 360/360/360 361/361/361
f 358/358/358 361/361/361 362/362/362
f 338/338/338 358/358/358 362/362/362
f 338/338/338 362/362/362 339/339/339
f 291/291/291 363/363/363 364/364/364
f 291/291/291 364/364/364 314/314/314
f 363/363/363 365/365/365 366/366/366
f 363/363/363 366/366/366 364/364/364
f 364/364/364 366/366/366 359/359/359
f 364/364/364 359/359/359 357/357/357
f 314/314/314 364/364/364 357/357/357
f 314/314/314 357/357/357 315/315/315
f 289/289/289 367/367/367 368/368/368
f 289/289/289 368/368/368 290/290/290
f 367/367/367 369/369/369 370/370/370
f 367/367/367 370/370/370 368/368/368
f 368/368/368 370/370/370 365/365/365
f 368/368/368 365/365/365 363/363/363
f 290/290/290 368/368/368 363/363/363
f 290/290/290 363/363/363 291/291/291
f 371/371/371 372/372/372 373/373/373
f 371/371/371 373/373/373 374/374/374
f 372/372/372 270/270/270 273/273/273
f 372/372/372 273/273/273 373/373/373
f 373/373/373 273/273/273 278/278/278
f 373/373/373 278/278/278 375/375/375
f 374/374/374 373/373/373 375/375/375
f 374/374/374 375/375/375 376/376/376
f 303/303/303 377/377/377 378/378/378
f 303/303/303 378/378/378 326/326/326
f 377/377/377 310/310/310 335/335/335
f 377/377/377 335/335/335 378/378/378
f 378/378/378 335/335/335 334/334/334
f 378/378/378 334/334/334 379/379/379
f 326/326/326 378/378/378 379/379/379
f 326/326/326 379/379/379 327/327/327
f 282/282/282 380/380/380 381/381/381
f 282/282/282 381/381/381 302/302/302
f 380/380/380 267/267/267 311/311/311
f 380/380/380 311/311/311 381/381/381
f 381/381/381 311/311/311 310/310/310
f 381/381/381 310/310/310 377/377/377
f 302/302/302 381/381/381 377/377/377
f 302/302/302 377/377/377 303/303/303
f 258/258/258 382/382/382 383/383/383
f 258/258/258 383/383/383 281/281/281
f 382/382/382 269/269/269 268/268/268
f 382/382/382 268/268/268 383/383/383
f 383/383/383 268/268/268 267/267/267
f 383/383/383 267/267/267 380/380/380
f 281/281/281 383/383/383 380/380/380
f 281/281/281 380/380/380 282/282/282
f 256/256/256 384/384/384 385/385/385
f 256/256/256 385/385/385 257/257/257
f 384/384/384 261/261/261 264/264/264
f 384/384/384 264/264/264 385/385/385
f 385/385/385 264/264/264 269/269/269
f 385/385/385 269/269/269 382/382/382
f 257/257/257 385/385/385 382/382/382
f 257/257/257 382/382/382 258/258/258
f 386/386/386 387/387/387 388/388/388
f 386/386/386 388/388/388 389/389/389
f 387/387/387 390/390/390 391/391/391
f 387/387/387 391/391/391 388/388/388
f 388/388/388 391/391/391 285/285/285
f 388/388/388 285/285/285 288/288/288
f 389/389/389 388/388/388 288/288/288
f 389/389/389 288/288/288 293/293/293
f 392/392/392 393/393/393 394/394/394
f 392/392/392 394/394/394 395/395/395
f 393/393/393 386/386/386 389/389/389
f 393/393/393 389/389/389 394/394/394
f 394/394/394 389/389/389 293/293/293
f 394/394/394 293/293/293 313/313/313
f 395/395/395 394/394/394 313/313/313
f 395/395/395 313/313/313 317/317/317
f 396/396/396 397/397/397 398/398/398
f 396/396/396 398/398/398 399/399/399
f 397/397/397 392/392/392 395/395/395
f 397/397/397 395/395/395 398/398/398
f 398/398/398 395/395/395 317/317/317
f 398/398/398 317/317/317 337/337/337
f 399/399/399 398/398/398 337/337/337
f 399/399/399 337/337/337 341/341/341
f 390/390/390 387/387/387 400/400/400
f 390/390/390 400/400/400 401/401/401
f 387/387/387 386/386/386 402/402/402
f 387/387/387 402/402/402 400/400/400
f 400/400/400 402/402/402 403/403/403
f 400/400/400 403/403/403 404/404/404
f 401/401/401 400/400/400 404/404/404
f 401/401/401 404/404/404 405/405/405
f 285/285/285 391/391/391 406/406/406
f 285/285/285 406/406/406 407/407/407
f 391/391/391 390/390/390 401/401/401
f 391/391/391 401/401/401 406/406/406
f 406/406/406 401/401/401 405/405/405
f 406/406/406 405/405/405 408/408/408
f 407/407/407 406/406/406 408/408/408
f 407/407/407 408/408/408 409/409/409
f 289/289/289 286/286/286 410/410/410
f 289/289/289 410/410/410 411/411/411
f 286/286/286 285/285/285 407/407/407
f 286/286/286 407/407/407 410/410/410
f 410/410/410 407/407/407 409/409/409
f 410/410/410 409/409/409 412/412/412
f 411/411/411 410/410/410 412/412/412
f 411/411/411 412/412/412 413/413/413
f 369/369/369 367/367/367 414/414/414
f 369/369/369 414/414/414 415/415/415
f 367/367/367 289/289/289 411/411/411
f 367/367/367 411/411/411 414/414/414
f 414/414/414 411/411/411 413/413/413
f 414/414/414 413/413/413 416/416/416
f 415/415/415 414/414/414 416/416/416
f 415/415/415 416/416/416 417/417/417
f 365/365/365 370/370/370 418/418/418
f 365/365/365 418/418/418 419/419/419
f 370/370/370 369/369/369 415/415/415
f 370/370/370 415/415/415 418/418/418
f 418/418/418 415/415/415 417/417/417
f 418/418/418 417/417/417 420/420/420
f 419/419/419 418/418/418 420/420/420
f 419/419/419 420/420/420 421/421/421
f 359/359/359 366/366/366 422/422/422
f 359/359/359 422/422/422 423/423/423
f 366/366/366 365/365/365 419/419/419
f 366/366/366 419/419/419 422/422/422
f 422/422/422 419/419/419 421/421/421
f 422/422/422 421/421/421 424/424/424
f 423/423/423 422/422/422 424/424/424
f 423/423/423 424/424/424 425/425/425
f 361/361/361 360/360/360 426/426/426
f 361/361/361 426/426/426 427/427/427
f 360/360/360 359/359/359 423/423/423
f 360/360/360 423/423/423 426/426/426
f 426/426/426 423/423/423 425/425/425
f 426/426/426 425/425/425 428/428/428
f 427/427/427 426/426/426 428/428/428
f 427/427/427 428/428/428 429/429/429
f 430/430/430 431/431/431 432/432/432
f 430/430/430 432/432/432 433/433/433
f 431/431/431 434/434/434 435/435/435
f 431/431/431 435/435/435 432/432/432
f 432/432/432 435/435/435 436/436/436
f 432/432/432 436/436/436 437/437/437
f 433/433/433 432/432/432 437/437/437
f 433/433/433 437/437/437 438/438/438
f 439/439/439 440/440/440 441/441/441
f 439/439/439 441/441/441 442/442/442
f 440/440/440 430/430/430 433/433/433
f 440/440/440 433/433/433 441/441/441
f 441/441/441 433/433/433 438/438/438
f 441/441/441 438/438/438 443/443/443
f 442/442/442 441/441/441 443/443/443
f 442/442/442 443/443/443 444/444/444
f 445/445/445 446/446/446 447/447/447
f 445/445/445 447/447/447 448/448/448
f 446/446/446 439/439/439 442/442/442
f 446/446/446 442/442/442 447/447/447
f 447/447/447 442/442/442 444/444/444
f 447/447/447 444/444/444 449/449/449
f 448/448/448 447/447/447 449/449/449
f 448/448/448 449/449/449 450/450/450
f 392/392/392 397/397/397 451/451/451
f 392/392/392 451/451/451 452/452/452
f 397/397/397 396/396/396 453/453/453
f 397/397/397 453/453/453 451/451/451
f 451/451/451 453/453/453 454/454/454
f 451/451/451 454/454/454 455/455/455
f 452/452/452 451/451/451 455/455/455
f 452/452/452 455/455/455 456/456/456
f 386/386/386 393/393/393 457/457/457
f 386/386/386 457/457/457 402/402/402
f 393/393/393 392/392/392 452/452/452
f 393/393/393 452/452/452 457/457/457
f 457/457/457 452/452/452 456/456/456
f 457/457/457 456/456/456 458/458/458
f 402/402/402 457/457/457 458/458/458
f 402/402/402 458/458/458 403/403/403
f 405/405/405 404/404/404 459/459/459
f 405/405/405 459/459/459 460/460/460
f 404/404/404 403/403/403 461/461/461
f 404/404/404 461/461/461 459/459/459
f 459/459/459 461/461/461 265/265/265
f 459/459/459 265/265/265 262/262/262
f 460/460/460 459/459/459 262/262/262
f 460/460/460 262/262/262 261/261/261
f 409/409/409 408/408/408 462/462/462
f 409/409/409 462/462/462 463/463/463
f 408/408/408 405/405/405 460/460/460
f 408/408/408 460/460/460 462/462/462
f 462/462/462 460/460/460 261/261/261
f 462/462/462 261/261/261 384/384/384
f 463/463/463 462/462/462 384/384/384
f 463/463/463 384/384/384 256/256/256
f 413/413/413 412/412/412 464/464/464
f 413/413/413 464/464/464 465/465/465
f 412/412/412 409/409/409 463/463/463
f 412/412/412 463/463/463 464/464/464
f 464/464/464 463/463/463 256/256/256
f 464/464/464 256/256/256 253/253/253
f 465/465/465 464/464/464 253/253/253
f 465/465/465 253/253/253 252/252/252
f 417/417/417 416/416/416 466/466/466
f 417/417/417 466/466/466 467/467/467
f 416/416/416 413/413/413 465/465/465
f 416/416/416 465/465/465 466/466/466
f 466/466/466 465/465/465 252/252/252
f 466/466/466 252/252/252 342/342/342
f 467/467/467 466/466/466 342/342/342
f 467/467/467 342/342/342 247/247/247
f 421/421/421 420/420/420 468/468/468
f 421/421/421 468/468/468 469/469/469
f 420/420/420 417/417/417 467/467/467
f 420/420/420 467/467/467 468/468/468
f 468/468/468 467/467/467 247/247/247
f 468/468/468 247/247/247 244/244/244
f 469/469/469 468/468/468 244/244/244
f 469/469/469 244/244/244 243/243/243
f 425/425/425 424/424/424 470/470/470
f 425/425/425 470/470/470 471/471/471
f 424/424/424 421/421/421 469/469/469
f 424/424/424 469/469/469 470/470/470
f 470/470/470 469/469/469 243/243/243
f 470/470/470 243/243/243 295/295/295
f 471/471/471 470/470/470 295/295/295
f 471/471/471 295/295/295 294/294/294
f 429/429/429 428/428/428 472/472/472
f 429/429/429 472/472/472 473/473/473
f 428/428/428 425/425/425 471/471/471
f 428/428/428 471/471/471 472/472/472
f 472/472/472 471/471/471 294/294/294
f 472/472/472 294/294/294 319/319/319
f 473/473/473 472/472/472 319/319/319
f 473/473/473 319/319/319 318/318/318
f 438/438/438 437/437/437 474/474/474
f 438/438/438 474/474/474 475/475/475
f 437/437/437 436/436/436 476/476/476
f 437/437/437 476/476/476 474/474/474
f 474/474/474 476/476/476 353/353/353
f 474/474/474 353/353/353 351/351/351
f 475/475/475 474/474/474 351/351/351
f 475/475/475 351/351/351 274/274/274
f 444/444/444 443/443/443 477/477/477
f 444/444/444 477/477/477 478/478/478
f 443/443/443 438/438/438 475/475/475
f 443/443/443 475/475/475 477/477/477
f 477/477/477 475/475/475 274/274/274
f 477/477/477 274/274/274 271/271/271
f 478/478/478 477/477/477 271/271/271
f 478/478/478 271/271/271 270/270/270
f 450/450/450 449/449/449 479/479/479
f 450/450/450 479/479/479 480/480/480
f 449/449/449 444/444/444 478/478/478
f 449/449/449 478/478/478 479/479/479
f 479/479/479 478/478/478 270/270/270
f 479/479/479 270/270/270 372/372/372
f 480/480/480 479/479/479 372/372/372
f 480/480/480 372/372/372 371/371/371
f 456/456/456 455/455/455 481/481/481
f 456/456/456 481/481/481 482/482/482
f 455/455/455 454/454/454 483/483/483
f 455/455/455 483/483/483 481/481/481
f 481/481/481 483/483/483 332/332/332
f 481/481/481 332/332/332 330/330/330
f 482/482/482 481/481/481 330/330/330
f 482/482/482 330/330/330 306/306/306
f 456/456/456 482/482/482 484/484/484
f 456/456/456 484/484/484 458/458/458
f 482/482/482 306/306/306 309/309/309
f 482/482/482 309/309/309 484/484/484
f 484/484/484 309/309/309 265/265/265
f 484/484/484 265/265/265 461/461/461
f 458/458/458 484/484/484 461/461/461
f 458/458/458 461/461/461 403/403/403
