# phare_small_lamp_phare_small_lamp1_0_3
v -0.058263 0.017930 -0.177479
v -0.058512 0.014145 -0.179351
v -0.059063 0.018007 -0.183070
v -0.058494 0.021765 -0.179249
v -0.059257 0.012362 -0.183114
v -0.059835 0.014248 -0.186855
v -0.060223 0.018083 -0.188597
v -0.059817 0.021869 -0.186753
v -0.059230 0.023651 -0.182963
v -0.063081 0.025627 -0.182256
v -0.063970 0.023156 -0.187293
v -0.074055 0.023156 -0.185515
v -0.073166 0.025627 -0.180478
v -0.064423 0.018110 -0.189863
v -0.074508 0.018110 -0.188084
v -0.084701 0.018110 -0.186287
v -0.084248 0.023156 -0.183717
v -0.083360 0.025627 -0.178680
v -0.087787 0.023651 -0.177927
v -0.088616 0.021869 -0.181675
v -0.088173 0.018007 -0.177937
v -0.087293 0.021765 -0.174171
v -0.088780 0.018083 -0.183562
v -0.088634 0.014248 -0.181777
v -0.087814 0.012362 -0.178078
v -0.087311 0.014145 -0.174273
v -0.086820 0.017930 -0.172444
v -0.082055 0.017903 -0.171278
v -0.082508 0.012857 -0.173848
v -0.072314 0.012857 -0.175645
v -0.071861 0.017903 -0.173075
v -0.083396 0.010387 -0.178885
v -0.073203 0.010386 -0.180682
v -0.063117 0.010386 -0.182460
v -0.062229 0.012857 -0.177423
v -0.061776 0.017903 -0.174854
v -0.064423 0.018110 -0.189863
v -0.063994 0.012996 -0.187429
v -0.074079 0.012996 -0.185651
v -0.074508 0.018110 -0.188084
v -0.063117 0.010386 -0.182460
v -0.073203 0.010386 -0.180682
v -0.083396 0.010387 -0.178885
v -0.084272 0.012996 -0.183854
v -0.084701 0.018110 -0.186287
v -0.083360 0.025627 -0.178680
v -0.082484 0.023018 -0.173711
v -0.072290 0.023018 -0.175509
v -0.073166 0.025627 -0.180478
v -0.082055 0.017903 -0.171278
v -0.071861 0.017903 -0.173075
v -0.061776 0.017903 -0.174854
v -0.062205 0.023018 -0.177287
v -0.063081 0.025627 -0.182256
v -0.060338 0.023156 -0.187933
v -0.059450 0.025627 -0.182896
v -0.060791 0.018110 -0.190503
v -0.059486 0.010386 -0.183101
v -0.060362 0.012996 -0.188070
v -0.060791 0.018110 -0.190503
v -0.058598 0.012857 -0.178064
v -0.058145 0.017903 -0.175494
v -0.059486 0.010386 -0.183101
v -0.058574 0.023018 -0.177927
v -0.059450 0.025627 -0.182896
v -0.058145 0.017903 -0.175494
v -0.086820 0.017930 -0.172444
v -0.087311 0.014145 -0.174273
v -0.086464 0.012857 -0.173150
v -0.086011 0.017903 -0.170580
v -0.087814 0.012362 -0.178078
v -0.087353 0.010386 -0.178187
v -0.088229 0.012996 -0.183156
v -0.088658 0.018110 -0.185589
v -0.087353 0.010386 -0.178187
v -0.087814 0.012362 -0.178078
v -0.088634 0.014248 -0.181777
v -0.088780 0.018083 -0.183562
v -0.088205 0.023156 -0.183020
v -0.087317 0.025627 -0.177983
v -0.088658 0.018110 -0.185589
v -0.088780 0.018083 -0.183562
v -0.088616 0.021869 -0.181675
v -0.087787 0.023651 -0.177927
v -0.086820 0.017930 -0.172444
v -0.086011 0.017903 -0.170580
v -0.086440 0.023018 -0.173014
v -0.087293 0.021765 -0.174171
v -0.087317 0.025627 -0.177983
v -0.087787 0.023651 -0.177927
v 0.005779 0.017930 0.185723
v 0.006168 0.021765 0.187465
v 0.006939 0.018007 0.191250
v 0.006186 0.014145 0.187567
v 0.006746 0.023651 0.191206
v 0.007491 0.021869 0.194969
v 0.007740 0.018083 0.196841
v 0.007509 0.014248 0.195071
v 0.006773 0.012362 0.191357
v 0.002885 0.025627 0.191860
v -0.007200 0.025627 0.193638
v -0.006312 0.023156 0.198675
v 0.003773 0.023156 0.196897
v -0.017393 0.025627 0.195435
v -0.016505 0.023156 0.200472
v -0.016052 0.018110 0.203042
v -0.005859 0.018110 0.201245
v 0.004227 0.018110 0.199466
v -0.021811 0.023651 0.196242
v -0.022631 0.021765 0.192543
v -0.022170 0.018007 0.196383
v -0.021308 0.021869 0.200047
v -0.022778 0.017930 0.190758
v -0.022613 0.014145 0.192645
v -0.021784 0.012362 0.196393
v -0.021290 0.014248 0.200149
v -0.020817 0.018083 0.201876
v -0.018698 0.017903 0.188033
v -0.008505 0.017903 0.186236
v -0.008052 0.012857 0.188805
v -0.018245 0.012857 0.190603
v 0.001580 0.017903 0.184457
v 0.002033 0.012857 0.187027
v 0.002921 0.010387 0.192064
v -0.007164 0.010386 0.193842
v -0.017357 0.010387 0.195640
v 0.004227 0.018110 0.199466
v -0.005859 0.018110 0.201245
v -0.006288 0.012996 0.198811
v 0.003797 0.012996 0.197033
v -0.016052 0.018110 0.203042
v -0.016481 0.012996 0.200609
v -0.017357 0.010387 0.195640
v -0.007164 0.010386 0.193842
v 0.002921 0.010387 0.192064
v -0.017393 0.025627 0.195435
v -0.007200 0.025627 0.193638
v -0.008076 0.023018 0.188669
v -0.018269 0.023018 0.190466
v 0.002885 0.025627 0.191860
v 0.002009 0.023018 0.186891
v 0.001580 0.017903 0.184457
v -0.008505 0.017903 0.186236
v -0.018698 0.017903 0.188033
v 0.006517 0.025627 0.191219
v 0.007405 0.023156 0.196256
v 0.007858 0.018110 0.198826
v 0.007429 0.012996 0.196393
v 0.006553 0.010386 0.191424
v 0.007858 0.018110 0.198826
v 0.005211 0.017903 0.183817
v 0.005665 0.012857 0.186387
v 0.006553 0.010386 0.191424
v 0.006517 0.025627 0.191219
v 0.005641 0.023018 0.186250
v 0.005211 0.017903 0.183817
v -0.022778 0.017930 0.190758
v -0.022655 0.017903 0.188731
v -0.022202 0.012857 0.191300
v -0.022613 0.014145 0.192645
v -0.021314 0.010386 0.196337
v -0.021784 0.012362 0.196393
v -0.020009 0.018110 0.203740
v -0.020438 0.012996 0.201306
v -0.020817 0.018083 0.201876
v -0.021290 0.014248 0.200149
v -0.021784 0.012362 0.196393
v -0.021314 0.010386 0.196337
v -0.021350 0.025627 0.196133
v -0.020462 0.023156 0.201170
v -0.021811 0.023651 0.196242
v -0.021308 0.021869 0.200047
v -0.020817 0.018083 0.201876
v -0.020009 0.018110 0.203740
v -0.022778 0.017930 0.190758
v -0.022631 0.021765 0.192543
v -0.022226 0.023018 0.191164
v -0.022655 0.017903 0.188731
v -0.021811 0.023651 0.196242
v -0.021350 0.025627 0.196133
vt 0.329546 0.485172
vt 0.420367 0.549696
vt 0.482587 0.494947
vt 0.427838 0.432727
vt 0.472811 0.647988
vt 0.537336 0.557167
vt 0.635628 0.504722
vt 0.544807 0.440198
vt 0.492361 0.341906
vt 0.501674 0.333712
vt 0.610431 0.382454
vt 0.726459 0.280357
vt 0.654825 0.198949
vt 0.644941 0.496528
vt 0.798092 0.361766
vt 0.951244 0.227003
vt 0.843733 0.177164
vt 0.807977 0.064187
vt 0.380504 0.923676
vt 0.456887 0.923676
vt 0.456887 0.847294
vt 0.380504 0.847294
vt 0.533269 0.923676
vt 0.533269 0.847294
vt 0.533269 0.770911
vt 0.456887 0.770911
vt 0.380504 0.770911
vt 0.013929 0.762890
vt 0.121439 0.812729
vt 0.238714 0.709536
vt 0.167081 0.628128
vt 0.157194 0.925706
vt 0.310347 0.790944
vt 0.463499 0.656182
vt 0.354742 0.607440
vt 0.320234 0.493366
vt 0.643822 0.514035
vt 0.595080 0.622792
vt 0.697176 0.738820
vt 0.778584 0.667187
vt 0.481005 0.657301
vt 0.615767 0.810453
vt 0.750529 0.963605
vt 0.800369 0.856095
vt 0.913346 0.820339
vt 0.214642 0.026291
vt 0.164803 0.133801
vt 0.267997 0.251075
vt 0.349405 0.179442
vt 0.051827 0.169557
vt 0.186589 0.322708
vt 0.321352 0.475860
vt 0.370093 0.367103
vt 0.484167 0.332594
vt 0.568651 0.419217
vt 0.497018 0.337809
vt 0.640284 0.500625
vt 0.476908 0.652644
vt 0.558317 0.581011
vt 0.639725 0.509378
vt 0.396522 0.570677
vt 0.324890 0.489269
vt 0.468155 0.652085
vt 0.406857 0.408883
vt 0.488264 0.337250
vt 0.325449 0.480516
vt -0.005361 0.779863
vt 0.066272 0.861271
vt 0.075917 0.852784
vt 0.004284 0.771376
vt 0.137905 0.942679
vt 0.147550 0.934192
vt 0.840424 0.901617
vt 0.921833 0.829984
vt 0.759016 0.973250
vt 0.767502 0.982895
vt 0.848911 0.911262
vt 0.930320 0.839629
vt 0.889255 0.137108
vt 0.817622 0.055700
vt 0.960889 0.218516
vt 0.970534 0.210029
vt 0.898900 0.128621
vt 0.827267 0.047213
vt 0.034853 0.150267
vt 0.043340 0.159912
vt 0.124748 0.088279
vt 0.116261 0.078634
vt 0.206155 0.016646
vt 0.197668 0.007001
vt 0.486078 0.336672
vt 0.423661 0.428953
vt 0.479828 0.489897
vt 0.540771 0.433730
vt 0.326602 0.483647
vt 0.418885 0.546064
vt 0.473578 0.643123
vt 0.535995 0.550841
vt 0.633053 0.496147
vt 0.317481 0.492053
vt 0.167472 0.630305
vt 0.240960 0.710043
vt 0.354607 0.605303
vt 0.017462 0.768556
vt 0.126091 0.815908
vt 0.164438 0.928032
vt 0.314448 0.789781
vt 0.464457 0.651529
vt 0.385728 0.921211
vt 0.385728 0.844829
vt 0.462111 0.844829
vt 0.462111 0.921211
vt 0.385728 0.768446
vt 0.462111 0.768446
vt 0.538493 0.768446
vt 0.538493 0.844829
vt 0.538493 0.921211
vt 0.795218 0.051762
vt 0.645209 0.190014
vt 0.718696 0.269752
vt 0.833565 0.163886
vt 0.495199 0.328265
vt 0.605049 0.374491
vt 0.642175 0.487741
vt 0.792184 0.349489
vt 0.942194 0.211238
vt 0.481985 0.652244
vt 0.620237 0.802253
vt 0.699974 0.728765
vt 0.595234 0.615118
vt 0.758488 0.952262
vt 0.805840 0.843634
vt 0.917963 0.805287
vt 0.779712 0.655277
vt 0.641460 0.505268
vt 0.041693 0.174507
vt 0.179945 0.324516
vt 0.259682 0.251028
vt 0.153817 0.136160
vt 0.318196 0.474526
vt 0.364422 0.364676
vt 0.477672 0.327550
vt 0.339420 0.177541
vt 0.201169 0.027531
vt 0.322042 0.487850
vt 0.395530 0.567588
vt 0.469018 0.647326
vt 0.557519 0.574196
vt 0.637257 0.500708
vt 0.477781 0.647683
vt 0.490639 0.332468
vt 0.564126 0.412206
vt 0.637614 0.491944
vt 0.322399 0.479086
vt 0.402137 0.405599
vt 0.481875 0.332111
vt 0.814112 0.034349
vt 0.804665 0.043056
vt 0.878153 0.122793
vt 0.887600 0.114087
vt 0.951641 0.202531
vt 0.961088 0.193825
vt 0.767195 0.961710
vt 0.846933 0.888222
vt 0.775902 0.971157
vt 0.855639 0.897669
vt 0.935377 0.824181
vt 0.926670 0.814734
vt 0.008015 0.777263
vt 0.081503 0.857001
vt -0.001432 0.785969
vt 0.072056 0.865707
vt 0.145544 0.945445
vt 0.154991 0.936739
vt 0.183755 0.008637
vt 0.104018 0.082125
vt 0.112724 0.091572
vt 0.192462 0.018084
vt 0.024280 0.155612
vt 0.032987 0.165059
vn 0.996318 0.006504 -0.085492
vn 0.991342 -0.081377 -0.103044
vn 0.984808 0.000000 -0.173649
vn 0.993354 0.069717 -0.091584
vn 0.980032 -0.095998 -0.174133
vn 0.966420 -0.079426 -0.244384
vn 0.966380 0.001162 -0.257117
vn 0.966800 0.081375 -0.242229
vn 0.979419 0.092788 -0.179247
vn -0.075536 0.900427 -0.428398
vn -0.121111 0.716660 -0.686826
vn -0.121107 0.716663 -0.686825
vn -0.075540 0.900432 -0.428387
vn -0.154251 0.459339 -0.874765
vn -0.154245 0.459338 -0.874767
vn -0.154240 0.459339 -0.874767
vn -0.121100 0.716663 -0.686825
vn -0.075531 0.900432 -0.428389
vn -0.982445 0.066864 0.174156
vn -0.988734 0.033863 0.145806
vn -0.984808 0.000000 0.173648
vn -0.978816 0.033086 0.202052
vn -0.996426 0.001222 0.084464
vn -0.988892 -0.033086 0.144910
vn -0.982761 -0.066864 0.172364
vn -0.978974 -0.033863 0.201154
vn -0.965220 -0.001223 0.261436
vn 0.154251 -0.459337 0.874766
vn 0.121112 -0.716663 0.686823
vn 0.121104 -0.716663 0.686825
vn 0.154245 -0.459338 0.874767
vn 0.075542 -0.900432 0.428386
vn 0.075533 -0.900433 0.428388
vn 0.075531 -0.900428 0.428398
vn 0.121100 -0.716658 0.686830
vn 0.154239 -0.459338 0.874768
vn -0.156360 -0.435002 -0.886749
vn -0.124448 -0.697423 -0.705772
vn -0.124447 -0.697423 -0.705772
vn -0.156358 -0.435004 -0.886749
vn -0.079766 -0.888262 -0.452358
vn -0.079764 -0.888262 -0.452359
vn -0.079760 -0.888264 -0.452356
vn -0.124446 -0.697423 -0.705772
vn -0.156357 -0.435003 -0.886750
vn 0.079765 0.888261 0.452361
vn 0.124447 0.697418 0.705777
vn 0.124448 0.697422 0.705773
vn 0.079763 0.888260 0.452362
vn 0.156361 0.434993 0.886754
vn 0.156360 0.435003 0.886749
vn 0.156353 0.434995 0.886754
vn 0.124447 0.697416 0.705779
vn 0.079763 0.888260 0.452364
vn 0.482796 0.581484 -0.654816
vn 0.468989 0.757430 -0.454256
vn 0.399671 0.380052 -0.834160
vn 0.465446 -0.747188 -0.474416
vn 0.480094 -0.565994 -0.670194
vn 0.397942 -0.359444 -0.844063
vn 0.677642 -0.581480 0.450202
vn 0.660879 -0.380048 0.647149
vn 0.596082 -0.757422 0.266455
vn 0.681200 0.561030 0.470332
vn 0.596289 0.752070 0.280767
vn 0.664061 0.365910 0.652022
vn -0.902700 -0.120787 0.412970
vn -0.889541 -0.217206 0.401919
vn -0.420671 -0.602259 0.678469
vn -0.362018 -0.397008 0.843402
vn -0.943883 -0.233136 0.233948
vn -0.427132 -0.787312 0.444632
vn -0.628598 -0.595113 -0.500705
vn -0.627011 -0.363713 -0.688890
vn -0.564271 -0.767727 -0.303634
vn -0.967075 -0.249951 0.047868
vn -0.969166 -0.241351 -0.049671
vn -0.995911 -0.066504 -0.061138
vn -0.627350 0.602260 -0.493675
vn -0.553433 0.787318 -0.271738
vn -0.628630 0.397014 -0.668734
vn -0.989502 0.120797 -0.079338
vn -0.973358 0.217213 -0.073434
vn -0.966974 0.233142 0.102981
vn -0.902143 0.113944 0.416119
vn -0.360196 0.375971 0.853759
vn -0.417872 0.585842 0.694386
vn -0.888525 0.210560 0.407661
vn -0.423441 0.777119 0.465601
vn -0.942784 0.231245 0.240176
vn 0.965471 0.006503 -0.260430
vn 0.964772 0.069717 -0.253683
vn 0.984808 0.000000 -0.173647
vn 0.966800 -0.081380 -0.242229
vn 0.981658 0.092787 -0.166546
vn 0.991343 0.081376 -0.103043
vn 0.996039 0.001163 -0.088913
vn 0.991722 -0.079430 -0.100887
vn 0.980485 -0.095998 -0.171560
vn 0.075543 0.900426 0.428399
vn 0.075536 0.900429 0.428395
vn 0.121104 0.716664 0.686824
vn 0.121109 0.716657 0.686830
vn 0.075539 0.900427 0.428399
vn 0.121109 0.716657 0.686830
vn 0.154248 0.459339 0.874766
vn 0.154243 0.459343 0.874764
vn 0.154245 0.459340 0.874766
vn -0.982761 0.066864 0.172364
vn -0.988892 0.033086 0.144908
vn -0.984808 0.000000 0.173648
vn -0.978974 0.033863 0.201155
vn -0.996426 -0.001223 0.084461
vn -0.988733 -0.033863 0.145806
vn -0.982445 -0.066864 0.174155
vn -0.978816 -0.033086 0.202051
vn -0.965220 0.001223 0.261435
vn -0.154245 -0.459341 -0.874765
vn -0.154245 -0.459341 -0.874765
vn -0.121106 -0.716661 -0.686826
vn -0.121106 -0.716662 -0.686825
vn -0.154245 -0.459341 -0.874765
vn -0.121106 -0.716662 -0.686825
vn -0.075539 -0.900430 -0.428393
vn -0.075537 -0.900429 -0.428395
vn -0.075537 -0.900429 -0.428393
vn 0.156357 -0.435005 0.886748
vn 0.156360 -0.435008 0.886747
vn 0.124446 -0.697424 0.705771
vn 0.124453 -0.697422 0.705772
vn 0.156357 -0.435002 0.886750
vn 0.124445 -0.697425 0.705770
vn 0.079770 -0.888268 0.452346
vn 0.079760 -0.888262 0.452360
vn 0.079754 -0.888269 0.452346
vn -0.079768 0.888259 -0.452365
vn -0.079760 0.888262 -0.452360
vn -0.124446 0.697421 -0.705775
vn -0.124445 0.697416 -0.705779
vn -0.079764 0.888257 -0.452368
vn -0.124452 0.697418 -0.705776
vn -0.156357 0.435003 -0.886750
vn -0.156359 0.434999 -0.886751
vn -0.156358 0.435004 -0.886749
vn 0.596086 0.757420 0.266453
vn 0.677647 0.581482 0.450193
vn 0.660867 0.380056 0.647156
vn 0.680365 -0.565995 0.465568
vn 0.599641 -0.747187 0.286604
vn 0.662624 -0.359456 0.657054
vn 0.399693 -0.380050 -0.834151
vn 0.482805 -0.581478 -0.654815
vn 0.469005 -0.757422 -0.454254
vn 0.464300 0.752073 -0.467773
vn 0.479251 0.561027 -0.674957
vn 0.401006 0.365914 -0.839822
vn -0.989503 -0.120792 -0.079331
vn -0.628657 -0.397007 -0.668712
vn -0.627357 -0.602255 -0.493673
vn -0.973358 -0.217213 -0.073441
vn -0.553444 -0.787310 -0.271738
vn -0.966975 -0.233138 0.102986
vn -0.353578 -0.363716 0.861797
vn -0.419439 -0.595112 0.685502
vn -0.914947 -0.066488 0.398059
vn -0.893728 -0.241357 0.378150
vn -0.925126 -0.249947 0.285777
vn -0.426399 -0.767725 0.478311
vn -0.427136 0.787306 0.444639
vn -0.420679 0.602256 0.678466
vn -0.943879 0.233145 0.233958
vn -0.889537 0.217210 0.401926
vn -0.902697 0.120792 0.412975
vn -0.362014 0.397012 0.843402
vn -0.990057 0.113949 -0.082481
vn -0.974369 0.210564 -0.079169
vn -0.630164 0.585838 -0.509595
vn -0.630465 0.375976 -0.679085
vn -0.968071 0.231252 0.096752
vn -0.557149 0.777120 -0.292693
f 1/1/1 2/2/2 3/3/3
f 1/1/1 3/3/3 4/4/4
f 2/2/2 5/5/5 6/6/6
f 2/2/2 6/6/6 3/3/3
f 3/3/3 6/6/6 7/7/7
f 3/3/3 7/7/7 8/8/8
f 4/4/4 3/3/3 8/8/8
f 4/4/4 8/8/8 9/9/9
f 10/10/10 11/11/11 12/12/12
f 10/10/10 12/12/12 13/13/13
f 11/11/11 14/14/14 15/15/15
f 11/11/11 15/15/15 12/12/12
f 12/12/12 15/15/15 16/16/16
f 12/12/12 16/16/16 17/17/17
f 13/13/13 12/12/12 17/17/17
f 13/13/13 17/17/17 18/18/18
f 19/19/19 20/20/20 21/21/21
f 19/19/19 21/21/21 22/22/22
f 20/20/20 23/23/23 24/24/24
f 20/20/20 24/24/24 21/21/21
f 21/21/21 24/24/24 25/25/25
f 21/21/21 25/25/25 26/26/26
f 22/22/22 21/21/21 26/26/26
f 22/22/22 26/26/26 27/27/27
f 28/28/28 29/29/29 30/30/30
f 28/28/28 30/30/30 31/31/31
f 29/29/29 32/32/32 33/33/33
f 29/29/29 33/33/33 30/30/30
f 30/30/30 33/33/33 34/34/34
f 30/30/30 34/34/34 35/35/35
f 31/31/31 30/30/30 35/35/35
f 31/31/31 35/35/35 36/36/36
f 37/37/37 38/38/38 39/39/39
f 37/37/37 39/39/39 40/40/40
f 38/38/38 41/41/41 42/42/42
f 38/38/38 42/42/42 39/39/39
f 39/39/39 42/42/42 43/43/43
f 39/39/39 43/43/43 44/44/44
f 40/40/40 39/39/39 44/44/44
f 40/40/40 44/44/44 45/45/45
f 46/46/46 47/47/47 48/48/48
f 46/46/46 48/48/48 49/49/49
f 47/47/47 50/50/50 51/51/51
f 47/47/47 51/51/51 48/48/48
f 48/48/48 51/51/51 52/52/52
f 48/48/48 52/52/52 53/53/53
f 49/49/49 48/48/48 53/53/53
f 49/49/49 53/53/53 54/54/54
f 9/9/9 8/8/8 55/55/55
f 9/9/9 55/55/55 56/56/56
f 8/8/8 7/7/7 57/57/57
f 8/8/8 57/57/57 55/55/55
f 55/55/55 57/57/57 14/14/14
f 55/55/55 14/14/14 11/11/11
f 56/56/56 55/55/55 11/11/11
f 56/56/56 11/11/11 10/10/10
f 5/5/5 58/58/58 59/59/59
f 5/5/5 59/59/59 6/6/6
f 58/58/58 41/41/41 38/38/38
f 58/58/58 38/38/38 59/59/59
f 59/59/59 38/38/38 37/37/37
f 59/59/59 37/37/37 60/60/60
f 6/6/6 59/59/59 60/60/60
f 6/6/6 60/60/60 7/7/7
f 36/36/36 35/35/35 61/61/61
f 36/36/36 61/61/61 62/62/62
f 35/35/35 34/34/34 63/63/63
f 35/35/35 63/63/63 61/61/61
f 61/61/61 63/63/63 5/5/5
f 61/61/61 5/5/5 2/2/2
f 62/62/62 61/61/61 2/2/2
f 62/62/62 2/2/2 1/1/1
f 54/54/54 53/53/53 64/64/64
f 54/54/54 64/64/64 65/65/65
f 53/53/53 52/52/52 66/66/66
f 53/53/53 66/66/66 64/64/64
f 64/64/64 66/66/66 1/1/1
f 64/64/64 1/1/1 4/4/4
f 65/65/65 64/64/64 4/4/4
f 65/65/65 4/4/4 9/9/9
f 67/67/67 68/68/68 69/69/69
f 67/67/67 69/69/69 70/70/70
f 68/68/68 71/71/71 72/72/72
f 68/68/68 72/72/72 69/69/69
f 69/69/69 72/72/72 32/32/32
f 69/69/69 32/32/32 29/29/29
f 70/70/70 69/69/69 29/29/29
f 70/70/70 29/29/29 28/28/28
f 45/45/45 44/44/44 73/73/73
f 45/45/45 73/73/73 74/74/74
f 44/44/44 43/43/43 75/75/75
f 44/44/44 75/75/75 73/73/73
f 73/73/73 75/75/75 76/76/76
f 73/73/73 76/76/76 77/77/77
f 74/74/74 73/73/73 77/77/77
f 74/74/74 77/77/77 78/78/78
f 18/18/18 17/17/17 79/79/79
f 18/18/18 79/79/79 80/80/80
f 17/17/17 16/16/16 81/81/81
f 17/17/17 81/81/81 79/79/79
f 79/79/79 81/81/81 82/82/82
f 79/79/79 82/82/82 83/83/83
f 80/80/80 79/79/79 83/83/83
f 80/80/80 83/83/83 84/84/84
f 85/85/85 86/86/86 87/87/87
f 85/85/85 87/87/87 88/88/88
f 86/86/86 50/50/50 47/47/47
f 86/86/86 47/47/47 87/87/87
f 87/87/87 47/47/47 46/46/46
f 87/87/87 46/46/46 89/89/89
f 88/88/88 87/87/87 89/89/89
f 88/88/88 89/89/89 90/90/90
f 91/91/91 92/92/92 93/93/93
f 91/91/91 93/93/93 94/94/94
f 92/92/92 95/95/95 96/96/96
f 92/92/92 96/96/96 93/93/93
f 93/93/93 96/96/96 97/97/97
f 93/93/93 97/97/97 98/98/98
f 94/94/94 93/93/93 98/98/98
f 94/94/94 98/98/98 99/99/99
f 100/100/100 101/101/101 102/102/102
f 100/100/100 102/102/102 103/103/103
f 101/101/101 104/104/104 105/105/105
f 101/101/101 105/105/105 102/102/102
f 102/102/102 105/105/105 106/106/106
f 102/102/102 106/106/106 107/107/107
f 103/103/103 102/102/102 107/107/107
f 103/103/103 107/107/107 108/108/108
f 109/109/109 110/110/110 111/111/111
f 109/109/109 111/111/111 112/112/112
f 110/110/110 113/113/113 114/114/114
f 110/110/110 114/114/114 111/111/111
f 111/111/111 114/114/114 115/115/115
f 111/111/111 115/115/115 116/116/116
f 112/112/112 111/111/111 116/116/116
f 112/112/112 116/116/116 117/117/117
f 118/118/118 119/119/119 120/120/120
f 118/118/118 120/120/120 121/121/121
f 119/119/119 122/122/122 123/123/123
f 119/119/119 123/123/123 120/120/120
f 120/120/120 123/123/123 124/124/124
f 120/120/120 124/124/124 125/125/125
f 121/121/121 120/120/120 125/125/125
f 121/121/121 125/125/125 126/126/126
f 127/127/127 128/128/128 129/129/129
f 127/127/127 129/129/129 130/130/130
f 128/128/128 131/131/131 132/132/132
f 128/128/128 132/132/132 129/129/129
f 129/129/129 132/132/132 133/133/133
f 129/129/129 133/133/133 134/134/134
f 130/130/130 129/129/129 134/134/134
f 130/130/130 134/134/134 135/135/135
f 136/136/136 137/137/137 138/138/138
f 136/136/136 138/138/138 139/139/139
f 137/137/137 140/140/140 141/141/141
f 137/137/137 141/141/141 138/138/138
f 138/138/138 141/141/141 142/142/142
f 138/138/138 142/142/142 143/143/143
f 139/139/139 138/138/138 143/143/143
f 139/139/139 143/143/143 144/144/144
f 95/95/95 145/145/145 146/146/146
f 95/95/95 146/146/146 96/96/96
f 145/145/145 100/100/100 103/103/103
f 145/145/145 103/103/103 146/146/146
f 146/146/146 103/103/103 108/108/108
f 146/146/146 108/108/108 147/147/147
f 96/96/96 146/146/146 147/147/147
f 96/96/96 147/147/147 97/97/97
f 99/99/99 98/98/98 148/148/148
f 99/99/99 148/148/148 149/149/149
f 98/98/98 97/97/97 150/150/150
f 98/98/98 150/150/150 148/148/148
f 148/148/148 150/150/150 127/127/127
f 148/148/148 127/127/127 130/130/130
f 149/149/149 148/148/148 130/130/130
f 149/149/149 130/130/130 135/135/135
f 122/122/122 151/151/151 152/152/152
f 122/122/122 152/152/152 123/123/123
f 151/151/151 91/91/91 94/94/94
f 151/151/151 94/94/94 152/152/152
f 152/152/152 94/94/94 99/99/99
f 152/152/152 99/99/99 153/153/153
f 123/123/123 152/152/152 153/153/153
f 123/123/123 153/153/153 124/124/124
f 140/140/140 154/154/154 155/155/155
f 140/140/140 155/155/155 141/141/141
f 154/154/154 95/95/95 92/92/92
f 154/154/154 92/92/92 155/155/155
f 155/155/155 92/92/92 91/91/91
f 155/155/155 91/91/91 156/156/156
f 141/141/141 155/155/155 156/156/156
f 141/141/141 156/156/156 142/142/142
f 157/157/157 158/158/158 159/159/159
f 157/157/157 159/159/159 160/160/160
f 158/158/158 118/118/118 121/121/121
f 158/158/158 121/121/121 159/159/159
f 159/159/159 121/121/121 126/126/126
f 159/159/159 126/126/126 161/161/161
f 160/160/160 159/159/159 161/161/161
f 160/160/160 161/161/161 162/162/162
f 131/131/131 163/163/163 164/164/164
f 131/131/131 164/164/164 132/132/132
f 163/163/163 165/165/165 166/166/166
f 163/163/163 166/166/166 164/164/164
f 164/164/164 166/166/166 167/167/167
f 164/164/164 167/167/167 168/168/168
f 132/132/132 164/164/164 168/168/168
f 132/132/132 168/168/168 133/133/133
f 104/104/104 169/169/169 170/170/170
f 104/104/104 170/170/170 105/105/105
f 169/169/169 171/171/171 172/172/172
f 169/169/169 172/172/172 170/170/170
f 170/170/170 172/172/172 173/173/173
f 170/170/170 173/173/173 174/174/174
f 105/105/105 170/170/170 174/174/174
f 105/105/105 174/174/174 106/106/106
f 175/175/175 176/176/176 177/177/177
f 175/175/175 177/177/177 178/178/178
f 176/176/176 179/179/179 180/180/180
f 176/176/176 180/180/180 177/177/177
f 177/177/177 180/180/180 136/136/136
f 177/177/177 136/136/136 139/139/139
f 178/178/178 177/177/177 139/139/139
f 178/178/178 139/139/139 144/144/144
