# ship_plaque01_ship_plaque1_01_0_31
v -0.740827 0.221216 0.173097
v -0.740657 0.221309 0.173067
v -0.745652 0.228838 0.155464
v -0.745822 0.228746 0.155494
v -0.734678 0.220506 0.172013
v -0.739673 0.228036 0.154410
v -0.745080 0.233055 0.130896
v -0.751059 0.233858 0.131950
v -0.751229 0.233765 0.131980
v -0.753224 0.221782 0.132331
v -0.747816 0.216762 0.155846
v -0.747030 0.221613 0.155707
v -0.752437 0.226633 0.132193
v -0.742821 0.209233 0.173449
v -0.742035 0.214083 0.173310
v -0.741244 0.218958 0.173171
v -0.746240 0.226487 0.155568
v -0.751647 0.231507 0.132053
v -0.747401 0.218742 0.131305
v -0.741994 0.213723 0.154819
v -0.747973 0.214525 0.155873
v -0.753380 0.219545 0.132359
v -0.736999 0.206193 0.172422
v -0.742977 0.206996 0.173477
v -0.743115 0.207105 0.173501
v -0.748110 0.214635 0.155898
v -0.753517 0.219654 0.132383
v -0.704068 0.225119 0.123664
v -0.698661 0.220100 0.147178
v -0.699451 0.215225 0.147318
v -0.704858 0.220245 0.123803
v -0.693666 0.212570 0.164782
v -0.694456 0.207695 0.164921
v -0.695243 0.202845 0.165060
v -0.700238 0.210374 0.147456
v -0.705645 0.215394 0.123942
v -0.756443 0.216441 0.083106
v -0.756315 0.216421 0.082945
v -0.757105 0.211546 0.083084
v -0.757233 0.211566 0.083245
v -0.750336 0.215618 0.081890
v -0.751127 0.210743 0.082030
v -0.751913 0.205893 0.082168
v -0.757892 0.206696 0.083223
v -0.758020 0.206716 0.083384
v -0.740993 0.206716 0.179945
v -0.740822 0.206696 0.180030
v -0.740035 0.211546 0.179892
v -0.740207 0.211566 0.179806
v -0.734843 0.205893 0.178976
v -0.734057 0.210743 0.178838
v -0.733266 0.215618 0.178698
v -0.739245 0.216421 0.179752
v -0.739416 0.216441 0.179667
v -0.754600 0.226487 0.108153
v -0.755391 0.221613 0.108292
v -0.755919 0.218958 0.089947
v -0.756709 0.214083 0.090087
v -0.757496 0.209233 0.090225
v -0.756177 0.216762 0.108431
v -0.751673 0.206193 0.089199
v -0.750355 0.213723 0.107404
v -0.756333 0.214525 0.108458
v -0.757652 0.206996 0.090253
v -0.756470 0.214635 0.108482
v -0.757789 0.207105 0.090277
v -0.708340 0.212570 0.081558
v -0.707022 0.220100 0.099763
v -0.707812 0.215225 0.099903
v -0.709131 0.207695 0.081697
v -0.708598 0.210374 0.100041
v -0.709917 0.202845 0.081836
v -0.754013 0.228838 0.108049
v -0.754182 0.228746 0.108079
v -0.748034 0.228036 0.106995
v -0.749353 0.220506 0.088789
v -0.755331 0.221309 0.089844
v -0.755501 0.221216 0.089874
v -0.693535 0.200344 0.171577
v -0.693525 0.200335 0.171227
v -0.692738 0.205185 0.171088
v -0.692748 0.205195 0.171438
v -0.691948 0.210060 0.170949
v -0.691958 0.210069 0.171299
v -0.741302 0.204659 0.179909
v -0.741397 0.204595 0.179668
v -0.741259 0.204486 0.179644
v -0.741186 0.204575 0.179979
v -0.743115 0.207105 0.173501
v -0.742977 0.206996 0.173477
v -0.736999 0.206193 0.172422
v -0.735281 0.203683 0.178590
v -0.735207 0.203772 0.178925
v -0.739526 0.216448 0.179338
v -0.740317 0.211573 0.179478
v -0.741103 0.206723 0.179617
v -0.732919 0.217883 0.178521
v -0.732960 0.217996 0.178181
v -0.738939 0.218799 0.179235
v -0.738898 0.218686 0.179575
v -0.739109 0.218706 0.179265
v -0.739040 0.218613 0.179510
v -0.757999 0.206723 0.083797
v -0.757212 0.211573 0.083659
v -0.756422 0.216448 0.083519
v -0.752233 0.203772 0.082364
v -0.752176 0.203683 0.082771
v -0.758155 0.204486 0.083825
v -0.758212 0.204575 0.083418
v -0.751673 0.206193 0.089199
v -0.757652 0.206996 0.090253
v -0.757789 0.207105 0.090277
v -0.758292 0.204595 0.083849
v -0.758294 0.204659 0.083541
v -0.708984 0.210069 0.074738
v -0.708843 0.210060 0.075130
v -0.709634 0.205185 0.075269
v -0.709775 0.205195 0.074877
v -0.710420 0.200335 0.075408
v -0.710561 0.200344 0.075016
v -0.755834 0.218799 0.083416
v -0.756004 0.218706 0.083446
v -0.749856 0.217996 0.082362
v -0.749945 0.217883 0.081960
v -0.755924 0.218686 0.083015
v -0.756032 0.218613 0.083142
v -0.739214 0.218374 0.179283
v -0.739104 0.218367 0.179612
v -0.740932 0.220884 0.173116
v -0.745927 0.228414 0.155513
v -0.751334 0.233433 0.131998
v -0.754288 0.228414 0.108098
v -0.755607 0.220884 0.089892
v -0.756110 0.218374 0.083464
v -0.756130 0.218367 0.083051
v -0.750024 0.217544 0.081835
v -0.756003 0.218347 0.082890
v -0.708043 0.214844 0.081505
v -0.708028 0.214496 0.081503
v -0.708531 0.211986 0.075075
v -0.708546 0.212334 0.075077
v -0.708672 0.211996 0.074683
v -0.708667 0.212254 0.074790
v -0.703770 0.227394 0.123612
v -0.703756 0.227045 0.123609
v -0.706709 0.222026 0.099708
v -0.706724 0.222374 0.099711
v -0.693368 0.214844 0.164729
v -0.693353 0.214496 0.164727
v -0.698349 0.222026 0.147123
v -0.698363 0.222374 0.147126
v -0.691635 0.211986 0.170894
v -0.691646 0.211996 0.171243
v -0.691650 0.212334 0.170897
v -0.691675 0.212254 0.171158
v -0.738933 0.218347 0.179697
v -0.732954 0.217544 0.178643
v -0.693937 0.198300 0.171557
v -0.693938 0.198223 0.171300
v -0.693825 0.198481 0.171280
v -0.693835 0.198490 0.171630
v -0.695656 0.200733 0.165133
v -0.695543 0.200991 0.165113
v -0.700538 0.208520 0.147509
v -0.705946 0.213540 0.123995
v -0.700651 0.208263 0.147529
v -0.706058 0.213283 0.124015
v -0.708899 0.208520 0.100094
v -0.710218 0.200991 0.081889
v -0.709012 0.208263 0.100114
v -0.710331 0.200733 0.081909
v -0.710721 0.198481 0.075461
v -0.710862 0.198490 0.075069
v -0.710834 0.198223 0.075481
v -0.710929 0.198300 0.075189
v -0.758192 0.204842 0.083276
v -0.758320 0.204862 0.083437
v -0.752214 0.204039 0.082221
v -0.757796 0.207379 0.090278
v -0.758299 0.204869 0.083850
v -0.756478 0.214908 0.108484
v -0.753524 0.219928 0.132384
v -0.756470 0.214635 0.108482
v -0.753517 0.219654 0.132383
v -0.743122 0.207379 0.173502
v -0.748117 0.214908 0.155899
v -0.748110 0.214635 0.155898
v -0.741404 0.204869 0.179670
v -0.741294 0.204862 0.179998
v -0.735144 0.204039 0.179029
v -0.741123 0.204842 0.180083
v -0.697836 0.213173 0.172335
v -0.697877 0.213286 0.171995
v -0.715428 0.215642 0.175089
v -0.715387 0.215529 0.175430
v -0.699595 0.215796 0.165827
v -0.717146 0.218152 0.168922
v -0.722141 0.225682 0.151319
v -0.727549 0.230702 0.127804
v -0.704590 0.223325 0.148224
v -0.709997 0.228345 0.124710
v -0.730502 0.225682 0.103903
v -0.731821 0.218152 0.085698
v -0.712951 0.223325 0.100809
v -0.714270 0.215796 0.082603
v -0.732324 0.215642 0.079270
v -0.732413 0.215529 0.078869
v -0.714773 0.213286 0.076175
v -0.714862 0.213173 0.075774
v -0.714941 0.212834 0.075649
v -0.732492 0.215190 0.078744
v -0.715253 0.210908 0.075704
v -0.732804 0.213264 0.078799
v -0.733595 0.208390 0.078938
v -0.734381 0.203539 0.079077
v -0.716044 0.206033 0.075844
v -0.716830 0.201183 0.075982
v -0.734682 0.201685 0.079130
v -0.734701 0.201418 0.079273
v -0.717131 0.199329 0.076035
v -0.717150 0.199062 0.076178
v -0.717093 0.198973 0.076585
v -0.734644 0.201329 0.079679
v -0.716590 0.201483 0.083013
v -0.734141 0.203839 0.086107
v -0.716590 0.201483 0.083013
v -0.715272 0.209012 0.101218
v -0.732823 0.211369 0.104313
v -0.734141 0.203839 0.086107
v -0.712318 0.214032 0.125119
v -0.729869 0.216389 0.128213
v -0.706911 0.209012 0.148633
v -0.724462 0.211369 0.151728
v -0.701916 0.201483 0.166236
v -0.719467 0.203839 0.169331
v -0.717749 0.201329 0.175499
v -0.717675 0.201418 0.175833
v -0.719467 0.203839 0.169331
v -0.701916 0.201483 0.166236
v -0.700198 0.198973 0.172404
v -0.700124 0.199062 0.172738
v -0.700061 0.199329 0.172843
v -0.717612 0.201685 0.175938
v -0.699760 0.201183 0.172790
v -0.717311 0.203539 0.175885
v -0.716525 0.208390 0.175746
v -0.715734 0.213264 0.175607
v -0.698974 0.206033 0.172651
v -0.698183 0.210908 0.172512
v -0.715422 0.215190 0.175552
v -0.697871 0.212834 0.172457
v -0.691841 0.212476 0.170930
v -0.691800 0.212363 0.171271
v -0.693559 0.214985 0.164763
v -0.698554 0.222515 0.147160
v -0.703961 0.227535 0.123645
v -0.706915 0.222515 0.099744
v -0.708233 0.214985 0.081539
v -0.708736 0.212476 0.075111
v -0.708826 0.212363 0.074710
v -0.708905 0.212024 0.074585
v -0.709217 0.210097 0.074640
v -0.710007 0.205223 0.074779
v -0.710794 0.200372 0.074918
v -0.711094 0.198518 0.074971
v -0.711114 0.198251 0.075113
v -0.710554 0.200672 0.081948
v -0.711057 0.198163 0.075520
v -0.706058 0.213283 0.124015
v -0.706282 0.213222 0.124054
v -0.709235 0.208202 0.100154
v -0.709012 0.208263 0.100114
v -0.710554 0.200672 0.081948
v -0.710331 0.200733 0.081909
v -0.695656 0.200733 0.165133
v -0.695880 0.200672 0.165172
v -0.700875 0.208202 0.147569
v -0.700651 0.208263 0.147529
v -0.694162 0.198163 0.171339
v -0.694088 0.198251 0.171674
v -0.695880 0.200672 0.165172
v -0.694025 0.198518 0.171779
v -0.693724 0.200372 0.171726
v -0.692938 0.205223 0.171587
v -0.692147 0.210097 0.171448
v -0.691835 0.212024 0.171393
vt 0.656062 0.818251
vt 0.655359 0.816786
vt 0.586497 0.811455
vt 0.586875 0.812865
vt 0.654832 0.790616
vt 0.586456 0.785285
vt 0.495538 0.780718
vt 0.494945 0.806870
vt 0.494917 0.808200
vt 0.493096 0.889867
vt 0.703592 0.886341
vt 0.654322 0.856990
vt 0.493837 0.856824
vt 0.861751 0.877157
vt 0.775005 0.854228
vt 0.689182 0.830984
vt 0.605600 0.827275
vt 0.494583 0.823393
vt 0.477634 0.215805
vt 0.353872 0.218593
vt 0.353753 0.234138
vt 0.477515 0.231350
vt 0.229952 0.240137
vt 0.229948 0.240663
vt 0.229944 0.241188
vt 0.353749 0.234663
vt 0.477554 0.228138
vt 0.499951 0.586110
vt 0.605468 0.593291
vt 0.656963 0.574164
vt 0.500558 0.557891
vt 0.684771 0.602523
vt 0.774219 0.596235
vt 0.864734 0.590456
vt 0.709070 0.555573
vt 0.501152 0.530211
vt 0.270269 0.820143
vt 0.269556 0.819113
vt 0.171270 0.835087
vt 0.171782 0.836292
vt 0.271113 0.791237
vt 0.172575 0.804435
vt 0.073292 0.817634
vt 0.072183 0.850990
vt 0.072397 0.852318
vt 0.915179 0.871431
vt 0.915442 0.870189
vt 0.817098 0.849827
vt 0.816569 0.850939
vt 0.915841 0.836771
vt 0.817167 0.819102
vt 0.719253 0.801408
vt 0.719549 0.829343
vt 0.718832 0.830278
vt 0.383642 0.822454
vt 0.333620 0.849963
vt 0.300130 0.822477
vt 0.213320 0.841847
vt 0.125585 0.860868
vt 0.283058 0.877081
vt 0.724828 0.243936
vt 0.601310 0.220492
vt 0.601191 0.236037
vt 0.724824 0.244462
vt 0.601187 0.236562
vt 0.724820 0.244987
vt 0.314689 0.593921
vt 0.394281 0.588348
vt 0.343649 0.566887
vt 0.225588 0.583569
vt 0.292378 0.545938
vt 0.135397 0.573677
vt 0.403409 0.807484
vt 0.402976 0.808880
vt 0.404627 0.781305
vt 0.336218 0.783642
vt 0.334513 0.809839
vt 0.333743 0.811276
vt 0.916976 0.605057
vt 0.916746 0.603295
vt 0.813683 0.604635
vt 0.814275 0.606151
vt 0.711802 0.606436
vt 0.712678 0.607672
vt 0.957523 0.880932
vt 0.959023 0.882496
vt 0.961677 0.881492
vt 0.959237 0.880210
vt 0.960681 0.885490
vt 0.962381 0.882500
vt 0.964081 0.879510
vt 0.962828 0.846106
vt 0.959951 0.845405
vt 0.717818 0.831405
vt 0.815813 0.852309
vt 0.914781 0.872970
vt 0.679842 0.792729
vt 0.678121 0.792318
vt 0.678823 0.818414
vt 0.680514 0.818895
vt 0.679691 0.819734
vt 0.681030 0.819892
vt 0.072781 0.854112
vt 0.172586 0.837918
vt 0.271400 0.821486
vt 0.028856 0.824377
vt 0.025780 0.825002
vt 0.025411 0.860474
vt 0.027981 0.859175
vt 0.022736 0.858330
vt 0.024564 0.861593
vt 0.026392 0.864857
vt 0.028084 0.861660
vt 0.029659 0.860021
vt 0.286340 0.598114
vt 0.287405 0.596744
vt 0.185729 0.590353
vt 0.184980 0.592063
vt 0.082858 0.584350
vt 0.082513 0.586346
vt 0.310880 0.810479
vt 0.309908 0.811761
vt 0.312805 0.784324
vt 0.310930 0.784613
vt 0.308994 0.810844
vt 0.308444 0.811800
vt 0.682567 0.822305
vt 0.683473 0.821505
vt 0.658435 0.820988
vt 0.588180 0.815353
vt 0.494869 0.810447
vt 0.401574 0.811314
vt 0.331276 0.813888
vt 0.306961 0.814098
vt 0.305894 0.813183
vt 0.307132 0.785774
vt 0.305342 0.812377
vt 0.348320 0.601766
vt 0.346272 0.599304
vt 0.323509 0.600529
vt 0.325938 0.602641
vt 0.322477 0.601399
vt 0.324606 0.602611
vt 0.499667 0.599279
vt 0.499714 0.597144
vt 0.412211 0.597308
vt 0.413346 0.599642
vt 0.650833 0.608849
vt 0.652989 0.606473
vt 0.587171 0.601417
vt 0.585930 0.603689
vt 0.675576 0.608658
vt 0.676442 0.609470
vt 0.673071 0.610735
vt 0.674310 0.610696
vt 0.684055 0.820785
vt 0.683516 0.794188
vt 0.961099 0.604503
vt 0.962803 0.602884
vt 0.956519 0.602456
vt 0.956528 0.604543
vt 0.964879 0.599350
vt 0.899719 0.588032
vt 0.729203 0.549055
vt 0.501348 0.520793
vt 0.733349 0.548575
vt 0.501818 0.497799
vt 0.272531 0.538514
vt 0.100541 0.569674
vt 0.268395 0.537852
vt 0.034972 0.577905
vt 0.043171 0.581730
vt 0.043056 0.584067
vt 0.036842 0.581905
vt 0.038486 0.583759
vt 0.033996 0.857517
vt 0.034080 0.858905
vt 0.035040 0.823101
vt 0.091663 0.868408
vt 0.034244 0.860782
vt 0.263509 0.887045
vt 0.492826 0.901648
vt 0.259466 0.888433
vt 0.492541 0.912008
vt 0.895270 0.886210
vt 0.722654 0.897174
vt 0.726611 0.898749
vt 0.952954 0.881344
vt 0.953155 0.879694
vt 0.953862 0.843916
vt 0.953324 0.878379
vt 0.674917 0.638050
vt 0.673287 0.638433
vt 0.675743 0.715415
vt 0.677430 0.715428
vt 0.651056 0.636830
vt 0.652988 0.713764
vt 0.586159 0.708523
vt 0.497281 0.704004
vt 0.585808 0.631676
vt 0.499027 0.627206
vt 0.408382 0.704520
vt 0.341485 0.706749
vt 0.412198 0.627652
vt 0.346842 0.629780
vt 0.318612 0.707369
vt 0.316802 0.707301
vt 0.324482 0.630352
vt 0.322748 0.629937
vt 0.319270 0.629100
vt 0.313089 0.707464
vt 0.282812 0.627408
vt 0.276790 0.709356
vt 0.177219 0.714473
vt 0.076875 0.719755
vt 0.182135 0.624427
vt 0.080596 0.621760
vt 0.038256 0.722142
vt 0.032001 0.722831
vt 0.041552 0.621010
vt 0.035316 0.621041
vt 0.032205 0.620717
vt 0.028748 0.723019
vt 0.031257 0.587583
vt 0.026996 0.722956
vt 0.725758 0.122729
vt 0.602010 0.129274
vt 0.601660 0.174908
vt 0.725293 0.183333
vt 0.478334 0.124587
vt 0.477984 0.170221
vt 0.354572 0.127375
vt 0.354222 0.173009
vt 0.230882 0.118930
vt 0.230417 0.179534
vt 0.964388 0.744113
vt 0.961351 0.743783
vt 0.965855 0.744126
vt 0.967628 0.608742
vt 0.965523 0.641772
vt 0.962582 0.641892
vt 0.956398 0.641540
vt 0.955175 0.742822
vt 0.917308 0.640506
vt 0.916644 0.738702
vt 0.816543 0.728892
vt 0.717229 0.719281
vt 0.815650 0.638586
vt 0.714857 0.637068
vt 0.681059 0.715755
vt 0.678360 0.637242
vt 0.672352 0.612100
vt 0.673941 0.611652
vt 0.650263 0.610413
vt 0.585604 0.605253
vt 0.499630 0.600798
vt 0.413597 0.601225
vt 0.348815 0.603355
vt 0.326593 0.604012
vt 0.324907 0.603553
vt 0.321732 0.602334
vt 0.285402 0.599332
vt 0.184252 0.593522
vt 0.082117 0.588053
vt 0.042834 0.586072
vt 0.036707 0.585509
vt 0.033115 0.582744
vt 0.034045 0.584290
vt 0.478503 0.104431
vt 0.478455 0.108893
vt 0.602131 0.113580
vt 0.602136 0.112855
vt 0.725764 0.122004
vt 0.725769 0.121279
vt 0.230893 0.117480
vt 0.230888 0.118205
vt 0.354693 0.111680
vt 0.354698 0.110956
vt 0.965399 0.605342
vt 0.962789 0.606282
vt 0.966254 0.604046
vt 0.956668 0.606509
vt 0.917291 0.606710
vt 0.814912 0.607570
vt 0.713519 0.608874
vt 0.677095 0.610406
vn -0.669838 0.599090 0.438644
vn -0.095943 0.908461 0.406809
vn -0.118019 0.939372 0.321951
vn -0.686470 0.624863 0.371894
vn 0.183075 0.924503 0.334333
vn 0.173015 0.950710 0.257325
vn 0.129056 0.991372 -0.022941
vn -0.179394 0.983275 0.031443
vn -0.738580 0.661500 0.130071
vn -0.971739 0.162455 0.171263
vn -0.942333 0.161177 0.293308
vn -0.942333 0.161177 0.293309
vn -0.971739 0.162456 0.171263
vn -0.930766 0.160310 0.328596
vn -0.930766 0.160310 0.328596
vn -0.930766 0.160310 0.328596
vn -0.942333 0.161177 0.293308
vn -0.971739 0.162456 0.171263
vn -0.129056 -0.991372 0.022941
vn -0.173015 -0.950710 -0.257325
vn -0.423800 -0.888576 -0.175576
vn -0.402033 -0.912864 0.071049
vn -0.184019 -0.921523 -0.341954
vn -0.386293 -0.882611 -0.267910
vn -0.632228 -0.760891 -0.146056
vn -0.629564 -0.773360 -0.074582
vn -0.608061 -0.786602 0.107328
vn 0.971739 -0.162456 -0.171263
vn 0.942333 -0.161177 -0.293308
vn 0.942333 -0.161177 -0.293309
vn 0.971739 -0.162456 -0.171263
vn 0.930766 -0.160310 -0.328596
vn 0.930766 -0.160310 -0.328596
vn 0.930766 -0.160311 -0.328596
vn 0.942333 -0.161177 -0.293309
vn 0.971739 -0.162456 -0.171263
vn -0.940171 0.143608 -0.308959
vn -0.506133 0.057462 -0.860539
vn -0.506125 0.057461 -0.860544
vn -0.940169 0.143607 -0.308965
vn -0.173648 0.000000 -0.984808
vn -0.173648 0.000000 -0.984808
vn -0.173648 0.000000 -0.984808
vn -0.506128 0.057462 -0.860542
vn -0.940169 0.143607 -0.308964
vn -0.742131 0.139076 0.655667
vn -0.138086 0.050669 0.989123
vn -0.138087 0.050669 0.989123
vn -0.742132 0.139076 0.655666
vn 0.173648 0.000000 0.984808
vn 0.173648 0.000000 0.984808
vn 0.173648 0.000000 0.984808
vn -0.138078 0.050667 0.989124
vn -0.742125 0.139075 0.655674
vn -0.985835 0.161171 0.046393
vn -0.985835 0.161171 0.046393
vn -0.987015 0.160319 0.009910
vn -0.987015 0.160319 0.009910
vn -0.987015 0.160319 0.009910
vn -0.985835 0.161171 0.046393
vn -0.055786 -0.921209 0.385048
vn -0.074447 -0.950538 0.301554
vn -0.338084 -0.888439 0.310445
vn -0.271086 -0.882386 0.384587
vn -0.565990 -0.773300 0.285766
vn -0.543961 -0.760760 0.354049
vn 0.987015 -0.160319 -0.009911
vn 0.985835 -0.161171 -0.046393
vn 0.985835 -0.161171 -0.046393
vn 0.987015 -0.160319 -0.009910
vn 0.985835 -0.161171 -0.046393
vn 0.987015 -0.160320 -0.009910
vn -0.221081 0.939192 -0.262759
vn -0.772251 0.624784 -0.115207
vn 0.074447 0.950538 -0.301554
vn 0.057841 0.924768 -0.376109
vn -0.229215 0.908713 -0.348857
vn -0.779612 0.599097 -0.182448
vn 0.881713 -0.129996 0.453524
vn 0.975511 -0.162411 -0.148327
vn 0.975511 -0.162411 -0.148329
vn 0.881717 -0.129997 0.453515
vn 0.975511 -0.162411 -0.148330
vn 0.881717 -0.129997 0.453516
vn -0.772752 -0.391141 0.499863
vn -0.831524 -0.511714 0.216141
vn -0.376195 -0.925444 0.045071
vn -0.308525 -0.663134 0.681957
vn -0.951672 -0.262369 0.159631
vn -0.451962 -0.863103 -0.225351
vn -0.182119 -0.927419 -0.326689
vn -0.137930 -0.990035 -0.028403
vn 0.016207 -0.749081 0.662280
vn -0.933483 0.160525 0.320687
vn -0.933484 0.160525 0.320685
vn -0.933484 0.160525 0.320686
vn 0.214092 0.700422 0.680862
vn 0.179832 0.934002 0.308708
vn -0.096351 0.926529 0.363677
vn -0.124711 0.707398 0.695727
vn -0.692006 0.596651 0.406369
vn -0.698603 0.506170 0.505712
vn -0.986502 0.160833 0.030779
vn -0.986502 0.160833 0.030782
vn -0.986502 0.160833 0.030780
vn -0.208383 -0.783818 -0.584983
vn -0.116365 -0.988844 0.092990
vn -0.353144 -0.928422 0.115418
vn -0.529814 -0.682501 -0.503477
vn -0.059889 -0.928238 0.367133
vn -0.347979 -0.863745 0.364492
vn -0.948757 -0.262881 0.175366
vn -0.857510 -0.500303 0.119888
vn -0.917925 -0.362243 -0.161844
vn 0.712943 -0.135269 -0.688051
vn 0.970455 -0.162451 -0.178399
vn 0.970455 -0.162451 -0.178399
vn 0.712942 -0.135268 -0.688052
vn 0.970455 -0.162452 -0.178401
vn 0.712945 -0.135270 -0.688050
vn -0.213420 0.934250 -0.285706
vn -0.787172 0.605255 -0.118436
vn 0.068874 0.942499 -0.327035
vn -0.019957 0.737673 -0.674863
vn -0.362225 0.736816 -0.570873
vn -0.820927 0.536757 -0.194863
vn -0.913848 0.230416 0.334350
vn -0.712079 0.261943 0.651406
vn -0.907508 0.230402 0.351204
vn -0.920139 0.236209 0.312330
vn -0.955099 0.243839 0.168313
vn -0.971479 0.236207 0.020873
vn -0.972916 0.230360 -0.019190
vn -0.974302 0.224497 0.018371
vn -0.906958 0.268485 -0.324565
vn -0.146195 0.186918 -0.971436
vn -0.464594 0.224117 -0.856694
vn 0.851677 0.461394 -0.248521
vn 0.996918 -0.059759 -0.050835
vn 0.978285 -0.072303 -0.194245
vn 0.851758 0.425827 -0.305253
vn 0.708256 0.053096 -0.703956
vn 0.724024 0.358629 -0.589215
vn 0.840851 0.520544 -0.148336
vn 0.983738 -0.046812 -0.173403
vn 0.995146 -0.053647 -0.082500
vn 0.838631 0.488059 -0.241862
vn 0.885179 0.461724 -0.057171
vn 0.954135 -0.059651 -0.293374
vn 0.963400 -0.053664 -0.262643
vn 0.870772 0.488037 -0.059797
vn 0.988023 -0.072464 -0.136232
vn 0.890252 0.018601 0.455088
vn 0.900191 0.433398 0.042677
vn 0.860474 0.398220 0.317812
vn -0.108453 0.195237 0.974741
vn 0.192042 0.158393 0.968520
vn 0.695547 -0.629415 0.346482
vn 0.623047 -0.769827 -0.138485
vn 0.937938 -0.307737 -0.159906
vn 0.821978 -0.334283 0.461093
vn 0.662146 -0.609422 -0.436082
vn 0.887185 -0.280264 -0.366546
vn 0.906278 -0.276685 -0.319541
vn 0.947501 -0.272694 -0.166971
vn 0.846194 -0.398614 -0.353642
vn 0.899589 -0.406967 -0.158486
vn 0.960923 -0.276658 -0.009348
vn 0.959024 -0.280397 0.040636
vn 0.916104 -0.398588 0.043377
vn 0.771253 -0.609952 0.182011
vn 0.943245 -0.298306 -0.145952
vn 0.659842 -0.322996 -0.678441
vn 0.630704 -0.774391 -0.050303
vn 0.549335 -0.684349 -0.479476
vn -0.512250 -0.157104 -0.844345
vn -0.946895 -0.026454 -0.320452
vn -0.198884 -0.230281 -0.952584
vn -0.996601 0.066542 0.048559
vn -0.996890 0.056752 0.054670
vn -0.994654 0.072861 0.073174
vn -0.981651 0.080149 0.173024
vn -0.994458 -0.026810 0.101661
vn -0.984460 -0.026885 0.173538
vn -0.953000 0.066629 0.295554
vn -0.959762 0.072847 0.271202
vn -0.969298 -0.026815 0.244421
vn -0.951755 0.056606 0.301593
vn -0.745943 -0.019053 0.665737
vn 0.144573 -0.196763 0.969733
vn -0.150943 -0.135231 0.979249
vn 0.214092 0.700424 0.680861
vn 0.179832 0.934002 0.308707
vn 0.179832 0.934001 0.308710
vn 0.214092 0.700424 0.680860
vn 0.183075 0.924503 0.334333
vn 0.183075 0.924503 0.334333
vn 0.173015 0.950710 0.257325
vn 0.129056 0.991372 -0.022941
vn 0.173015 0.950710 0.257325
vn 0.129056 0.991372 -0.022940
vn 0.074446 0.950538 -0.301554
vn 0.057841 0.924768 -0.376109
vn 0.074447 0.950538 -0.301554
vn 0.057841 0.924768 -0.376109
vn 0.068874 0.942499 -0.327034
vn -0.019957 0.737673 -0.674863
vn 0.068874 0.942499 -0.327034
vn -0.019957 0.737674 -0.674862
vn -0.146195 0.186919 -0.971436
vn -0.146195 0.186919 -0.971436
vn -0.173648 0.000000 -0.984808
vn -0.173648 0.000000 -0.984808
vn -0.173648 0.000000 -0.984808
vn -0.173648 0.000000 -0.984808
vn -0.173648 0.000000 -0.984808
vn -0.173648 0.000000 -0.984808
vn -0.198883 -0.230277 -0.952585
vn -0.208383 -0.783816 -0.584986
vn -0.198884 -0.230282 -0.952584
vn -0.208383 -0.783818 -0.584984
vn -0.116365 -0.988844 0.092988
vn -0.116365 -0.988844 0.092990
vn -0.059889 -0.928238 0.367133
vn -0.059889 -0.928238 0.367133
vn -0.055786 -0.921209 0.385048
vn -0.074447 -0.950538 0.301554
vn -0.074447 -0.950538 0.301554
vn -0.055786 -0.921209 0.385048
vn -0.129056 -0.991372 0.022941
vn -0.129056 -0.991372 0.022941
vn -0.173015 -0.950710 -0.257325
vn -0.173015 -0.950710 -0.257325
vn -0.184019 -0.921523 -0.341954
vn -0.184019 -0.921523 -0.341954
vn -0.137929 -0.990035 -0.028401
vn 0.016206 -0.749083 0.662278
vn -0.182119 -0.927419 -0.326689
vn -0.182119 -0.927419 -0.326690
vn -0.137930 -0.990035 -0.028404
vn 0.016206 -0.749082 0.662279
vn 0.144573 -0.196764 0.969733
vn 0.144572 -0.196767 0.969733
vn 0.173648 0.000000 0.984808
vn 0.173648 0.000000 0.984808
vn 0.173648 0.000000 0.984808
vn 0.173648 0.000000 0.984808
vn 0.173648 0.000000 0.984808
vn 0.173648 0.000000 0.984808
vn 0.192042 0.158397 0.968520
vn 0.192042 0.158393 0.968520
vn 0.426234 0.869032 0.251214
vn 0.490682 0.637523 0.593966
vn 0.406455 0.878118 0.252395
vn 0.392852 0.901012 0.183968
vn 0.348655 0.935222 -0.061639
vn 0.306098 0.900887 -0.307743
vn 0.295906 0.878268 -0.375612
vn 0.314480 0.884706 -0.344090
vn 0.284008 0.642280 -0.711910
vn 0.134838 0.144000 -0.980348
vn 0.106064 -0.045596 -0.993313
vn 0.106062 -0.045596 -0.993314
vn 0.106069 -0.045597 -0.993313
vn 0.065750 -0.256822 -0.964220
vn 0.054199 -0.786379 -0.615362
vn 0.115611 -0.928292 0.353422
vn 0.078711 -0.994577 0.067985
vn 0.255122 -0.965871 -0.044789
vn 0.059566 -0.998171 -0.010304
vn 0.111340 -0.951473 0.286885
vn 0.295664 -0.920615 0.255052
vn 0.133887 -0.919149 0.370457
vn 0.302789 -0.888250 0.345443
vn 0.166629 -0.888588 -0.427370
vn -0.000729 -0.919496 -0.393099
vn 0.006631 -0.951669 -0.307054
vn 0.190755 -0.920803 -0.340198
vn 0.053546 -0.995926 -0.072553
vn 0.276521 -0.746207 0.605567
vn -0.012728 -0.927396 -0.373864
vn 0.375646 -0.239066 0.895398
vn 0.404103 -0.039395 0.913865
vn 0.404110 -0.039396 0.913862
vn 0.404109 -0.039396 0.913862
vn 0.415273 0.113271 0.902617
f 1/1/1 2/2/2 3/3/3
f 1/1/1 3/3/3 4/4/4
f 2/2/2 5/5/5 6/6/6
f 2/2/2 6/6/6 3/3/3
f 3/3/3 6/6/6 7/7/7
f 3/3/3 7/7/7 8/8/8
f 4/4/4 3/3/3 8/8/8
f 4/4/4 8/8/8 9/9/9
f 10/10/10 11/11/11 12/12/12
f 10/10/10 12/12/12 13/13/13
f 11/11/11 14/14/14 15/15/15
f 11/11/11 15/15/15 12/12/12
f 12/12/12 15/15/15 16/16/16
f 12/12/12 16/16/16 17/17/17
f 13/13/13 12/12/12 17/17/17
f 13/13/13 17/17/17 18/18/18
f 19/19/19 20/20/20 21/21/21
f 19/19/19 21/21/21 22/22/22
f 20/20/20 23/23/23 24/24/24
f 20/20/20 24/24/24 21/21/21
f 21/21/21 24/24/24 25/25/25
f 21/21/21 25/25/25 26/26/26
f 22/22/22 21/21/21 26/26/26
f 22/22/22 26/26/26 27/27/27
f 28/28/28 29/29/29 30/30/30
f 28/28/28 30/30/30 31/31/31
f 29/29/29 32/32/32 33/33/33
f 29/29/29 33/33/33 30/30/30
f 30/30/30 33/33/33 34/34/34
f 30/30/30 34/34/34 35/35/35
f 31/31/31 30/30/30 35/35/35
f 31/31/31 35/35/35 36/36/36
f 37/37/37 38/38/38 39/39/39
f 37/37/37 39/39/39 40/40/40
f 38/38/38 41/41/41 42/42/42
f 38/38/38 42/42/42 39/39/39
f 39/39/39 42/42/42 43/43/43
f 39/39/39 43/43/43 44/44/44
f 40/40/40 39/39/39 44/44/44
f 40/40/40 44/44/44 45/45/45
f 46/46/46 47/47/47 48/48/48
f 46/46/46 48/48/48 49/49/49
f 47/47/47 50/50/50 51/51/51
f 47/47/47 51/51/51 48/48/48
f 48/48/48 51/51/51 52/52/52
f 48/48/48 52/52/52 53/53/53
f 49/49/49 48/48/48 53/53/53
f 49/49/49 53/53/53 54/54/54
f 18/18/18 55/55/55 56/56/56
f 18/18/18 56/56/56 13/13/13
f 55/55/55 57/57/57 58/58/58
f 55/55/55 58/58/58 56/56/56
f 56/56/56 58/58/58 59/59/59
f 56/56/56 59/59/59 60/60/60
f 13/13/13 56/56/56 60/60/60
f 13/13/13 60/60/60 10/10/10
f 61/61/61 62/62/62 63/63/63
f 61/61/61 63/63/63 64/64/64
f 62/62/62 19/19/19 22/22/22
f 62/62/62 22/22/22 63/63/63
f 63/63/63 22/22/22 27/27/27
f 63/63/63 27/27/27 65/65/65
f 64/64/64 63/63/63 65/65/65
f 64/64/64 65/65/65 66/66/66
f 67/67/67 68/68/68 69/69/69
f 67/67/67 69/69/69 70/70/70
f 68/68/68 28/28/28 31/31/31
f 68/68/68 31/31/31 69/69/69
f 69/69/69 31/31/31 36/36/36
f 69/69/69 36/36/36 71/71/71
f 70/70/70 69/69/69 71/71/71
f 70/70/70 71/71/71 72/72/72
f 9/9/9 8/8/8 73/73/73
f 9/9/9 73/73/73 74/74/74
f 8/8/8 7/7/7 75/75/75
f 8/8/8 75/75/75 73/73/73
f 73/73/73 75/75/75 76/76/76
f 73/73/73 76/76/76 77/77/77
f 74/74/74 73/73/73 77/77/77
f 74/74/74 77/77/77 78/78/78
f 79/79/79 80/80/80 81/81/81
f 79/79/79 81/81/81 82/82/82
f 80/80/80 34/34/34 33/33/33
f 80/80/80 33/33/33 81/81/81
f 81/81/81 33/33/33 32/32/32
f 81/81/81 32/32/32 83/83/83
f 82/82/82 81/81/81 83/83/83
f 82/82/82 83/83/83 84/84/84
f 85/85/85 86/86/86 87/87/87
f 85/85/85 87/87/87 88/88/88
f 86/86/86 89/89/89 90/90/90
f 86/86/86 90/90/90 87/87/87
f 87/87/87 90/90/90 91/91/91
f 87/87/87 91/91/91 92/92/92
f 88/88/88 87/87/87 92/92/92
f 88/88/88 92/92/92 93/93/93
f 54/54/54 94/94/94 95/95/95
f 54/54/54 95/95/95 49/49/49
f 94/94/94 16/16/16 15/15/15
f 94/94/94 15/15/15 95/95/95
f 95/95/95 15/15/15 14/14/14
f 95/95/95 14/14/14 96/96/96
f 49/49/49 95/95/95 96/96/96
f 49/49/49 96/96/96 46/46/46
f 97/97/97 98/98/98 99/99/99
f 97/97/97 99/99/99 100/100/100
f 98/98/98 5/5/5 2/2/2
f 98/98/98 2/2/2 99/99/99
f 99/99/99 2/2/2 1/1/1
f 99/99/99 1/1/1 101/101/101
f 100/100/100 99/99/99 101/101/101
f 100/100/100 101/101/101 102/102/102
f 45/45/45 103/103/103 104/104/104
f 45/45/45 104/104/104 40/40/40
f 103/103/103 59/59/59 58/58/58
f 103/103/103 58/58/58 104/104/104
f 104/104/104 58/58/58 57/57/57
f 104/104/104 57/57/57 105/105/105
f 40/40/40 104/104/104 105/105/105
f 40/40/40 105/105/105 37/37/37
f 106/106/106 107/107/107 108/108/108
f 106/106/106 108/108/108 109/109/109
f 107/107/107 110/110/110 111/111/111
f 107/107/107 111/111/111 108/108/108
f 108/108/108 111/111/111 112/112/112
f 108/108/108 112/112/112 113/113/113
f 109/109/109 108/108/108 113/113/113
f 109/109/109 113/113/113 114/114/114
f 115/115/115 116/116/116 117/117/117
f 115/115/115 117/117/117 118/118/118
f 116/116/116 67/67/67 70/70/70
f 116/116/116 70/70/70 117/117/117
f 117/117/117 70/70/70 72/72/72
f 117/117/117 72/72/72 119/119/119
f 118/118/118 117/117/117 119/119/119
f 118/118/118 119/119/119 120/120/120
f 78/78/78 77/77/77 121/121/121
f 78/78/78 121/121/121 122/122/122
f 77/77/77 76/76/76 123/123/123
f 77/77/77 123/123/123 121/121/121
f 121/121/121 123/123/123 124/124/124
f 121/121/121 124/124/124 125/125/125
f 122/122/122 121/121/121 125/125/125
f 122/122/122 125/125/125 126/126/126
f 102/102/102 101/101/101 127/127/127
f 102/102/102 127/127/127 128/128/128
f 101/101/101 1/1/1 129/129/129
f 101/101/101 129/129/129 127/127/127
f 127/127/127 129/129/129 16/16/16
f 127/127/127 16/16/16 94/94/94
f 128/128/128 127/127/127 94/94/94
f 128/128/128 94/94/94 54/54/54
f 18/18/18 17/17/17 130/130/130
f 18/18/18 130/130/130 131/131/131
f 17/17/17 16/16/16 129/129/129
f 17/17/17 129/129/129 130/130/130
f 130/130/130 129/129/129 1/1/1
f 130/130/130 1/1/1 4/4/4
f 131/131/131 130/130/130 4/4/4
f 131/131/131 4/4/4 9/9/9
f 9/9/9 74/74/74 132/132/132
f 9/9/9 132/132/132 131/131/131
f 74/74/74 78/78/78 133/133/133
f 74/74/74 133/133/133 132/132/132
f 132/132/132 133/133/133 57/57/57
f 132/132/132 57/57/57 55/55/55
f 131/131/131 132/132/132 55/55/55
f 131/131/131 55/55/55 18/18/18
f 37/37/37 105/105/105 134/134/134
f 37/37/37 134/134/134 135/135/135
f 105/105/105 57/57/57 133/133/133
f 105/105/105 133/133/133 134/134/134
f 134/134/134 133/133/133 78/78/78
f 134/134/134 78/78/78 122/122/122
f 135/135/135 134/134/134 122/122/122
f 135/135/135 122/122/122 126/126/126
f 124/124/124 136/136/136 137/137/137
f 124/124/124 137/137/137 125/125/125
f 136/136/136 41/41/41 38/38/38
f 136/136/136 38/38/38 137/137/137
f 137/137/137 38/38/38 37/37/37
f 137/137/137 37/37/37 135/135/135
f 125/125/125 137/137/137 135/135/135
f 125/125/125 135/135/135 126/126/126
f 138/138/138 139/139/139 140/140/140
f 138/138/138 140/140/140 141/141/141
f 139/139/139 67/67/67 116/116/116
f 139/139/139 116/116/116 140/140/140
f 140/140/140 116/116/116 115/115/115
f 140/140/140 115/115/115 142/142/142
f 141/141/141 140/140/140 142/142/142
f 141/141/141 142/142/142 143/143/143
f 144/144/144 145/145/145 146/146/146
f 144/144/144 146/146/146 147/147/147
f 145/145/145 28/28/28 68/68/68
f 145/145/145 68/68/68 146/146/146
f 146/146/146 68/68/68 67/67/67
f 146/146/146 67/67/67 139/139/139
f 147/147/147 146/146/146 139/139/139
f 147/147/147 139/139/139 138/138/138
f 148/148/148 149/149/149 150/150/150
f 148/148/148 150/150/150 151/151/151
f 149/149/149 32/32/32 29/29/29
f 149/149/149 29/29/29 150/150/150
f 150/150/150 29/29/29 28/28/28
f 150/150/150 28/28/28 145/145/145
f 151/151/151 150/150/150 145/145/145
f 151/151/151 145/145/145 144/144/144
f 84/84/84 83/83/83 152/152/152
f 84/84/84 152/152/152 153/153/153
f 83/83/83 32/32/32 149/149/149
f 83/83/83 149/149/149 152/152/152
f 152/152/152 149/149/149 148/148/148
f 152/152/152 148/148/148 154/154/154
f 153/153/153 152/152/152 154/154/154
f 153/153/153 154/154/154 155/155/155
f 54/54/54 53/53/53 156/156/156
f 54/54/54 156/156/156 128/128/128
f 53/53/53 52/52/52 157/157/157
f 53/53/53 157/157/157 156/156/156
f 156/156/156 157/157/157 97/97/97
f 156/156/156 97/97/97 100/100/100
f 128/128/128 156/156/156 100/100/100
f 128/128/128 100/100/100 102/102/102
f 158/158/158 159/159/159 160/160/160
f 158/158/158 160/160/160 161/161/161
f 159/159/159 162/162/162 163/163/163
f 159/159/159 163/163/163 160/160/160
f 160/160/160 163/163/163 34/34/34
f 160/160/160 34/34/34 80/80/80
f 161/161/161 160/160/160 80/80/80
f 161/161/161 80/80/80 79/79/79
f 36/36/36 35/35/35 164/164/164
f 36/36/36 164/164/164 165/165/165
f 35/35/35 34/34/34 163/163/163
f 35/35/35 163/163/163 164/164/164
f 164/164/164 163/163/163 162/162/162
f 164/164/164 162/162/162 166/166/166
f 165/165/165 164/164/164 166/166/166
f 165/165/165 166/166/166 167/167/167
f 72/72/72 71/71/71 168/168/168
f 72/72/72 168/168/168 169/169/169
f 71/71/71 36/36/36 165/165/165
f 71/71/71 165/165/165 168/168/168
f 168/168/168 165/165/165 167/167/167
f 168/168/168 167/167/167 170/170/170
f 169/169/169 168/168/168 170/170/170
f 169/169/169 170/170/170 171/171/171
f 120/120/120 119/119/119 172/172/172
f 120/120/120 172/172/172 173/173/173
f 119/119/119 72/72/72 169/169/169
f 119/119/119 169/169/169 172/172/172
f 172/172/172 169/169/169 171/171/171
f 172/172/172 171/171/171 174/174/174
f 173/173/173 172/172/172 174/174/174
f 173/173/173 174/174/174 175/175/175
f 45/45/45 44/44/44 176/176/176
f 45/45/45 176/176/176 177/177/177
f 44/44/44 43/43/43 178/178/178
f 44/44/44 178/178/178 176/176/176
f 176/176/176 178/178/178 106/106/106
f 176/176/176 106/106/106 109/109/109
f 177/177/177 176/176/176 109/109/109
f 177/177/177 109/109/109 114/114/114
f 112/112/112 179/179/179 180/180/180
f 112/112/112 180/180/180 113/113/113
f 179/179/179 59/59/59 103/103/103
f 179/179/179 103/103/103 180/180/180
f 180/180/180 103/103/103 45/45/45
f 180/180/180 45/45/45 177/177/177
f 113/113/113 180/180/180 177/177/177
f 113/113/113 177/177/177 114/114/114
f 10/10/10 60/60/60 181/181/181
f 10/10/10 181/181/181 182/182/182
f 60/60/60 59/59/59 179/179/179
f 60/60/60 179/179/179 181/181/181
f 181/181/181 179/179/179 112/112/112
f 181/181/181 112/112/112 183/183/183
f 182/182/182 181/181/181 183/183/183
f 182/182/182 183/183/183 184/184/184
f 89/89/89 185/185/185 186/186/186
f 89/89/89 186/186/186 187/187/187
f 185/185/185 14/14/14 11/11/11
f 185/185/185 11/11/11 186/186/186
f 186/186/186 11/11/11 10/10/10
f 186/186/186 10/10/10 182/182/182
f 187/187/187 186/186/186 182/182/182
f 187/187/187 182/182/182 184/184/184
f 46/46/46 96/96/96 188/188/188
f 46/46/46 188/188/188 189/189/189
f 96/96/96 14/14/14 185/185/185
f 96/96/96 185/185/185 188/188/188
f 188/188/188 185/185/185 89/89/89
f 188/188/188 89/89/89 86/86/86
f 189/189/189 188/188/188 86/86/86
f 189/189/189 86/86/86 85/85/85
f 93/93/93 190/190/190 191/191/191
f 93/93/93 191/191/191 88/88/88
f 190/190/190 50/50/50 47/47/47
f 190/190/190 47/47/47 191/191/191
f 191/191/191 47/47/47 46/46/46
f 191/191/191 46/46/46 189/189/189
f 88/88/88 191/191/191 189/189/189
f 88/88/88 189/189/189 85/85/85
f 192/192/192 193/193/193 194/194/194
f 192/192/192 194/194/194 195/195/195
f 193/193/193 196/196/196 197/197/197
f 193/193/193 197/197/197 194/194/194
f 194/194/194 197/197/197 5/5/5
f 194/194/194 5/5/5 98/98/98
f 195/195/195 194/194/194 98/98/98
f 195/195/195 98/98/98 97/97/97
f 7/7/7 6/6/6 198/198/198
f 7/7/7 198/198/198 199/199/199
f 6/6/6 5/5/5 197/197/197
f 6/6/6 197/197/197 198/198/198
f 198/198/198 197/197/197 196/196/196
f 198/198/198 196/196/196 200/200/200
f 199/199/199 198/198/198 200/200/200
f 199/199/199 200/200/200 201/201/201
f 76/76/76 75/75/75 202/202/202
f 76/76/76 202/202/202 203/203/203
f 75/75/75 7/7/7 199/199/199
f 75/75/75 199/199/199 202/202/202
f 202/202/202 199/199/199 201/201/201
f 202/202/202 201/201/201 204/204/204
f 203/203/203 202/202/202 204/204/204
f 203/203/203 204/204/204 205/205/205
f 124/124/124 123/123/123 206/206/206
f 124/124/124 206/206/206 207/207/207
f 123/123/123 76/76/76 203/203/203
f 123/123/123 203/203/203 206/206/206
f 206/206/206 203/203/203 205/205/205
f 206/206/206 205/205/205 208/208/208
f 207/207/207 206/206/206 208/208/208
f 207/207/207 208/208/208 209/209/209
f 209/209/209 210/210/210 211/211/211
f 209/209/209 211/211/211 207/207/207
f 210/210/210 212/212/212 213/213/213
f 210/210/210 213/213/213 211/211/211
f 211/211/211 213/213/213 41/41/41
f 211/211/211 41/41/41 136/136/136
f 207/207/207 211/211/211 136/136/136
f 207/207/207 136/136/136 124/124/124
f 43/43/43 42/42/42 214/214/214
f 43/43/43 214/214/214 215/215/215
f 42/42/42 41/41/41 213/213/213
f 42/42/42 213/213/213 214/214/214
f 214/214/214 213/213/213 212/212/212
f 214/214/214 212/212/212 216/216/216
f 215/215/215 214/214/214 216/216/216
f 215/215/215 216/216/216 217/217/217
f 106/106/106 178/178/178 218/218/218
f 106/106/106 218/218/218 219/219/219
f 178/178/178 43/43/43 215/215/215
f 178/178/178 215/215/215 218/218/218
f 218/218/218 215/215/215 217/217/217
f 218/218/218 217/217/217 220/220/220
f 219/219/219 218/218/218 220/220/220
f 219/219/219 220/220/220 221/221/221
f 221/221/221 222/222/222 223/223/223
f 221/221/221 223/223/223 219/219/219
f 222/222/222 224/224/224 225/225/225
f 222/222/222 225/225/225 223/223/223
f 223/223/223 225/225/225 110/110/110
f 223/223/223 110/110/110 107/107/107
f 219/219/219 223/223/223 107/107/107
f 219/219/219 107/107/107 106/106/106
f 226/226/226 227/227/227 228/228/228
f 226/226/226 228/228/228 229/229/229
f 227/227/227 230/230/230 231/231/231
f 227/227/227 231/231/231 228/228/228
f 228/228/228 231/231/231 19/19/19
f 228/228/228 19/19/19 62/62/62
f 229/229/229 228/228/228 62/62/62
f 229/229/229 62/62/62 61/61/61
f 230/230/230 232/232/232 233/233/233
f 230/230/230 233/233/233 231/231/231
f 232/232/232 234/234/234 235/235/235
f 232/232/232 235/235/235 233/233/233
f 233/233/233 235/235/235 23/23/23
f 233/233/233 23/23/23 20/20/20
f 231/231/231 233/233/233 20/20/20
f 231/231/231 20/20/20 19/19/19
f 93/93/93 92/92/92 236/236/236
f 93/93/93 236/236/236 237/237/237
f 92/92/92 91/91/91 238/238/238
f 92/92/92 238/238/238 236/236/236
f 236/236/236 238/238/238 239/239/239
f 236/236/236 239/239/239 240/240/240
f 237/237/237 236/236/236 240/240/240
f 237/237/237 240/240/240 241/241/241
f 241/241/241 242/242/242 243/243/243
f 241/241/241 243/243/243 237/237/237
f 242/242/242 244/244/244 245/245/245
f 242/242/242 245/245/245 243/243/243
f 243/243/243 245/245/245 50/50/50
f 243/243/243 50/50/50 190/190/190
f 237/237/237 243/243/243 190/190/190
f 237/237/237 190/190/190 93/93/93
f 52/52/52 51/51/51 246/246/246
f 52/52/52 246/246/246 247/247/247
f 51/51/51 50/50/50 245/245/245
f 51/51/51 245/245/245 246/246/246
f 246/246/246 245/245/245 244/244/244
f 246/246/246 244/244/244 248/248/248
f 247/247/247 246/246/246 248/248/248
f 247/247/247 248/248/248 249/249/249
f 97/97/97 157/157/157 250/250/250
f 97/97/97 250/250/250 195/195/195
f 157/157/157 52/52/52 247/247/247
f 157/157/157 247/247/247 250/250/250
f 250/250/250 247/247/247 249/249/249
f 250/250/250 249/249/249 251/251/251
f 195/195/195 250/250/250 251/251/251
f 195/195/195 251/251/251 192/192/192
f 155/155/155 154/154/154 252/252/252
f 155/155/155 252/252/252 253/253/253
f 154/154/154 148/148/148 254/254/254
f 154/154/154 254/254/254 252/252/252
f 252/252/252 254/254/254 196/196/196
f 252/252/252 196/196/196 193/193/193
f 253/253/253 252/252/252 193/193/193
f 253/253/253 193/193/193 192/192/192
f 201/201/201 200/200/200 255/255/255
f 201/201/201 255/255/255 256/256/256
f 200/200/200 196/196/196 254/254/254
f 200/200/200 254/254/254 255/255/255
f 255/255/255 254/254/254 148/148/148
f 255/255/255 148/148/148 151/151/151
f 256/256/256 255/255/255 151/151/151
f 256/256/256 151/151/151 144/144/144
f 205/205/205 204/204/204 257/257/257
f 205/205/205 257/257/257 258/258/258
f 204/204/204 201/201/201 256/256/256
f 204/204/204 256/256/256 257/257/257
f 257/257/257 256/256/256 144/144/144
f 257/257/257 144/144/144 147/147/147
f 258/258/258 257/257/257 147/147/147
f 258/258/258 147/147/147 138/138/138
f 209/209/209 208/208/208 259/259/259
f 209/209/209 259/259/259 260/260/260
f 208/208/208 205/205/205 258/258/258
f 208/208/208 258/258/258 259/259/259
f 259/259/259 258/258/258 138/138/138
f 259/259/259 138/138/138 141/141/141
f 260/260/260 259/259/259 141/141/141
f 260/260/260 141/141/141 143/143/143
f 143/143/143 142/142/142 261/261/261
f 143/143/143 261/261/261 260/260/260
f 142/142/142 115/115/115 262/262/262
f 142/142/142 262/262/262 261/261/261
f 261/261/261 262/262/262 212/212/212
f 261/261/261 212/212/212 210/210/210
f 260/260/260 261/261/261 210/210/210
f 260/260/260 210/210/210 209/209/209
f 217/217/217 216/216/216 263/263/263
f 217/217/217 263/263/263 264/264/264
f 216/216/216 212/212/212 262/262/262
f 216/216/216 262/262/262 263/263/263
f 263/263/263 262/262/262 115/115/115
f 263/263/263 115/115/115 118/118/118
f 264/264/264 263/263/263 118/118/118
f 264/264/264 118/118/118 120/120/120
f 221/221/221 220/220/220 265/265/265
f 221/221/221 265/265/265 266/266/266
f 220/220/220 217/217/217 264/264/264
f 220/220/220 264/264/264 265/265/265
f 265/265/265 264/264/264 120/120/120
f 265/265/265 120/120/120 173/173/173
f 266/266/266 265/265/265 173/173/173
f 266/266/266 173/173/173 175/175/175
f 171/171/171 267/267/267 268/268/268
f 171/171/171 268/268/268 174/174/174
f 267/267/267 224/224/224 222/222/222
f 267/267/267 222/222/222 268/268/268
f 268/268/268 222/222/222 221/221/221
f 268/268/268 221/221/221 266/266/266
f 174/174/174 268/268/268 266/266/266
f 174/174/174 266/266/266 175/175/175
f 269/269/269 270/270/270 271/271/271
f 269/269/269 271/271/271 272/272/272
f 270/270/270 230/230/230 227/227/227
f 270/270/270 227/227/227 271/271/271
f 271/271/271 227/227/227 226/226/226
f 271/271/271 226/226/226 273/273/273
f 272/272/272 271/271/271 273/273/273
f 272/272/272 273/273/273 274/274/274
f 275/275/275 276/276/276 277/277/277
f 275/275/275 277/277/277 278/278/278
f 276/276/276 234/234/234 232/232/232
f 276/276/276 232/232/232 277/277/277
f 277/277/277 232/232/232 230/230/230
f 277/277/277 230/230/230 270/270/270
f 278/278/278 277/277/277 270/270/270
f 278/278/278 270/270/270 269/269/269
f 241/241/241 240/240/240 279/279/279
f 241/241/241 279/279/279 280/280/280
f 240/240/240 239/239/239 281/281/281
f 240/240/240 281/281/281 279/279/279
f 279/279/279 281/281/281 162/162/162
f 279/279/279 162/162/162 159/159/159
f 280/280/280 279/279/279 159/159/159
f 280/280/280 159/159/159 158/158/158
f 158/158/158 161/161/161 282/282/282
f 158/158/158 282/282/282 280/280/280
f 161/161/161 79/79/79 283/283/283
f 161/161/161 283/283/283 282/282/282
f 282/282/282 283/283/283 244/244/244
f 282/282/282 244/244/244 242/242/242
f 280/280/280 282/282/282 242/242/242
f 280/280/280 242/242/242 241/241/241
f 249/249/249 248/248/248 284/284/284
f 249/249/249 284/284/284 285/285/285
f 248/248/248 244/244/244 283/283/283
f 248/248/248 283/283/283 284/284/284
f 284/284/284 283/283/283 79/79/79
f 284/284/284 79/79/79 82/82/82
f 285/285/285 284/284/284 82/82/82
f 285/285/285 82/82/82 84/84/84
f 192/192/192 251/251/251 286/286/286
f 192/192/192 286/286/286 253/253/253
f 251/251/251 249/249/249 285/285/285
f 251/251/251 285/285/285 286/286/286
f 286/286/286 285/285/285 84/84/84
f 286/286/286 84/84/84 153/153/153
f 253/253/253 286/286/286 153/153/153
f 253/253/253 153/153/153 155/155/155
