# ship_canon_clou_ship_canon1_clou_0_39
v -0.186157 -0.299312 -0.024344
v -0.186609 -0.300186 -0.026927
v -0.185054 -0.300179 -0.027202
v -0.184602 -0.299305 -0.024618
v -0.187068 -0.299312 -0.029510
v -0.185513 -0.299305 -0.029784
v -0.184627 -0.298621 -0.029250
v -0.184017 -0.299300 -0.027384
v -0.183953 -0.298621 -0.025423
v -0.183953 -0.298621 -0.025423
v -0.184017 -0.299300 -0.027384
v -0.183682 -0.296675 -0.027444
v -0.183573 -0.296677 -0.024799
v -0.184627 -0.298621 -0.029250
v -0.184484 -0.296677 -0.029965
v -0.184645 -0.294735 -0.029247
v -0.184041 -0.294054 -0.027380
v -0.183970 -0.294735 -0.025420
v -0.183970 -0.294735 -0.025420
v -0.184041 -0.294054 -0.027380
v -0.185085 -0.293185 -0.027196
v -0.184626 -0.294059 -0.024614
v -0.184645 -0.294735 -0.029247
v -0.185537 -0.294059 -0.029780
v -0.187092 -0.294066 -0.029506
v -0.186640 -0.293192 -0.026922
v -0.186181 -0.294066 -0.024339
v -0.189328 -0.294760 -0.024475
v -0.190068 -0.294082 -0.026318
v -0.190570 -0.296707 -0.026229
v -0.189601 -0.296705 -0.023737
v -0.190002 -0.294760 -0.028302
v -0.190511 -0.296705 -0.028903
v -0.189985 -0.298646 -0.028305
v -0.190044 -0.299328 -0.026322
v -0.189310 -0.298646 -0.024478
v -0.187068 -0.299312 -0.029510
v -0.187232 -0.296689 -0.030369
v -0.185677 -0.296682 -0.030643
v -0.185513 -0.299305 -0.029784
v -0.187092 -0.294066 -0.029506
v -0.185537 -0.294059 -0.029780
v -0.184645 -0.294735 -0.029247
v -0.184484 -0.296677 -0.029965
v -0.184627 -0.298621 -0.029250
v -0.186181 -0.294066 -0.024339
v -0.186017 -0.296689 -0.023481
v -0.184462 -0.296682 -0.023755
v -0.184626 -0.294059 -0.024614
v -0.186157 -0.299312 -0.024344
v -0.184602 -0.299305 -0.024618
v -0.183953 -0.298621 -0.025423
v -0.183573 -0.296677 -0.024799
v -0.183970 -0.294735 -0.025420
v -0.188498 -0.300195 -0.026594
v -0.188046 -0.299321 -0.024011
v -0.188957 -0.299321 -0.029177
v -0.189121 -0.296698 -0.030036
v -0.188957 -0.299321 -0.029177
v -0.188981 -0.294075 -0.029173
v -0.188530 -0.293201 -0.026589
v -0.188070 -0.294075 -0.024006
v -0.188981 -0.294075 -0.029173
v -0.187907 -0.296698 -0.023147
v -0.188070 -0.294075 -0.024006
v -0.188046 -0.299321 -0.024011
vt 0.367307 0.122213
vt 0.495161 0.126156
vt 0.494142 0.068482
vt 0.366398 0.070738
vt 0.622796 0.117702
vt 0.621887 0.066227
vt 0.620978 0.014752
vt 0.493233 0.017008
vt 0.365489 0.019263
vt 0.672688 0.841383
vt 0.797688 0.841383
vt 0.797688 0.716383
vt 0.672688 0.716383
vt 0.922688 0.841383
vt 0.922688 0.716383
vt 0.922688 0.591383
vt 0.797688 0.591383
vt 0.672688 0.591383
vt 0.379022 0.785730
vt 0.506767 0.783475
vt 0.505858 0.732000
vt 0.378113 0.734256
vt 0.634511 0.781219
vt 0.633602 0.729745
vt 0.632693 0.678270
vt 0.504839 0.674327
vt 0.377204 0.682781
vt 0.374511 0.530241
vt 0.502028 0.515117
vt 0.500000 0.400241
vt 0.385124 0.402270
vt 0.630000 0.525730
vt 0.614876 0.398213
vt 0.625489 0.270241
vt 0.497972 0.285365
vt 0.370000 0.274752
vt 0.778029 0.267548
vt 0.774086 0.395402
vt 0.831759 0.394384
vt 0.829503 0.266639
vt 0.782540 0.523037
vt 0.834014 0.522128
vt 0.885489 0.521219
vt 0.883234 0.393475
vt 0.880978 0.265730
vt 0.221971 0.532935
vt 0.225915 0.405081
vt 0.168241 0.406099
vt 0.170497 0.533844
vt 0.217460 0.277446
vt 0.165986 0.278355
vt 0.114511 0.279263
vt 0.116766 0.407008
vt 0.119022 0.534752
vt 0.496398 0.196227
vt 0.368653 0.198483
vt 0.624142 0.193971
vt 0.704014 0.396639
vt 0.701759 0.268895
vt 0.706270 0.524384
vt 0.503602 0.604256
vt 0.375858 0.606511
vt 0.631347 0.602000
vt 0.295986 0.403844
vt 0.298241 0.531588
vt 0.293730 0.276099
vn 0.059199 -0.948673 0.310668
vn 0.004519 -0.999989 -0.000797
vn 0.327112 -0.942340 -0.070659
vn 0.390565 -0.881949 0.263864
vn -0.050626 -0.948673 -0.312179
vn 0.299623 -0.886214 -0.353344
vn 0.653542 -0.661805 -0.367284
vn 0.645407 -0.748341 -0.153088
vn 0.806276 -0.566705 0.169603
vn 0.988168 -0.152674 -0.014667
vn 0.976629 -0.143160 -0.160316
vn 0.984797 0.004588 -0.173646
vn 0.999629 -0.007172 -0.026284
vn 0.906390 -0.203039 -0.370448
vn 0.948228 0.016247 -0.317176
vn 0.932170 0.161621 -0.323940
vn 0.971227 0.152235 -0.183144
vn 0.976554 0.211812 0.038435
vn 0.733737 0.668268 0.122669
vn 0.652053 0.754386 -0.075689
vn 0.323022 0.945369 -0.043977
vn 0.394380 0.889447 0.230972
vn 0.694491 0.573697 -0.434228
vn 0.268780 0.885021 -0.380125
vn -0.059199 0.948673 -0.310668
vn -0.004519 0.999989 0.000797
vn 0.050626 0.948673 0.312179
vn -0.668029 0.424693 0.611043
vn -0.784284 0.607640 0.125191
vn -0.984797 -0.004588 0.173646
vn -0.673023 0.026401 0.739150
vn -0.807296 0.500921 -0.312012
vn -0.884967 -0.033660 -0.464435
vn -0.832861 -0.431685 -0.346395
vn -0.774279 -0.614901 0.149626
vn -0.647338 -0.507698 0.568504
vn -0.163308 -0.316224 -0.934523
vn -0.173648 -0.000000 -0.984808
vn 0.161109 0.014297 -0.986833
vn 0.177736 -0.326137 -0.928464
vn -0.166166 0.316224 -0.934019
vn 0.191493 0.297560 -0.935301
vn 0.577035 0.251447 -0.777049
vn 0.518081 0.041710 -0.854314
vn 0.652755 -0.303535 -0.694102
vn 0.163308 0.316224 0.934523
vn 0.173648 -0.000000 0.984808
vn 0.489025 -0.011268 0.872197
vn 0.481609 0.329209 0.812203
vn 0.166166 -0.316224 0.934019
vn 0.502510 -0.294327 0.812930
vn 0.810245 -0.244983 0.532435
vn 0.779379 -0.035665 0.625537
vn 0.848011 0.310527 0.429476
vn -0.242646 -0.968476 0.056374
vn -0.220567 -0.911560 0.346999
vn -0.309602 -0.906458 -0.287193
vn -0.417254 -0.014544 -0.908673
vn -0.434066 -0.304715 -0.847783
vn -0.413965 0.335399 -0.846251
vn -0.256035 0.966152 0.031557
vn -0.200886 0.904080 0.377206
vn -0.334172 0.908976 -0.249183
vn -0.081427 0.012221 0.996604
vn -0.120672 0.302130 0.945598
vn -0.096523 -0.337778 0.936264
f 1/1/1 2/2/2 3/3/3
f 1/1/1 3/3/3 4/4/4
f 2/2/2 5/5/5 6/6/6
f 2/2/2 6/6/6 3/3/3
f 3/3/3 6/6/6 7/7/7
f 3/3/3 7/7/7 8/8/8
f 4/4/4 3/3/3 8/8/8
f 4/4/4 8/8/8 9/9/9
f 10/10/10 11/11/11 12/12/12
f 10/10/10 12/12/12 13/13/13
f 11/11/11 14/14/14 15/15/15
f 11/11/11 15/15/15 12/12/12
f 12/12/12 15/15/15 16/16/16
f 12/12/12 16/16/16 17/17/17
f 13/13/13 12/12/12 17/17/17
f 13/13/13 17/17/17 18/18/18
f 19/19/19 20/20/20 21/21/21
f 19/19/19 21/21/21 22/22/22
f 20/20/20 23/23/23 24/24/24
f 20/20/20 24/24/24 21/21/21
f 21/21/21 24/24/24 25/25/25
f 21/21/21 25/25/25 26/26/26
f 22/22/22 21/21/21 26/26/26
f 22/22/22 26/26/26 27/27/27
f 28/28/28 29/29/29 30/30/30
f 28/28/28 30/30/30 31/31/31
f 29/29/29 32/32/32 33/33/33
f 29/29/29 33/33/33 30/30/30
f 30/30/30 33/33/33 34/34/34
f 30/30/30 34/34/34 35/35/35
f 31/31/31 30/30/30 35/35/35
f 31/31/31 35/35/35 36/36/36
f 37/37/37 38/38/38 39/39/39
f 37/37/37 39/39/39 40/40/40
f 38/38/38 41/41/41 42/42/42
f 38/38/38 42/42/42 39/39/39
f 39/39/39 42/42/42 43/43/43
f 39/39/39 43/43/43 44/44/44
f 40/40/40 39/39/39 44/44/44
f 40/40/40 44/44/44 45/45/45
f 46/46/46 47/47/47 48/48/48
f 46/46/46 48/48/48 49/49/49
f 47/47/47 50/50/50 51/51/51
f 47/47/47 51/51/51 48/48/48
f 48/48/48 51/51/51 52/52/52
f 48/48/48 52/52/52 53/53/53
f 49/49/49 48/48/48 53/53/53
f 49/49/49 53/53/53 54/54/54
f 36/36/36 35/35/35 55/55/55
f 36/36/36 55/55/55 56/56/56
f 35/35/35 34/34/34 57/57/57
f 35/35/35 57/57/57 55/55/55
f 55/55/55 57/57/57 5/5/5
f 55/55/55 5/5/5 2/2/2
f 56/56/56 55/55/55 2/2/2
f 56/56/56 2/2/2 1/1/1
f 34/34/34 33/33/33 58/58/58
f 34/34/34 58/58/58 59/59/59
f 33/33/33 32/32/32 60/60/60
f 33/33/33 60/60/60 58/58/58
f 58/58/58 60/60/60 41/41/41
f 58/58/58 41/41/41 38/38/38
f 59/59/59 58/58/58 38/38/38
f 59/59/59 38/38/38 37/37/37
f 27/27/27 26/26/26 61/61/61
f 27/27/27 61/61/61 62/62/62
f 26/26/26 25/25/25 63/63/63
f 26/26/26 63/63/63 61/61/61
f 61/61/61 63/63/63 32/32/32
f 61/61/61 32/32/32 29/29/29
f 62/62/62 61/61/61 29/29/29
f 62/62/62 29/29/29 28/28/28
f 28/28/28 31/31/31 64/64/64
f 28/28/28 64/64/64 65/65/65
f 31/31/31 36/36/36 66/66/66
f 31/31/31 66/66/66 64/64/64
f 64/64/64 66/66/66 50/50/50
f 64/64/64 50/50/50 47/47/47
f 65/65/65 64/64/64 47/47/47
f 65/65/65 47/47/47 46/46/46
