# ship_canon_clou1_ship_canon1_clou_0_45
v -0.182394 -0.344005 -0.004185
v -0.182846 -0.344879 -0.006768
v -0.181291 -0.344872 -0.007043
v -0.180840 -0.343998 -0.004459
v -0.183305 -0.344005 -0.009351
v -0.181750 -0.343998 -0.009625
v -0.180864 -0.343314 -0.009091
v -0.180254 -0.343993 -0.007225
v -0.180190 -0.343314 -0.005264
v -0.180190 -0.343314 -0.005264
v -0.180254 -0.343993 -0.007225
v -0.179919 -0.341368 -0.007284
v -0.179811 -0.341370 -0.004640
v -0.180864 -0.343314 -0.009091
v -0.180721 -0.341370 -0.009806
v -0.180882 -0.339428 -0.009088
v -0.180278 -0.338747 -0.007221
v -0.180207 -0.339428 -0.005261
v -0.180207 -0.339428 -0.005261
v -0.180278 -0.338747 -0.007221
v -0.181323 -0.337877 -0.007037
v -0.180863 -0.338752 -0.004455
v -0.180882 -0.339428 -0.009088
v -0.181774 -0.338752 -0.009621
v -0.183329 -0.338759 -0.009347
v -0.182878 -0.337885 -0.006763
v -0.182418 -0.338759 -0.004180
v -0.185565 -0.339453 -0.004316
v -0.186305 -0.338775 -0.006158
v -0.186807 -0.341400 -0.006070
v -0.185838 -0.341398 -0.003577
v -0.186240 -0.339453 -0.008143
v -0.186749 -0.341398 -0.008744
v -0.186222 -0.343339 -0.008146
v -0.186281 -0.344021 -0.006163
v -0.185547 -0.343339 -0.004319
v -0.183305 -0.344005 -0.009351
v -0.183469 -0.341382 -0.010210
v -0.181914 -0.341375 -0.010484
v -0.181750 -0.343998 -0.009625
v -0.183329 -0.338759 -0.009347
v -0.181774 -0.338752 -0.009621
v -0.180882 -0.339428 -0.009088
v -0.180721 -0.341370 -0.009806
v -0.180864 -0.343314 -0.009091
v -0.182418 -0.338759 -0.004180
v -0.182255 -0.341382 -0.003321
v -0.180700 -0.341375 -0.003596
v -0.180863 -0.338752 -0.004455
v -0.182394 -0.344005 -0.004185
v -0.180840 -0.343998 -0.004459
v -0.180190 -0.343314 -0.005264
v -0.179811 -0.341370 -0.004640
v -0.180207 -0.339428 -0.005261
v -0.184735 -0.344888 -0.006435
v -0.184284 -0.344014 -0.003851
v -0.185195 -0.344014 -0.009018
v -0.185358 -0.341391 -0.009877
v -0.185195 -0.344014 -0.009018
v -0.185218 -0.338768 -0.009013
v -0.184767 -0.337894 -0.006430
v -0.184307 -0.338768 -0.003847
v -0.185218 -0.338768 -0.009013
v -0.184144 -0.341391 -0.002988
v -0.184307 -0.338768 -0.003847
v -0.184284 -0.344014 -0.003851
vt 0.298407 0.126186
vt 0.426261 0.130130
vt 0.425242 0.072456
vt 0.297498 0.074712
vt 0.553896 0.121675
vt 0.552987 0.070201
vt 0.552078 0.018726
vt 0.424334 0.020982
vt 0.296589 0.023237
vt 0.592099 0.876100
vt 0.717099 0.876100
vt 0.717099 0.751100
vt 0.592099 0.751100
vt 0.842099 0.876100
vt 0.842099 0.751100
vt 0.842099 0.626100
vt 0.717099 0.626100
vt 0.592099 0.626100
vt 0.310122 0.789704
vt 0.437867 0.787449
vt 0.436958 0.735974
vt 0.309213 0.738230
vt 0.565611 0.785193
vt 0.564703 0.733718
vt 0.563794 0.682244
vt 0.435940 0.678300
vt 0.308305 0.686755
vt 0.305611 0.534215
vt 0.433129 0.519091
vt 0.431100 0.404215
vt 0.316224 0.406243
vt 0.561100 0.529704
vt 0.545976 0.402187
vt 0.556589 0.274215
vt 0.429072 0.289339
vt 0.301100 0.278726
vt 0.709129 0.271522
vt 0.705186 0.399376
vt 0.762859 0.398357
vt 0.760604 0.270613
vt 0.713640 0.527011
vt 0.765115 0.526102
vt 0.816589 0.525193
vt 0.814334 0.397448
vt 0.812078 0.269704
vt 0.153072 0.536909
vt 0.157015 0.409055
vt 0.099341 0.410073
vt 0.101597 0.537817
vt 0.148560 0.281419
vt 0.097086 0.282328
vt 0.045611 0.283237
vt 0.047867 0.410982
vt 0.050122 0.538726
vt 0.427498 0.200201
vt 0.299753 0.202456
vt 0.555243 0.197945
vt 0.635115 0.400613
vt 0.632859 0.272868
vt 0.637370 0.528357
vt 0.434702 0.608229
vt 0.306958 0.610485
vt 0.562447 0.605974
vt 0.227086 0.407817
vt 0.229341 0.535562
vt 0.224830 0.280073
vn 0.059199 -0.948673 0.310668
vn 0.004519 -0.999989 -0.000797
vn 0.327112 -0.942340 -0.070659
vn 0.390565 -0.881949 0.263864
vn -0.050626 -0.948673 -0.312179
vn 0.299623 -0.886214 -0.353344
vn 0.653542 -0.661805 -0.367284
vn 0.645407 -0.748341 -0.153088
vn 0.806276 -0.566705 0.169603
vn 0.988168 -0.152674 -0.014667
vn 0.976629 -0.143160 -0.160316
vn 0.984797 0.004588 -0.173646
vn 0.999629 -0.007172 -0.026284
vn 0.906390 -0.203039 -0.370448
vn 0.948228 0.016247 -0.317176
vn 0.932170 0.161621 -0.323940
vn 0.971227 0.152235 -0.183144
vn 0.976554 0.211812 0.038435
vn 0.733737 0.668268 0.122669
vn 0.652053 0.754386 -0.075689
vn 0.323022 0.945369 -0.043977
vn 0.394380 0.889447 0.230972
vn 0.694491 0.573697 -0.434228
vn 0.268780 0.885021 -0.380125
vn -0.059199 0.948673 -0.310668
vn -0.004519 0.999989 0.000797
vn 0.050626 0.948673 0.312179
vn -0.668029 0.424693 0.611043
vn -0.784284 0.607640 0.125191
vn -0.984797 -0.004588 0.173646
vn -0.673023 0.026401 0.739150
vn -0.807296 0.500921 -0.312012
vn -0.884967 -0.033660 -0.464435
vn -0.832861 -0.431685 -0.346395
vn -0.774279 -0.614901 0.149626
vn -0.647338 -0.507698 0.568504
vn -0.163308 -0.316224 -0.934523
vn -0.173648 -0.000000 -0.984808
vn 0.161109 0.014297 -0.986833
vn 0.177736 -0.326137 -0.928464
vn -0.166166 0.316224 -0.934019
vn 0.191493 0.297560 -0.935301
vn 0.577035 0.251447 -0.777049
vn 0.518081 0.041710 -0.854314
vn 0.652755 -0.303535 -0.694102
vn 0.163308 0.316224 0.934523
vn 0.173648 -0.000000 0.984808
vn 0.489025 -0.011268 0.872197
vn 0.481609 0.329209 0.812203
vn 0.166166 -0.316224 0.934019
vn 0.502510 -0.294327 0.812930
vn 0.810245 -0.244983 0.532435
vn 0.779379 -0.035665 0.625537
vn 0.848011 0.310527 0.429476
vn -0.242646 -0.968476 0.056374
vn -0.220567 -0.911560 0.346999
vn -0.309602 -0.906458 -0.287193
vn -0.417254 -0.014544 -0.908673
vn -0.434066 -0.304715 -0.847783
vn -0.413965 0.335399 -0.846251
vn -0.256035 0.966152 0.031557
vn -0.200886 0.904080 0.377206
vn -0.334172 0.908976 -0.249183
vn -0.081427 0.012221 0.996604
vn -0.120672 0.302130 0.945598
vn -0.096523 -0.337778 0.936264
f 1/1/1 2/2/2 3/3/3
f 1/1/1 3/3/3 4/4/4
f 2/2/2 5/5/5 6/6/6
f 2/2/2 6/6/6 3/3/3
f 3/3/3 6/6/6 7/7/7
f 3/3/3 7/7/7 8/8/8
f 4/4/4 3/3/3 8/8/8
f 4/4/4 8/8/8 9/9/9
f 10/10/10 11/11/11 12/12/12
f 10/10/10 12/12/12 13/13/13
f 11/11/11 14/14/14 15/15/15
f 11/11/11 15/15/15 12/12/12
f 12/12/12 15/15/15 16/16/16
f 12/12/12 16/16/16 17/17/17
f 13/13/13 12/12/12 17/17/17
f 13/13/13 17/17/17 18/18/18
f 19/19/19 20/20/20 21/21/21
f 19/19/19 21/21/21 22/22/22
f 20/20/20 23/23/23 24/24/24
f 20/20/20 24/24/24 21/21/21
f 21/21/21 24/24/24 25/25/25
f 21/21/21 25/25/25 26/26/26
f 22/22/22 21/21/21 26/26/26
f 22/22/22 26/26/26 27/27/27
f 28/28/28 29/29/29 30/30/30
f 28/28/28 30/30/30 31/31/31
f 29/29/29 32/32/32 33/33/33
f 29/29/29 33/33/33 30/30/30
f 30/30/30 33/33/33 34/34/34
f 30/30/30 34/34/34 35/35/35
f 31/31/31 30/30/30 35/35/35
f 31/31/31 35/35/35 36/36/36
f 37/37/37 38/38/38 39/39/39
f 37/37/37 39/39/39 40/40/40
f 38/38/38 41/41/41 42/42/42
f 38/38/38 42/42/42 39/39/39
f 39/39/39 42/42/42 43/43/43
f 39/39/39 43/43/43 44/44/44
f 40/40/40 39/39/39 44/44/44
f 40/40/40 44/44/44 45/45/45
f 46/46/46 47/47/47 48/48/48
f 46/46/46 48/48/48 49/49/49
f 47/47/47 50/50/50 51/51/51
f 47/47/47 51/51/51 48/48/48
f 48/48/48 51/51/51 52/52/52
f 48/48/48 52/52/52 53/53/53
f 49/49/49 48/48/48 53/53/53
f 49/49/49 53/53/53 54/54/54
f 36/36/36 35/35/35 55/55/55
f 36/36/36 55/55/55 56/56/56
f 35/35/35 34/34/34 57/57/57
f 35/35/35 57/57/57 55/55/55
f 55/55/55 57/57/57 5/5/5
f 55/55/55 5/5/5 2/2/2
f 56/56/56 55/55/55 2/2/2
f 56/56/56 2/2/2 1/1/1
f 34/34/34 33/33/33 58/58/58
f 34/34/34 58/58/58 59/59/59
f 33/33/33 32/32/32 60/60/60
f 33/33/33 60/60/60 58/58/58
f 58/58/58 60/60/60 41/41/41
f 58/58/58 41/41/41 38/38/38
f 59/59/59 58/58/58 38/38/38
f 59/59/59 38/38/38 37/37/37
f 27/27/27 26/26/26 61/61/61
f 27/27/27 61/61/61 62/62/62
f 26/26/26 25/25/25 63/63/63
f 26/26/26 63/63/63 61/61/61
f 61/61/61 63/63/63 32/32/32
f 61/61/61 32/32/32 29/29/29
f 62/62/62 61/61/61 29/29/29
f 62/62/62 29/29/29 28/28/28
f 28/28/28 31/31/31 64/64/64
f 28/28/28 64/64/64 65/65/65
f 31/31/31 36/36/36 66/66/66
f 31/31/31 66/66/66 64/64/64
f 64/64/64 66/66/66 50/50/50
f 64/64/64 50/50/50 47/47/47
f 65/65/65 64/64/64 47/47/47
f 65/65/65 47/47/47 46/46/46
