# ship_canon_clou3_ship_canon1_clou_0_46
v -0.169148 -0.344005 0.070938
v -0.169600 -0.344879 0.068354
v -0.168045 -0.344872 0.068080
v -0.167593 -0.343998 0.070664
v -0.170059 -0.344005 0.065772
v -0.168504 -0.343998 0.065498
v -0.167618 -0.343314 0.066032
v -0.167008 -0.343993 0.067897
v -0.166944 -0.343314 0.069859
v -0.166944 -0.343314 0.069859
v -0.167008 -0.343993 0.067897
v -0.166673 -0.341368 0.067838
v -0.166564 -0.341370 0.070483
v -0.167618 -0.343314 0.066032
v -0.167475 -0.341370 0.065316
v -0.167636 -0.339428 0.066035
v -0.167032 -0.338747 0.067902
v -0.166961 -0.339428 0.069862
v -0.166961 -0.339428 0.069862
v -0.167032 -0.338747 0.067902
v -0.168076 -0.337877 0.068086
v -0.167617 -0.338752 0.070668
v -0.167636 -0.339428 0.066035
v -0.168528 -0.338752 0.065502
v -0.170083 -0.338759 0.065776
v -0.169631 -0.337885 0.068360
v -0.169172 -0.338759 0.070942
v -0.172319 -0.339453 0.070807
v -0.173059 -0.338775 0.068964
v -0.173561 -0.341400 0.069053
v -0.172592 -0.341398 0.071545
v -0.172993 -0.339453 0.066980
v -0.173502 -0.341398 0.066379
v -0.172976 -0.343339 0.066977
v -0.173035 -0.344021 0.068960
v -0.172301 -0.343339 0.070804
v -0.170059 -0.344005 0.065772
v -0.170223 -0.341382 0.064913
v -0.168668 -0.341375 0.064639
v -0.168504 -0.343998 0.065498
v -0.170083 -0.338759 0.065776
v -0.168528 -0.338752 0.065502
v -0.167636 -0.339428 0.066035
v -0.167475 -0.341370 0.065316
v -0.167618 -0.343314 0.066032
v -0.169172 -0.338759 0.070942
v -0.169008 -0.341382 0.071801
v -0.167453 -0.341375 0.071527
v -0.167617 -0.338752 0.070668
v -0.169148 -0.344005 0.070938
v -0.167593 -0.343998 0.070664
v -0.166944 -0.343314 0.069859
v -0.166564 -0.341370 0.070483
v -0.166961 -0.339428 0.069862
v -0.171489 -0.344888 0.068688
v -0.171037 -0.344014 0.071271
v -0.171948 -0.344014 0.066105
v -0.172112 -0.341391 0.065246
v -0.171948 -0.344014 0.066105
v -0.171972 -0.338768 0.066109
v -0.171521 -0.337894 0.068693
v -0.171061 -0.338768 0.071276
v -0.171972 -0.338768 0.066109
v -0.170898 -0.341391 0.072135
v -0.171061 -0.338768 0.071276
v -0.171037 -0.344014 0.071271
vt 0.351264 0.144123
vt 0.479049 0.149889
vt 0.478853 0.092207
vt 0.351089 0.092641
vt 0.606791 0.143256
vt 0.606617 0.091774
vt 0.606442 0.040292
vt 0.478678 0.040725
vt 0.350915 0.041158
vt 0.670320 0.911425
vt 0.795320 0.911425
vt 0.795320 0.786425
vt 0.670320 0.786425
vt 0.920320 0.911425
vt 0.920320 0.786425
vt 0.920320 0.661425
vt 0.795320 0.661425
vt 0.670320 0.661425
vt 0.353514 0.807740
vt 0.481278 0.807307
vt 0.481104 0.755825
vt 0.353340 0.756258
vt 0.609042 0.806874
vt 0.608867 0.755391
vt 0.608693 0.703909
vt 0.480908 0.698143
vt 0.353165 0.704776
vt 0.352648 0.552213
vt 0.480368 0.538909
vt 0.479978 0.424016
vt 0.365085 0.424406
vt 0.608175 0.551346
vt 0.594871 0.423626
vt 0.607309 0.295819
vt 0.479589 0.309123
vt 0.351781 0.296686
vt 0.759871 0.295302
vt 0.754105 0.423086
vt 0.811787 0.422891
vt 0.811354 0.295127
vt 0.760738 0.550829
vt 0.812220 0.550654
vt 0.863703 0.550480
vt 0.863269 0.422716
vt 0.862836 0.294952
vt 0.200085 0.552730
vt 0.205852 0.424946
vt 0.148170 0.425141
vt 0.148603 0.552905
vt 0.199219 0.297203
vt 0.147736 0.297378
vt 0.096254 0.297552
vt 0.096687 0.425316
vt 0.097121 0.553080
vt 0.479286 0.219971
vt 0.351523 0.220404
vt 0.607050 0.219538
vt 0.684023 0.423324
vt 0.683590 0.295560
vt 0.684457 0.551088
vt 0.480670 0.628061
vt 0.352907 0.628494
vt 0.608434 0.627628
vt 0.275933 0.424708
vt 0.276367 0.552472
vt 0.275500 0.296944
vn 0.059199 -0.948673 0.310668
vn 0.004519 -0.999989 -0.000797
vn 0.327112 -0.942340 -0.070659
vn 0.390565 -0.881949 0.263864
vn -0.050626 -0.948673 -0.312179
vn 0.299623 -0.886214 -0.353344
vn 0.653542 -0.661805 -0.367284
vn 0.645407 -0.748341 -0.153088
vn 0.806276 -0.566705 0.169603
vn 0.988168 -0.152674 -0.014667
vn 0.976629 -0.143160 -0.160316
vn 0.984797 0.004588 -0.173646
vn 0.999629 -0.007172 -0.026284
vn 0.906390 -0.203039 -0.370448
vn 0.948228 0.016247 -0.317176
vn 0.932170 0.161621 -0.323940
vn 0.971227 0.152235 -0.183144
vn 0.976554 0.211812 0.038435
vn 0.733737 0.668268 0.122669
vn 0.652053 0.754386 -0.075689
vn 0.323022 0.945369 -0.043977
vn 0.394380 0.889447 0.230972
vn 0.694491 0.573697 -0.434228
vn 0.268780 0.885021 -0.380125
vn -0.059199 0.948673 -0.310668
vn -0.004519 0.999989 0.000797
vn 0.050626 0.948673 0.312179
vn -0.668029 0.424693 0.611043
vn -0.784284 0.607640 0.125191
vn -0.984797 -0.004588 0.173646
vn -0.673023 0.026401 0.739150
vn -0.807296 0.500921 -0.312012
vn -0.884967 -0.033660 -0.464435
vn -0.832861 -0.431685 -0.346395
vn -0.774279 -0.614901 0.149626
vn -0.647338 -0.507698 0.568504
vn -0.163308 -0.316224 -0.934523
vn -0.173648 -0.000000 -0.984808
vn 0.161109 0.014297 -0.986833
vn 0.177736 -0.326137 -0.928464
vn -0.166166 0.316224 -0.934019
vn 0.191493 0.297560 -0.935301
vn 0.577035 0.251447 -0.777049
vn 0.518081 0.041710 -0.854314
vn 0.652755 -0.303535 -0.694102
vn 0.163308 0.316224 0.934523
vn 0.173648 -0.000000 0.984808
vn 0.489025 -0.011268 0.872197
vn 0.481609 0.329209 0.812203
vn 0.166166 -0.316224 0.934019
vn 0.502510 -0.294327 0.812930
vn 0.810245 -0.244983 0.532435
vn 0.779379 -0.035665 0.625537
vn 0.848011 0.310527 0.429476
vn -0.242646 -0.968476 0.056374
vn -0.220567 -0.911560 0.346999
vn -0.309602 -0.906458 -0.287193
vn -0.417254 -0.014544 -0.908673
vn -0.434066 -0.304715 -0.847783
vn -0.413965 0.335399 -0.846251
vn -0.256035 0.966152 0.031557
vn -0.200886 0.904080 0.377206
vn -0.334172 0.908976 -0.249183
vn -0.081427 0.012221 0.996604
vn -0.120672 0.302130 0.945598
vn -0.096523 -0.337778 0.936264
f 1/1/1 2/2/2 3/3/3
f 1/1/1 3/3/3 4/4/4
f 2/2/2 5/5/5 6/6/6
f 2/2/2 6/6/6 3/3/3
f 3/3/3 6/6/6 7/7/7
f 3/3/3 7/7/7 8/8/8
f 4/4/4 3/3/3 8/8/8
f 4/4/4 8/8/8 9/9/9
f 10/10/10 11/11/11 12/12/12
f 10/10/10 12/12/12 13/13/13
f 11/11/11 14/14/14 15/15/15
f 11/11/11 15/15/15 12/12/12
f 12/12/12 15/15/15 16/16/16
f 12/12/12 16/16/16 17/17/17
f 13/13/13 12/12/12 17/17/17
f 13/13/13 17/17/17 18/18/18
f 19/19/19 20/20/20 21/21/21
f 19/19/19 21/21/21 22/22/22
f 20/20/20 23/23/23 24/24/24
f 20/20/20 24/24/24 21/21/21
f 21/21/21 24/24/24 25/25/25
f 21/21/21 25/25/25 26/26/26
f 22/22/22 21/21/21 26/26/26
f 22/22/22 26/26/26 27/27/27
f 28/28/28 29/29/29 30/30/30
f 28/28/28 30/30/30 31/31/31
f 29/29/29 32/32/32 33/33/33
f 29/29/29 33/33/33 30/30/30
f 30/30/30 33/33/33 34/34/34
f 30/30/30 34/34/34 35/35/35
f 31/31/31 30/30/30 35/35/35
f 31/31/31 35/35/35 36/36/36
f 37/37/37 38/38/38 39/39/39
f 37/37/37 39/39/39 40/40/40
f 38/38/38 41/41/41 42/42/42
f 38/38/38 42/42/42 39/39/39
f 39/39/39 42/42/42 43/43/43
f 39/39/39 43/43/43 44/44/44
f 40/40/40 39/39/39 44/44/44
f 40/40/40 44/44/44 45/45/45
f 46/46/46 47/47/47 48/48/48
f 46/46/46 48/48/48 49/49/49
f 47/47/47 50/50/50 51/51/51
f 47/47/47 51/51/51 48/48/48
f 48/48/48 51/51/51 52/52/52
f 48/48/48 52/52/52 53/53/53
f 49/49/49 48/48/48 53/53/53
f 49/49/49 53/53/53 54/54/54
f 36/36/36 35/35/35 55/55/55
f 36/36/36 55/55/55 56/56/56
f 35/35/35 34/34/34 57/57/57
f 35/35/35 57/57/57 55/55/55
f 55/55/55 57/57/57 5/5/5
f 55/55/55 5/5/5 2/2/2
f 56/56/56 55/55/55 2/2/2
f 56/56/56 2/2/2 1/1/1
f 34/34/34 33/33/33 58/58/58
f 34/34/34 58/58/58 59/59/59
f 33/33/33 32/32/32 60/60/60
f 33/33/33 60/60/60 58/58/58
f 58/58/58 60/60/60 41/41/41
f 58/58/58 41/41/41 38/38/38
f 59/59/59 58/58/58 38/38/38
f 59/59/59 38/38/38 37/37/37
f 27/27/27 26/26/26 61/61/61
f 27/27/27 61/61/61 62/62/62
f 26/26/26 25/25/25 63/63/63
f 26/26/26 63/63/63 61/61/61
f 61/61/61 63/63/63 32/32/32
f 61/61/61 32/32/32 29/29/29
f 62/62/62 61/61/61 29/29/29
f 62/62/62 29/29/29 28/28/28
f 28/28/28 31/31/31 64/64/64
f 28/28/28 64/64/64 65/65/65
f 31/31/31 36/36/36 66/66/66
f 31/31/31 66/66/66 64/64/64
f 64/64/64 66/66/66 50/50/50
f 64/64/64 50/50/50 47/47/47
f 65/65/65 64/64/64 47/47/47
f 65/65/65 47/47/47 46/46/46
