# ship_canon_clou4_ship_canon1_clou_0_40
v -0.165926 -0.299312 0.090392
v -0.166378 -0.300186 0.087808
v -0.164823 -0.300179 0.087534
v -0.164371 -0.299305 0.090118
v -0.166837 -0.299312 0.085226
v -0.165282 -0.299305 0.084951
v -0.164396 -0.298621 0.085486
v -0.163786 -0.299300 0.087351
v -0.163722 -0.298621 0.089313
v -0.163722 -0.298621 0.089313
v -0.163786 -0.299300 0.087351
v -0.163451 -0.296675 0.087292
v -0.163342 -0.296677 0.089936
v -0.164396 -0.298621 0.085486
v -0.164253 -0.296677 0.084770
v -0.164414 -0.294735 0.085489
v -0.163810 -0.294054 0.087355
v -0.163739 -0.294735 0.089316
v -0.163739 -0.294735 0.089316
v -0.163810 -0.294054 0.087355
v -0.164855 -0.293185 0.087539
v -0.164395 -0.294059 0.090122
v -0.164414 -0.294735 0.085489
v -0.165306 -0.294059 0.084956
v -0.166861 -0.294066 0.085230
v -0.166409 -0.293192 0.087814
v -0.165950 -0.294066 0.090396
v -0.169097 -0.294760 0.090260
v -0.169837 -0.294082 0.088418
v -0.170339 -0.296707 0.088507
v -0.169370 -0.296705 0.090999
v -0.169771 -0.294760 0.086434
v -0.170281 -0.296705 0.085833
v -0.169754 -0.298646 0.086430
v -0.169813 -0.299328 0.088414
v -0.169079 -0.298646 0.090257
v -0.166837 -0.299312 0.085226
v -0.167001 -0.296689 0.084367
v -0.165446 -0.296682 0.084093
v -0.165282 -0.299305 0.084951
v -0.166861 -0.294066 0.085230
v -0.165306 -0.294059 0.084956
v -0.164414 -0.294735 0.085489
v -0.164253 -0.296677 0.084770
v -0.164396 -0.298621 0.085486
v -0.165950 -0.294066 0.090396
v -0.165786 -0.296689 0.091255
v -0.164231 -0.296682 0.090981
v -0.164395 -0.294059 0.090122
v -0.165926 -0.299312 0.090392
v -0.164371 -0.299305 0.090118
v -0.163722 -0.298621 0.089313
v -0.163342 -0.296677 0.089936
v -0.163739 -0.294735 0.089316
v -0.168267 -0.300195 0.088141
v -0.167816 -0.299321 0.090725
v -0.168726 -0.299321 0.085559
v -0.168890 -0.296698 0.084700
v -0.168726 -0.299321 0.085559
v -0.168750 -0.294075 0.085563
v -0.168299 -0.293201 0.088147
v -0.167839 -0.294075 0.090729
v -0.168750 -0.294075 0.085563
v -0.167676 -0.296698 0.091588
v -0.167839 -0.294075 0.090729
v -0.167816 -0.299321 0.090725
vt 0.326795 0.199609
vt 0.454540 0.206200
vt 0.454717 0.148518
vt 0.326953 0.148126
vt 0.582323 0.200392
vt 0.582481 0.148909
vt 0.582638 0.097427
vt 0.454874 0.097035
vt 0.327111 0.096644
vt 0.620266 0.938955
vt 0.745266 0.938955
vt 0.745266 0.813955
vt 0.620266 0.813955
vt 0.870266 0.938955
vt 0.870266 0.813955
vt 0.870266 0.688955
vt 0.745266 0.688955
vt 0.620266 0.688955
vt 0.324761 0.863227
vt 0.452525 0.863618
vt 0.452683 0.812136
vt 0.324919 0.811744
vt 0.580289 0.864010
vt 0.580447 0.812528
vt 0.580605 0.761045
vt 0.452860 0.754454
vt 0.325077 0.760262
vt 0.325544 0.607699
vt 0.453348 0.595220
vt 0.453700 0.480327
vt 0.338807 0.479975
vt 0.581072 0.608482
vt 0.568593 0.480679
vt 0.581855 0.352955
vt 0.454052 0.365434
vt 0.326328 0.352171
vt 0.734418 0.353422
vt 0.727827 0.481167
vt 0.785509 0.481344
vt 0.785900 0.353580
vt 0.733635 0.608950
vt 0.785117 0.609108
vt 0.836600 0.609265
vt 0.836991 0.481502
vt 0.837383 0.353738
vt 0.172982 0.607232
vt 0.179573 0.479487
vt 0.121891 0.479310
vt 0.121499 0.607074
vt 0.173765 0.351704
vt 0.122282 0.351546
vt 0.070800 0.351389
vt 0.070408 0.479152
vt 0.070017 0.606916
vt 0.454325 0.276282
vt 0.326561 0.275890
vt 0.582089 0.276673
vt 0.657745 0.480952
vt 0.658137 0.353188
vt 0.657354 0.608716
vt 0.453075 0.684372
vt 0.325311 0.683981
vt 0.580838 0.684764
vt 0.249655 0.479702
vt 0.249263 0.607466
vt 0.250046 0.351938
vn 0.059199 -0.948673 0.310668
vn 0.004519 -0.999989 -0.000797
vn 0.327112 -0.942340 -0.070659
vn 0.390565 -0.881949 0.263864
vn -0.050626 -0.948673 -0.312179
vn 0.299623 -0.886214 -0.353344
vn 0.653542 -0.661805 -0.367284
vn 0.645407 -0.748341 -0.153088
vn 0.806276 -0.566705 0.169603
vn 0.988168 -0.152674 -0.014667
vn 0.976629 -0.143160 -0.160316
vn 0.984797 0.004588 -0.173646
vn 0.999629 -0.007172 -0.026284
vn 0.906390 -0.203039 -0.370448
vn 0.948228 0.016247 -0.317176
vn 0.932170 0.161621 -0.323940
vn 0.971227 0.152235 -0.183144
vn 0.976554 0.211812 0.038435
vn 0.733737 0.668268 0.122669
vn 0.652053 0.754386 -0.075689
vn 0.323022 0.945369 -0.043977
vn 0.394380 0.889447 0.230972
vn 0.694491 0.573697 -0.434228
vn 0.268780 0.885021 -0.380125
vn -0.059199 0.948673 -0.310668
vn -0.004519 0.999989 0.000797
vn 0.050626 0.948673 0.312179
vn -0.668029 0.424693 0.611043
vn -0.784284 0.607640 0.125191
vn -0.984797 -0.004588 0.173646
vn -0.673023 0.026401 0.739150
vn -0.807296 0.500921 -0.312012
vn -0.884967 -0.033660 -0.464435
vn -0.832861 -0.431685 -0.346395
vn -0.774279 -0.614901 0.149626
vn -0.647338 -0.507698 0.568504
vn -0.163308 -0.316224 -0.934523
vn -0.173648 -0.000000 -0.984808
vn 0.161109 0.014297 -0.986833
vn 0.177736 -0.326137 -0.928464
vn -0.166166 0.316224 -0.934019
vn 0.191493 0.297560 -0.935301
vn 0.577035 0.251447 -0.777049
vn 0.518081 0.041710 -0.854314
vn 0.652755 -0.303535 -0.694102
vn 0.163308 0.316224 0.934523
vn 0.173648 -0.000000 0.984808
vn 0.489025 -0.011268 0.872197
vn 0.481609 0.329209 0.812203
vn 0.166166 -0.316224 0.934019
vn 0.502510 -0.294327 0.812930
vn 0.810245 -0.244983 0.532435
vn 0.779379 -0.035665 0.625537
vn 0.848011 0.310527 0.429476
vn -0.242646 -0.968476 0.056374
vn -0.220567 -0.911560 0.346999
vn -0.309602 -0.906458 -0.287193
vn -0.417254 -0.014544 -0.908673
vn -0.434066 -0.304715 -0.847783
vn -0.413965 0.335399 -0.846251
vn -0.256035 0.966152 0.031557
vn -0.200886 0.904080 0.377206
vn -0.334172 0.908976 -0.249183
vn -0.081427 0.012221 0.996604
vn -0.120672 0.302130 0.945598
vn -0.096523 -0.337778 0.936264
f 1/1/1 2/2/2 3/3/3
f 1/1/1 3/3/3 4/4/4
f 2/2/2 5/5/5 6/6/6
f 2/2/2 6/6/6 3/3/3
f 3/3/3 6/6/6 7/7/7
f 3/3/3 7/7/7 8/8/8
f 4/4/4 3/3/3 8/8/8
f 4/4/4 8/8/8 9/9/9
f 10/10/10 11/11/11 12/12/12
f 10/10/10 12/12/12 13/13/13
f 11/11/11 14/14/14 15/15/15
f 11/11/11 15/15/15 12/12/12
f 12/12/12 15/15/15 16/16/16
f 12/12/12 16/16/16 17/17/17
f 13/13/13 12/12/12 17/17/17
f 13/13/13 17/17/17 18/18/18
f 19/19/19 20/20/20 21/21/21
f 19/19/19 21/21/21 22/22/22
f 20/20/20 23/23/23 24/24/24
f 20/20/20 24/24/24 21/21/21
f 21/21/21 24/24/24 25/25/25
f 21/21/21 25/25/25 26/26/26
f 22/22/22 21/21/21 26/26/26
f 22/22/22 26/26/26 27/27/27
f 28/28/28 29/29/29 30/30/30
f 28/28/28 30/30/30 31/31/31
f 29/29/29 32/32/32 33/33/33
f 29/29/29 33/33/33 30/30/30
f 30/30/30 33/33/33 34/34/34
f 30/30/30 34/34/34 35/35/35
f 31/31/31 30/30/30 35/35/35
f 31/31/31 35/35/35 36/36/36
f 37/37/37 38/38/38 39/39/39
f 37/37/37 39/39/39 40/40/40
f 38/38/38 41/41/41 42/42/42
f 38/38/38 42/42/42 39/39/39
f 39/39/39 42/42/42 43/43/43
f 39/39/39 43/43/43 44/44/44
f 40/40/40 39/39/39 44/44/44
f 40/40/40 44/44/44 45/45/45
f 46/46/46 47/47/47 48/48/48
f 46/46/46 48/48/48 49/49/49
f 47/47/47 50/50/50 51/51/51
f 47/47/47 51/51/51 48/48/48
f 48/48/48 51/51/51 52/52/52
f 48/48/48 52/52/52 53/53/53
f 49/49/49 48/48/48 53/53/53
f 49/49/49 53/53/53 54/54/54
f 36/36/36 35/35/35 55/55/55
f 36/36/36 55/55/55 56/56/56
f 35/35/35 34/34/34 57/57/57
f 35/35/35 57/57/57 55/55/55
f 55/55/55 57/57/57 5/5/5
f 55/55/55 5/5/5 2/2/2
f 56/56/56 55/55/55 2/2/2
f 56/56/56 2/2/2 1/1/1
f 34/34/34 33/33/33 58/58/58
f 34/34/34 58/58/58 59/59/59
f 33/33/33 32/32/32 60/60/60
f 33/33/33 60/60/60 58/58/58
f 58/58/58 60/60/60 41/41/41
f 58/58/58 41/41/41 38/38/38
f 59/59/59 58/58/58 38/38/38
f 59/59/59 38/38/38 37/37/37
f 27/27/27 26/26/26 61/61/61
f 27/27/27 61/61/61 62/62/62
f 26/26/26 25/25/25 63/63/63
f 26/26/26 63/63/63 61/61/61
f 61/61/61 63/63/63 32/32/32
f 61/61/61 32/32/32 29/29/29
f 62/62/62 61/61/61 29/29/29
f 62/62/62 29/29/29 28/28/28
f 28/28/28 31/31/31 64/64/64
f 28/28/28 64/64/64 65/65/65
f 31/31/31 36/36/36 66/66/66
f 31/31/31 66/66/66 64/64/64
f 64/64/64 66/66/66 50/50/50
f 64/64/64 50/50/50 47/47/47
f 65/65/65 64/64/64 47/47/47
f 65/65/65 47/47/47 46/46/46
