# ship_canon_clou7_ship_canon1_clou_0_38
v -0.182798 -0.254740 -0.004113
v -0.183249 -0.255614 -0.006697
v -0.181694 -0.255607 -0.006971
v -0.181243 -0.254732 -0.004388
v -0.183709 -0.254740 -0.009280
v -0.182154 -0.254732 -0.009554
v -0.181268 -0.254049 -0.009020
v -0.180658 -0.254728 -0.007154
v -0.180593 -0.254049 -0.005193
v -0.180593 -0.254049 -0.005193
v -0.180658 -0.254728 -0.007154
v -0.180322 -0.252103 -0.007213
v -0.180214 -0.252105 -0.004569
v -0.181268 -0.254049 -0.009020
v -0.181125 -0.252105 -0.009735
v -0.181285 -0.250163 -0.009016
v -0.180681 -0.249482 -0.007150
v -0.180611 -0.250163 -0.005190
v -0.180611 -0.250163 -0.005190
v -0.180681 -0.249482 -0.007150
v -0.181726 -0.248612 -0.006966
v -0.181267 -0.249487 -0.004383
v -0.181285 -0.250163 -0.009016
v -0.182178 -0.249487 -0.009550
v -0.183732 -0.249494 -0.009275
v -0.183281 -0.248620 -0.006692
v -0.182822 -0.249494 -0.004109
v -0.185968 -0.250188 -0.004245
v -0.186708 -0.249510 -0.006087
v -0.187211 -0.252135 -0.005999
v -0.186241 -0.252133 -0.003506
v -0.186643 -0.250188 -0.008072
v -0.187152 -0.252133 -0.008673
v -0.186625 -0.254074 -0.008075
v -0.186685 -0.254756 -0.006092
v -0.185951 -0.254074 -0.004248
v -0.183709 -0.254740 -0.009280
v -0.183872 -0.252117 -0.010139
v -0.182318 -0.252110 -0.010413
v -0.182154 -0.254732 -0.009554
v -0.183732 -0.249494 -0.009275
v -0.182178 -0.249487 -0.009550
v -0.181285 -0.250163 -0.009016
v -0.181125 -0.252105 -0.009735
v -0.181268 -0.254049 -0.009020
v -0.182822 -0.249494 -0.004109
v -0.182658 -0.252117 -0.003250
v -0.181103 -0.252110 -0.003525
v -0.181267 -0.249487 -0.004383
v -0.182798 -0.254740 -0.004113
v -0.181243 -0.254732 -0.004388
v -0.180593 -0.254049 -0.005193
v -0.180214 -0.252105 -0.004569
v -0.180611 -0.250163 -0.005190
v -0.185139 -0.255623 -0.006364
v -0.184687 -0.254749 -0.003780
v -0.185598 -0.254749 -0.008947
v -0.185762 -0.252126 -0.009805
v -0.185598 -0.254749 -0.008947
v -0.185622 -0.249503 -0.008942
v -0.185170 -0.248628 -0.006359
v -0.184711 -0.249503 -0.003776
v -0.185622 -0.249503 -0.008942
v -0.184547 -0.252126 -0.002917
v -0.184711 -0.249503 -0.003776
v -0.184687 -0.254749 -0.003780
vt 0.275923 0.181750
vt 0.403777 0.185694
vt 0.402759 0.128020
vt 0.275014 0.130276
vt 0.531412 0.177239
vt 0.530503 0.125764
vt 0.529594 0.074290
vt 0.401850 0.076545
vt 0.274105 0.078801
vt 0.614535 0.917536
vt 0.739535 0.917536
vt 0.739535 0.792536
vt 0.614535 0.792536
vt 0.864535 0.917536
vt 0.864535 0.792536
vt 0.864535 0.667536
vt 0.739535 0.667536
vt 0.614535 0.667536
vt 0.287639 0.845268
vt 0.415383 0.843012
vt 0.414474 0.791538
vt 0.286730 0.793793
vt 0.543128 0.840757
vt 0.542219 0.789282
vt 0.541310 0.737808
vt 0.413456 0.733864
vt 0.285821 0.742319
vt 0.283128 0.589779
vt 0.410645 0.574655
vt 0.408617 0.459779
vt 0.293741 0.461807
vt 0.538617 0.585268
vt 0.523492 0.457751
vt 0.534106 0.329779
vt 0.406588 0.344903
vt 0.278617 0.334290
vt 0.686645 0.327086
vt 0.682702 0.454939
vt 0.740376 0.453921
vt 0.738120 0.326177
vt 0.691156 0.582575
vt 0.742631 0.581666
vt 0.794106 0.580757
vt 0.791850 0.453012
vt 0.789595 0.325268
vt 0.130588 0.592472
vt 0.134531 0.464618
vt 0.076858 0.465637
vt 0.079113 0.593381
vt 0.126077 0.336983
vt 0.074602 0.337892
vt 0.023128 0.338801
vt 0.025383 0.466546
vt 0.027639 0.594290
vt 0.405014 0.255765
vt 0.277270 0.258020
vt 0.532759 0.253509
vt 0.612631 0.456177
vt 0.610376 0.328432
vt 0.614887 0.583921
vt 0.412219 0.663793
vt 0.284474 0.666049
vt 0.539963 0.661538
vt 0.204602 0.463381
vt 0.206858 0.591126
vt 0.202347 0.335637
vn 0.059199 -0.948673 0.310668
vn 0.004519 -0.999989 -0.000797
vn 0.327112 -0.942340 -0.070659
vn 0.390565 -0.881949 0.263864
vn -0.050626 -0.948673 -0.312179
vn 0.299623 -0.886214 -0.353344
vn 0.653542 -0.661805 -0.367284
vn 0.645407 -0.748341 -0.153088
vn 0.806276 -0.566705 0.169603
vn 0.988168 -0.152674 -0.014667
vn 0.976629 -0.143160 -0.160316
vn 0.984797 0.004588 -0.173646
vn 0.999629 -0.007172 -0.026284
vn 0.906390 -0.203039 -0.370448
vn 0.948228 0.016247 -0.317176
vn 0.932170 0.161621 -0.323940
vn 0.971227 0.152235 -0.183144
vn 0.976554 0.211812 0.038435
vn 0.733737 0.668268 0.122669
vn 0.652053 0.754386 -0.075689
vn 0.323022 0.945369 -0.043977
vn 0.394380 0.889447 0.230972
vn 0.694491 0.573697 -0.434228
vn 0.268780 0.885021 -0.380125
vn -0.059199 0.948673 -0.310668
vn -0.004519 0.999989 0.000797
vn 0.050626 0.948673 0.312179
vn -0.668029 0.424693 0.611043
vn -0.784284 0.607640 0.125191
vn -0.984797 -0.004588 0.173646
vn -0.673023 0.026401 0.739150
vn -0.807296 0.500921 -0.312012
vn -0.884967 -0.033660 -0.464435
vn -0.832861 -0.431685 -0.346395
vn -0.774279 -0.614901 0.149626
vn -0.647338 -0.507698 0.568504
vn -0.163308 -0.316224 -0.934523
vn -0.173648 -0.000000 -0.984808
vn 0.161109 0.014297 -0.986833
vn 0.177736 -0.326137 -0.928464
vn -0.166166 0.316224 -0.934019
vn 0.191493 0.297560 -0.935301
vn 0.577035 0.251447 -0.777049
vn 0.518081 0.041710 -0.854314
vn 0.652755 -0.303535 -0.694102
vn 0.163308 0.316224 0.934523
vn 0.173648 -0.000000 0.984808
vn 0.489025 -0.011268 0.872197
vn 0.481609 0.329209 0.812203
vn 0.166166 -0.316224 0.934019
vn 0.502510 -0.294327 0.812930
vn 0.810245 -0.244983 0.532435
vn 0.779379 -0.035665 0.625537
vn 0.848011 0.310527 0.429476
vn -0.242646 -0.968476 0.056374
vn -0.220567 -0.911560 0.346999
vn -0.309602 -0.906458 -0.287193
vn -0.417254 -0.014544 -0.908673
vn -0.434066 -0.304715 -0.847783
vn -0.413965 0.335399 -0.846251
vn -0.256035 0.966152 0.031557
vn -0.200886 0.904080 0.377206
vn -0.334172 0.908976 -0.249183
vn -0.081427 0.012221 0.996604
vn -0.120672 0.302130 0.945598
vn -0.096523 -0.337778 0.936264
f 1/1/1 2/2/2 3/3/3
f 1/1/1 3/3/3 4/4/4
f 2/2/2 5/5/5 6/6/6
f 2/2/2 6/6/6 3/3/3
f 3/3/3 6/6/6 7/7/7
f 3/3/3 7/7/7 8/8/8
f 4/4/4 3/3/3 8/8/8
f 4/4/4 8/8/8 9/9/9
f 10/10/10 11/11/11 12/12/12
f 10/10/10 12/12/12 13/13/13
f 11/11/11 14/14/14 15/15/15
f 11/11/11 15/15/15 12/12/12
f 12/12/12 15/15/15 16/16/16
f 12/12/12 16/16/16 17/17/17
f 13/13/13 12/12/12 17/17/17
f 13/13/13 17/17/17 18/18/18
f 19/19/19 20/20/20 21/21/21
f 19/19/19 21/21/21 22/22/22
f 20/20/20 23/23/23 24/24/24
f 20/20/20 24/24/24 21/21/21
f 21/21/21 24/24/24 25/25/25
f 21/21/21 25/25/25 26/26/26
f 22/22/22 21/21/21 26/26/26
f 22/22/22 26/26/26 27/27/27
f 28/28/28 29/29/29 30/30/30
f 28/28/28 30/30/30 31/31/31
f 29/29/29 32/32/32 33/33/33
f 29/29/29 33/33/33 30/30/30
f 30/30/30 33/33/33 34/34/34
f 30/30/30 34/34/34 35/35/35
f 31/31/31 30/30/30 35/35/35
f 31/31/31 35/35/35 36/36/36
f 37/37/37 38/38/38 39/39/39
f 37/37/37 39/39/39 40/40/40
f 38/38/38 41/41/41 42/42/42
f 38/38/38 42/42/42 39/39/39
f 39/39/39 42/42/42 43/43/43
f 39/39/39 43/43/43 44/44/44
f 40/40/40 39/39/39 44/44/44
f 40/40/40 44/44/44 45/45/45
f 46/46/46 47/47/47 48/48/48
f 46/46/46 48/48/48 49/49/49
f 47/47/47 50/50/50 51/51/51
f 47/47/47 51/51/51 48/48/48
f 48/48/48 51/51/51 52/52/52
f 48/48/48 52/52/52 53/53/53
f 49/49/49 48/48/48 53/53/53
f 49/49/49 53/53/53 54/54/54
f 36/36/36 35/35/35 55/55/55
f 36/36/36 55/55/55 56/56/56
f 35/35/35 34/34/34 57/57/57
f 35/35/35 57/57/57 55/55/55
f 55/55/55 57/57/57 5/5/5
f 55/55/55 5/5/5 2/2/2
f 56/56/56 55/55/55 2/2/2
f 56/56/56 2/2/2 1/1/1
f 34/34/34 33/33/33 58/58/58
f 34/34/34 58/58/58 59/59/59
f 33/33/33 32/32/32 60/60/60
f 33/33/33 60/60/60 58/58/58
f 58/58/58 60/60/60 41/41/41
f 58/58/58 41/41/41 38/38/38
f 59/59/59 58/58/58 38/38/38
f 59/59/59 38/38/38 37/37/37
f 27/27/27 26/26/26 61/61/61
f 27/27/27 61/61/61 62/62/62
f 26/26/26 25/25/25 63/63/63
f 26/26/26 63/63/63 61/61/61
f 61/61/61 63/63/63 32/32/32
f 61/61/61 32/32/32 29/29/29
f 62/62/62 61/61/61 29/29/29
f 62/62/62 29/29/29 28/28/28
f 28/28/28 31/31/31 64/64/64
f 28/28/28 64/64/64 65/65/65
f 31/31/31 36/36/36 66/66/66
f 31/31/31 66/66/66 64/64/64
f 64/64/64 66/66/66 50/50/50
f 64/64/64 50/50/50 47/47/47
f 65/65/65 64/64/64 47/47/47
f 65/65/65 47/47/47 46/46/46
