# ship_plaque_ship_plaque1_0_29
v -0.778180 0.225205 0.136784
v -0.760008 0.214557 0.172475
v -0.758680 0.212655 0.170247
v -0.775587 0.222247 0.136322
v -0.737610 0.198527 0.197928
v -0.737947 0.198231 0.194489
v -0.738294 0.197926 0.190950
v -0.757314 0.210698 0.167955
v -0.772919 0.219205 0.135847
v -0.765677 0.173146 0.204591
v -0.753568 0.184095 0.202561
v -0.776835 0.200963 0.176476
v -0.788895 0.189968 0.178540
v -0.741477 0.195027 0.200335
v -0.764697 0.211850 0.174285
v -0.783493 0.223019 0.137721
v -0.795667 0.212162 0.139862
v -0.807690 0.201136 0.141977
v -0.804904 0.189850 0.141472
v -0.789391 0.181403 0.173596
v -0.790834 0.183409 0.175902
v -0.807685 0.192966 0.141967
v -0.770509 0.168719 0.196616
v -0.770183 0.169038 0.200158
v -0.769866 0.169347 0.203601
v -0.792236 0.185359 0.178143
v -0.810389 0.195995 0.142448
v -0.742543 0.194077 0.189367
v -0.754638 0.183104 0.191295
v -0.772365 0.194658 0.169160
v -0.760432 0.205765 0.167175
v -0.766695 0.172165 0.193615
v -0.784454 0.183770 0.171400
v -0.799115 0.191509 0.140451
v -0.786996 0.202363 0.138319
v -0.775180 0.213559 0.136241
v -0.759479 0.189738 0.062485
v -0.771447 0.178695 0.064368
v -0.771795 0.178280 0.060260
v -0.759837 0.189337 0.058391
v -0.783678 0.167857 0.066741
v -0.784037 0.167457 0.062648
v -0.784385 0.167068 0.058668
v -0.772133 0.177877 0.056266
v -0.760185 0.188948 0.054412
v -0.759323 0.167711 0.204350
v -0.747071 0.178576 0.202357
v -0.746083 0.178262 0.206362
v -0.758346 0.167408 0.208347
v -0.735124 0.189592 0.200094
v -0.734146 0.189288 0.204091
v -0.733196 0.188993 0.207976
v -0.745123 0.177957 0.210255
v -0.757396 0.167113 0.212233
v -0.778437 0.211934 0.097086
v -0.790593 0.201047 0.099168
v -0.765544 0.195137 0.064802
v -0.777666 0.184204 0.066836
v -0.789743 0.173257 0.069058
v -0.802635 0.190052 0.101342
v -0.791712 0.168985 0.078159
v -0.801495 0.181570 0.106124
v -0.803605 0.183542 0.104463
v -0.792554 0.169240 0.074737
v -0.805656 0.185459 0.102849
v -0.793373 0.169488 0.071410
v -0.784001 0.194850 0.104476
v -0.772106 0.205955 0.102271
v -0.796126 0.183960 0.106496
v -0.787142 0.172473 0.079667
v -0.775022 0.183415 0.077733
v -0.762993 0.194385 0.075420
v -0.761117 0.198668 0.065737
v -0.773428 0.214658 0.097181
v -0.771452 0.212789 0.098808
v -0.760319 0.198434 0.069068
v -0.769420 0.210867 0.100483
v -0.759499 0.198193 0.072494
v -0.756889 0.170784 0.201281
v -0.760389 0.168114 0.201369
v -0.748343 0.179070 0.199021
v -0.747855 0.178847 0.199634
v -0.736192 0.189996 0.197114
v -0.738964 0.186992 0.198128
v -0.761949 0.163754 0.212489
v -0.762867 0.164018 0.208626
v -0.763811 0.164291 0.204652
v -0.736024 0.186096 0.210241
v -0.733262 0.189150 0.209431
v -0.745336 0.178203 0.211668
v -0.744827 0.177908 0.212023
v -0.757462 0.167270 0.213687
v -0.753950 0.169889 0.213393
v -0.731547 0.193466 0.198977
v -0.730602 0.193193 0.202951
v -0.729682 0.192928 0.206815
v -0.772938 0.178220 0.055308
v -0.785028 0.167290 0.057547
v -0.760828 0.189170 0.053291
v -0.763609 0.186036 0.053306
v -0.772457 0.177817 0.054576
v -0.781535 0.169829 0.056458
v -0.788103 0.164517 0.068185
v -0.788494 0.164161 0.064136
v -0.788874 0.163814 0.060200
v -0.771698 0.179356 0.068194
v -0.759622 0.190278 0.065842
v -0.783818 0.168395 0.070097
v -0.780420 0.171007 0.068846
v -0.771346 0.179056 0.067263
v -0.762496 0.187216 0.065693
v -0.756608 0.192989 0.054525
v -0.756230 0.193336 0.058461
v -0.755841 0.193694 0.062511
v -0.738964 0.186992 0.198128
v -0.736192 0.189996 0.197114
v -0.732002 0.193598 0.197065
v -0.735594 0.189738 0.198170
v -0.742543 0.194077 0.189367
v -0.738460 0.197779 0.189248
v -0.756657 0.209757 0.166852
v -0.771636 0.217741 0.135619
v -0.760432 0.205765 0.167175
v -0.775180 0.213559 0.136241
v -0.768442 0.209942 0.101289
v -0.759104 0.198077 0.074142
v -0.772106 0.205955 0.102271
v -0.762993 0.194385 0.075420
v -0.755654 0.193866 0.064459
v -0.759307 0.189930 0.064455
v -0.759622 0.190278 0.065842
v -0.762496 0.187216 0.065693
v -0.771346 0.179056 0.067263
v -0.771280 0.178894 0.066345
v -0.780420 0.171007 0.068846
v -0.783505 0.168049 0.068711
v -0.787142 0.172473 0.079667
v -0.791307 0.168863 0.079806
v -0.787915 0.164689 0.070133
v -0.783818 0.168395 0.070097
v -0.799115 0.191509 0.140451
v -0.803565 0.188351 0.141234
v -0.800480 0.180621 0.106923
v -0.796126 0.183960 0.106496
v -0.766695 0.172165 0.193615
v -0.770666 0.168566 0.194912
v -0.788696 0.180438 0.172487
v -0.784454 0.183770 0.171400
v -0.764265 0.164421 0.202739
v -0.759793 0.167857 0.202426
v -0.760389 0.168114 0.201369
v -0.756889 0.170784 0.201281
v -0.747855 0.178847 0.199634
v -0.747547 0.178727 0.200430
v -0.761573 0.163646 0.214069
v -0.757008 0.166993 0.213821
v -0.769737 0.169473 0.205009
v -0.792809 0.186156 0.179060
v -0.811494 0.197233 0.142645
v -0.806495 0.186243 0.102188
v -0.793707 0.169589 0.070050
v -0.789029 0.163673 0.058591
v -0.784528 0.166909 0.057041
v -0.772271 0.177713 0.054633
v -0.760327 0.188789 0.052785
v -0.761443 0.198764 0.064376
v -0.756762 0.192846 0.052916
v -0.779240 0.226414 0.136972
v -0.774236 0.215422 0.096515
v -0.737472 0.198648 0.199334
v -0.760551 0.215335 0.173386
v -0.729306 0.192819 0.208394
v -0.732808 0.188873 0.209565
v -0.744730 0.177833 0.211847
vt 0.503430 0.863981
vt 0.361428 0.880581
vt 0.362679 0.887607
vt 0.503132 0.871344
vt 0.250147 0.904103
vt 0.251150 0.909942
vt 0.252149 0.915980
vt 0.363947 0.894900
vt 0.502816 0.879009
vt 0.235981 0.511690
vt 0.241585 0.678698
vt 0.355321 0.659284
vt 0.351515 0.495874
vt 0.247373 0.845711
vt 0.359277 0.822781
vt 0.503048 0.806814
vt 0.501511 0.645729
vt 0.499965 0.484787
vt 0.498330 0.426575
vt 0.351865 0.432618
vt 0.351351 0.436260
vt 0.498820 0.428491
vt 0.234602 0.442810
vt 0.234628 0.448253
vt 0.234590 0.453520
vt 0.350810 0.439747
vt 0.499279 0.430284
vt 0.234134 0.220531
vt 0.265944 0.267582
vt 0.359605 0.269758
vt 0.358806 0.223397
vt 0.237158 0.313370
vt 0.360404 0.316118
vt 0.483651 0.318866
vt 0.483171 0.271068
vt 0.483478 0.226264
vt 0.827894 0.851223
vt 0.838008 0.680575
vt 0.828636 0.680859
vt 0.820172 0.849820
vt 0.833384 0.509068
vt 0.825411 0.511043
vt 0.817740 0.512926
vt 0.819614 0.681150
vt 0.812738 0.848520
vt 0.161916 0.515958
vt 0.161846 0.687737
vt 0.170838 0.687619
vt 0.169607 0.517528
vt 0.174782 0.858577
vt 0.182272 0.856870
vt 0.189486 0.855252
vt 0.179503 0.687517
vt 0.177005 0.519035
vt 0.644059 0.819507
vt 0.644722 0.655898
vt 0.752451 0.839970
vt 0.754613 0.672848
vt 0.756618 0.505726
vt 0.645237 0.492374
vt 0.755510 0.437096
vt 0.641811 0.429380
vt 0.643231 0.432880
vt 0.756126 0.442394
vt 0.644604 0.436237
vt 0.756733 0.447527
vt 0.605951 0.269384
vt 0.606573 0.223021
vt 0.605329 0.315747
vt 0.727008 0.312628
vt 0.698681 0.266900
vt 0.729667 0.219779
vt 0.750793 0.898308
vt 0.642808 0.877294
vt 0.641026 0.884165
vt 0.749444 0.903880
vt 0.639188 0.891293
vt 0.748062 0.909637
vt 0.231648 0.312812
vt 0.234403 0.313091
vt 0.232877 0.266670
vt 0.230109 0.266391
vt 0.231352 0.220250
vt 0.228570 0.219969
vt 0.186012 0.460492
vt 0.182459 0.456541
vt 0.178727 0.452452
vt 0.193431 0.811014
vt 0.201961 0.853903
vt 0.195735 0.686104
vt 0.186589 0.687153
vt 0.189453 0.518290
vt 0.184209 0.562737
vt 0.196988 0.919266
vt 0.200029 0.915337
vt 0.202934 0.911554
vt 0.800843 0.679635
vt 0.803393 0.511928
vt 0.798360 0.847312
vt 0.807296 0.804513
vt 0.811847 0.680899
vt 0.810965 0.556601
vt 0.812626 0.445783
vt 0.809046 0.450001
vt 0.805612 0.454071
vt 0.732097 0.265807
vt 0.733445 0.219382
vt 0.730750 0.312233
vt 0.734491 0.311839
vt 0.735857 0.265411
vt 0.737223 0.218984
vt 0.798618 0.904811
vt 0.801467 0.908296
vt 0.804438 0.911928
vt 0.163588 0.914869
vt 0.194903 0.922114
vt 0.195546 0.921191
vt 0.171103 0.859459
vt 0.226218 0.929358
vt 0.252723 0.918910
vt 0.364621 0.898524
vt 0.502647 0.882881
vt 0.364999 0.900313
vt 0.503779 0.871267
vt 0.638203 0.894831
vt 0.747269 0.912436
vt 0.637646 0.896576
vt 0.771512 0.921885
vt 0.805821 0.913755
vt 0.831666 0.852021
vt 0.806410 0.914679
vt 0.841308 0.907473
vt 0.844829 0.680438
vt 0.842610 0.680464
vt 0.848350 0.453403
vt 0.837284 0.508035
vt 0.781784 0.431882
vt 0.755105 0.434502
vt 0.814318 0.443684
vt 0.815067 0.442643
vt 0.499392 0.421379
vt 0.498071 0.425476
vt 0.641038 0.427581
vt 0.640588 0.426631
vt 0.205287 0.438134
vt 0.234657 0.440149
vt 0.352158 0.430745
vt 0.352340 0.429757
vt 0.176926 0.450452
vt 0.158123 0.515167
vt 0.176089 0.449495
vt 0.146890 0.460856
vt 0.155239 0.687862
vt 0.157405 0.687811
vt 0.187278 0.462080
vt 0.179922 0.519635
vt 0.234345 0.455648
vt 0.350438 0.441157
vt 0.499441 0.431010
vt 0.645235 0.437612
vt 0.757111 0.449628
vt 0.804355 0.455727
vt 0.814746 0.513686
vt 0.816061 0.681284
vt 0.809834 0.848028
vt 0.751487 0.896064
vt 0.797600 0.903427
vt 0.503544 0.861018
vt 0.643620 0.874523
vt 0.249557 0.901769
vt 0.360803 0.877760
vt 0.203969 0.910064
vt 0.192338 0.854640
vt 0.182966 0.687493
vn 0.735132 0.665341 -0.130008
vn 0.704369 0.689772 -0.167567
vn 0.702539 0.690935 -0.170433
vn 0.734757 0.665527 -0.131172
vn 0.664043 0.736726 -0.127599
vn 0.659439 0.740773 -0.128046
vn 0.653279 0.746107 -0.128647
vn 0.700602 0.692177 -0.173341
vn 0.734830 0.665443 -0.131189
vn -0.406411 0.557098 0.724204
vn -0.390750 0.572409 0.720876
vn -0.469617 0.638140 0.610113
vn -0.489843 0.618464 0.614456
vn -0.376168 0.587779 0.716250
vn -0.450179 0.656677 0.605074
vn -0.630226 0.768236 0.112382
vn -0.654850 0.746730 0.116469
vn -0.680279 0.722850 0.121277
vn -0.729237 -0.672112 0.128373
vn -0.697435 -0.696723 0.167813
vn -0.700287 -0.694412 0.165498
vn -0.729249 -0.672179 0.127948
vn -0.652277 -0.747364 0.126422
vn -0.659887 -0.740493 0.127355
vn -0.666132 -0.734826 0.127668
vn -0.702086 -0.693014 0.163728
vn -0.729324 -0.672003 0.128445
vn 0.437904 -0.599937 -0.669563
vn 0.433199 -0.606700 -0.666524
vn 0.503804 -0.658519 -0.559049
vn 0.509130 -0.647284 -0.567283
vn 0.427758 -0.612494 -0.664736
vn 0.498967 -0.667756 -0.552389
vn 0.650862 -0.749948 -0.118137
vn 0.660495 -0.741104 -0.120458
vn 0.670515 -0.731652 -0.122861
vn 0.707781 -0.706401 0.006638
vn 0.672044 -0.740303 0.017525
vn 0.671958 -0.740384 0.017462
vn 0.711204 -0.702965 0.005468
vn 0.635605 -0.771810 0.017775
vn 0.631213 -0.775370 0.019283
vn 0.627984 -0.777954 0.020572
vn 0.672052 -0.740296 0.017546
vn 0.715358 -0.698746 0.004023
vn 0.607745 -0.766853 -0.206354
vn 0.634259 -0.742781 -0.214459
vn 0.634320 -0.742743 -0.214411
vn 0.605152 -0.769138 -0.205470
vn 0.663652 -0.716272 -0.215684
vn 0.666345 -0.713605 -0.216224
vn 0.668527 -0.711282 -0.217140
vn 0.634228 -0.742805 -0.214466
vn 0.602359 -0.771475 -0.204916
vn -0.630440 0.656496 -0.414195
vn -0.649775 0.638506 -0.412434
vn -0.598197 0.586384 -0.546182
vn -0.612900 0.571805 -0.545338
vn -0.627924 0.557330 -0.543226
vn -0.669702 0.619502 -0.409532
vn -0.656337 -0.747191 0.104536
vn -0.714173 -0.695339 0.080373
vn -0.714339 -0.694801 0.083495
vn -0.659762 -0.743762 0.107385
vn -0.715231 -0.693538 0.086317
vn -0.665164 -0.738646 0.109356
vn 0.665798 -0.659824 0.348347
vn 0.671617 -0.650739 0.354217
vn 0.658520 -0.669360 0.343960
vn 0.629790 -0.613278 0.476712
vn 0.635487 -0.607090 0.477072
vn 0.639462 -0.601426 0.478931
vn 0.669370 0.735090 -0.107639
vn 0.720590 0.688322 -0.083443
vn 0.719164 0.690060 -0.081371
vn 0.661527 0.742381 -0.106078
vn 0.717709 0.691949 -0.078109
vn 0.652991 0.750198 -0.103948
vn 0.488290 -0.659444 -0.571582
vn 0.431929 -0.615930 -0.658838
vn 0.451322 -0.623669 -0.638236
vn 0.471563 -0.640024 -0.606628
vn 0.440415 -0.605254 -0.663100
vn 0.506427 -0.656260 -0.559334
vn -0.046741 -0.997277 -0.057045
vn -0.037695 -0.997503 -0.059729
vn -0.026499 -0.997679 -0.062723
vn 0.085906 0.115015 0.989642
vn -0.233122 0.470755 0.850908
vn -0.342186 0.529654 0.776129
vn 0.220354 -0.051795 0.974044
vn -0.200564 0.338316 0.919411
vn 0.010522 0.155823 0.987729
vn 0.971842 0.050060 -0.230256
vn 0.971867 0.046463 -0.230901
vn 0.972056 0.047174 -0.229962
vn -0.591582 0.537636 -0.600814
vn -0.578453 0.465454 -0.669884
vn -0.540094 0.509500 -0.669857
vn -0.432183 0.334964 -0.837268
vn -0.270141 0.106626 -0.956898
vn -0.402849 0.256084 -0.878712
vn -0.013587 -0.996101 0.087165
vn -0.023592 -0.995609 0.090586
vn -0.030872 -0.995282 0.091977
vn 0.637931 -0.616017 0.462133
vn 0.639743 -0.604872 0.474193
vn 0.630824 -0.615280 0.472749
vn 0.645552 -0.642067 0.413537
vn 0.642457 -0.624507 0.444117
vn 0.658740 -0.637599 0.399411
vn 0.992708 0.067161 -0.100098
vn 0.992355 0.073460 -0.099168
vn 0.991956 0.077882 -0.099784
vn 0.581598 -0.706557 -0.403139
vn 0.548028 -0.642983 -0.535012
vn 0.903438 0.014900 -0.428460
vn 0.613224 -0.697819 -0.370141
vn 0.480605 -0.549406 -0.683500
vn 0.804060 0.138318 -0.578235
vn 0.859396 0.112824 -0.498707
vn 0.977309 0.120194 -0.174416
vn 0.573088 -0.586759 -0.572087
vn 0.745326 -0.653290 -0.133048
vn 0.978654 0.113592 0.171267
vn 0.952999 0.142788 0.267215
vn 0.731703 -0.591799 0.338209
vn 0.681747 -0.555519 0.476047
vn 0.993638 0.038998 0.105650
vn 0.707346 -0.689371 0.156299
vn 0.685861 -0.619332 0.382130
vn 0.680881 -0.697041 0.224798
vn 0.677799 -0.714047 0.175286
vn 0.677340 -0.729379 0.096003
vn 0.666093 -0.705838 0.241068
vn 0.648514 -0.743674 0.162416
vn 0.584525 -0.653747 0.480568
vn -0.046958 -0.922309 0.383591
vn 0.080313 -0.962493 0.259146
vn 0.626091 -0.681912 0.378162
vn 0.564589 -0.819099 -0.101566
vn -0.239597 -0.969952 0.042265
vn -0.132121 -0.950963 0.279668
vn 0.591118 -0.722299 0.358975
vn 0.379900 -0.654758 -0.653427
vn -0.181440 -0.920746 -0.345408
vn -0.219768 -0.950518 -0.219584
vn 0.428109 -0.723324 -0.541780
vn -0.006275 -0.966088 -0.258138
vn 0.573759 -0.747488 -0.334757
vn 0.477759 -0.694808 -0.537576
vn 0.576401 -0.722056 -0.382619
vn 0.595580 -0.727007 -0.341680
vn 0.616564 -0.736470 -0.278316
vn -0.110601 -0.617992 0.778365
vn 0.435036 -0.461352 0.773239
vn -0.778820 -0.135313 0.612479
vn -0.833640 -0.022284 0.551858
vn -0.977999 0.115665 0.173605
vn -0.972189 -0.022051 -0.233157
vn -0.940299 -0.139380 -0.310501
vn -0.378608 -0.628177 -0.679742
vn 0.140714 -0.484112 -0.863617
vn 0.488744 -0.652982 -0.578571
vn 0.298693 -0.331159 -0.895051
vn 0.052753 0.896356 -0.440184
vn 0.531853 0.221032 -0.817482
vn -0.027391 0.999606 0.006109
vn 0.026388 0.933657 -0.357196
vn 0.201425 0.897131 0.393172
vn 0.147857 0.933503 0.326666
vn 0.771096 0.207561 0.601939
vn 0.591373 -0.381765 0.710305
vn 0.678596 -0.707299 0.198081
f 1/1/1 2/2/2 3/3/3
f 1/1/1 3/3/3 4/4/4
f 2/2/2 5/5/5 6/6/6
f 2/2/2 6/6/6 3/3/3
f 3/3/3 6/6/6 7/7/7
f 3/3/3 7/7/7 8/8/8
f 4/4/4 3/3/3 8/8/8
f 4/4/4 8/8/8 9/9/9
f 10/10/10 11/11/11 12/12/12
f 10/10/10 12/12/12 13/13/13
f 11/11/11 14/14/14 15/15/15
f 11/11/11 15/15/15 12/12/12
f 12/12/12 15/15/15 16/16/16
f 12/12/12 16/16/16 17/17/17
f 13/13/13 12/12/12 17/17/17
f 13/13/13 17/17/17 18/18/18
f 19/19/19 20/20/20 21/21/21
f 19/19/19 21/21/21 22/22/22
f 20/20/20 23/23/23 24/24/24
f 20/20/20 24/24/24 21/21/21
f 21/21/21 24/24/24 25/25/25
f 21/21/21 25/25/25 26/26/26
f 22/22/22 21/21/21 26/26/26
f 22/22/22 26/26/26 27/27/27
f 28/28/28 29/29/29 30/30/30
f 28/28/28 30/30/30 31/31/31
f 29/29/29 32/32/32 33/33/33
f 29/29/29 33/33/33 30/30/30
f 30/30/30 33/33/33 34/34/34
f 30/30/30 34/34/34 35/35/35
f 31/31/31 30/30/30 35/35/35
f 31/31/31 35/35/35 36/36/36
f 37/37/37 38/38/38 39/39/39
f 37/37/37 39/39/39 40/40/40
f 38/38/38 41/41/41 42/42/42
f 38/38/38 42/42/42 39/39/39
f 39/39/39 42/42/42 43/43/43
f 39/39/39 43/43/43 44/44/44
f 40/40/40 39/39/39 44/44/44
f 40/40/40 44/44/44 45/45/45
f 46/46/46 47/47/47 48/48/48
f 46/46/46 48/48/48 49/49/49
f 47/47/47 50/50/50 51/51/51
f 47/47/47 51/51/51 48/48/48
f 48/48/48 51/51/51 52/52/52
f 48/48/48 52/52/52 53/53/53
f 49/49/49 48/48/48 53/53/53
f 49/49/49 53/53/53 54/54/54
f 16/16/16 55/55/55 56/56/56
f 16/16/16 56/56/56 17/17/17
f 55/55/55 57/57/57 58/58/58
f 55/55/55 58/58/58 56/56/56
f 56/56/56 58/58/58 59/59/59
f 56/56/56 59/59/59 60/60/60
f 17/17/17 56/56/56 60/60/60
f 17/17/17 60/60/60 18/18/18
f 61/61/61 62/62/62 63/63/63
f 61/61/61 63/63/63 64/64/64
f 62/62/62 19/19/19 22/22/22
f 62/62/62 22/22/22 63/63/63
f 63/63/63 22/22/22 27/27/27
f 63/63/63 27/27/27 65/65/65
f 64/64/64 63/63/63 65/65/65
f 64/64/64 65/65/65 66/66/66
f 36/36/36 35/35/35 67/67/67
f 36/36/36 67/67/67 68/68/68
f 35/35/35 34/34/34 69/69/69
f 35/35/35 69/69/69 67/67/67
f 67/67/67 69/69/69 70/70/70
f 67/67/67 70/70/70 71/71/71
f 68/68/68 67/67/67 71/71/71
f 68/68/68 71/71/71 72/72/72
f 73/73/73 74/74/74 75/75/75
f 73/73/73 75/75/75 76/76/76
f 74/74/74 1/1/1 4/4/4
f 74/74/74 4/4/4 75/75/75
f 75/75/75 4/4/4 9/9/9
f 75/75/75 9/9/9 77/77/77
f 76/76/76 75/75/75 77/77/77
f 76/76/76 77/77/77 78/78/78
f 79/79/79 80/80/80 81/81/81
f 79/79/79 81/81/81 82/82/82
f 80/80/80 32/32/32 29/29/29
f 80/80/80 29/29/29 81/81/81
f 81/81/81 29/29/29 28/28/28
f 81/81/81 28/28/28 83/83/83
f 82/82/82 81/81/81 83/83/83
f 82/82/82 83/83/83 84/84/84
f 54/54/54 85/85/85 86/86/86
f 54/54/54 86/86/86 49/49/49
f 85/85/85 25/25/25 24/24/24
f 85/85/85 24/24/24 86/86/86
f 86/86/86 24/24/24 23/23/23
f 86/86/86 23/23/23 87/87/87
f 49/49/49 86/86/86 87/87/87
f 49/49/49 87/87/87 46/46/46
f 88/88/88 89/89/89 90/90/90
f 88/88/88 90/90/90 91/91/91
f 89/89/89 14/14/14 11/11/11
f 89/89/89 11/11/11 90/90/90
f 90/90/90 11/11/11 10/10/10
f 90/90/90 10/10/10 92/92/92
f 91/91/91 90/90/90 92/92/92
f 91/91/91 92/92/92 93/93/93
f 50/50/50 94/94/94 95/95/95
f 50/50/50 95/95/95 51/51/51
f 94/94/94 7/7/7 6/6/6
f 94/94/94 6/6/6 95/95/95
f 95/95/95 6/6/6 5/5/5
f 95/95/95 5/5/5 96/96/96
f 51/51/51 95/95/95 96/96/96
f 51/51/51 96/96/96 52/52/52
f 59/59/59 58/58/58 97/97/97
f 59/59/59 97/97/97 98/98/98
f 58/58/58 57/57/57 99/99/99
f 58/58/58 99/99/99 97/97/97
f 97/97/97 99/99/99 100/100/100
f 97/97/97 100/100/100 101/101/101
f 98/98/98 97/97/97 101/101/101
f 98/98/98 101/101/101 102/102/102
f 41/41/41 103/103/103 104/104/104
f 41/41/41 104/104/104 42/42/42
f 103/103/103 61/61/61 64/64/64
f 103/103/103 64/64/64 104/104/104
f 104/104/104 64/64/64 66/66/66
f 104/104/104 66/66/66 105/105/105
f 42/42/42 104/104/104 105/105/105
f 42/42/42 105/105/105 43/43/43
f 72/72/72 71/71/71 106/106/106
f 72/72/72 106/106/106 107/107/107
f 71/71/71 70/70/70 108/108/108
f 71/71/71 108/108/108 106/106/106
f 106/106/106 108/108/108 109/109/109
f 106/106/106 109/109/109 110/110/110
f 107/107/107 106/106/106 110/110/110
f 107/107/107 110/110/110 111/111/111
f 45/45/45 112/112/112 113/113/113
f 45/45/45 113/113/113 40/40/40
f 112/112/112 73/73/73 76/76/76
f 112/112/112 76/76/76 113/113/113
f 113/113/113 76/76/76 78/78/78
f 113/113/113 78/78/78 114/114/114
f 40/40/40 113/113/113 114/114/114
f 40/40/40 114/114/114 37/37/37
f 115/115/115 116/116/116 117/117/117
f 115/115/115 117/117/117 118/118/118
f 116/116/116 119/119/119 120/120/120
f 116/116/116 120/120/120 117/117/117
f 117/117/117 120/120/120 7/7/7
f 117/117/117 7/7/7 94/94/94
f 118/118/118 117/117/117 94/94/94
f 118/118/118 94/94/94 50/50/50
f 9/9/9 8/8/8 121/121/121
f 9/9/9 121/121/121 122/122/122
f 8/8/8 7/7/7 120/120/120
f 8/8/8 120/120/120 121/121/121
f 121/121/121 120/120/120 119/119/119
f 121/121/121 119/119/119 123/123/123
f 122/122/122 121/121/121 123/123/123
f 122/122/122 123/123/123 124/124/124
f 78/78/78 77/77/77 125/125/125
f 78/78/78 125/125/125 126/126/126
f 77/77/77 9/9/9 122/122/122
f 77/77/77 122/122/122 125/125/125
f 125/125/125 122/122/122 124/124/124
f 125/125/125 124/124/124 127/127/127
f 126/126/126 125/125/125 127/127/127
f 126/126/126 127/127/127 128/128/128
f 37/37/37 114/114/114 129/129/129
f 37/37/37 129/129/129 130/130/130
f 114/114/114 78/78/78 126/126/126
f 114/114/114 126/126/126 129/129/129
f 129/129/129 126/126/126 128/128/128
f 129/129/129 128/128/128 131/131/131
f 130/130/130 129/129/129 131/131/131
f 130/130/130 131/131/131 132/132/132
f 132/132/132 133/133/133 134/134/134
f 132/132/132 134/134/134 130/130/130
f 133/133/133 135/135/135 136/136/136
f 133/133/133 136/136/136 134/134/134
f 134/134/134 136/136/136 41/41/41
f 134/134/134 41/41/41 38/38/38
f 130/130/130 134/134/134 38/38/38
f 130/130/130 38/38/38 37/37/37
f 137/137/137 138/138/138 139/139/139
f 137/137/137 139/139/139 140/140/140
f 138/138/138 61/61/61 103/103/103
f 138/138/138 103/103/103 139/139/139
f 139/139/139 103/103/103 41/41/41
f 139/139/139 41/41/41 136/136/136
f 140/140/140 139/139/139 136/136/136
f 140/140/140 136/136/136 135/135/135
f 141/141/141 142/142/142 143/143/143
f 141/141/141 143/143/143 144/144/144
f 142/142/142 19/19/19 62/62/62
f 142/142/142 62/62/62 143/143/143
f 143/143/143 62/62/62 61/61/61
f 143/143/143 61/61/61 138/138/138
f 144/144/144 143/143/143 138/138/138
f 144/144/144 138/138/138 137/137/137
f 145/145/145 146/146/146 147/147/147
f 145/145/145 147/147/147 148/148/148
f 146/146/146 23/23/23 20/20/20
f 146/146/146 20/20/20 147/147/147
f 147/147/147 20/20/20 19/19/19
f 147/147/147 19/19/19 142/142/142
f 148/148/148 147/147/147 142/142/142
f 148/148/148 142/142/142 141/141/141
f 46/46/46 87/87/87 149/149/149
f 46/46/46 149/149/149 150/150/150
f 87/87/87 23/23/23 146/146/146
f 87/87/87 146/146/146 149/149/149
f 149/149/149 146/146/146 145/145/145
f 149/149/149 145/145/145 151/151/151
f 150/150/150 149/149/149 151/151/151
f 150/150/150 151/151/151 152/152/152
f 152/152/152 153/153/153 154/154/154
f 152/152/152 154/154/154 150/150/150
f 153/153/153 115/115/115 118/118/118
f 153/153/153 118/118/118 154/154/154
f 154/154/154 118/118/118 50/50/50
f 154/154/154 50/50/50 47/47/47
f 150/150/150 154/154/154 47/47/47
f 150/150/150 47/47/47 46/46/46
f 93/93/93 92/92/92 155/155/155
f 93/93/93 155/155/155 156/156/156
f 92/92/92 10/10/10 157/157/157
f 92/92/92 157/157/157 155/155/155
f 155/155/155 157/157/157 25/25/25
f 155/155/155 25/25/25 85/85/85
f 156/156/156 155/155/155 85/85/85
f 156/156/156 85/85/85 54/54/54
f 27/27/27 26/26/26 158/158/158
f 27/27/27 158/158/158 159/159/159
f 26/26/26 25/25/25 157/157/157
f 26/26/26 157/157/157 158/158/158
f 158/158/158 157/157/157 10/10/10
f 158/158/158 10/10/10 13/13/13
f 159/159/159 158/158/158 13/13/13
f 159/159/159 13/13/13 18/18/18
f 66/66/66 65/65/65 160/160/160
f 66/66/66 160/160/160 161/161/161
f 65/65/65 27/27/27 159/159/159
f 65/65/65 159/159/159 160/160/160
f 160/160/160 159/159/159 18/18/18
f 160/160/160 18/18/18 60/60/60
f 161/161/161 160/160/160 60/60/60
f 161/161/161 60/60/60 59/59/59
f 43/43/43 105/105/105 162/162/162
f 43/43/43 162/162/162 163/163/163
f 105/105/105 66/66/66 161/161/161
f 105/105/105 161/161/161 162/162/162
f 162/162/162 161/161/161 59/59/59
f 162/162/162 59/59/59 98/98/98
f 163/163/163 162/162/162 98/98/98
f 163/163/163 98/98/98 102/102/102
f 45/45/45 44/44/44 164/164/164
f 45/45/45 164/164/164 165/165/165
f 44/44/44 43/43/43 163/163/163
f 44/44/44 163/163/163 164/164/164
f 164/164/164 163/163/163 102/102/102
f 164/164/164 102/102/102 101/101/101
f 165/165/165 164/164/164 101/101/101
f 165/165/165 101/101/101 100/100/100
f 57/57/57 166/166/166 167/167/167
f 57/57/57 167/167/167 99/99/99
f 166/166/166 73/73/73 112/112/112
f 166/166/166 112/112/112 167/167/167
f 167/167/167 112/112/112 45/45/45
f 167/167/167 45/45/45 165/165/165
f 99/99/99 167/167/167 165/165/165
f 99/99/99 165/165/165 100/100/100
f 16/16/16 168/168/168 169/169/169
f 16/16/16 169/169/169 55/55/55
f 168/168/168 1/1/1 74/74/74
f 168/168/168 74/74/74 169/169/169
f 169/169/169 74/74/74 73/73/73
f 169/169/169 73/73/73 166/166/166
f 55/55/55 169/169/169 166/166/166
f 55/55/55 166/166/166 57/57/57
f 14/14/14 170/170/170 171/171/171
f 14/14/14 171/171/171 15/15/15
f 170/170/170 5/5/5 2/2/2
f 170/170/170 2/2/2 171/171/171
f 171/171/171 2/2/2 1/1/1
f 171/171/171 1/1/1 168/168/168
f 15/15/15 171/171/171 168/168/168
f 15/15/15 168/168/168 16/16/16
f 52/52/52 96/96/96 172/172/172
f 52/52/52 172/172/172 173/173/173
f 96/96/96 5/5/5 170/170/170
f 96/96/96 170/170/170 172/172/172
f 172/172/172 170/170/170 14/14/14
f 172/172/172 14/14/14 89/89/89
f 173/173/173 172/172/172 89/89/89
f 173/173/173 89/89/89 88/88/88
f 54/54/54 53/53/53 174/174/174
f 54/54/54 174/174/174 156/156/156
f 53/53/53 52/52/52 173/173/173
f 53/53/53 173/173/173 174/174/174
f 174/174/174 173/173/173 88/88/88
f 174/174/174 88/88/88 91/91/91
f 156/156/156 174/174/174 91/91/91
f 156/156/156 91/91/91 93/93/93
