# ship_cockpit_ship_cockpit1_0_33
v -0.630718 0.165888 -0.046580
v -0.668595 0.165888 -0.019789
v -0.669356 0.177897 -0.031601
v -0.632324 0.177897 -0.060909
v -0.698245 0.165888 0.011657
v -0.698456 0.177897 0.003693
v -0.694882 0.193708 0.005309
v -0.666331 0.193708 -0.029318
v -0.629999 0.193708 -0.058073
v -0.717562 0.165888 0.045786
v -0.717946 0.177897 0.043332
v -0.724518 0.165888 0.085214
v -0.727098 0.177897 0.085246
v -0.722983 0.193708 0.085322
v -0.714003 0.193708 0.044200
v -0.721826 0.165888 0.126772
v -0.725185 0.177897 0.127364
v -0.710142 0.165888 0.166744
v -0.712577 0.177897 0.167597
v -0.708736 0.193708 0.166118
v -0.721106 0.193708 0.126645
v -0.690120 0.165888 0.201415
v -0.689641 0.177897 0.203853
v -0.660295 0.165888 0.226879
v -0.657770 0.177897 0.234436
v -0.654964 0.193708 0.231694
v -0.686234 0.193708 0.201689
v -0.621679 0.165888 0.246288
v -0.618354 0.177897 0.257648
v -0.576923 0.165888 0.258509
v -0.573531 0.177897 0.272523
v -0.572316 0.193708 0.269063
v -0.616292 0.193708 0.254468
v -0.528679 0.165888 0.262408
v -0.525441 0.177897 0.278095
v -0.479423 0.165888 0.257999
v -0.476546 0.177897 0.274317
v -0.477162 0.193708 0.270823
v -0.525134 0.193708 0.274529
v -0.431629 0.165888 0.245296
v -0.429307 0.177897 0.261144
v -0.387629 0.165888 0.225131
v -0.386022 0.177897 0.239461
v -0.388348 0.193708 0.236625
v -0.430815 0.193708 0.257898
v -0.349751 0.165888 0.198340
v -0.348991 0.177897 0.210152
v -0.320102 0.165888 0.166894
v -0.319891 0.177897 0.174858
v -0.323465 0.193708 0.173242
v -0.352016 0.193708 0.207869
v -0.300785 0.165888 0.132765
v -0.300401 0.177897 0.135219
v -0.293829 0.165888 0.093337
v -0.291249 0.177897 0.093305
v -0.295364 0.193708 0.093229
v -0.304343 0.193708 0.134352
v -0.296520 0.165888 0.051779
v -0.293161 0.177897 0.051187
v -0.308205 0.165888 0.011807
v -0.305770 0.177897 0.010954
v -0.309611 0.193708 0.012433
v -0.297240 0.193708 0.051906
v -0.328226 0.165888 -0.022864
v -0.328705 0.177897 -0.025302
v -0.358051 0.165888 -0.048328
v -0.360577 0.177897 -0.055884
v -0.363383 0.193708 -0.053143
v -0.332113 0.193708 -0.023138
v -0.396668 0.165888 -0.067737
v -0.399993 0.177897 -0.079097
v -0.441424 0.165888 -0.079957
v -0.444816 0.177897 -0.093972
v -0.446031 0.193708 -0.090512
v -0.402055 0.193708 -0.075917
v -0.489668 0.165888 -0.083857
v -0.492906 0.177897 -0.099543
v -0.538924 0.165888 -0.079448
v -0.541801 0.177897 -0.095765
v -0.541185 0.193708 -0.092271
v -0.493213 0.193708 -0.095978
v -0.586717 0.165888 -0.066744
v -0.589040 0.177897 -0.082592
v -0.587532 0.193708 -0.079347
v -0.661324 0.209118 -0.025539
v -0.626149 0.209118 -0.053378
v -0.688964 0.209118 0.007985
v -0.680793 0.223935 0.011679
v -0.654409 0.223935 -0.020321
v -0.620833 0.223935 -0.046895
v -0.707477 0.209118 0.045636
v -0.716170 0.209118 0.085448
v -0.706763 0.223935 0.085622
v -0.698465 0.223935 0.047619
v -0.714354 0.209118 0.125455
v -0.702378 0.209118 0.163670
v -0.693597 0.223935 0.160289
v -0.705029 0.223935 0.123810
v -0.680592 0.209118 0.198108
v -0.650319 0.209118 0.227157
v -0.643904 0.223935 0.220890
v -0.672802 0.223935 0.193161
v -0.612879 0.209118 0.249205
v -0.570304 0.209118 0.263335
v -0.567526 0.223935 0.255424
v -0.608166 0.223935 0.241937
v -0.524625 0.209118 0.268627
v -0.478182 0.209118 0.265038
v -0.479590 0.223935 0.257050
v -0.523923 0.223935 0.260476
v -0.433312 0.209118 0.252526
v -0.392198 0.209118 0.231930
v -0.397514 0.223935 0.225446
v -0.436759 0.223935 0.245106
v -0.357023 0.209118 0.204091
v -0.329382 0.209118 0.170567
v -0.337553 0.223935 0.166872
v -0.363938 0.223935 0.198873
v -0.310870 0.209118 0.132916
v -0.302177 0.209118 0.093103
v -0.311584 0.223935 0.092929
v -0.319882 0.223935 0.130932
v -0.303993 0.209118 0.053097
v -0.315969 0.209118 0.014882
v -0.324750 0.223935 0.018263
v -0.313318 0.223935 0.054741
v -0.337755 0.209118 -0.019556
v -0.368028 0.209118 -0.048605
v -0.374443 0.223935 -0.042339
v -0.345545 0.223935 -0.014610
v -0.405468 0.209118 -0.070654
v -0.448043 0.209118 -0.084783
v -0.450821 0.223935 -0.076873
v -0.410181 0.223935 -0.063385
v -0.493721 0.209118 -0.090075
v -0.540165 0.209118 -0.086487
v -0.538756 0.223935 -0.078499
v -0.494424 0.223935 -0.081924
v -0.585035 0.209118 -0.073974
v -0.581587 0.223935 -0.066555
v -0.645662 0.237970 -0.013721
v -0.614108 0.237970 -0.038694
v -0.670458 0.237970 0.016352
v -0.658100 0.251051 0.021940
v -0.635204 0.251051 -0.005829
v -0.606068 0.251051 -0.028889
v -0.687064 0.237970 0.050128
v -0.694863 0.237970 0.085842
v -0.680635 0.251051 0.086105
v -0.673434 0.251051 0.053127
v -0.693233 0.237970 0.121730
v -0.682490 0.237970 0.156012
v -0.669210 0.251051 0.150898
v -0.679130 0.251051 0.119244
v -0.662947 0.237970 0.186905
v -0.635790 0.237970 0.212964
v -0.626088 0.251051 0.203487
v -0.651165 0.251051 0.179424
v -0.602204 0.237970 0.232743
v -0.564011 0.237970 0.245418
v -0.559810 0.251051 0.233454
v -0.595076 0.251051 0.221750
v -0.523035 0.237970 0.250165
v -0.481372 0.237970 0.246946
v -0.483502 0.251051 0.234865
v -0.521973 0.251051 0.237837
v -0.441120 0.237970 0.235721
v -0.404239 0.237970 0.217246
v -0.412279 0.251051 0.207440
v -0.446335 0.251051 0.224500
v -0.372685 0.237970 0.192272
v -0.347889 0.237970 0.162199
v -0.360247 0.251051 0.156612
v -0.383143 0.251051 0.184381
v -0.331282 0.237970 0.128423
v -0.323484 0.237970 0.092709
v -0.337712 0.251051 0.092446
v -0.344912 0.251051 0.125424
v -0.325113 0.237970 0.056821
v -0.335857 0.237970 0.022540
v -0.349136 0.251051 0.027653
v -0.339216 0.251051 0.059308
v -0.355400 0.237970 -0.008353
v -0.382557 0.237970 -0.034412
v -0.392258 0.251051 -0.024935
v -0.367182 0.251051 -0.000873
v -0.416143 0.237970 -0.054191
v -0.454335 0.237970 -0.066866
v -0.458537 0.251051 -0.054903
v -0.423271 0.251051 -0.043199
v -0.495312 0.237970 -0.071614
v -0.536975 0.237970 -0.068394
v -0.534845 0.251051 -0.056314
v -0.496374 0.251051 -0.059286
v -0.577226 0.237970 -0.057170
v -0.572012 0.251051 -0.045949
v -0.623156 0.263007 0.003262
v -0.596805 0.263007 -0.017593
v -0.643863 0.263007 0.028377
v -0.627938 0.273696 0.035577
v -0.609679 0.273696 0.013432
v -0.586444 0.273696 -0.004957
v -0.657732 0.263007 0.056583
v -0.664244 0.263007 0.086408
v -0.645909 0.273696 0.086747
v -0.640167 0.273696 0.060448
v -0.662883 0.263007 0.116379
v -0.653912 0.263007 0.145008
v -0.636799 0.273696 0.138418
v -0.644710 0.273696 0.113174
v -0.637591 0.263007 0.170807
v -0.614912 0.263007 0.192569
v -0.602410 0.273696 0.180356
v -0.622408 0.273696 0.161167
v -0.586864 0.263007 0.209086
v -0.554969 0.263007 0.219671
v -0.549554 0.273696 0.204254
v -0.577678 0.273696 0.194920
v -0.520749 0.263007 0.223636
v -0.485956 0.263007 0.220947
v -0.488701 0.273696 0.205379
v -0.519381 0.273696 0.207750
v -0.452342 0.263007 0.211574
v -0.421541 0.263007 0.196144
v -0.431903 0.273696 0.183509
v -0.459061 0.273696 0.197114
v -0.395190 0.263007 0.175289
v -0.374483 0.263007 0.150175
v -0.390408 0.273696 0.142974
v -0.408667 0.273696 0.165119
v -0.360615 0.263007 0.121968
v -0.354102 0.263007 0.092143
v -0.372437 0.273696 0.091804
v -0.378180 0.273696 0.118103
v -0.355463 0.263007 0.062172
v -0.364435 0.263007 0.033544
v -0.381548 0.273696 0.040133
v -0.373637 0.273696 0.065377
v -0.380756 0.263007 0.007745
v -0.403435 0.263007 -0.014017
v -0.415937 0.273696 -0.001804
v -0.395939 0.273696 0.017385
v -0.431483 0.263007 -0.030535
v -0.463378 0.263007 -0.041120
v -0.468792 0.273696 -0.025703
v -0.440668 0.273696 -0.016369
v -0.497597 0.263007 -0.045084
v -0.532391 0.263007 -0.042396
v -0.529646 0.273696 -0.026828
v -0.498966 0.273696 -0.029198
v -0.566005 0.263007 -0.033022
v -0.559285 0.273696 -0.018562
v -0.594935 0.282974 0.024559
v -0.575108 0.282974 0.008867
v -0.610515 0.282974 0.043455
v -0.591821 0.290734 0.051907
v -0.579115 0.290734 0.036497
v -0.562946 0.290734 0.023699
v -0.620950 0.282974 0.064678
v -0.625850 0.282974 0.087118
v -0.604327 0.290734 0.087516
v -0.600331 0.290734 0.069215
v -0.624826 0.282974 0.109668
v -0.618075 0.282974 0.131209
v -0.597987 0.290734 0.123474
v -0.603492 0.290734 0.105907
v -0.605796 0.282974 0.150620
v -0.588732 0.282974 0.166994
v -0.574056 0.290734 0.152658
v -0.587973 0.290734 0.139304
v -0.567628 0.282974 0.179422
v -0.543630 0.282974 0.187386
v -0.537274 0.290734 0.169289
v -0.556846 0.290734 0.162793
v -0.517883 0.282974 0.190369
v -0.491704 0.282974 0.188346
v -0.494927 0.290734 0.170072
v -0.516276 0.290734 0.171721
v -0.466413 0.282974 0.181294
v -0.443239 0.282974 0.169684
v -0.455401 0.290734 0.154852
v -0.474301 0.290734 0.164320
v -0.423412 0.282974 0.153993
v -0.407832 0.282974 0.135097
v -0.426525 0.290734 0.126644
v -0.439232 0.290734 0.142055
v -0.397397 0.282974 0.113874
v -0.392497 0.282974 0.091433
v -0.414019 0.290734 0.091035
v -0.418015 0.290734 0.109336
v -0.393521 0.282974 0.068883
v -0.400271 0.282974 0.047343
v -0.420360 0.290734 0.055078
v -0.414854 0.290734 0.072645
v -0.412551 0.282974 0.027931
v -0.429615 0.282974 0.011557
v -0.444290 0.290734 0.025893
v -0.430374 0.290734 0.039247
v -0.450718 0.282974 -0.000871
v -0.474716 0.282974 -0.008835
v -0.481072 0.290734 0.009263
v -0.461501 0.290734 0.015758
v -0.500464 0.282974 -0.011818
v -0.526642 0.282974 -0.009795
v -0.523420 0.290734 0.008480
v -0.502070 0.290734 0.006830
v -0.551934 0.282974 -0.002742
v -0.544046 0.290734 0.014232
v -0.562413 0.296869 0.049100
v -0.550105 0.296869 0.039359
v -0.572085 0.296869 0.060831
v -0.552426 0.301236 0.069719
v -0.546548 0.301161 0.061072
v -0.537314 0.301236 0.054957
v -0.578563 0.296869 0.074005
v -0.581605 0.296869 0.087936
v -0.558971 0.301236 0.088355
v -0.557885 0.301161 0.078556
v -0.580969 0.296869 0.101935
v -0.576778 0.296869 0.115307
v -0.555653 0.301236 0.107173
v -0.559574 0.301161 0.098163
v -0.569155 0.296869 0.127358
v -0.558562 0.296869 0.137522
v -0.543129 0.301236 0.122446
v -0.551281 0.301161 0.116009
v -0.545461 0.296869 0.145237
v -0.530564 0.296869 0.150182
v -0.523880 0.301236 0.131149
v -0.534648 0.301161 0.128561
v -0.514580 0.296869 0.152033
v -0.498329 0.296869 0.150778
v -0.501718 0.301236 0.131559
v -0.512969 0.301161 0.133332
v -0.482628 0.296869 0.146399
v -0.468242 0.296869 0.139192
v -0.481032 0.301236 0.123594
v -0.490539 0.301161 0.129376
v -0.455934 0.296869 0.129451
v -0.446262 0.296869 0.117721
v -0.465921 0.301236 0.108832
v -0.471799 0.301161 0.117479
v -0.439784 0.296869 0.104546
v -0.436742 0.296869 0.090615
v -0.459376 0.301236 0.090197
v -0.460462 0.301161 0.099995
v -0.437378 0.296869 0.076616
v -0.441568 0.296869 0.063244
v -0.462694 0.301236 0.071379
v -0.458773 0.301161 0.080389
v -0.449191 0.296869 0.051194
v -0.459784 0.296869 0.041029
v -0.475218 0.301236 0.056105
v -0.467066 0.301161 0.062542
v -0.472885 0.296869 0.033314
v -0.487783 0.296869 0.028370
v -0.494467 0.301236 0.047402
v -0.483699 0.301161 0.049991
v -0.503766 0.296869 0.026518
v -0.520018 0.296869 0.027774
v -0.516629 0.301236 0.046992
v -0.505378 0.301161 0.045220
v -0.535719 0.296869 0.032152
v -0.527808 0.301161 0.049175
v -0.533238 0.303393 0.071116
v -0.525303 0.303694 0.069605
v -0.533965 0.303694 0.078067
v -0.509173 0.305369 0.089276
v -0.540537 0.303393 0.082374
v -0.537716 0.303694 0.088748
v -0.541625 0.303393 0.094998
v -0.535814 0.303694 0.099534
v -0.536285 0.303393 0.106489
v -0.528636 0.303694 0.108288
v -0.525576 0.303393 0.114570
v -0.517603 0.303694 0.113277
v -0.511617 0.303393 0.117642
v -0.504900 0.303694 0.113511
v -0.497175 0.303393 0.115096
v -0.493044 0.303694 0.108946
v -0.485109 0.303393 0.107435
v -0.484382 0.303694 0.100485
v -0.477809 0.303393 0.096178
v -0.480631 0.303694 0.089804
v -0.476722 0.303393 0.083554
v -0.482533 0.303694 0.079018
v -0.482061 0.303393 0.072063
v -0.489711 0.303694 0.070263
v -0.492771 0.303393 0.063981
v -0.500744 0.303694 0.065275
v -0.506729 0.303393 0.060909
v -0.513447 0.303694 0.065040
v -0.521172 0.303393 0.063456
v -0.698245 0.165888 0.011657
v -0.692806 0.161885 0.037723
v -0.711111 0.161885 0.054316
v -0.717562 0.165888 0.045786
v -0.687164 0.161885 0.077634
v -0.711245 0.161885 0.085222
v -0.724518 0.165888 0.085214
v -0.422662 0.161885 0.024707
v -0.469233 0.161885 0.031140
v -0.480367 0.161885 -0.032002
v -0.432883 0.161885 -0.033260
v -0.518016 0.161885 0.039129
v -0.529464 0.161885 -0.025798
v -0.538924 0.165888 -0.079448
v -0.489668 0.165888 -0.083857
v -0.441424 0.165888 -0.079957
v -0.566588 0.161885 0.048307
v -0.577722 0.161885 -0.014836
v -0.612551 0.161885 0.058190
v -0.622772 0.161885 0.000222
v -0.630718 0.165888 -0.046580
v -0.586717 0.165888 -0.066744
v -0.345898 0.161885 0.017460
v -0.380722 0.161885 0.020196
v -0.389464 0.161885 -0.029382
v -0.354248 0.161885 -0.021974
v -0.396668 0.165888 -0.067737
v -0.358051 0.165888 -0.048328
v -0.308205 0.165888 0.011807
v -0.320674 0.161885 0.016354
v -0.331371 0.161885 -0.012642
v -0.328226 0.165888 -0.022864
v -0.668595 0.165888 -0.019789
v -0.662246 0.161885 0.018717
v -0.653505 0.161885 0.068295
v -0.320102 0.165888 0.166894
v -0.325541 0.161885 0.140829
v -0.307236 0.161885 0.124235
v -0.300785 0.165888 0.132765
v -0.331182 0.161885 0.100917
v -0.307101 0.161885 0.093330
v -0.293829 0.165888 0.093337
v -0.387629 0.165888 0.225131
v -0.395574 0.161885 0.178329
v -0.356100 0.161885 0.159835
v -0.349751 0.165888 0.198340
v -0.405796 0.161885 0.120362
v -0.364842 0.161885 0.110257
v -0.479423 0.165888 0.257999
v -0.488883 0.161885 0.204349
v -0.440625 0.161885 0.193388
v -0.431629 0.165888 0.245296
v -0.500331 0.161885 0.139423
v -0.451759 0.161885 0.130245
v -0.576923 0.165888 0.258509
v -0.585463 0.161885 0.211812
v -0.537980 0.161885 0.210554
v -0.528679 0.165888 0.262408
v -0.595685 0.161885 0.153844
v -0.549113 0.161885 0.147411
v -0.672448 0.161885 0.161092
v -0.637624 0.161885 0.158356
v -0.628882 0.161885 0.207934
v -0.664099 0.161885 0.200526
v -0.621679 0.165888 0.246288
v -0.660295 0.165888 0.226879
v -0.710142 0.165888 0.166744
v -0.697672 0.161885 0.162198
v -0.686976 0.161885 0.191193
v -0.690120 0.165888 0.201415
v -0.706264 0.161885 0.124028
v -0.721826 0.165888 0.126772
v -0.680258 0.161885 0.119442
v -0.645564 0.161885 0.113325
v -0.604118 0.161885 0.106017
v -0.557851 0.161885 0.097859
v -0.509173 0.161885 0.089276
v -0.460496 0.161885 0.080693
v -0.414229 0.161885 0.072534
v -0.372782 0.161885 0.065226
v -0.338089 0.161885 0.059109
v -0.312082 0.161885 0.054523
v -0.296520 0.165888 0.051779
vt 0.434394 0.139086
vt 0.346479 0.157640
vt 0.352510 0.187558
vt 0.433452 0.179601
vt 0.258564 0.176195
vt 0.275296 0.213106
vt 0.287687 0.240626
vt 0.358465 0.217136
vt 0.432675 0.209772
vt 0.187408 0.231057
vt 0.205823 0.255394
vt 0.116251 0.285919
vt 0.147340 0.311915
vt 0.170445 0.331333
vt 0.224022 0.279460
vt 0.075945 0.366220
vt 0.103096 0.380158
vt 0.035639 0.446522
vt 0.074928 0.456455
vt 0.104171 0.463926
vt 0.129934 0.393944
vt 0.034166 0.536359
vt 0.064675 0.537136
vt 0.032692 0.626196
vt 0.072401 0.618098
vt 0.101989 0.612142
vt 0.094837 0.537912
vt 0.070343 0.707775
vt 0.098169 0.695238
vt 0.107994 0.789355
vt 0.140257 0.764831
vt 0.164330 0.746626
vt 0.125681 0.682851
vt 0.177312 0.846519
vt 0.196942 0.823151
vt 0.246630 0.903684
vt 0.265057 0.867591
vt 0.278849 0.840744
vt 0.216356 0.800054
vt 0.333886 0.925112
vt 0.341433 0.895541
vt 0.421142 0.946540
vt 0.422084 0.906026
vt 0.422862 0.875854
vt 0.348903 0.866308
vt 0.509054 0.927988
vt 0.503024 0.898070
vt 0.596967 0.909436
vt 0.580238 0.872524
vt 0.567848 0.845003
vt 0.497070 0.868492
vt 0.668124 0.854577
vt 0.649710 0.830238
vt 0.739281 0.799718
vt 0.708194 0.773720
vt 0.685090 0.754300
vt 0.631513 0.806172
vt 0.779590 0.719417
vt 0.752440 0.705478
vt 0.819898 0.639117
vt 0.780609 0.629182
vt 0.751367 0.621709
vt 0.725602 0.691691
vt 0.821374 0.549279
vt 0.790865 0.548500
vt 0.822850 0.459441
vt 0.783141 0.467537
vt 0.753553 0.473492
vt 0.760703 0.547722
vt 0.785200 0.377859
vt 0.757374 0.390395
vt 0.747550 0.296278
vt 0.715286 0.320801
vt 0.691212 0.339004
vt 0.729861 0.402781
vt 0.678231 0.239110
vt 0.658600 0.262478
vt 0.608911 0.181943
vt 0.590484 0.218037
vt 0.576692 0.244883
vt 0.639186 0.285575
vt 0.521652 0.160514
vt 0.514105 0.190086
vt 0.506636 0.219318
vt 0.364266 0.246037
vt 0.431899 0.239248
vt 0.299777 0.267520
vt 0.311642 0.293895
vt 0.369962 0.274382
vt 0.431145 0.268159
vt 0.241788 0.302981
vt 0.193007 0.350318
vt 0.215141 0.368933
vt 0.259218 0.326048
vt 0.156147 0.407428
vt 0.132735 0.471241
vt 0.160754 0.478409
vt 0.181859 0.420647
vt 0.124304 0.538688
vt 0.130899 0.606339
vt 0.159253 0.600641
vt 0.153206 0.539442
vt 0.152566 0.670765
vt 0.187860 0.728855
vt 0.210934 0.711419
vt 0.178933 0.658904
vt 0.235335 0.777499
vt 0.292338 0.814524
vt 0.305562 0.788803
vt 0.253944 0.755373
vt 0.356217 0.837753
vt 0.423639 0.846378
vt 0.424394 0.817467
vt 0.363384 0.809743
vt 0.491271 0.839591
vt 0.555758 0.818108
vt 0.543895 0.791733
vt 0.485575 0.811245
vt 0.613748 0.782649
vt 0.662529 0.735314
vt 0.640396 0.716698
vt 0.596318 0.759582
vt 0.699391 0.678205
vt 0.722803 0.614392
vt 0.694785 0.607223
vt 0.673679 0.664985
vt 0.731236 0.546945
vt 0.724642 0.479293
vt 0.696288 0.484990
vt 0.702334 0.546190
vt 0.702976 0.414866
vt 0.667682 0.356775
vt 0.644608 0.374210
vt 0.676609 0.426726
vt 0.620207 0.308128
vt 0.563203 0.271103
vt 0.549979 0.296824
vt 0.601597 0.330254
vt 0.499322 0.247873
vt 0.492156 0.275883
vt 0.375603 0.302292
vt 0.430433 0.296635
vt 0.323356 0.319860
vt 0.334964 0.345472
vt 0.381219 0.329837
vt 0.429779 0.324747
vt 0.276411 0.348747
vt 0.236960 0.387243
vt 0.258532 0.405282
vt 0.293422 0.371126
vt 0.207198 0.433638
vt 0.188357 0.485439
vt 0.215619 0.492332
vt 0.232234 0.446421
vt 0.181672 0.540153
vt 0.187173 0.594998
vt 0.214726 0.589380
vt 0.209775 0.540806
vt 0.204889 0.647194
vt 0.233641 0.694221
vt 0.256028 0.677205
vt 0.230493 0.635589
vt 0.272249 0.733561
vt 0.318558 0.763456
vt 0.331345 0.738412
vt 0.290283 0.711997
vt 0.370412 0.782149
vt 0.425106 0.788991
vt 0.425760 0.760879
vt 0.377303 0.754896
vt 0.479935 0.783334
vt 0.532181 0.765768
vt 0.520574 0.740156
vt 0.474319 0.755790
vt 0.579127 0.736882
vt 0.618577 0.698386
vt 0.597006 0.680347
vt 0.562116 0.714502
vt 0.648340 0.651992
vt 0.667182 0.600191
vt 0.639920 0.593298
vt 0.623304 0.639209
vt 0.673868 0.545478
vt 0.668368 0.490632
vt 0.640815 0.496249
vt 0.645765 0.544823
vt 0.650652 0.438435
vt 0.621900 0.391407
vt 0.599513 0.408423
vt 0.625048 0.450039
vt 0.583292 0.352066
vt 0.536982 0.322170
vt 0.524195 0.347214
vt 0.565258 0.373630
vt 0.485128 0.303477
vt 0.478237 0.330730
vt 0.386842 0.357081
vt 0.429198 0.352569
vt 0.346512 0.370790
vt 0.358030 0.395851
vt 0.392493 0.384068
vt 0.428702 0.380145
vt 0.310309 0.393233
vt 0.279921 0.423082
vt 0.301172 0.440664
vt 0.327109 0.415095
vt 0.257041 0.459011
vt 0.242614 0.499089
vt 0.269389 0.505709
vt 0.281663 0.471419
vt 0.237588 0.541387
vt 0.241979 0.583755
vt 0.268974 0.578102
vt 0.265155 0.541883
vt 0.255802 0.624045
vt 0.278141 0.660312
vt 0.300011 0.643507
vt 0.280855 0.612531
vt 0.308077 0.690614
vt 0.343940 0.713598
vt 0.356352 0.688967
vt 0.325653 0.669370
vt 0.384058 0.727910
vt 0.426341 0.733057
vt 0.426838 0.705481
vt 0.390677 0.701144
vt 0.468697 0.728546
vt 0.509026 0.714837
vt 0.497509 0.689776
vt 0.463047 0.701559
vt 0.545230 0.692395
vt 0.575617 0.662546
vt 0.554367 0.644964
vt 0.528430 0.670532
vt 0.598499 0.626618
vt 0.612926 0.586540
vt 0.586151 0.579919
vt 0.573876 0.614209
vt 0.617953 0.544242
vt 0.613562 0.501873
vt 0.586566 0.507525
vt 0.590385 0.543745
vt 0.599738 0.461583
vt 0.577400 0.425315
vt 0.555530 0.442120
vt 0.574685 0.473097
vt 0.547464 0.395012
vt 0.511601 0.372028
vt 0.499188 0.396659
vt 0.529887 0.416256
vt 0.471482 0.357716
vt 0.464863 0.384482
vt 0.398192 0.410841
vt 0.428300 0.407524
vt 0.369548 0.420692
vt 0.381088 0.445346
vt 0.403955 0.437436
vt 0.428001 0.434744
vt 0.343861 0.436744
vt 0.322328 0.458048
vt 0.343422 0.475253
vt 0.360592 0.458205
vt 0.306149 0.483655
vt 0.295992 0.512192
vt 0.322462 0.518541
vt 0.330535 0.495731
vt 0.292526 0.542283
vt 0.295756 0.572401
vt 0.322360 0.566636
vt 0.319736 0.542583
vt 0.305689 0.601016
vt 0.321667 0.626750
vt 0.343135 0.610013
vt 0.330335 0.589480
vt 0.343032 0.648221
vt 0.368593 0.664474
vt 0.380673 0.640080
vt 0.360232 0.627134
vt 0.397158 0.674549
vt 0.427239 0.678102
vt 0.427539 0.650882
vt 0.403506 0.648087
vt 0.457347 0.674785
vt 0.485991 0.664934
vt 0.474452 0.640280
vt 0.451585 0.648190
vt 0.511679 0.648883
vt 0.533212 0.627580
vt 0.512118 0.610374
vt 0.494948 0.627422
vt 0.549391 0.601972
vt 0.559548 0.573436
vt 0.533078 0.567086
vt 0.525005 0.589895
vt 0.563015 0.543344
vt 0.559785 0.513226
vt 0.533181 0.518990
vt 0.535804 0.543044
vt 0.549852 0.484611
vt 0.533874 0.458877
vt 0.512406 0.475613
vt 0.525206 0.496146
vt 0.512509 0.437405
vt 0.486948 0.421152
vt 0.474867 0.445546
vt 0.495309 0.458492
vt 0.458382 0.411077
vt 0.452035 0.437538
vt 0.409795 0.463889
vt 0.427808 0.461841
vt 0.392672 0.469844
vt 0.403835 0.493242
vt 0.415211 0.488053
vt 0.427714 0.487766
vt 0.377331 0.479504
vt 0.364488 0.492299
vt 0.384698 0.508536
vt 0.392696 0.498925
vt 0.354857 0.507659
vt 0.348837 0.524759
vt 0.374091 0.530619
vt 0.377127 0.518490
vt 0.346825 0.542776
vt 0.348821 0.560794
vt 0.374116 0.555117
vt 0.371589 0.542872
vt 0.354825 0.577900
vt 0.364441 0.593269
vt 0.384768 0.577178
vt 0.377179 0.567242
vt 0.377273 0.606075
vt 0.392604 0.615749
vt 0.403937 0.592433
vt 0.392788 0.586774
vt 0.409722 0.621720
vt 0.427733 0.623784
vt 0.427827 0.597860
vt 0.415326 0.597598
vt 0.445746 0.621737
vt 0.462868 0.615782
vt 0.451705 0.592384
vt 0.440329 0.597572
vt 0.478209 0.606122
vt 0.491053 0.593327
vt 0.470843 0.577090
vt 0.462844 0.586700
vt 0.500683 0.577968
vt 0.506703 0.560868
vt 0.481449 0.555007
vt 0.478413 0.567136
vt 0.508715 0.542851
vt 0.506720 0.524832
vt 0.481424 0.530509
vt 0.483951 0.542754
vt 0.500716 0.507726
vt 0.491099 0.492357
vt 0.470772 0.508447
vt 0.478362 0.518384
vt 0.478268 0.479551
vt 0.462936 0.469876
vt 0.451603 0.493193
vt 0.462752 0.498852
vt 0.445819 0.463905
vt 0.440214 0.488027
vt 0.419705 0.507784
vt 0.427711 0.511465
vt 0.414116 0.514595
vt 0.427770 0.542813
vt 0.405306 0.514753
vt 0.403225 0.523314
vt 0.395356 0.527278
vt 0.397195 0.535895
vt 0.391826 0.542881
vt 0.397222 0.549846
vt 0.395415 0.558470
vt 0.403299 0.562404
vt 0.405412 0.570958
vt 0.414223 0.571082
vt 0.419838 0.577872
vt 0.427830 0.574161
vt 0.435835 0.577841
vt 0.441425 0.571030
vt 0.450235 0.570873
vt 0.452316 0.562311
vt 0.460185 0.558347
vt 0.458345 0.549731
vt 0.463715 0.542745
vt 0.458319 0.535779
vt 0.460126 0.527156
vt 0.452242 0.523221
vt 0.450128 0.514668
vt 0.441318 0.514544
vt 0.435702 0.507754
vt 0.783059 0.256638
vt 0.780513 0.231592
vt 0.767401 0.226103
vt 0.765460 0.235155
vt 0.773718 0.206724
vt 0.759895 0.207905
vt 0.747860 0.213672
vt 0.918222 0.175813
vt 0.893473 0.182958
vt 0.903124 0.222819
vt 0.927082 0.212408
vt 0.867249 0.189705
vt 0.877173 0.230692
vt 0.888953 0.279348
vt 0.913814 0.266970
vt 0.938675 0.254593
vt 0.840843 0.195701
vt 0.850494 0.235562
vt 0.815567 0.200667
vt 0.824427 0.237262
vt 0.833414 0.280078
vt 0.861183 0.279713
vt 0.958207 0.162057
vt 0.940200 0.168623
vt 0.947778 0.199921
vt 0.963539 0.187279
vt 0.955703 0.232654
vt 0.972732 0.210716
vt 0.984379 0.156407
vt 0.971039 0.156784
vt 0.972689 0.176401
vt 0.978555 0.183562
vt 0.808236 0.268358
vt 0.800311 0.235625
vt 0.792734 0.204327
vt 0.936110 0.059457
vt 0.938655 0.084503
vt 0.951768 0.089992
vt 0.953709 0.080940
vt 0.945451 0.109371
vt 0.959274 0.108190
vt 0.971308 0.102424
vt 0.885755 0.036017
vt 0.894742 0.078834
vt 0.918857 0.080470
vt 0.910932 0.047737
vt 0.903602 0.115428
vt 0.926435 0.111768
vt 0.830216 0.036747
vt 0.841996 0.085403
vt 0.868675 0.080533
vt 0.857985 0.036382
vt 0.851920 0.126391
vt 0.878326 0.120395
vt 0.780494 0.061502
vt 0.792087 0.103688
vt 0.816045 0.093276
vt 0.805355 0.049125
vt 0.800947 0.140282
vt 0.825696 0.133137
vt 0.760962 0.154038
vt 0.778968 0.147472
vt 0.771391 0.116174
vt 0.755630 0.128816
vt 0.763466 0.083441
vt 0.746437 0.105379
vt 0.734790 0.159688
vt 0.748130 0.159311
vt 0.746480 0.139695
vt 0.740614 0.132534
vt 0.753037 0.183844
vt 0.741325 0.186680
vt 0.767096 0.180440
vt 0.785851 0.175899
vt 0.808257 0.170475
vt 0.833269 0.164419
vt 0.859584 0.158048
vt 0.885899 0.151676
vt 0.910912 0.145621
vt 0.933318 0.140196
vt 0.952073 0.135655
vt 0.966132 0.132251
vt 0.977843 0.129416
vn -0.372341 -0.724089 -0.580566
vn -0.574127 -0.580409 -0.577498
vn -0.667054 -0.215184 -0.713256
vn -0.502671 -0.292741 -0.813403
vn -0.796763 -0.329245 -0.506721
vn -0.819902 -0.083508 -0.566380
vn -0.798810 0.310800 -0.515078
vn -0.667762 0.301494 -0.680585
vn -0.513667 0.293843 -0.806103
vn -0.935436 -0.111643 -0.335403
vn -0.935833 0.061719 -0.346998
vn -0.974582 -0.215131 -0.062513
vn -0.996797 0.027143 -0.075233
vn -0.941800 0.326558 -0.079827
vn -0.894643 0.319802 -0.311993
vn -0.947477 -0.267702 0.174995
vn -0.984112 -0.007242 0.177403
vn -0.894218 -0.197268 0.401820
vn -0.909456 0.018377 0.415394
vn -0.857700 0.326558 0.397127
vn -0.929981 0.329007 0.163981
vn -0.789539 -0.108421 0.604047
vn -0.773415 0.068717 0.630165
vn -0.555524 -0.369731 0.744777
vn -0.584740 -0.061696 0.808871
vn -0.574470 0.310800 0.757224
vn -0.733982 0.319802 0.599163
vn -0.315444 -0.612461 0.724835
vn -0.387477 -0.199773 0.899973
vn -0.136301 -0.739765 0.658916
vn -0.194518 -0.284507 0.938732
vn -0.206986 0.293843 0.933174
vn -0.394717 0.301494 0.867929
vn -0.005535 -0.794729 0.606940
vn -0.011059 -0.327937 0.944635
vn 0.105025 -0.808443 0.579129
vn 0.164642 -0.341868 0.925213
vn 0.166338 0.287090 0.943351
vn -0.018493 0.288770 0.957220
vn 0.222229 -0.788575 0.573379
vn 0.335117 -0.331452 0.881950
vn 0.372341 -0.724089 0.580566
vn 0.502671 -0.292741 0.813403
vn 0.513667 0.293843 0.806103
vn 0.344766 0.288770 0.893168
vn 0.574128 -0.580408 0.577498
vn 0.667054 -0.215184 0.713256
vn 0.796763 -0.329244 0.506721
vn 0.819902 -0.083508 0.566380
vn 0.798810 0.310800 0.515078
vn 0.667762 0.301494 0.680585
vn 0.935436 -0.111643 0.335403
vn 0.935833 0.061720 0.346998
vn 0.974582 -0.215132 0.062513
vn 0.996797 0.027143 0.075233
vn 0.941800 0.326558 0.079827
vn 0.894643 0.319802 0.311993
vn 0.947477 -0.267702 -0.174995
vn 0.984112 -0.007242 -0.177403
vn 0.894218 -0.197269 -0.401820
vn 0.909456 0.018377 -0.415394
vn 0.857700 0.326558 -0.397127
vn 0.929981 0.329007 -0.163981
vn 0.789539 -0.108421 -0.604047
vn 0.773415 0.068717 -0.630165
vn 0.555524 -0.369731 -0.744777
vn 0.584740 -0.061696 -0.808871
vn 0.574469 0.310800 -0.757224
vn 0.733982 0.319802 -0.599163
vn 0.315444 -0.612461 -0.724835
vn 0.387477 -0.199773 -0.899973
vn 0.136301 -0.739764 -0.658916
vn 0.194518 -0.284507 -0.938732
vn 0.206986 0.293843 -0.933174
vn 0.394717 0.301494 -0.867929
vn 0.005535 -0.794729 -0.606940
vn 0.011059 -0.327937 -0.944635
vn -0.105025 -0.808443 -0.579129
vn -0.164643 -0.341868 -0.925213
vn -0.166338 0.287090 -0.943351
vn 0.018493 0.288770 -0.957220
vn -0.222229 -0.788575 -0.573379
vn -0.335117 -0.331452 -0.881950
vn -0.344766 0.288770 -0.893167
vn -0.629982 0.436259 -0.642496
vn -0.485923 0.426350 -0.762957
vn -0.751094 0.448211 -0.484732
vn -0.691346 0.567954 -0.446620
vn -0.582160 0.555022 -0.594172
vn -0.450491 0.544190 -0.707754
vn -0.838456 0.459671 -0.292736
vn -0.880445 0.468205 -0.074832
vn -0.805008 0.589280 -0.068631
vn -0.768828 0.580226 -0.268777
vn -0.868582 0.471285 0.153154
vn -0.801754 0.468205 0.371449
vn -0.732987 0.589280 0.339821
vn -0.793309 0.592532 0.139881
vn -0.687770 0.459670 0.561851
vn -0.540009 0.448211 0.712388
vn -0.496900 0.567954 0.656139
vn -0.630535 0.580225 0.515523
vn -0.372244 0.436259 0.819215
vn -0.195672 0.426351 0.883141
vn -0.181257 0.544191 0.819147
vn -0.343833 0.555022 0.757449
vn -0.017430 0.419740 0.907477
vn 0.157786 0.417544 0.894852
vn 0.146764 0.534484 0.832338
vn -0.016087 0.536913 0.843484
vn 0.326754 0.419740 0.846788
vn 0.485923 0.426350 0.762957
vn 0.450490 0.544190 0.707754
vn 0.303605 0.536914 0.787114
vn 0.629982 0.436259 0.642496
vn 0.751094 0.448211 0.484732
vn 0.691346 0.567954 0.446620
vn 0.582160 0.555022 0.594172
vn 0.838456 0.459671 0.292736
vn 0.880445 0.468205 0.074832
vn 0.805008 0.589280 0.068631
vn 0.768828 0.580226 0.268777
vn 0.868582 0.471285 -0.153154
vn 0.801754 0.468205 -0.371449
vn 0.732987 0.589281 -0.339821
vn 0.793308 0.592533 -0.139881
vn 0.687769 0.459671 -0.561851
vn 0.540009 0.448212 -0.712388
vn 0.496900 0.567954 -0.656139
vn 0.630535 0.580226 -0.515523
vn 0.372243 0.436259 -0.819215
vn 0.195672 0.426350 -0.883141
vn 0.181257 0.544190 -0.819148
vn 0.343833 0.555022 -0.757449
vn 0.017429 0.419740 -0.907477
vn -0.157786 0.417545 -0.894852
vn -0.146764 0.534484 -0.832338
vn 0.016087 0.536914 -0.843484
vn -0.326754 0.419740 -0.846788
vn -0.303605 0.536914 -0.787114
vn -0.527623 0.656622 -0.538944
vn -0.409678 0.646026 -0.644061
vn -0.624020 0.669139 -0.403550
vn -0.552861 0.752499 -0.357896
vn -0.469282 0.741371 -0.479733
vn -0.365575 0.731850 -0.575109
vn -0.691255 0.680890 -0.241982
vn -0.721672 0.689479 -0.061719
vn -0.635311 0.770331 -0.054492
vn -0.610187 0.762843 -0.213876
vn -0.710413 0.692547 0.125265
vn -0.657041 0.689479 0.304822
vn -0.578360 0.770331 0.268495
vn -0.624772 0.772997 0.110164
vn -0.566804 0.680890 0.463812
vn -0.448365 0.669139 0.592640
vn -0.397112 0.752499 0.525401
vn -0.500238 0.762843 0.409674
vn -0.311474 0.656623 0.686899
vn -0.164690 0.646026 0.745337
vn -0.146830 0.731850 0.665460
vn -0.276902 0.741371 0.611305
vn -0.014556 0.638853 0.769191
vn 0.133938 0.636447 0.759602
vn 0.119934 0.723170 0.680178
vn -0.012920 0.725359 0.688249
vn 0.276756 0.638853 0.717825
vn 0.409678 0.646026 0.644061
vn 0.365575 0.731850 0.575109
vn 0.247536 0.725359 0.642324
vn 0.527623 0.656622 0.538944
vn 0.624020 0.669139 0.403550
vn 0.552861 0.752499 0.357896
vn 0.469281 0.741371 0.479733
vn 0.691255 0.680890 0.241982
vn 0.721672 0.689478 0.061718
vn 0.635311 0.770331 0.054492
vn 0.610186 0.762843 0.213876
vn 0.710413 0.692547 -0.125265
vn 0.657041 0.689479 -0.304822
vn 0.578360 0.770331 -0.268495
vn 0.624772 0.772997 -0.110164
vn 0.566804 0.680890 -0.463812
vn 0.448365 0.669139 -0.592640
vn 0.397112 0.752499 -0.525401
vn 0.500238 0.762843 -0.409674
vn 0.311474 0.656623 -0.686899
vn 0.164690 0.646026 -0.745337
vn 0.146830 0.731850 -0.665460
vn 0.276902 0.741371 -0.611305
vn 0.014556 0.638853 -0.769191
vn -0.133938 0.636447 -0.759603
vn -0.119934 0.723169 -0.680178
vn 0.012920 0.725359 -0.688249
vn -0.276756 0.638853 -0.717825
vn -0.247536 0.725359 -0.642324
vn -0.409192 0.810749 -0.418627
vn -0.319720 0.802788 -0.503299
vn -0.480385 0.819961 -0.311277
vn -0.408292 0.873599 -0.264807
vn -0.348819 0.866478 -0.357130
vn -0.273254 0.860269 -0.430429
vn -0.528467 0.828450 -0.185453
vn -0.548918 0.834542 -0.047208
vn -0.464337 0.884753 -0.040034
vn -0.447922 0.880115 -0.157365
vn -0.539334 0.836705 0.095099
vn -0.499668 0.834542 0.232102
vn -0.422642 0.884753 0.196432
vn -0.455891 0.886398 0.080386
vn -0.433168 0.828450 0.355015
vn -0.344952 0.819961 0.456806
vn -0.293100 0.873599 0.388481
vn -0.367087 0.880115 0.301073
vn -0.241336 0.810748 0.533333
vn -0.128300 0.802788 0.582297
vn -0.109559 0.860269 0.497930
vn -0.205637 0.866478 0.454895
vn -0.011238 0.797328 0.603442
vn 0.105228 0.795475 0.596780
vn 0.090193 0.854529 0.511512
vn -0.009549 0.855990 0.516904
vn 0.216949 0.797328 0.563207
vn 0.319720 0.802788 0.503299
vn 0.273254 0.860269 0.430430
vn 0.185764 0.855990 0.482465
vn 0.409192 0.810748 0.418627
vn 0.480385 0.819961 0.311277
vn 0.408292 0.873599 0.264807
vn 0.348819 0.866478 0.357130
vn 0.528467 0.828450 0.185453
vn 0.548918 0.834542 0.047208
vn 0.464337 0.884753 0.040034
vn 0.447922 0.880115 0.157365
vn 0.539334 0.836705 -0.095099
vn 0.499668 0.834542 -0.232102
vn 0.422642 0.884753 -0.196432
vn 0.455891 0.886398 -0.080386
vn 0.433168 0.828450 -0.355015
vn 0.344952 0.819961 -0.456806
vn 0.293099 0.873599 -0.388481
vn 0.367087 0.880115 -0.301073
vn 0.241336 0.810749 -0.533333
vn 0.128300 0.802788 -0.582297
vn 0.109559 0.860269 -0.497930
vn 0.205637 0.866478 -0.454895
vn 0.011238 0.797328 -0.603442
vn -0.105228 0.795476 -0.596779
vn -0.090193 0.854529 -0.511512
vn 0.009549 0.855990 -0.516904
vn -0.216949 0.797328 -0.563206
vn -0.185764 0.855990 -0.482465
vn -0.288906 0.910445 -0.296011
vn -0.226805 0.905956 -0.357496
vn -0.337346 0.915554 -0.218993
vn -0.267953 0.947566 -0.174123
vn -0.229892 0.944231 -0.235747
vn -0.180777 0.941278 -0.285157
vn -0.369264 0.920205 -0.129873
vn -0.382193 0.923492 -0.033032
vn -0.302717 0.952719 -0.026233
vn -0.292810 0.950595 -0.103111
vn -0.375013 0.924658 0.066125
vn -0.347847 0.923492 0.161757
vn -0.275488 0.952719 0.128187
vn -0.296885 0.953477 0.052349
vn -0.302575 0.920205 0.248336
vn -0.242102 0.915554 0.321165
vn -0.192240 0.947566 0.255268
vn -0.239885 0.950595 0.197039
vn -0.170241 0.910445 0.376971
vn -0.090857 0.905956 0.413509
vn -0.072346 0.941278 0.329790
vn -0.135398 0.944231 0.300157
vn -0.007876 0.902852 0.429880
vn 0.075048 0.901785 0.425620
vn 0.059944 0.938527 0.339962
vn -0.006228 0.939236 0.343216
vn 0.154429 0.902852 0.401261
vn 0.226805 0.905956 0.357496
vn 0.180777 0.941278 0.285157
vn 0.123239 0.939236 0.320387
vn 0.288906 0.910445 0.296011
vn 0.337346 0.915554 0.218992
vn 0.267953 0.947566 0.174123
vn 0.229892 0.944231 0.235747
vn 0.369264 0.920205 0.129873
vn 0.382193 0.923492 0.033032
vn 0.302717 0.952719 0.026233
vn 0.292810 0.950595 0.103111
vn 0.375013 0.924658 -0.066125
vn 0.347847 0.923492 -0.161757
vn 0.275488 0.952719 -0.128187
vn 0.296885 0.953477 -0.052349
vn 0.302575 0.920205 -0.248336
vn 0.242102 0.915554 -0.321164
vn 0.192240 0.947566 -0.255268
vn 0.239885 0.950595 -0.197039
vn 0.170241 0.910445 -0.376971
vn 0.090857 0.905956 -0.413509
vn 0.072346 0.941278 -0.329789
vn 0.135398 0.944232 -0.300157
vn 0.007876 0.902852 -0.429880
vn -0.075048 0.901785 -0.425620
vn -0.059944 0.938527 -0.339962
vn 0.006228 0.939236 -0.343216
vn -0.154429 0.902852 -0.401261
vn -0.123239 0.939236 -0.320387
vn -0.175163 0.968206 -0.178593
vn -0.136501 0.966584 -0.216985
vn -0.202497 0.970261 -0.132623
vn -0.139185 0.985976 -0.092077
vn -0.124493 0.984206 -0.125855
vn -0.093587 0.984208 -0.150251
vn -0.222047 0.971953 -0.077481
vn -0.228628 0.973297 -0.020568
vn -0.157184 0.987457 -0.014883
vn -0.157409 0.986055 -0.054023
vn -0.224656 0.973604 0.040315
vn -0.208215 0.973341 0.096199
vn -0.143381 0.987502 0.065437
vn -0.158914 0.986845 0.029718
vn -0.181525 0.971869 0.150066
vn -0.145815 0.970368 0.192674
vn -0.100883 0.986082 0.132155
vn -0.127781 0.985956 0.107529
vn -0.102324 0.968090 0.228760
vn -0.055485 0.966679 0.249906
vn -0.038905 0.984298 0.172174
vn -0.071239 0.984078 0.162835
vn -0.003934 0.965141 0.261700
vn 0.044744 0.965015 0.258349
vn 0.030181 0.983476 0.178505
vn -0.001570 0.982640 0.185515
vn 0.094629 0.965197 0.243804
vn 0.136501 0.966584 0.216985
vn 0.093587 0.984208 0.150251
vn 0.067872 0.982699 0.172326
vn 0.175164 0.968206 0.178593
vn 0.202497 0.970261 0.132623
vn 0.139185 0.985976 0.092077
vn 0.124493 0.984206 0.125855
vn 0.222047 0.971953 0.077481
vn 0.228628 0.973297 0.020568
vn 0.157184 0.987457 0.014883
vn 0.157409 0.986055 0.054023
vn 0.224656 0.973604 -0.040315
vn 0.208215 0.973341 -0.096199
vn 0.143381 0.987502 -0.065437
vn 0.158914 0.986845 -0.029718
vn 0.181525 0.971869 -0.150066
vn 0.145815 0.970368 -0.192674
vn 0.100883 0.986082 -0.132155
vn 0.127781 0.985956 -0.107529
vn 0.102324 0.968090 -0.228760
vn 0.055485 0.966679 -0.249906
vn 0.038905 0.984298 -0.172174
vn 0.071239 0.984078 -0.162835
vn 0.003934 0.965141 -0.261700
vn -0.044744 0.965015 -0.258349
vn -0.030181 0.983476 -0.178505
vn 0.001570 0.982640 -0.185515
vn -0.094629 0.965197 -0.243804
vn -0.067873 0.982699 -0.172326
vn -0.074135 0.994259 -0.077150
vn -0.048883 0.995957 -0.075368
vn -0.070581 0.996515 -0.044447
vn -0.000000 1.000000 0.000000
vn -0.094923 0.994901 -0.034080
vn -0.077883 0.996943 -0.006205
vn -0.096395 0.995198 0.016997
vn -0.071064 0.996943 0.032469
vn -0.077543 0.994901 0.064490
vn -0.051123 0.996515 0.065907
vn -0.043277 0.994259 0.097853
vn -0.020158 0.995957 0.087541
vn -0.001668 0.993769 0.111444
vn 0.016087 0.995699 0.091235
vn 0.039683 0.993769 0.104153
vn 0.048883 0.995957 0.075367
vn 0.074135 0.994259 0.077150
vn 0.070581 0.996515 0.044447
vn 0.094923 0.994901 0.034080
vn 0.077883 0.996943 0.006205
vn 0.096395 0.995198 -0.016997
vn 0.071064 0.996943 -0.032468
vn 0.077543 0.994901 -0.064490
vn 0.051123 0.996515 -0.065907
vn 0.043277 0.994259 -0.097853
vn 0.020158 0.995957 -0.087541
vn 0.001668 0.993769 -0.111444
vn -0.016087 0.995699 -0.091235
vn -0.039683 0.993769 -0.104153
vn -0.112724 -0.986176 -0.121454
vn -0.054934 -0.996114 -0.068841
vn -0.228716 -0.971218 -0.066516
vn -0.366781 -0.917604 -0.153215
vn 0.000000 -1.000000 -0.000000
vn -0.151914 -0.988345 0.009783
vn -0.297995 -0.954527 0.008782
vn 0.000000 -1.000000 -0.000000
vn 0.000000 -1.000000 -0.000000
vn -0.002508 -0.999238 -0.038952
vn 0.002766 -0.999037 -0.043799
vn 0.000000 -1.000000 -0.000000
vn -0.006965 -0.999272 -0.037500
vn -0.013418 -0.997263 -0.072706
vn -0.002708 -0.996924 -0.078334
vn 0.011088 -0.995825 -0.090602
vn 0.000000 -1.000000 -0.000000
vn -0.012234 -0.999175 -0.038728
vn 0.000000 -1.000000 -0.000000
vn -0.020654 -0.998853 -0.043206
vn -0.039031 -0.996359 -0.075800
vn -0.024423 -0.997113 -0.071903
vn 0.000000 -1.000000 -0.000000
vn 0.000000 -1.000000 -0.000000
vn 0.010866 -0.998486 -0.053924
vn 0.031796 -0.996328 -0.079493
vn 0.034799 -0.992701 -0.115473
vn 0.091873 -0.980907 -0.171408
vn 0.285944 -0.952815 -0.101875
vn 0.142006 -0.988807 -0.045763
vn 0.192173 -0.971218 -0.140730
vn 0.292259 -0.917604 -0.269421
vn -0.063149 -0.994254 -0.086442
vn -0.037280 -0.997902 -0.052933
vn 0.000000 -1.000000 -0.000000
vn 0.144958 -0.980907 0.129648
vn 0.057067 -0.996328 0.063824
vn 0.228717 -0.971218 0.066516
vn 0.366781 -0.917604 0.153215
vn 0.000000 -1.000000 -0.000000
vn 0.151915 -0.988345 -0.009783
vn 0.297996 -0.954527 -0.008782
vn 0.041407 -0.995825 0.081346
vn 0.017580 -0.999037 0.040211
vn 0.028654 -0.998486 0.046955
vn 0.072194 -0.992701 0.096607
vn 0.000000 -1.000000 -0.000000
vn 0.000000 -1.000000 -0.000000
vn 0.012258 -0.997263 0.072911
vn 0.006281 -0.999272 0.037621
vn 0.010965 -0.999238 0.037461
vn 0.024247 -0.996924 0.074536
vn 0.000000 -1.000000 -0.000000
vn 0.000000 -1.000000 -0.000000
vn -0.008165 -0.996149 0.087297
vn -0.001764 -0.999002 0.044634
vn 0.001750 -0.999175 0.040577
vn 0.001642 -0.997113 0.075920
vn 0.000000 -1.000000 -0.000000
vn 0.000000 -1.000000 -0.000000
vn 0.000000 -1.000000 -0.000000
vn 0.000000 -1.000000 -0.000000
vn -0.010866 -0.998486 0.053924
vn -0.031796 -0.996328 0.079493
vn -0.034799 -0.992701 0.115473
vn -0.091873 -0.980907 0.171408
vn -0.285944 -0.952815 0.101875
vn -0.142006 -0.988807 0.045763
vn -0.192173 -0.971218 0.140730
vn -0.292259 -0.917604 0.269422
vn -0.128368 -0.991540 0.019247
vn -0.247446 -0.968155 0.038024
vn 0.000000 -1.000000 -0.000000
vn 0.000000 -1.000000 -0.000000
vn 0.000000 -1.000000 -0.000000
vn 0.000000 -1.000000 -0.000000
vn 0.000000 -1.000000 -0.000000
vn 0.000000 -1.000000 -0.000000
vn 0.000000 -1.000000 -0.000000
vn 0.000000 -1.000000 -0.000000
vn 0.000000 -1.000000 -0.000000
vn 0.128368 -0.991540 -0.019247
vn 0.247446 -0.968155 -0.038024
f 1/1/1 2/2/2 3/3/3
f 1/1/1 3/3/3 4/4/4
f 2/2/2 5/5/5 6/6/6
f 2/2/2 6/6/6 3/3/3
f 3/3/3 6/6/6 7/7/7
f 3/3/3 7/7/7 8/8/8
f 4/4/4 3/3/3 8/8/8
f 4/4/4 8/8/8 9/9/9
f 5/5/5 10/10/10 11/11/11
f 5/5/5 11/11/11 6/6/6
f 10/10/10 12/12/12 13/13/13
f 10/10/10 13/13/13 11/11/11
f 11/11/11 13/13/13 14/14/14
f 11/11/11 14/14/14 15/15/15
f 6/6/6 11/11/11 15/15/15
f 6/6/6 15/15/15 7/7/7
f 12/12/12 16/16/16 17/17/17
f 12/12/12 17/17/17 13/13/13
f 16/16/16 18/18/18 19/19/19
f 16/16/16 19/19/19 17/17/17
f 17/17/17 19/19/19 20/20/20
f 17/17/17 20/20/20 21/21/21
f 13/13/13 17/17/17 21/21/21
f 13/13/13 21/21/21 14/14/14
f 18/18/18 22/22/22 23/23/23
f 18/18/18 23/23/23 19/19/19
f 22/22/22 24/24/24 25/25/25
f 22/22/22 25/25/25 23/23/23
f 23/23/23 25/25/25 26/26/26
f 23/23/23 26/26/26 27/27/27
f 19/19/19 23/23/23 27/27/27
f 19/19/19 27/27/27 20/20/20
f 24/24/24 28/28/28 29/29/29
f 24/24/24 29/29/29 25/25/25
f 28/28/28 30/30/30 31/31/31
f 28/28/28 31/31/31 29/29/29
f 29/29/29 31/31/31 32/32/32
f 29/29/29 32/32/32 33/33/33
f 25/25/25 29/29/29 33/33/33
f 25/25/25 33/33/33 26/26/26
f 30/30/30 34/34/34 35/35/35
f 30/30/30 35/35/35 31/31/31
f 34/34/34 36/36/36 37/37/37
f 34/34/34 37/37/37 35/35/35
f 35/35/35 37/37/37 38/38/38
f 35/35/35 38/38/38 39/39/39
f 31/31/31 35/35/35 39/39/39
f 31/31/31 39/39/39 32/32/32
f 36/36/36 40/40/40 41/41/41
f 36/36/36 41/41/41 37/37/37
f 40/40/40 42/42/42 43/43/43
f 40/40/40 43/43/43 41/41/41
f 41/41/41 43/43/43 44/44/44
f 41/41/41 44/44/44 45/45/45
f 37/37/37 41/41/41 45/45/45
f 37/37/37 45/45/45 38/38/38
f 42/42/42 46/46/46 47/47/47
f 42/42/42 47/47/47 43/43/43
f 46/46/46 48/48/48 49/49/49
f 46/46/46 49/49/49 47/47/47
f 47/47/47 49/49/49 50/50/50
f 47/47/47 50/50/50 51/51/51
f 43/43/43 47/47/47 51/51/51
f 43/43/43 51/51/51 44/44/44
f 48/48/48 52/52/52 53/53/53
f 48/48/48 53/53/53 49/49/49
f 52/52/52 54/54/54 55/55/55
f 52/52/52 55/55/55 53/53/53
f 53/53/53 55/55/55 56/56/56
f 53/53/53 56/56/56 57/57/57
f 49/49/49 53/53/53 57/57/57
f 49/49/49 57/57/57 50/50/50
f 54/54/54 58/58/58 59/59/59
f 54/54/54 59/59/59 55/55/55
f 58/58/58 60/60/60 61/61/61
f 58/58/58 61/61/61 59/59/59
f 59/59/59 61/61/61 62/62/62
f 59/59/59 62/62/62 63/63/63
f 55/55/55 59/59/59 63/63/63
f 55/55/55 63/63/63 56/56/56
f 60/60/60 64/64/64 65/65/65
f 60/60/60 65/65/65 61/61/61
f 64/64/64 66/66/66 67/67/67
f 64/64/64 67/67/67 65/65/65
f 65/65/65 67/67/67 68/68/68
f 65/65/65 68/68/68 69/69/69
f 61/61/61 65/65/65 69/69/69
f 61/61/61 69/69/69 62/62/62
f 66/66/66 70/70/70 71/71/71
f 66/66/66 71/71/71 67/67/67
f 70/70/70 72/72/72 73/73/73
f 70/70/70 73/73/73 71/71/71
f 71/71/71 73/73/73 74/74/74
f 71/71/71 74/74/74 75/75/75
f 67/67/67 71/71/71 75/75/75
f 67/67/67 75/75/75 68/68/68
f 72/72/72 76/76/76 77/77/77
f 72/72/72 77/77/77 73/73/73
f 76/76/76 78/78/78 79/79/79
f 76/76/76 79/79/79 77/77/77
f 77/77/77 79/79/79 80/80/80
f 77/77/77 80/80/80 81/81/81
f 73/73/73 77/77/77 81/81/81
f 73/73/73 81/81/81 74/74/74
f 78/78/78 82/82/82 83/83/83
f 78/78/78 83/83/83 79/79/79
f 82/82/82 1/1/1 4/4/4
f 82/82/82 4/4/4 83/83/83
f 83/83/83 4/4/4 9/9/9
f 83/83/83 9/9/9 84/84/84
f 79/79/79 83/83/83 84/84/84
f 79/79/79 84/84/84 80/80/80
f 9/9/9 8/8/8 85/85/85
f 9/9/9 85/85/85 86/86/86
f 8/8/8 7/7/7 87/87/87
f 8/8/8 87/87/87 85/85/85
f 85/85/85 87/87/87 88/88/88
f 85/85/85 88/88/88 89/89/89
f 86/86/86 85/85/85 89/89/89
f 86/86/86 89/89/89 90/90/90
f 7/7/7 15/15/15 91/91/91
f 7/7/7 91/91/91 87/87/87
f 15/15/15 14/14/14 92/92/92
f 15/15/15 92/92/92 91/91/91
f 91/91/91 92/92/92 93/93/93
f 91/91/91 93/93/93 94/94/94
f 87/87/87 91/91/91 94/94/94
f 87/87/87 94/94/94 88/88/88
f 14/14/14 21/21/21 95/95/95
f 14/14/14 95/95/95 92/92/92
f 21/21/21 20/20/20 96/96/96
f 21/21/21 96/96/96 95/95/95
f 95/95/95 96/96/96 97/97/97
f 95/95/95 97/97/97 98/98/98
f 92/92/92 95/95/95 98/98/98
f 92/92/92 98/98/98 93/93/93
f 20/20/20 27/27/27 99/99/99
f 20/20/20 99/99/99 96/96/96
f 27/27/27 26/26/26 100/100/100
f 27/27/27 100/100/100 99/99/99
f 99/99/99 100/100/100 101/101/101
f 99/99/99 101/101/101 102/102/102
f 96/96/96 99/99/99 102/102/102
f 96/96/96 102/102/102 97/97/97
f 26/26/26 33/33/33 103/103/103
f 26/26/26 103/103/103 100/100/100
f 33/33/33 32/32/32 104/104/104
f 33/33/33 104/104/104 103/103/103
f 103/103/103 104/104/104 105/105/105
f 103/103/103 105/105/105 106/106/106
f 100/100/100 103/103/103 106/106/106
f 100/100/100 106/106/106 101/101/101
f 32/32/32 39/39/39 107/107/107
f 32/32/32 107/107/107 104/104/104
f 39/39/39 38/38/38 108/108/108
f 39/39/39 108/108/108 107/107/107
f 107/107/107 108/108/108 109/109/109
f 107/107/107 109/109/109 110/110/110
f 104/104/104 107/107/107 110/110/110
f 104/104/104 110/110/110 105/105/105
f 38/38/38 45/45/45 111/111/111
f 38/38/38 111/111/111 108/108/108
f 45/45/45 44/44/44 112/112/112
f 45/45/45 112/112/112 111/111/111
f 111/111/111 112/112/112 113/113/113
f 111/111/111 113/113/113 114/114/114
f 108/108/108 111/111/111 114/114/114
f 108/108/108 114/114/114 109/109/109
f 44/44/44 51/51/51 115/115/115
f 44/44/44 115/115/115 112/112/112
f 51/51/51 50/50/50 116/116/116
f 51/51/51 116/116/116 115/115/115
f 115/115/115 116/116/116 117/117/117
f 115/115/115 117/117/117 118/118/118
f 112/112/112 115/115/115 118/118/118
f 112/112/112 118/118/118 113/113/113
f 50/50/50 57/57/57 119/119/119
f 50/50/50 119/119/119 116/116/116
f 57/57/57 56/56/56 120/120/120
f 57/57/57 120/120/120 119/119/119
f 119/119/119 120/120/120 121/121/121
f 119/119/119 121/121/121 122/122/122
f 116/116/116 119/119/119 122/122/122
f 116/116/116 122/122/122 117/117/117
f 56/56/56 63/63/63 123/123/123
f 56/56/56 123/123/123 120/120/120
f 63/63/63 62/62/62 124/124/124
f 63/63/63 124/124/124 123/123/123
f 123/123/123 124/124/124 125/125/125
f 123/123/123 125/125/125 126/126/126
f 120/120/120 123/123/123 126/126/126
f 120/120/120 126/126/126 121/121/121
f 62/62/62 69/69/69 127/127/127
f 62/62/62 127/127/127 124/124/124
f 69/69/69 68/68/68 128/128/128
f 69/69/69 128/128/128 127/127/127
f 127/127/127 128/128/128 129/129/129
f 127/127/127 129/129/129 130/130/130
f 124/124/124 127/127/127 130/130/130
f 124/124/124 130/130/130 125/125/125
f 68/68/68 75/75/75 131/131/131
f 68/68/68 131/131/131 128/128/128
f 75/75/75 74/74/74 132/132/132
f 75/75/75 132/132/132 131/131/131
f 131/131/131 132/132/132 133/133/133
f 131/131/131 133/133/133 134/134/134
f 128/128/128 131/131/131 134/134/134
f 128/128/128 134/134/134 129/129/129
f 74/74/74 81/81/81 135/135/135
f 74/74/74 135/135/135 132/132/132
f 81/81/81 80/80/80 136/136/136
f 81/81/81 136/136/136 135/135/135
f 135/135/135 136/136/136 137/137/137
f 135/135/135 137/137/137 138/138/138
f 132/132/132 135/135/135 138/138/138
f 132/132/132 138/138/138 133/133/133
f 80/80/80 84/84/84 139/139/139
f 80/80/80 139/139/139 136/136/136
f 84/84/84 9/9/9 86/86/86
f 84/84/84 86/86/86 139/139/139
f 139/139/139 86/86/86 90/90/90
f 139/139/139 90/90/90 140/140/140
f 136/136/136 139/139/139 140/140/140
f 136/136/136 140/140/140 137/137/137
f 90/90/90 89/89/89 141/141/141
f 90/90/90 141/141/141 142/142/142
f 89/89/89 88/88/88 143/143/143
f 89/89/89 143/143/143 141/141/141
f 141/141/141 143/143/143 144/144/144
f 141/141/141 144/144/144 145/145/145
f 142/142/142 141/141/141 145/145/145
f 142/142/142 145/145/145 146/146/146
f 88/88/88 94/94/94 147/147/147
f 88/88/88 147/147/147 143/143/143
f 94/94/94 93/93/93 148/148/148
f 94/94/94 148/148/148 147/147/147
f 147/147/147 148/148/148 149/149/149
f 147/147/147 149/149/149 150/150/150
f 143/143/143 147/147/147 150/150/150
f 143/143/143 150/150/150 144/144/144
f 93/93/93 98/98/98 151/151/151
f 93/93/93 151/151/151 148/148/148
f 98/98/98 97/97/97 152/152/152
f 98/98/98 152/152/152 151/151/151
f 151/151/151 152/152/152 153/153/153
f 151/151/151 153/153/153 154/154/154
f 148/148/148 151/151/151 154/154/154
f 148/148/148 154/154/154 149/149/149
f 97/97/97 102/102/102 155/155/155
f 97/97/97 155/155/155 152/152/152
f 102/102/102 101/101/101 156/156/156
f 102/102/102 156/156/156 155/155/155
f 155/155/155 156/156/156 157/157/157
f 155/155/155 157/157/157 158/158/158
f 152/152/152 155/155/155 158/158/158
f 152/152/152 158/158/158 153/153/153
f 101/101/101 106/106/106 159/159/159
f 101/101/101 159/159/159 156/156/156
f 106/106/106 105/105/105 160/160/160
f 106/106/106 160/160/160 159/159/159
f 159/159/159 160/160/160 161/161/161
f 159/159/159 161/161/161 162/162/162
f 156/156/156 159/159/159 162/162/162
f 156/156/156 162/162/162 157/157/157
f 105/105/105 110/110/110 163/163/163
f 105/105/105 163/163/163 160/160/160
f 110/110/110 109/109/109 164/164/164
f 110/110/110 164/164/164 163/163/163
f 163/163/163 164/164/164 165/165/165
f 163/163/163 165/165/165 166/166/166
f 160/160/160 163/163/163 166/166/166
f 160/160/160 166/166/166 161/161/161
f 109/109/109 114/114/114 167/167/167
f 109/109/109 167/167/167 164/164/164
f 114/114/114 113/113/113 168/168/168
f 114/114/114 168/168/168 167/167/167
f 167/167/167 168/168/168 169/169/169
f 167/167/167 169/169/169 170/170/170
f 164/164/164 167/167/167 170/170/170
f 164/164/164 170/170/170 165/165/165
f 113/113/113 118/118/118 171/171/171
f 113/113/113 171/171/171 168/168/168
f 118/118/118 117/117/117 172/172/172
f 118/118/118 172/172/172 171/171/171
f 171/171/171 172/172/172 173/173/173
f 171/171/171 173/173/173 174/174/174
f 168/168/168 171/171/171 174/174/174
f 168/168/168 174/174/174 169/169/169
f 117/117/117 122/122/122 175/175/175
f 117/117/117 175/175/175 172/172/172
f 122/122/122 121/121/121 176/176/176
f 122/122/122 176/176/176 175/175/175
f 175/175/175 176/176/176 177/177/177
f 175/175/175 177/177/177 178/178/178
f 172/172/172 175/175/175 178/178/178
f 172/172/172 178/178/178 173/173/173
f 121/121/121 126/126/126 179/179/179
f 121/121/121 179/179/179 176/176/176
f 126/126/126 125/125/125 180/180/180
f 126/126/126 180/180/180 179/179/179
f 179/179/179 180/180/180 181/181/181
f 179/179/179 181/181/181 182/182/182
f 176/176/176 179/179/179 182/182/182
f 176/176/176 182/182/182 177/177/177
f 125/125/125 130/130/130 183/183/183
f 125/125/125 183/183/183 180/180/180
f 130/130/130 129/129/129 184/184/184
f 130/130/130 184/184/184 183/183/183
f 183/183/183 184/184/184 185/185/185
f 183/183/183 185/185/185 186/186/186
f 180/180/180 183/183/183 186/186/186
f 180/180/180 186/186/186 181/181/181
f 129/129/129 134/134/134 187/187/187
f 129/129/129 187/187/187 184/184/184
f 134/134/134 133/133/133 188/188/188
f 134/134/134 188/188/188 187/187/187
f 187/187/187 188/188/188 189/189/189
f 187/187/187 189/189/189 190/190/190
f 184/184/184 187/187/187 190/190/190
f 184/184/184 190/190/190 185/185/185
f 133/133/133 138/138/138 191/191/191
f 133/133/133 191/191/191 188/188/188
f 138/138/138 137/137/137 192/192/192
f 138/138/138 192/192/192 191/191/191
f 191/191/191 192/192/192 193/193/193
f 191/191/191 193/193/193 194/194/194
f 188/188/188 191/191/191 194/194/194
f 188/188/188 194/194/194 189/189/189
f 137/137/137 140/140/140 195/195/195
f 137/137/137 195/195/195 192/192/192
f 140/140/140 90/90/90 142/142/142
f 140/140/140 142/142/142 195/195/195
f 195/195/195 142/142/142 146/146/146
f 195/195/195 146/146/146 196/196/196
f 192/192/192 195/195/195 196/196/196
f 192/192/192 196/196/196 193/193/193
f 146/146/146 145/145/145 197/197/197
f 146/146/146 197/197/197 198/198/198
f 145/145/145 144/144/144 199/199/199
f 145/145/145 199/199/199 197/197/197
f 197/197/197 199/199/199 200/200/200
f 197/197/197 200/200/200 201/201/201
f 198/198/198 197/197/197 201/201/201
f 198/198/198 201/201/201 202/202/202
f 144/144/144 150/150/150 203/203/203
f 144/144/144 203/203/203 199/199/199
f 150/150/150 149/149/149 204/204/204
f 150/150/150 204/204/204 203/203/203
f 203/203/203 204/204/204 205/205/205
f 203/203/203 205/205/205 206/206/206
f 199/199/199 203/203/203 206/206/206
f 199/199/199 206/206/206 200/200/200
f 149/149/149 154/154/154 207/207/207
f 149/149/149 207/207/207 204/204/204
f 154/154/154 153/153/153 208/208/208
f 154/154/154 208/208/208 207/207/207
f 207/207/207 208/208/208 209/209/209
f 207/207/207 209/209/209 210/210/210
f 204/204/204 207/207/207 210/210/210
f 204/204/204 210/210/210 205/205/205
f 153/153/153 158/158/158 211/211/211
f 153/153/153 211/211/211 208/208/208
f 158/158/158 157/157/157 212/212/212
f 158/158/158 212/212/212 211/211/211
f 211/211/211 212/212/212 213/213/213
f 211/211/211 213/213/213 214/214/214
f 208/208/208 211/211/211 214/214/214
f 208/208/208 214/214/214 209/209/209
f 157/157/157 162/162/162 215/215/215
f 157/157/157 215/215/215 212/212/212
f 162/162/162 161/161/161 216/216/216
f 162/162/162 216/216/216 215/215/215
f 215/215/215 216/216/216 217/217/217
f 215/215/215 217/217/217 218/218/218
f 212/212/212 215/215/215 218/218/218
f 212/212/212 218/218/218 213/213/213
f 161/161/161 166/166/166 219/219/219
f 161/161/161 219/219/219 216/216/216
f 166/166/166 165/165/165 220/220/220
f 166/166/166 220/220/220 219/219/219
f 219/219/219 220/220/220 221/221/221
f 219/219/219 221/221/221 222/222/222
f 216/216/216 219/219/219 222/222/222
f 216/216/216 222/222/222 217/217/217
f 165/165/165 170/170/170 223/223/223
f 165/165/165 223/223/223 220/220/220
f 170/170/170 169/169/169 224/224/224
f 170/170/170 224/224/224 223/223/223
f 223/223/223 224/224/224 225/225/225
f 223/223/223 225/225/225 226/226/226
f 220/220/220 223/223/223 226/226/226
f 220/220/220 226/226/226 221/221/221
f 169/169/169 174/174/174 227/227/227
f 169/169/169 227/227/227 224/224/224
f 174/174/174 173/173/173 228/228/228
f 174/174/174 228/228/228 227/227/227
f 227/227/227 228/228/228 229/229/229
f 227/227/227 229/229/229 230/230/230
f 224/224/224 227/227/227 230/230/230
f 224/224/224 230/230/230 225/225/225
f 173/173/173 178/178/178 231/231/231
f 173/173/173 231/231/231 228/228/228
f 178/178/178 177/177/177 232/232/232
f 178/178/178 232/232/232 231/231/231
f 231/231/231 232/232/232 233/233/233
f 231/231/231 233/233/233 234/234/234
f 228/228/228 231/231/231 234/234/234
f 228/228/228 234/234/234 229/229/229
f 177/177/177 182/182/182 235/235/235
f 177/177/177 235/235/235 232/232/232
f 182/182/182 181/181/181 236/236/236
f 182/182/182 236/236/236 235/235/235
f 235/235/235 236/236/236 237/237/237
f 235/235/235 237/237/237 238/238/238
f 232/232/232 235/235/235 238/238/238
f 232/232/232 238/238/238 233/233/233
f 181/181/181 186/186/186 239/239/239
f 181/181/181 239/239/239 236/236/236
f 186/186/186 185/185/185 240/240/240
f 186/186/186 240/240/240 239/239/239
f 239/239/239 240/240/240 241/241/241
f 239/239/239 241/241/241 242/242/242
f 236/236/236 239/239/239 242/242/242
f 236/236/236 242/242/242 237/237/237
f 185/185/185 190/190/190 243/243/243
f 185/185/185 243/243/243 240/240/240
f 190/190/190 189/189/189 244/244/244
f 190/190/190 244/244/244 243/243/243
f 243/243/243 244/244/244 245/245/245
f 243/243/243 245/245/245 246/246/246
f 240/240/240 243/243/243 246/246/246
f 240/240/240 246/246/246 241/241/241
f 189/189/189 194/194/194 247/247/247
f 189/189/189 247/247/247 244/244/244
f 194/194/194 193/193/193 248/248/248
f 194/194/194 248/248/248 247/247/247
f 247/247/247 248/248/248 249/249/249
f 247/247/247 249/249/249 250/250/250
f 244/244/244 247/247/247 250/250/250
f 244/244/244 250/250/250 245/245/245
f 193/193/193 196/196/196 251/251/251
f 193/193/193 251/251/251 248/248/248
f 196/196/196 146/146/146 198/198/198
f 196/196/196 198/198/198 251/251/251
f 251/251/251 198/198/198 202/202/202
f 251/251/251 202/202/202 252/252/252
f 248/248/248 251/251/251 252/252/252
f 248/248/248 252/252/252 249/249/249
f 202/202/202 201/201/201 253/253/253
f 202/202/202 253/253/253 254/254/254
f 201/201/201 200/200/200 255/255/255
f 201/201/201 255/255/255 253/253/253
f 253/253/253 255/255/255 256/256/256
f 253/253/253 256/256/256 257/257/257
f 254/254/254 253/253/253 257/257/257
f 254/254/254 257/257/257 258/258/258
f 200/200/200 206/206/206 259/259/259
f 200/200/200 259/259/259 255/255/255
f 206/206/206 205/205/205 260/260/260
f 206/206/206 260/260/260 259/259/259
f 259/259/259 260/260/260 261/261/261
f 259/259/259 261/261/261 262/262/262
f 255/255/255 259/259/259 262/262/262
f 255/255/255 262/262/262 256/256/256
f 205/205/205 210/210/210 263/263/263
f 205/205/205 263/263/263 260/260/260
f 210/210/210 209/209/209 264/264/264
f 210/210/210 264/264/264 263/263/263
f 263/263/263 264/264/264 265/265/265
f 263/263/263 265/265/265 266/266/266
f 260/260/260 263/263/263 266/266/266
f 260/260/260 266/266/266 261/261/261
f 209/209/209 214/214/214 267/267/267
f 209/209/209 267/267/267 264/264/264
f 214/214/214 213/213/213 268/268/268
f 214/214/214 268/268/268 267/267/267
f 267/267/267 268/268/268 269/269/269
f 267/267/267 269/269/269 270/270/270
f 264/264/264 267/267/267 270/270/270
f 264/264/264 270/270/270 265/265/265
f 213/213/213 218/218/218 271/271/271
f 213/213/213 271/271/271 268/268/268
f 218/218/218 217/217/217 272/272/272
f 218/218/218 272/272/272 271/271/271
f 271/271/271 272/272/272 273/273/273
f 271/271/271 273/273/273 274/274/274
f 268/268/268 271/271/271 274/274/274
f 268/268/268 274/274/274 269/269/269
f 217/217/217 222/222/222 275/275/275
f 217/217/217 275/275/275 272/272/272
f 222/222/222 221/221/221 276/276/276
f 222/222/222 276/276/276 275/275/275
f 275/275/275 276/276/276 277/277/277
f 275/275/275 277/277/277 278/278/278
f 272/272/272 275/275/275 278/278/278
f 272/272/272 278/278/278 273/273/273
f 221/221/221 226/226/226 279/279/279
f 221/221/221 279/279/279 276/276/276
f 226/226/226 225/225/225 280/280/280
f 226/226/226 280/280/280 279/279/279
f 279/279/279 280/280/280 281/281/281
f 279/279/279 281/281/281 282/282/282
f 276/276/276 279/279/279 282/282/282
f 276/276/276 282/282/282 277/277/277
f 225/225/225 230/230/230 283/283/283
f 225/225/225 283/283/283 280/280/280
f 230/230/230 229/229/229 284/284/284
f 230/230/230 284/284/284 283/283/283
f 283/283/283 284/284/284 285/285/285
f 283/283/283 285/285/285 286/286/286
f 280/280/280 283/283/283 286/286/286
f 280/280/280 286/286/286 281/281/281
f 229/229/229 234/234/234 287/287/287
f 229/229/229 287/287/287 284/284/284
f 234/234/234 233/233/233 288/288/288
f 234/234/234 288/288/288 287/287/287
f 287/287/287 288/288/288 289/289/289
f 287/287/287 289/289/289 290/290/290
f 284/284/284 287/287/287 290/290/290
f 284/284/284 290/290/290 285/285/285
f 233/233/233 238/238/238 291/291/291
f 233/233/233 291/291/291 288/288/288
f 238/238/238 237/237/237 292/292/292
f 238/238/238 292/292/292 291/291/291
f 291/291/291 292/292/292 293/293/293
f 291/291/291 293/293/293 294/294/294
f 288/288/288 291/291/291 294/294/294
f 288/288/288 294/294/294 289/289/289
f 237/237/237 242/242/242 295/295/295
f 237/237/237 295/295/295 292/292/292
f 242/242/242 241/241/241 296/296/296
f 242/242/242 296/296/296 295/295/295
f 295/295/295 296/296/296 297/297/297
f 295/295/295 297/297/297 298/298/298
f 292/292/292 295/295/295 298/298/298
f 292/292/292 298/298/298 293/293/293
f 241/241/241 246/246/246 299/299/299
f 241/241/241 299/299/299 296/296/296
f 246/246/246 245/245/245 300/300/300
f 246/246/246 300/300/300 299/299/299
f 299/299/299 300/300/300 301/301/301
f 299/299/299 301/301/301 302/302/302
f 296/296/296 299/299/299 302/302/302
f 296/296/296 302/302/302 297/297/297
f 245/245/245 250/250/250 303/303/303
f 245/245/245 303/303/303 300/300/300
f 250/250/250 249/249/249 304/304/304
f 250/250/250 304/304/304 303/303/303
f 303/303/303 304/304/304 305/305/305
f 303/303/303 305/305/305 306/306/306
f 300/300/300 303/303/303 306/306/306
f 300/300/300 306/306/306 301/301/301
f 249/249/249 252/252/252 307/307/307
f 249/249/249 307/307/307 304/304/304
f 252/252/252 202/202/202 254/254/254
f 252/252/252 254/254/254 307/307/307
f 307/307/307 254/254/254 258/258/258
f 307/307/307 258/258/258 308/308/308
f 304/304/304 307/307/307 308/308/308
f 304/304/304 308/308/308 305/305/305
f 258/258/258 257/257/257 309/309/309
f 258/258/258 309/309/309 310/310/310
f 257/257/257 256/256/256 311/311/311
f 257/257/257 311/311/311 309/309/309
f 309/309/309 311/311/311 312/312/312
f 309/309/309 312/312/312 313/313/313
f 310/310/310 309/309/309 313/313/313
f 310/310/310 313/313/313 314/314/314
f 256/256/256 262/262/262 315/315/315
f 256/256/256 315/315/315 311/311/311
f 262/262/262 261/261/261 316/316/316
f 262/262/262 316/316/316 315/315/315
f 315/315/315 316/316/316 317/317/317
f 315/315/315 317/317/317 318/318/318
f 311/311/311 315/315/315 318/318/318
f 311/311/311 318/318/318 312/312/312
f 261/261/261 266/266/266 319/319/319
f 261/261/261 319/319/319 316/316/316
f 266/266/266 265/265/265 320/320/320
f 266/266/266 320/320/320 319/319/319
f 319/319/319 320/320/320 321/321/321
f 319/319/319 321/321/321 322/322/322
f 316/316/316 319/319/319 322/322/322
f 316/316/316 322/322/322 317/317/317
f 265/265/265 270/270/270 323/323/323
f 265/265/265 323/323/323 320/320/320
f 270/270/270 269/269/269 324/324/324
f 270/270/270 324/324/324 323/323/323
f 323/323/323 324/324/324 325/325/325
f 323/323/323 325/325/325 326/326/326
f 320/320/320 323/323/323 326/326/326
f 320/320/320 326/326/326 321/321/321
f 269/269/269 274/274/274 327/327/327
f 269/269/269 327/327/327 324/324/324
f 274/274/274 273/273/273 328/328/328
f 274/274/274 328/328/328 327/327/327
f 327/327/327 328/328/328 329/329/329
f 327/327/327 329/329/329 330/330/330
f 324/324/324 327/327/327 330/330/330
f 324/324/324 330/330/330 325/325/325
f 273/273/273 278/278/278 331/331/331
f 273/273/273 331/331/331 328/328/328
f 278/278/278 277/277/277 332/332/332
f 278/278/278 332/332/332 331/331/331
f 331/331/331 332/332/332 333/333/333
f 331/331/331 333/333/333 334/334/334
f 328/328/328 331/331/331 334/334/334
f 328/328/328 334/334/334 329/329/329
f 277/277/277 282/282/282 335/335/335
f 277/277/277 335/335/335 332/332/332
f 282/282/282 281/281/281 336/336/336
f 282/282/282 336/336/336 335/335/335
f 335/335/335 336/336/336 337/337/337
f 335/335/335 337/337/337 338/338/338
f 332/332/332 335/335/335 338/338/338
f 332/332/332 338/338/338 333/333/333
f 281/281/281 286/286/286 339/339/339
f 281/281/281 339/339/339 336/336/336
f 286/286/286 285/285/285 340/340/340
f 286/286/286 340/340/340 339/339/339
f 339/339/339 340/340/340 341/341/341
f 339/339/339 341/341/341 342/342/342
f 336/336/336 339/339/339 342/342/342
f 336/336/336 342/342/342 337/337/337
f 285/285/285 290/290/290 343/343/343
f 285/285/285 343/343/343 340/340/340
f 290/290/290 289/289/289 344/344/344
f 290/290/290 344/344/344 343/343/343
f 343/343/343 344/344/344 345/345/345
f 343/343/343 345/345/345 346/346/346
f 340/340/340 343/343/343 346/346/346
f 340/340/340 346/346/346 341/341/341
f 289/289/289 294/294/294 347/347/347
f 289/289/289 347/347/347 344/344/344
f 294/294/294 293/293/293 348/348/348
f 294/294/294 348/348/348 347/347/347
f 347/347/347 348/348/348 349/349/349
f 347/347/347 349/349/349 350/350/350
f 344/344/344 347/347/347 350/350/350
f 344/344/344 350/350/350 345/345/345
f 293/293/293 298/298/298 351/351/351
f 293/293/293 351/351/351 348/348/348
f 298/298/298 297/297/297 352/352/352
f 298/298/298 352/352/352 351/351/351
f 351/351/351 352/352/352 353/353/353
f 351/351/351 353/353/353 354/354/354
f 348/348/348 351/351/351 354/354/354
f 348/348/348 354/354/354 349/349/349
f 297/297/297 302/302/302 355/355/355
f 297/297/297 355/355/355 352/352/352
f 302/302/302 301/301/301 356/356/356
f 302/302/302 356/356/356 355/355/355
f 355/355/355 356/356/356 357/357/357
f 355/355/355 357/357/357 358/358/358
f 352/352/352 355/355/355 358/358/358
f 352/352/352 358/358/358 353/353/353
f 301/301/301 306/306/306 359/359/359
f 301/301/301 359/359/359 356/356/356
f 306/306/306 305/305/305 360/360/360
f 306/306/306 360/360/360 359/359/359
f 359/359/359 360/360/360 361/361/361
f 359/359/359 361/361/361 362/362/362
f 356/356/356 359/359/359 362/362/362
f 356/356/356 362/362/362 357/357/357
f 305/305/305 308/308/308 363/363/363
f 305/305/305 363/363/363 360/360/360
f 308/308/308 258/258/258 310/310/310
f 308/308/308 310/310/310 363/363/363
f 363/363/363 310/310/310 314/314/314
f 363/363/363 314/314/314 364/364/364
f 360/360/360 363/363/363 364/364/364
f 360/360/360 364/364/364 361/361/361
f 314/314/314 313/313/313 365/365/365
f 314/314/314 365/365/365 366/366/366
f 312/312/312 367/367/367 365/365/365
f 312/312/312 365/365/365 313/313/313
f 368/368/368 366/366/366 365/365/365
f 368/368/368 365/365/365 367/367/367
f 312/312/312 318/318/318 369/369/369
f 312/312/312 369/369/369 367/367/367
f 317/317/317 370/370/370 369/369/369
f 317/317/317 369/369/369 318/318/318
f 368/368/368 367/367/367 369/369/369
f 368/368/368 369/369/369 370/370/370
f 317/317/317 322/322/322 371/371/371
f 317/317/317 371/371/371 370/370/370
f 321/321/321 372/372/372 371/371/371
f 321/321/321 371/371/371 322/322/322
f 368/368/368 370/370/370 371/371/371
f 368/368/368 371/371/371 372/372/372
f 321/321/321 326/326/326 373/373/373
f 321/321/321 373/373/373 372/372/372
f 325/325/325 374/374/374 373/373/373
f 325/325/325 373/373/373 326/326/326
f 368/368/368 372/372/372 373/373/373
f 368/368/368 373/373/373 374/374/374
f 325/325/325 330/330/330 375/375/375
f 325/325/325 375/375/375 374/374/374
f 329/329/329 376/376/376 375/375/375
f 329/329/329 375/375/375 330/330/330
f 368/368/368 374/374/374 375/375/375
f 368/368/368 375/375/375 376/376/376
f 329/329/329 334/334/334 377/377/377
f 329/329/329 377/377/377 376/376/376
f 333/333/333 378/378/378 377/377/377
f 333/333/333 377/377/377 334/334/334
f 368/368/368 376/376/376 377/377/377
f 368/368/368 377/377/377 378/378/378
f 333/333/333 338/338/338 379/379/379
f 333/333/333 379/379/379 378/378/378
f 337/337/337 380/380/380 379/379/379
f 337/337/337 379/379/379 338/338/338
f 368/368/368 378/378/378 379/379/379
f 368/368/368 379/379/379 380/380/380
f 337/337/337 342/342/342 381/381/381
f 337/337/337 381/381/381 380/380/380
f 341/341/341 382/382/382 381/381/381
f 341/341/341 381/381/381 342/342/342
f 368/368/368 380/380/380 381/381/381
f 368/368/368 381/381/381 382/382/382
f 341/341/341 346/346/346 383/383/383
f 341/341/341 383/383/383 382/382/382
f 345/345/345 384/384/384 383/383/383
f 345/345/345 383/383/383 346/346/346
f 368/368/368 382/382/382 383/383/383
f 368/368/368 383/383/383 384/384/384
f 345/345/345 350/350/350 385/385/385
f 345/345/345 385/385/385 384/384/384
f 349/349/349 386/386/386 385/385/385
f 349/349/349 385/385/385 350/350/350
f 368/368/368 384/384/384 385/385/385
f 368/368/368 385/385/385 386/386/386
f 349/349/349 354/354/354 387/387/387
f 349/349/349 387/387/387 386/386/386
f 353/353/353 388/388/388 387/387/387
f 353/353/353 387/387/387 354/354/354
f 368/368/368 386/386/386 387/387/387
f 368/368/368 387/387/387 388/388/388
f 353/353/353 358/358/358 389/389/389
f 353/353/353 389/389/389 388/388/388
f 357/357/357 390/390/390 389/389/389
f 357/357/357 389/389/389 358/358/358
f 368/368/368 388/388/388 389/389/389
f 368/368/368 389/389/389 390/390/390
f 357/357/357 362/362/362 391/391/391
f 357/357/357 391/391/391 390/390/390
f 361/361/361 392/392/392 391/391/391
f 361/361/361 391/391/391 362/362/362
f 368/368/368 390/390/390 391/391/391
f 368/368/368 391/391/391 392/392/392
f 361/361/361 364/364/364 393/393/393
f 361/361/361 393/393/393 392/392/392
f 314/314/314 366/366/366 393/393/393
f 314/314/314 393/393/393 364/364/364
f 368/368/368 392/392/392 393/393/393
f 368/368/368 393/393/393 366/366/366
f 394/394/394 395/395/395 396/396/396
f 394/394/394 396/396/396 397/397/397
f 398/398/398 399/399/399 396/396/396
f 398/398/398 396/396/396 395/395/395
f 400/400/400 397/397/397 396/396/396
f 400/400/400 396/396/396 399/399/399
f 401/401/401 402/402/402 403/403/403
f 401/401/401 403/403/403 404/404/404
f 402/402/402 405/405/405 406/406/406
f 402/402/402 406/406/406 403/403/403
f 403/403/403 406/406/406 407/407/407
f 403/403/403 407/407/407 408/408/408
f 404/404/404 403/403/403 408/408/408
f 404/404/404 408/408/408 409/409/409
f 405/405/405 410/410/410 411/411/411
f 405/405/405 411/411/411 406/406/406
f 410/410/410 412/412/412 413/413/413
f 410/410/410 413/413/413 411/411/411
f 411/411/411 413/413/413 414/414/414
f 411/411/411 414/414/414 415/415/415
f 406/406/406 411/411/411 415/415/415
f 406/406/406 415/415/415 407/407/407
f 416/416/416 417/417/417 418/418/418
f 416/416/416 418/418/418 419/419/419
f 417/417/417 401/401/401 404/404/404
f 417/417/417 404/404/404 418/418/418
f 418/418/418 404/404/404 409/409/409
f 418/418/418 409/409/409 420/420/420
f 419/419/419 418/418/418 420/420/420
f 419/419/419 420/420/420 421/421/421
f 422/422/422 423/423/423 424/424/424
f 422/422/422 424/424/424 425/425/425
f 416/416/416 419/419/419 424/424/424
f 416/416/416 424/424/424 423/423/423
f 421/421/421 425/425/425 424/424/424
f 421/421/421 424/424/424 419/419/419
f 394/394/394 426/426/426 427/427/427
f 394/394/394 427/427/427 395/395/395
f 426/426/426 414/414/414 413/413/413
f 426/426/426 413/413/413 427/427/427
f 427/427/427 413/413/413 412/412/412
f 427/427/427 412/412/412 428/428/428
f 395/395/395 427/427/427 428/428/428
f 395/395/395 428/428/428 398/398/398
f 429/429/429 430/430/430 431/431/431
f 429/429/429 431/431/431 432/432/432
f 433/433/433 434/434/434 431/431/431
f 433/433/433 431/431/431 430/430/430
f 435/435/435 432/432/432 431/431/431
f 435/435/435 431/431/431 434/434/434
f 436/436/436 437/437/437 438/438/438
f 436/436/436 438/438/438 439/439/439
f 437/437/437 440/440/440 441/441/441
f 437/437/437 441/441/441 438/438/438
f 438/438/438 441/441/441 433/433/433
f 438/438/438 433/433/433 430/430/430
f 439/439/439 438/438/438 430/430/430
f 439/439/439 430/430/430 429/429/429
f 442/442/442 443/443/443 444/444/444
f 442/442/442 444/444/444 445/445/445
f 443/443/443 446/446/446 447/447/447
f 443/443/443 447/447/447 444/444/444
f 444/444/444 447/447/447 440/440/440
f 444/444/444 440/440/440 437/437/437
f 445/445/445 444/444/444 437/437/437
f 445/445/445 437/437/437 436/436/436
f 448/448/448 449/449/449 450/450/450
f 448/448/448 450/450/450 451/451/451
f 449/449/449 452/452/452 453/453/453
f 449/449/449 453/453/453 450/450/450
f 450/450/450 453/453/453 446/446/446
f 450/450/450 446/446/446 443/443/443
f 451/451/451 450/450/450 443/443/443
f 451/451/451 443/443/443 442/442/442
f 454/454/454 455/455/455 456/456/456
f 454/454/454 456/456/456 457/457/457
f 455/455/455 452/452/452 449/449/449
f 455/455/455 449/449/449 456/456/456
f 456/456/456 449/449/449 448/448/448
f 456/456/456 448/448/448 458/458/458
f 457/457/457 456/456/456 458/458/458
f 457/457/457 458/458/458 459/459/459
f 460/460/460 461/461/461 462/462/462
f 460/460/460 462/462/462 463/463/463
f 454/454/454 457/457/457 462/462/462
f 454/454/454 462/462/462 461/461/461
f 459/459/459 463/463/463 462/462/462
f 459/459/459 462/462/462 457/457/457
f 400/400/400 399/399/399 464/464/464
f 400/400/400 464/464/464 465/465/465
f 399/399/399 398/398/398 466/466/466
f 399/399/399 466/466/466 464/464/464
f 464/464/464 466/466/466 454/454/454
f 464/464/464 454/454/454 461/461/461
f 465/465/465 464/464/464 461/461/461
f 465/465/465 461/461/461 460/460/460
f 398/398/398 428/428/428 467/467/467
f 398/398/398 467/467/467 466/466/466
f 428/428/428 412/412/412 468/468/468
f 428/428/428 468/468/468 467/467/467
f 467/467/467 468/468/468 452/452/452
f 467/467/467 452/452/452 455/455/455
f 466/466/466 467/467/467 455/455/455
f 466/466/466 455/455/455 454/454/454
f 446/446/446 453/453/453 469/469/469
f 446/446/446 469/469/469 470/470/470
f 453/453/453 452/452/452 468/468/468
f 453/453/453 468/468/468 469/469/469
f 469/469/469 468/468/468 412/412/412
f 469/469/469 412/412/412 410/410/410
f 470/470/470 469/469/469 410/410/410
f 470/470/470 410/410/410 405/405/405
f 440/440/440 447/447/447 471/471/471
f 440/440/440 471/471/471 472/472/472
f 447/447/447 446/446/446 470/470/470
f 447/447/447 470/470/470 471/471/471
f 471/471/471 470/470/470 405/405/405
f 471/471/471 405/405/405 402/402/402
f 472/472/472 471/471/471 402/402/402
f 472/472/472 402/402/402 401/401/401
f 433/433/433 441/441/441 473/473/473
f 433/433/433 473/473/473 474/474/474
f 441/441/441 440/440/440 472/472/472
f 441/441/441 472/472/472 473/473/473
f 473/473/473 472/472/472 401/401/401
f 473/473/473 401/401/401 417/417/417
f 474/474/474 473/473/473 417/417/417
f 474/474/474 417/417/417 416/416/416
f 435/435/435 434/434/434 475/475/475
f 435/435/435 475/475/475 476/476/476
f 434/434/434 433/433/433 474/474/474
f 434/434/434 474/474/474 475/475/475
f 475/475/475 474/474/474 416/416/416
f 475/475/475 416/416/416 423/423/423
f 476/476/476 475/475/475 423/423/423
f 476/476/476 423/423/423 422/422/422
