# ship_canon_clou6_ship_canon1_clou_0_37
v -0.176264 -0.239538 0.033345
v -0.176715 -0.240412 0.030761
v -0.175160 -0.240405 0.030487
v -0.174709 -0.239530 0.033071
v -0.177175 -0.239538 0.028179
v -0.175620 -0.239530 0.027905
v -0.174734 -0.238847 0.028439
v -0.174123 -0.239526 0.030304
v -0.174059 -0.238847 0.032266
v -0.174059 -0.238847 0.032266
v -0.174123 -0.239526 0.030304
v -0.173788 -0.236901 0.030245
v -0.173680 -0.236903 0.032890
v -0.174734 -0.238847 0.028439
v -0.174591 -0.236903 0.027723
v -0.174751 -0.234961 0.028442
v -0.174147 -0.234280 0.030309
v -0.174076 -0.234961 0.032269
v -0.174076 -0.234961 0.032269
v -0.174147 -0.234280 0.030309
v -0.175192 -0.233410 0.030493
v -0.174732 -0.234285 0.033075
v -0.174751 -0.234961 0.028442
v -0.175643 -0.234285 0.027909
v -0.177198 -0.234292 0.028183
v -0.176747 -0.233418 0.030767
v -0.176287 -0.234292 0.033349
v -0.179434 -0.234986 0.033214
v -0.180174 -0.234308 0.031371
v -0.180676 -0.236933 0.031460
v -0.179707 -0.236931 0.033952
v -0.180109 -0.234986 0.029387
v -0.180618 -0.236931 0.028786
v -0.180091 -0.238872 0.029384
v -0.180151 -0.239554 0.031367
v -0.179416 -0.238872 0.033211
v -0.177175 -0.239538 0.028179
v -0.177338 -0.236915 0.027320
v -0.175783 -0.236907 0.027046
v -0.175620 -0.239530 0.027905
v -0.177198 -0.234292 0.028183
v -0.175643 -0.234285 0.027909
v -0.174751 -0.234961 0.028442
v -0.174591 -0.236903 0.027723
v -0.174734 -0.238847 0.028439
v -0.176287 -0.234292 0.033349
v -0.176124 -0.236915 0.034208
v -0.174569 -0.236907 0.033934
v -0.174732 -0.234285 0.033075
v -0.176264 -0.239538 0.033345
v -0.174709 -0.239530 0.033071
v -0.174059 -0.238847 0.032266
v -0.173680 -0.236903 0.032890
v -0.174076 -0.234961 0.032269
v -0.178604 -0.240421 0.031095
v -0.178153 -0.239546 0.033678
v -0.179064 -0.239546 0.028512
v -0.179227 -0.236924 0.027653
v -0.179064 -0.239546 0.028512
v -0.179088 -0.234301 0.028516
v -0.178636 -0.233426 0.031100
v -0.178177 -0.234301 0.033683
v -0.179088 -0.234301 0.028516
v -0.178013 -0.236924 0.034541
v -0.178177 -0.234301 0.033683
v -0.178153 -0.239546 0.033678
vt 0.335461 0.167904
vt 0.463315 0.171848
vt 0.462297 0.114174
vt 0.334552 0.116430
vt 0.590950 0.163393
vt 0.590041 0.111919
vt 0.589132 0.060444
vt 0.461388 0.062699
vt 0.333643 0.064955
vt 0.679611 0.899536
vt 0.804611 0.899536
vt 0.804611 0.774536
vt 0.679611 0.774536
vt 0.929611 0.899536
vt 0.929611 0.774536
vt 0.929611 0.649536
vt 0.804611 0.649536
vt 0.679611 0.649536
vt 0.347176 0.831422
vt 0.474921 0.829167
vt 0.474012 0.777692
vt 0.346268 0.779947
vt 0.602665 0.826911
vt 0.601757 0.775436
vt 0.600848 0.723962
vt 0.472994 0.720018
vt 0.345359 0.728473
vt 0.342665 0.575933
vt 0.470183 0.560809
vt 0.468154 0.445933
vt 0.353278 0.447961
vt 0.598154 0.571422
vt 0.583030 0.443905
vt 0.593643 0.315933
vt 0.466126 0.331057
vt 0.338154 0.320444
vt 0.746183 0.313240
vt 0.742240 0.441094
vt 0.799913 0.440075
vt 0.797658 0.312331
vt 0.750694 0.568729
vt 0.802169 0.567820
vt 0.853643 0.566911
vt 0.851388 0.439166
vt 0.849132 0.311422
vt 0.190126 0.578626
vt 0.194069 0.450772
vt 0.136395 0.451791
vt 0.138651 0.579535
vt 0.185614 0.323137
vt 0.134140 0.324046
vt 0.082665 0.324955
vt 0.084921 0.452700
vt 0.087176 0.580444
vt 0.464552 0.241919
vt 0.336808 0.244174
vt 0.592297 0.239663
vt 0.672169 0.442331
vt 0.669913 0.314586
vt 0.674424 0.570075
vt 0.471756 0.649947
vt 0.344012 0.652203
vt 0.599501 0.647692
vt 0.264140 0.449535
vt 0.266395 0.577280
vt 0.261884 0.321791
vn 0.059199 -0.948673 0.310668
vn 0.004519 -0.999989 -0.000797
vn 0.327112 -0.942340 -0.070659
vn 0.390565 -0.881949 0.263864
vn -0.050626 -0.948673 -0.312179
vn 0.299623 -0.886214 -0.353344
vn 0.653542 -0.661805 -0.367284
vn 0.645407 -0.748341 -0.153088
vn 0.806276 -0.566705 0.169603
vn 0.988168 -0.152674 -0.014667
vn 0.976629 -0.143160 -0.160316
vn 0.984797 0.004588 -0.173646
vn 0.999629 -0.007172 -0.026284
vn 0.906390 -0.203039 -0.370448
vn 0.948228 0.016247 -0.317176
vn 0.932170 0.161621 -0.323940
vn 0.971227 0.152235 -0.183144
vn 0.976554 0.211812 0.038435
vn 0.733737 0.668268 0.122669
vn 0.652053 0.754386 -0.075689
vn 0.323022 0.945369 -0.043977
vn 0.394380 0.889447 0.230972
vn 0.694491 0.573697 -0.434228
vn 0.268780 0.885021 -0.380125
vn -0.059199 0.948673 -0.310668
vn -0.004519 0.999989 0.000797
vn 0.050626 0.948673 0.312179
vn -0.668029 0.424693 0.611043
vn -0.784284 0.607640 0.125191
vn -0.984797 -0.004588 0.173646
vn -0.673023 0.026401 0.739150
vn -0.807296 0.500921 -0.312012
vn -0.884967 -0.033660 -0.464435
vn -0.832861 -0.431685 -0.346395
vn -0.774279 -0.614901 0.149626
vn -0.647338 -0.507698 0.568504
vn -0.163308 -0.316224 -0.934523
vn -0.173648 -0.000000 -0.984808
vn 0.161109 0.014297 -0.986833
vn 0.177736 -0.326137 -0.928464
vn -0.166166 0.316224 -0.934019
vn 0.191493 0.297560 -0.935301
vn 0.577035 0.251447 -0.777049
vn 0.518081 0.041710 -0.854314
vn 0.652755 -0.303535 -0.694102
vn 0.163308 0.316224 0.934523
vn 0.173648 -0.000000 0.984808
vn 0.489025 -0.011268 0.872197
vn 0.481609 0.329209 0.812203
vn 0.166166 -0.316224 0.934019
vn 0.502510 -0.294327 0.812930
vn 0.810245 -0.244983 0.532435
vn 0.779379 -0.035665 0.625537
vn 0.848011 0.310527 0.429476
vn -0.242646 -0.968476 0.056374
vn -0.220567 -0.911560 0.346999
vn -0.309602 -0.906458 -0.287193
vn -0.417254 -0.014544 -0.908673
vn -0.434066 -0.304715 -0.847783
vn -0.413965 0.335399 -0.846251
vn -0.256035 0.966152 0.031557
vn -0.200886 0.904080 0.377206
vn -0.334172 0.908976 -0.249183
vn -0.081427 0.012221 0.996604
vn -0.120672 0.302130 0.945598
vn -0.096523 -0.337778 0.936264
f 1/1/1 2/2/2 3/3/3
f 1/1/1 3/3/3 4/4/4
f 2/2/2 5/5/5 6/6/6
f 2/2/2 6/6/6 3/3/3
f 3/3/3 6/6/6 7/7/7
f 3/3/3 7/7/7 8/8/8
f 4/4/4 3/3/3 8/8/8
f 4/4/4 8/8/8 9/9/9
f 10/10/10 11/11/11 12/12/12
f 10/10/10 12/12/12 13/13/13
f 11/11/11 14/14/14 15/15/15
f 11/11/11 15/15/15 12/12/12
f 12/12/12 15/15/15 16/16/16
f 12/12/12 16/16/16 17/17/17
f 13/13/13 12/12/12 17/17/17
f 13/13/13 17/17/17 18/18/18
f 19/19/19 20/20/20 21/21/21
f 19/19/19 21/21/21 22/22/22
f 20/20/20 23/23/23 24/24/24
f 20/20/20 24/24/24 21/21/21
f 21/21/21 24/24/24 25/25/25
f 21/21/21 25/25/25 26/26/26
f 22/22/22 21/21/21 26/26/26
f 22/22/22 26/26/26 27/27/27
f 28/28/28 29/29/29 30/30/30
f 28/28/28 30/30/30 31/31/31
f 29/29/29 32/32/32 33/33/33
f 29/29/29 33/33/33 30/30/30
f 30/30/30 33/33/33 34/34/34
f 30/30/30 34/34/34 35/35/35
f 31/31/31 30/30/30 35/35/35
f 31/31/31 35/35/35 36/36/36
f 37/37/37 38/38/38 39/39/39
f 37/37/37 39/39/39 40/40/40
f 38/38/38 41/41/41 42/42/42
f 38/38/38 42/42/42 39/39/39
f 39/39/39 42/42/42 43/43/43
f 39/39/39 43/43/43 44/44/44
f 40/40/40 39/39/39 44/44/44
f 40/40/40 44/44/44 45/45/45
f 46/46/46 47/47/47 48/48/48
f 46/46/46 48/48/48 49/49/49
f 47/47/47 50/50/50 51/51/51
f 47/47/47 51/51/51 48/48/48
f 48/48/48 51/51/51 52/52/52
f 48/48/48 52/52/52 53/53/53
f 49/49/49 48/48/48 53/53/53
f 49/49/49 53/53/53 54/54/54
f 36/36/36 35/35/35 55/55/55
f 36/36/36 55/55/55 56/56/56
f 35/35/35 34/34/34 57/57/57
f 35/35/35 57/57/57 55/55/55
f 55/55/55 57/57/57 5/5/5
f 55/55/55 5/5/5 2/2/2
f 56/56/56 55/55/55 2/2/2
f 56/56/56 2/2/2 1/1/1
f 34/34/34 33/33/33 58/58/58
f 34/34/34 58/58/58 59/59/59
f 33/33/33 32/32/32 60/60/60
f 33/33/33 60/60/60 58/58/58
f 58/58/58 60/60/60 41/41/41
f 58/58/58 41/41/41 38/38/38
f 59/59/59 58/58/58 38/38/38
f 59/59/59 38/38/38 37/37/37
f 27/27/27 26/26/26 61/61/61
f 27/27/27 61/61/61 62/62/62
f 26/26/26 25/25/25 63/63/63
f 26/26/26 63/63/63 61/61/61
f 61/61/61 63/63/63 32/32/32
f 61/61/61 32/32/32 29/29/29
f 62/62/62 61/61/61 29/29/29
f 62/62/62 29/29/29 28/28/28
f 28/28/28 31/31/31 64/64/64
f 28/28/28 64/64/64 65/65/65
f 31/31/31 36/36/36 66/66/66
f 31/31/31 66/66/66 64/64/64
f 64/64/64 66/66/66 50/50/50
f 64/64/64 50/50/50 47/47/47
f 65/65/65 64/64/64 47/47/47
f 65/65/65 47/47/47 46/46/46
