# ship_canon_clou5_ship_canon1_clou_0_41
v -0.169552 -0.254740 0.071009
v -0.170003 -0.255614 0.068426
v -0.168448 -0.255607 0.068151
v -0.167997 -0.254732 0.070735
v -0.170463 -0.254740 0.065843
v -0.168908 -0.254732 0.065569
v -0.168022 -0.254049 0.066103
v -0.167411 -0.254728 0.067969
v -0.167347 -0.254049 0.069930
v -0.167347 -0.254049 0.069930
v -0.167411 -0.254728 0.067969
v -0.167076 -0.252103 0.067910
v -0.166968 -0.252105 0.070554
v -0.168022 -0.254049 0.066103
v -0.167879 -0.252105 0.065388
v -0.168039 -0.250163 0.066106
v -0.167435 -0.249482 0.067973
v -0.167364 -0.250163 0.069933
v -0.167364 -0.250163 0.069933
v -0.167435 -0.249482 0.067973
v -0.168480 -0.248612 0.068157
v -0.168020 -0.249487 0.070739
v -0.168039 -0.250163 0.066106
v -0.168931 -0.249487 0.065573
v -0.170486 -0.249494 0.065847
v -0.170035 -0.248620 0.068431
v -0.169575 -0.249494 0.071014
v -0.172722 -0.250188 0.070878
v -0.173462 -0.249510 0.069036
v -0.173964 -0.252135 0.069124
v -0.172995 -0.252133 0.071617
v -0.173397 -0.250188 0.067051
v -0.173906 -0.252133 0.066450
v -0.173379 -0.254074 0.067048
v -0.173439 -0.254756 0.069031
v -0.172704 -0.254074 0.070875
v -0.170463 -0.254740 0.065843
v -0.170626 -0.252117 0.064984
v -0.169071 -0.252110 0.064710
v -0.168908 -0.254732 0.065569
v -0.170486 -0.249494 0.065847
v -0.168931 -0.249487 0.065573
v -0.168039 -0.250163 0.066106
v -0.167879 -0.252105 0.065388
v -0.168022 -0.254049 0.066103
v -0.169575 -0.249494 0.071014
v -0.169412 -0.252117 0.071873
v -0.167857 -0.252110 0.071598
v -0.168020 -0.249487 0.070739
v -0.169552 -0.254740 0.071009
v -0.167997 -0.254732 0.070735
v -0.167347 -0.254049 0.069930
v -0.166968 -0.252105 0.070554
v -0.167364 -0.250163 0.069933
v -0.171892 -0.255623 0.068759
v -0.171441 -0.254749 0.071343
v -0.172352 -0.254749 0.066176
v -0.172515 -0.252126 0.065317
v -0.172352 -0.254749 0.066176
v -0.172375 -0.249503 0.066180
v -0.171924 -0.248628 0.068764
v -0.171465 -0.249503 0.071347
v -0.172375 -0.249503 0.066180
v -0.171301 -0.252126 0.072206
v -0.171465 -0.249503 0.071347
v -0.171441 -0.254749 0.071343
vt 0.343892 0.180928
vt 0.471698 0.186185
vt 0.471273 0.128504
vt 0.343512 0.129447
vt 0.599414 0.179042
vt 0.599034 0.127561
vt 0.598654 0.076080
vt 0.470893 0.077022
vt 0.343132 0.077965
vt 0.674074 0.932698
vt 0.799074 0.932698
vt 0.799074 0.807698
vt 0.674074 0.807698
vt 0.924074 0.932698
vt 0.924074 0.807698
vt 0.924074 0.682698
vt 0.799074 0.682698
vt 0.674074 0.682698
vt 0.348789 0.844531
vt 0.476550 0.843588
vt 0.476170 0.792107
vt 0.348409 0.793050
vt 0.604311 0.842645
vt 0.603931 0.791164
vt 0.603551 0.739683
vt 0.475745 0.734426
vt 0.348029 0.741568
vt 0.346904 0.589009
vt 0.474569 0.575196
vt 0.473722 0.460305
vt 0.358831 0.461153
vt 0.602425 0.587123
vt 0.588612 0.459457
vt 0.600540 0.331602
vt 0.472874 0.345415
vt 0.345018 0.333487
vt 0.753099 0.330476
vt 0.747842 0.458282
vt 0.805523 0.457857
vt 0.804580 0.330096
vt 0.754985 0.585998
vt 0.806466 0.585618
vt 0.857947 0.585238
vt 0.857004 0.457477
vt 0.856061 0.329716
vt 0.194344 0.590135
vt 0.199601 0.462328
vt 0.141920 0.462754
vt 0.142863 0.590515
vt 0.192458 0.334613
vt 0.140977 0.334993
vt 0.089496 0.335373
vt 0.090439 0.463134
vt 0.091382 0.590895
vt 0.472216 0.256265
vt 0.344455 0.257208
vt 0.599977 0.255322
vt 0.677762 0.458799
vt 0.676819 0.331038
vt 0.678705 0.586560
vt 0.475227 0.664346
vt 0.347466 0.665289
vt 0.602988 0.663403
vt 0.269681 0.461811
vt 0.270624 0.589572
vt 0.268738 0.334050
vn 0.059199 -0.948673 0.310668
vn 0.004519 -0.999989 -0.000797
vn 0.327112 -0.942340 -0.070659
vn 0.390565 -0.881949 0.263864
vn -0.050626 -0.948673 -0.312179
vn 0.299623 -0.886214 -0.353344
vn 0.653542 -0.661805 -0.367284
vn 0.645407 -0.748341 -0.153088
vn 0.806276 -0.566705 0.169603
vn 0.988168 -0.152674 -0.014667
vn 0.976629 -0.143160 -0.160316
vn 0.984797 0.004588 -0.173646
vn 0.999629 -0.007172 -0.026284
vn 0.906390 -0.203039 -0.370448
vn 0.948228 0.016247 -0.317176
vn 0.932170 0.161621 -0.323940
vn 0.971227 0.152235 -0.183144
vn 0.976554 0.211812 0.038435
vn 0.733737 0.668268 0.122669
vn 0.652053 0.754386 -0.075689
vn 0.323022 0.945369 -0.043977
vn 0.394380 0.889447 0.230972
vn 0.694491 0.573697 -0.434228
vn 0.268780 0.885021 -0.380125
vn -0.059199 0.948673 -0.310668
vn -0.004519 0.999989 0.000797
vn 0.050626 0.948673 0.312179
vn -0.668029 0.424693 0.611043
vn -0.784284 0.607640 0.125191
vn -0.984797 -0.004588 0.173646
vn -0.673023 0.026401 0.739150
vn -0.807296 0.500921 -0.312012
vn -0.884967 -0.033660 -0.464435
vn -0.832861 -0.431685 -0.346395
vn -0.774279 -0.614901 0.149626
vn -0.647338 -0.507698 0.568504
vn -0.163308 -0.316224 -0.934523
vn -0.173648 -0.000000 -0.984808
vn 0.161109 0.014297 -0.986833
vn 0.177736 -0.326137 -0.928464
vn -0.166166 0.316224 -0.934019
vn 0.191493 0.297560 -0.935301
vn 0.577035 0.251447 -0.777049
vn 0.518081 0.041710 -0.854314
vn 0.652755 -0.303535 -0.694102
vn 0.163308 0.316224 0.934523
vn 0.173648 -0.000000 0.984808
vn 0.489025 -0.011268 0.872197
vn 0.481609 0.329209 0.812203
vn 0.166166 -0.316224 0.934019
vn 0.502510 -0.294327 0.812930
vn 0.810245 -0.244983 0.532435
vn 0.779379 -0.035665 0.625537
vn 0.848011 0.310527 0.429476
vn -0.242646 -0.968476 0.056374
vn -0.220567 -0.911560 0.346999
vn -0.309602 -0.906458 -0.287193
vn -0.417254 -0.014544 -0.908673
vn -0.434066 -0.304715 -0.847783
vn -0.413965 0.335399 -0.846251
vn -0.256035 0.966152 0.031557
vn -0.200886 0.904080 0.377206
vn -0.334172 0.908976 -0.249183
vn -0.081427 0.012221 0.996604
vn -0.120672 0.302130 0.945598
vn -0.096523 -0.337778 0.936264
f 1/1/1 2/2/2 3/3/3
f 1/1/1 3/3/3 4/4/4
f 2/2/2 5/5/5 6/6/6
f 2/2/2 6/6/6 3/3/3
f 3/3/3 6/6/6 7/7/7
f 3/3/3 7/7/7 8/8/8
f 4/4/4 3/3/3 8/8/8
f 4/4/4 8/8/8 9/9/9
f 10/10/10 11/11/11 12/12/12
f 10/10/10 12/12/12 13/13/13
f 11/11/11 14/14/14 15/15/15
f 11/11/11 15/15/15 12/12/12
f 12/12/12 15/15/15 16/16/16
f 12/12/12 16/16/16 17/17/17
f 13/13/13 12/12/12 17/17/17
f 13/13/13 17/17/17 18/18/18
f 19/19/19 20/20/20 21/21/21
f 19/19/19 21/21/21 22/22/22
f 20/20/20 23/23/23 24/24/24
f 20/20/20 24/24/24 21/21/21
f 21/21/21 24/24/24 25/25/25
f 21/21/21 25/25/25 26/26/26
f 22/22/22 21/21/21 26/26/26
f 22/22/22 26/26/26 27/27/27
f 28/28/28 29/29/29 30/30/30
f 28/28/28 30/30/30 31/31/31
f 29/29/29 32/32/32 33/33/33
f 29/29/29 33/33/33 30/30/30
f 30/30/30 33/33/33 34/34/34
f 30/30/30 34/34/34 35/35/35
f 31/31/31 30/30/30 35/35/35
f 31/31/31 35/35/35 36/36/36
f 37/37/37 38/38/38 39/39/39
f 37/37/37 39/39/39 40/40/40
f 38/38/38 41/41/41 42/42/42
f 38/38/38 42/42/42 39/39/39
f 39/39/39 42/42/42 43/43/43
f 39/39/39 43/43/43 44/44/44
f 40/40/40 39/39/39 44/44/44
f 40/40/40 44/44/44 45/45/45
f 46/46/46 47/47/47 48/48/48
f 46/46/46 48/48/48 49/49/49
f 47/47/47 50/50/50 51/51/51
f 47/47/47 51/51/51 48/48/48
f 48/48/48 51/51/51 52/52/52
f 48/48/48 52/52/52 53/53/53
f 49/49/49 48/48/48 53/53/53
f 49/49/49 53/53/53 54/54/54
f 36/36/36 35/35/35 55/55/55
f 36/36/36 55/55/55 56/56/56
f 35/35/35 34/34/34 57/57/57
f 35/35/35 57/57/57 55/55/55
f 55/55/55 57/57/57 5/5/5
f 55/55/55 5/5/5 2/2/2
f 56/56/56 55/55/55 2/2/2
f 56/56/56 2/2/2 1/1/1
f 34/34/34 33/33/33 58/58/58
f 34/34/34 58/58/58 59/59/59
f 33/33/33 32/32/32 60/60/60
f 33/33/33 60/60/60 58/58/58
f 58/58/58 60/60/60 41/41/41
f 58/58/58 41/41/41 38/38/38
f 59/59/59 58/58/58 38/38/38
f 59/59/59 38/38/38 37/37/37
f 27/27/27 26/26/26 61/61/61
f 27/27/27 61/61/61 62/62/62
f 26/26/26 25/25/25 63/63/63
f 26/26/26 63/63/63 61/61/61
f 61/61/61 63/63/63 32/32/32
f 61/61/61 32/32/32 29/29/29
f 62/62/62 61/61/61 29/29/29
f 62/62/62 29/29/29 28/28/28
f 28/28/28 31/31/31 64/64/64
f 28/28/28 64/64/64 65/65/65
f 31/31/31 36/36/36 66/66/66
f 31/31/31 66/66/66 64/64/64
f 64/64/64 66/66/66 50/50/50
f 64/64/64 50/50/50 47/47/47
f 65/65/65 64/64/64 47/47/47
f 65/65/65 47/47/47 46/46/46
