# ship_bottom_ship_bottom1_0_32
v -0.516718 -0.145622 0.048525
v -0.529146 -0.145495 0.055523
v -0.547368 -0.138278 0.042914
v -0.532045 -0.138278 0.032101
v -0.534646 -0.145622 0.064646
v -0.557197 -0.138278 0.055387
v -0.577516 -0.127962 0.045681
v -0.564604 -0.127962 0.029295
v -0.545344 -0.127962 0.015244
v -0.540637 -0.145495 0.074138
v -0.563737 -0.138278 0.069430
v -0.541211 -0.145622 0.084532
v -0.566747 -0.138278 0.084310
v -0.590062 -0.127962 0.083679
v -0.586108 -0.127962 0.064131
v -0.542214 -0.145495 0.095102
v -0.565982 -0.138278 0.099293
v -0.537656 -0.145622 0.104691
v -0.561576 -0.138278 0.113633
v -0.583269 -0.127962 0.122200
v -0.589058 -0.127962 0.103361
v -0.533563 -0.145495 0.114262
v -0.553659 -0.138278 0.126586
v -0.524686 -0.145622 0.121132
v -0.542710 -0.138278 0.137546
v -0.558485 -0.127962 0.153616
v -0.572868 -0.127962 0.139217
v -0.516398 -0.145495 0.127824
v -0.529208 -0.138278 0.145905
v -0.502325 -0.145622 0.130149
v -0.511111 -0.138278 0.150825
v -0.517842 -0.127962 0.171214
v -0.540747 -0.127962 0.164597
v -0.483948 -0.145495 0.131308
v -0.486376 -0.138278 0.151467
v -0.464791 -0.145622 0.128156
v -0.461391 -0.138278 0.148786
v -0.457747 -0.127962 0.169455
v -0.487959 -0.127962 0.172517
v -0.450796 -0.145495 0.125462
v -0.442545 -0.138278 0.143738
v -0.441090 -0.145622 0.119352
v -0.427843 -0.138278 0.136143
v -0.414544 -0.127962 0.152999
v -0.433858 -0.127962 0.162978
v -0.431666 -0.145495 0.112883
v -0.415294 -0.138278 0.125819
v -0.425705 -0.145622 0.103679
v -0.405465 -0.138278 0.113346
v -0.385146 -0.127962 0.123051
v -0.398058 -0.127962 0.139437
v -0.420175 -0.145495 0.094268
v -0.398925 -0.138278 0.099302
v -0.419139 -0.145622 0.083793
v -0.395915 -0.138278 0.084422
v -0.372600 -0.127962 0.085054
v -0.376554 -0.127962 0.104602
v -0.418599 -0.145495 0.073305
v -0.396679 -0.138278 0.069440
v -0.422694 -0.145622 0.063634
v -0.401086 -0.138278 0.055100
v -0.379392 -0.127962 0.046532
v -0.373604 -0.127962 0.065371
v -0.427250 -0.145495 0.054145
v -0.409003 -0.138278 0.042146
v -0.435665 -0.145622 0.047193
v -0.419952 -0.138278 0.031187
v -0.404177 -0.127962 0.015117
v -0.389793 -0.127962 0.029515
v -0.444415 -0.145495 0.040583
v -0.433454 -0.138278 0.022827
v -0.455482 -0.145622 0.037727
v -0.448777 -0.138278 0.017419
v -0.442046 -0.127962 -0.002970
v -0.421915 -0.127962 0.004136
v -0.466693 -0.145495 0.035305
v -0.465190 -0.138278 0.015310
v -0.480765 -0.145622 0.037560
v -0.484627 -0.138278 0.017012
v -0.488271 -0.127962 -0.003658
v -0.463607 -0.127962 -0.005741
v -0.499845 -0.145495 0.041151
v -0.509021 -0.138278 0.023038
v -0.517708 -0.127962 0.003799
v -0.580929 -0.114912 0.016397
v -0.557940 -0.114912 -0.000722
v -0.596762 -0.114912 0.036489
v -0.614700 -0.099310 0.027921
v -0.596145 -0.099310 0.004375
v -0.569681 -0.099310 -0.015603
v -0.607298 -0.114912 0.059111
v -0.612145 -0.114912 0.083081
v -0.632728 -0.099310 0.082524
v -0.627047 -0.099310 0.054433
v -0.610914 -0.114912 0.107215
v -0.603817 -0.114912 0.130315
v -0.622967 -0.099310 0.137879
v -0.631285 -0.099310 0.110807
v -0.591063 -0.114912 0.151181
v -0.573426 -0.114912 0.168836
v -0.587352 -0.099310 0.183022
v -0.608021 -0.099310 0.162332
v -0.551676 -0.114912 0.182301
v -0.524218 -0.114912 0.190525
v -0.530161 -0.099310 0.208524
v -0.561862 -0.099310 0.198803
v -0.489458 -0.114912 0.192455
v -0.454295 -0.114912 0.189033
v -0.451077 -0.099310 0.207280
v -0.490855 -0.099310 0.211039
v -0.425630 -0.114912 0.181201
v -0.401948 -0.114912 0.168966
v -0.390207 -0.099310 0.183847
v -0.417961 -0.099310 0.198185
v -0.381733 -0.114912 0.152336
v -0.365900 -0.114912 0.132244
v -0.347962 -0.099310 0.140812
v -0.366517 -0.099310 0.164358
v -0.355364 -0.114912 0.109621
v -0.350517 -0.114912 0.085652
v -0.329934 -0.099310 0.086209
v -0.335615 -0.099310 0.114300
v -0.351748 -0.114912 0.061517
v -0.358845 -0.114912 0.038417
v -0.339695 -0.099310 0.030854
v -0.331376 -0.099310 0.057925
v -0.371599 -0.114912 0.017551
v -0.389236 -0.114912 -0.000103
v -0.375310 -0.099310 -0.014290
v -0.354641 -0.099310 0.006400
v -0.410986 -0.114912 -0.013569
v -0.435670 -0.114912 -0.022282
v -0.429727 -0.099310 -0.040281
v -0.400800 -0.099310 -0.030070
v -0.462108 -0.114912 -0.025679
v -0.491723 -0.114912 -0.023235
v -0.494941 -0.099310 -0.041483
v -0.460711 -0.099310 -0.044262
v -0.525936 -0.114912 -0.014425
v -0.533605 -0.099310 -0.031409
v -0.610053 -0.081336 -0.006614
v -0.580411 -0.081336 -0.029205
v -0.631096 -0.081336 0.020090
v -0.645753 -0.061230 0.013089
v -0.622486 -0.061230 -0.016437
v -0.590004 -0.061230 -0.041364
v -0.645098 -0.081336 0.050157
v -0.651541 -0.081336 0.082014
v -0.668359 -0.061230 0.081559
v -0.661235 -0.061230 0.046334
v -0.649905 -0.081336 0.114090
v -0.640471 -0.081336 0.144792
v -0.656119 -0.061230 0.150972
v -0.666550 -0.061230 0.117025
v -0.623521 -0.081336 0.172524
v -0.600080 -0.081336 0.195989
v -0.611459 -0.061230 0.207580
v -0.637378 -0.061230 0.181636
v -0.571173 -0.081336 0.213885
v -0.535593 -0.081336 0.224976
v -0.540448 -0.061230 0.239683
v -0.579496 -0.061230 0.227368
v -0.492132 -0.081336 0.228024
v -0.448136 -0.081336 0.223959
v -0.445507 -0.061230 0.238868
v -0.493274 -0.061230 0.243208
v -0.410952 -0.081336 0.213710
v -0.379476 -0.081336 0.197448
v -0.369883 -0.061230 0.209608
v -0.404686 -0.061230 0.227588
v -0.352609 -0.081336 0.175346
v -0.331566 -0.081336 0.148643
v -0.316909 -0.061230 0.155643
v -0.340176 -0.061230 0.185170
v -0.317564 -0.081336 0.118576
v -0.311121 -0.081336 0.086718
v -0.294303 -0.061230 0.087174
v -0.301427 -0.061230 0.122399
v -0.312757 -0.081336 0.054642
v -0.322191 -0.081336 0.023941
v -0.306542 -0.061230 0.017761
v -0.296112 -0.061230 0.051707
v -0.339141 -0.081336 -0.003792
v -0.362582 -0.081336 -0.027256
v -0.351203 -0.061230 -0.038848
v -0.325284 -0.061230 -0.012903
v -0.391489 -0.081336 -0.045152
v -0.424295 -0.081336 -0.056732
v -0.419440 -0.061230 -0.071439
v -0.383166 -0.061230 -0.058635
v -0.459434 -0.081336 -0.061248
v -0.497882 -0.081336 -0.058161
v -0.500511 -0.061230 -0.073070
v -0.458292 -0.061230 -0.076432
v -0.540614 -0.081336 -0.046933
v -0.546880 -0.061230 -0.060812
v -0.633278 -0.039233 -0.024964
v -0.598332 -0.039233 -0.051919
v -0.658475 -0.039233 0.007013
v -0.669117 -0.015632 0.001930
v -0.642304 -0.015632 -0.032096
v -0.605296 -0.015632 -0.060747
v -0.675243 -0.039233 0.043016
v -0.682957 -0.039233 0.081164
v -0.695168 -0.015632 0.080833
v -0.686958 -0.015632 0.040241
v -0.680999 -0.039233 0.119573
v -0.669702 -0.039233 0.156336
v -0.681063 -0.015632 0.160823
v -0.693083 -0.015632 0.121704
v -0.649406 -0.039233 0.189545
v -0.621336 -0.039233 0.217642
v -0.629597 -0.015632 0.226058
v -0.659466 -0.015632 0.196160
v -0.586721 -0.039233 0.239072
v -0.544663 -0.039233 0.252449
v -0.548189 -0.015632 0.263127
v -0.592764 -0.015632 0.248861
v -0.494265 -0.039233 0.256389
v -0.443225 -0.039233 0.251811
v -0.441317 -0.015632 0.262635
v -0.495093 -0.015632 0.267413
v -0.399246 -0.039233 0.239635
v -0.361556 -0.039233 0.220163
v -0.354592 -0.015632 0.228991
v -0.394697 -0.015632 0.249710
v -0.329384 -0.039233 0.193697
v -0.304186 -0.039233 0.161720
v -0.293545 -0.015632 0.166803
v -0.320358 -0.015632 0.200828
v -0.287419 -0.039233 0.125717
v -0.279704 -0.039233 0.087569
v -0.267494 -0.015632 0.087900
v -0.275703 -0.015632 0.128492
v -0.281663 -0.039233 0.049160
v -0.292959 -0.039233 0.012396
v -0.281599 -0.015632 0.007910
v -0.269579 -0.015632 0.047029
v -0.313256 -0.039233 -0.020812
v -0.341326 -0.039233 -0.048909
v -0.333065 -0.015632 -0.057325
v -0.303196 -0.015632 -0.027427
v -0.375941 -0.039233 -0.070339
v -0.415225 -0.039233 -0.084206
v -0.411699 -0.015632 -0.094883
v -0.369898 -0.015632 -0.080128
v -0.457301 -0.039233 -0.089613
v -0.502793 -0.039233 -0.086013
v -0.504701 -0.015632 -0.096837
v -0.456473 -0.015632 -0.100637
v -0.552320 -0.039233 -0.072858
v -0.556869 -0.015632 -0.082934
v -0.649440 0.009286 -0.037734
v -0.610802 0.009286 -0.067726
v -0.677529 0.009286 -0.002088
v -0.683561 0.034542 -0.004969
v -0.654556 0.034542 -0.041776
v -0.614750 0.034542 -0.072729
v -0.696220 0.009286 0.038047
v -0.704820 0.009286 0.080571
v -0.711741 0.034542 0.080384
v -0.702861 0.034542 0.036473
v -0.702637 0.009286 0.123388
v -0.690044 0.009286 0.164370
v -0.696484 0.034542 0.166913
v -0.709486 0.034542 0.124596
v -0.667418 0.009286 0.201389
v -0.636128 0.009286 0.232711
v -0.640810 0.034542 0.237481
v -0.673121 0.034542 0.205139
v -0.597541 0.009286 0.256599
v -0.550976 0.009286 0.271568
v -0.552974 0.034542 0.277620
v -0.600966 0.034542 0.262148
v -0.495749 0.009286 0.276128
v -0.439808 0.009286 0.271193
v -0.438726 0.034542 0.277328
v -0.496218 0.034542 0.282376
v -0.391101 0.009286 0.257676
v -0.349086 0.009286 0.235969
v -0.345138 0.034542 0.240973
v -0.388522 0.034542 0.263387
v -0.313222 0.009286 0.206466
v -0.285133 0.009286 0.170821
v -0.279101 0.034542 0.173702
v -0.308106 0.034542 0.210509
v -0.266442 0.009286 0.130686
v -0.257842 0.009286 0.088161
v -0.250921 0.034542 0.088349
v -0.259801 0.034542 0.132259
v -0.260025 0.009286 0.045344
v -0.272618 0.009286 0.004363
v -0.266178 0.034542 0.001819
v -0.253176 0.034542 0.044136
v -0.295243 0.009286 -0.032656
v -0.326534 0.009286 -0.063978
v -0.321852 0.034542 -0.068748
v -0.289541 0.034542 -0.036406
v -0.365121 0.009286 -0.087867
v -0.408912 0.009286 -0.103324
v -0.406914 0.034542 -0.109376
v -0.361696 0.034542 -0.093415
v -0.455817 0.009286 -0.109352
v -0.506210 0.009286 -0.105395
v -0.507292 0.034542 -0.111530
v -0.455348 0.034542 -0.115600
v -0.560465 0.009286 -0.090900
v -0.563044 0.034542 -0.096610
v -0.618175 0.078039 -0.077071
v -0.658995 0.078039 -0.045284
v -0.659622 0.086085 -0.045779
v -0.618659 0.086085 -0.077684
v -0.688794 0.078039 -0.007469
v -0.689533 0.086085 -0.007822
v -0.687579 0.088057 0.001501
v -0.657327 0.088057 -0.032013
v -0.615801 0.088057 -0.060952
v -0.708623 0.078039 0.035109
v -0.709437 0.086085 0.034916
v -0.717746 0.078039 0.080221
v -0.718594 0.086085 0.080199
v -0.714027 0.088057 0.080237
v -0.707180 0.088057 0.037981
v -0.715430 0.078039 0.125644
v -0.716269 0.086085 0.125792
v -0.702071 0.078039 0.169120
v -0.702860 0.086085 0.169432
v -0.698581 0.088057 0.167833
v -0.710926 0.088057 0.124850
v -0.678068 0.078039 0.208392
v -0.678767 0.086085 0.208851
v -0.644873 0.078039 0.241619
v -0.645447 0.086085 0.242204
v -0.646799 0.088057 0.232776
v -0.677695 0.088057 0.205199
v -0.603938 0.078039 0.266962
v -0.604358 0.086085 0.267642
v -0.554708 0.078039 0.282871
v -0.554952 0.086085 0.283613
v -0.557989 0.088057 0.266912
v -0.606909 0.088057 0.253922
v -0.496626 0.078039 0.287798
v -0.496684 0.086085 0.288564
v -0.437787 0.078039 0.282652
v -0.437655 0.086085 0.283404
v -0.441037 0.088057 0.264220
v -0.500001 0.088057 0.270021
v -0.386285 0.078039 0.268342
v -0.385969 0.086085 0.269042
v -0.341713 0.078039 0.245315
v -0.341229 0.086085 0.245928
v -0.344087 0.088057 0.229195
v -0.389194 0.088057 0.250482
v -0.303666 0.078039 0.214016
v -0.303039 0.086085 0.214512
v -0.273868 0.078039 0.176201
v -0.273128 0.086085 0.176554
v -0.275083 0.088057 0.167232
v -0.305334 0.088057 0.200746
v -0.254039 0.078039 0.133624
v -0.253225 0.086085 0.133817
v -0.244916 0.078039 0.088511
v -0.244067 0.086085 0.088534
v -0.248635 0.088057 0.088495
v -0.255482 0.088057 0.130751
v -0.247232 0.078039 0.043088
v -0.246393 0.086085 0.042940
v -0.260591 0.078039 -0.000387
v -0.259802 0.086085 -0.000699
v -0.264081 0.088057 0.000900
v -0.251736 0.088057 0.043883
v -0.284594 0.078039 -0.039659
v -0.283895 0.086085 -0.040119
v -0.317789 0.078039 -0.072887
v -0.317215 0.086085 -0.073471
v -0.315863 0.088057 -0.064043
v -0.284967 0.088057 -0.036466
v -0.358724 0.078039 -0.098230
v -0.358304 0.086085 -0.098910
v -0.405180 0.078039 -0.114628
v -0.404935 0.086085 -0.115370
v -0.401898 0.088057 -0.098668
v -0.355752 0.088057 -0.085189
v -0.454940 0.078039 -0.121022
v -0.454882 0.086085 -0.121788
v -0.508231 0.078039 -0.116854
v -0.508363 0.086085 -0.117606
v -0.504981 0.088057 -0.098422
v -0.451565 0.088057 -0.103244
v -0.565281 0.078039 -0.101566
v -0.565597 0.086085 -0.102266
v -0.562372 0.088057 -0.083706
v -0.509863 -0.149250 0.065398
v -0.508704 -0.149755 0.072502
v -0.498036 -0.149755 0.063192
v -0.471367 -0.152572 0.082609
v -0.517262 -0.149250 0.077383
v -0.512467 -0.149755 0.083899
v -0.518277 -0.149250 0.090881
v -0.510430 -0.149755 0.095454
v -0.512706 -0.149250 0.103218
v -0.502995 -0.149755 0.104878
v -0.501655 -0.149250 0.111950
v -0.489787 -0.149755 0.109977
v -0.479913 -0.149250 0.114043
v -0.467506 -0.149755 0.108700
v -0.457719 -0.149250 0.110130
v -0.453530 -0.149755 0.103584
v -0.445402 -0.149250 0.102031
v -0.444711 -0.149755 0.094601
v -0.438003 -0.149250 0.090045
v -0.440948 -0.149755 0.083203
v -0.436988 -0.149250 0.076547
v -0.442986 -0.149755 0.071648
v -0.442558 -0.149250 0.064211
v -0.450420 -0.149755 0.062225
v -0.453610 -0.149250 0.055479
v -0.461779 -0.149755 0.056799
v -0.467955 -0.149250 0.052081
v -0.476662 -0.149755 0.056772
v -0.490148 -0.149250 0.055994
v -0.675125 0.088714 0.072444
v -0.699770 0.088714 0.080369
v -0.694349 0.088714 0.121927
v -0.667705 0.088714 0.117229
v -0.685229 0.088714 0.162833
v -0.659360 0.088714 0.161851
v -0.381998 0.088714 0.014021
v -0.429725 0.088714 0.020531
v -0.420364 0.088714 0.073616
v -0.372963 0.088714 0.065258
v -0.482482 0.088714 0.029177
v -0.473009 0.088714 0.082899
v -0.463536 0.088714 0.136621
v -0.411004 0.088714 0.126701
v -0.363929 0.088714 0.116495
v -0.303302 0.088714 0.006881
v -0.339007 0.088714 0.009530
v -0.330501 0.088714 0.057771
v -0.294957 0.088714 0.051504
v -0.321994 0.088714 0.106012
v -0.287537 0.088714 0.096289
v -0.540562 0.088714 0.040075
v -0.531202 0.088714 0.093160
v -0.595959 0.088714 0.051748
v -0.586925 0.088714 0.102985
v -0.577890 0.088714 0.154222
v -0.521841 0.088714 0.146245
v -0.277433 0.088714 0.005899
v -0.268313 0.088714 0.046806
v -0.262892 0.088714 0.088364
v -0.640667 0.088714 0.062721
v -0.632161 0.088714 0.110962
v -0.623655 0.088714 0.159203
v -0.674023 0.088714 0.193941
v -0.650479 0.088714 0.204108
v -0.614290 0.088714 0.212316
v -0.566940 0.088714 0.216323
v -0.509914 0.088714 0.213890
v -0.451272 0.088714 0.206177
v -0.399076 0.088714 0.194346
v -0.352979 0.088714 0.178596
v -0.312629 0.088714 0.159125
v -0.281430 0.088714 0.139035
v -0.262783 0.088714 0.121428
v -0.312183 0.088714 -0.035375
v -0.288639 0.088714 -0.025208
v -0.392948 0.088714 -0.048080
v -0.348372 0.088714 -0.043583
v -0.494746 0.088714 -0.040379
v -0.441652 0.088714 -0.047114
v -0.606909 0.088714 -0.010352
v -0.552489 0.088714 -0.027570
v -0.681232 0.088714 0.029698
v -0.650033 0.088714 0.009608
v -0.699879 0.088714 0.047305
v -0.657524 0.059159 -0.044121
v -0.617040 0.059159 -0.075632
v -0.687059 0.059159 -0.006640
v -0.688794 0.078039 -0.007469
v -0.658995 0.078039 -0.045284
v -0.618175 0.078039 -0.077071
v -0.706713 0.059159 0.035561
v -0.715756 0.059159 0.080275
v -0.717746 0.078039 0.080221
v -0.708623 0.078039 0.035109
v -0.713460 0.059159 0.125297
v -0.700219 0.059159 0.168389
v -0.702071 0.078039 0.169120
v -0.715430 0.078039 0.125644
v -0.676428 0.059159 0.207313
v -0.643526 0.059159 0.240248
v -0.644873 0.078039 0.241619
v -0.678068 0.078039 0.208392
v -0.602953 0.059159 0.265366
v -0.554133 0.059159 0.281131
v -0.554708 0.078039 0.282871
v -0.603938 0.078039 0.266962
v -0.496491 0.059159 0.286001
v -0.438098 0.059159 0.280887
v -0.437787 0.078039 0.282652
v -0.496626 0.078039 0.287798
v -0.387026 0.059159 0.266700
v -0.342848 0.059159 0.243876
v -0.341713 0.078039 0.245315
v -0.386285 0.078039 0.268342
v -0.305138 0.059159 0.212854
v -0.275602 0.059159 0.175373
v -0.273868 0.078039 0.176201
v -0.303666 0.078039 0.214016
v -0.255949 0.059159 0.133172
v -0.246906 0.059159 0.088457
v -0.244916 0.078039 0.088511
v -0.254039 0.078039 0.133624
v -0.249202 0.059159 0.043436
v -0.262443 0.059159 0.000344
v -0.260591 0.078039 -0.000387
v -0.247232 0.078039 0.043088
v -0.286234 0.059159 -0.038581
v -0.319135 0.059159 -0.071515
v -0.317789 0.078039 -0.072887
v -0.284594 0.078039 -0.039659
v -0.359709 0.059159 -0.096634
v -0.405755 0.059159 -0.112887
v -0.405180 0.078039 -0.114628
v -0.358724 0.078039 -0.098230
v -0.455075 0.059159 -0.119225
v -0.507920 0.059159 -0.115089
v -0.508231 0.078039 -0.116854
v -0.454940 0.078039 -0.121022
v -0.564540 0.059159 -0.099923
v -0.565281 0.078039 -0.101566
vt 0.526014 0.439067
vt 0.543266 0.445661
vt 0.563872 0.422119
vt 0.541846 0.410733
vt 0.552383 0.457089
vt 0.579345 0.437300
vt 0.604541 0.416777
vt 0.583951 0.396509
vt 0.555755 0.381246
vt 0.562187 0.468894
vt 0.591049 0.455577
vt 0.565465 0.483429
vt 0.598506 0.475991
vt 0.629993 0.468347
vt 0.620098 0.441148
vt 0.569311 0.498101
vt 0.601240 0.497581
vt 0.565998 0.512913
vt 0.599233 0.519276
vt 0.630877 0.525995
vt 0.633592 0.497103
vt 0.563252 0.527597
vt 0.592470 0.540005
vt 0.553885 0.539800
vt 0.581400 0.558785
vt 0.607050 0.578646
vt 0.621830 0.553608
vt 0.545199 0.551622
vt 0.566468 0.574634
vt 0.528175 0.558791
vt 0.544819 0.586754
vt 0.559414 0.616001
vt 0.587136 0.599814
vt 0.505392 0.565330
vt 0.513595 0.594344
vt 0.480563 0.565968
vt 0.481205 0.597194
vt 0.481458 0.629843
vt 0.521213 0.626096
vt 0.462350 0.565924
vt 0.456060 0.595091
vt 0.448691 0.559943
vt 0.435571 0.588264
vt 0.421755 0.617829
vt 0.449073 0.626987
vt 0.435310 0.553364
vt 0.417148 0.576942
vt 0.425590 0.541984
vt 0.401646 0.561801
vt 0.376552 0.582428
vt 0.397201 0.602673
vt 0.416372 0.530187
vt 0.389922 0.543516
vt 0.412505 0.515661
vt 0.382459 0.523067
vt 0.351033 0.530704
vt 0.360948 0.558002
vt 0.409265 0.500976
vt 0.379743 0.501436
vt 0.412012 0.486169
vt 0.381787 0.479712
vt 0.350217 0.472877
vt 0.347450 0.501846
vt 0.415390 0.471486
vt 0.388610 0.458986
vt 0.424208 0.459310
vt 0.399757 0.440247
vt 0.374251 0.420275
vt 0.359353 0.445249
vt 0.433538 0.447516
vt 0.414775 0.424485
vt 0.446691 0.440370
vt 0.432830 0.412403
vt 0.418400 0.383156
vt 0.394304 0.399268
vt 0.460138 0.433796
vt 0.453089 0.404703
vt 0.478317 0.433112
vt 0.478117 0.401732
vt 0.477663 0.368935
vt 0.445428 0.372868
vt 0.503081 0.433100
vt 0.510481 0.403840
vt 0.517383 0.371891
vt 0.604271 0.370909
vt 0.569892 0.351729
vt 0.629964 0.396294
vt 0.655644 0.375816
vt 0.624853 0.345277
vt 0.584265 0.322136
vt 0.649357 0.426779
vt 0.661667 0.460777
vt 0.693571 0.453270
vt 0.678863 0.412448
vt 0.666108 0.496699
vt 0.662661 0.532785
vt 0.694631 0.539663
vt 0.698833 0.496377
vt 0.651308 0.567270
vt 0.632798 0.598557
vt 0.658683 0.618552
vt 0.680947 0.581019
vt 0.607883 0.625049
vt 0.574052 0.645326
vt 0.588758 0.674756
vt 0.628742 0.650367
vt 0.528796 0.657970
vt 0.481596 0.662646
vt 0.481636 0.695662
vt 0.536365 0.690010
vt 0.441932 0.659019
vt 0.407769 0.647486
vt 0.393601 0.677280
vt 0.434641 0.691245
vt 0.377072 0.628444
vt 0.351270 0.603041
vt 0.325769 0.623669
vt 0.356738 0.654290
vt 0.331792 0.572428
vt 0.319438 0.538244
vt 0.287631 0.545693
vt 0.302414 0.586812
vt 0.315011 0.502130
vt 0.318528 0.465899
vt 0.286676 0.458764
vt 0.282380 0.502286
vt 0.330009 0.431361
vt 0.348689 0.400152
vt 0.323035 0.379844
vt 0.300534 0.417298
vt 0.373809 0.373904
vt 0.403976 0.353767
vt 0.389536 0.324193
vt 0.353259 0.348353
vt 0.437802 0.340891
vt 0.477289 0.336010
vt 0.476989 0.302915
vt 0.430196 0.308730
vt 0.524442 0.339859
vt 0.531661 0.307700
vt 0.645717 0.319570
vt 0.598887 0.292421
vt 0.681611 0.355309
vt 0.707893 0.334725
vt 0.666878 0.293733
vt 0.613760 0.262525
vt 0.708652 0.398132
vt 0.725749 0.445818
vt 0.758249 0.438404
vt 0.738764 0.383798
vt 0.731815 0.496143
vt 0.726834 0.546650
vt 0.759323 0.553762
vt 0.765105 0.495995
vt 0.710790 0.594884
vt 0.684742 0.638660
vt 0.711023 0.658919
vt 0.740891 0.608895
vt 0.649745 0.675793
vt 0.603559 0.704316
vt 0.618486 0.734037
vt 0.670931 0.701360
vt 0.543943 0.722258
vt 0.481592 0.728950
vt 0.481490 0.762581
vt 0.551557 0.754767
vt 0.427204 0.723720
vt 0.379243 0.707256
vt 0.364682 0.737466
vt 0.419629 0.756510
vt 0.336175 0.680247
vt 0.300014 0.644337
vt 0.273968 0.665084
vt 0.315358 0.706359
vt 0.272773 0.601173
vt 0.255567 0.553061
vt 0.223190 0.560368
vt 0.242822 0.615539
vt 0.249510 0.502312
vt 0.254613 0.451458
vt 0.222284 0.443977
vt 0.216344 0.502214
vt 0.270887 0.403036
vt 0.297251 0.359318
vt 0.271288 0.338545
vt 0.241014 0.388556
vt 0.332624 0.322577
vt 0.375056 0.294392
vt 0.360506 0.264317
vt 0.311864 0.296535
vt 0.422596 0.276343
vt 0.476755 0.269609
vt 0.476576 0.236038
vt 0.414981 0.243679
vt 0.539043 0.275368
vt 0.546581 0.242807
vt 0.688352 0.267710
vt 0.628886 0.232390
vt 0.734519 0.314017
vt 0.761533 0.293115
vt 0.710156 0.241416
vt 0.644262 0.201922
vt 0.769240 0.369411
vt 0.791118 0.431010
vt 0.824431 0.423605
vt 0.800142 0.354918
vt 0.798757 0.495934
vt 0.792152 0.561015
vt 0.825403 0.568428
vt 0.832850 0.495954
vt 0.771300 0.623081
vt 0.737573 0.679365
vt 0.764460 0.700056
vt 0.802096 0.637486
vt 0.692340 0.727100
vt 0.633572 0.763951
vt 0.648858 0.794107
vt 0.714024 0.753062
vt 0.559239 0.787585
vt 0.481352 0.796623
vt 0.481215 0.831181
vt 0.567028 0.820794
vt 0.411923 0.789682
vt 0.349908 0.767963
vt 0.334895 0.798823
vt 0.404097 0.823330
vt 0.294259 0.732670
vt 0.247589 0.685947
vt 0.220816 0.706983
vt 0.272830 0.759245
vt 0.212511 0.629940
vt 0.190448 0.567631
vt 0.157258 0.574883
vt 0.181767 0.644422
vt 0.182824 0.502000
vt 0.189630 0.436314
vt 0.156566 0.428464
vt 0.148864 0.501684
vt 0.210859 0.373839
vt 0.245099 0.317491
vt 0.218609 0.296114
vt 0.180342 0.358860
vt 0.290938 0.270185
vt 0.345855 0.233918
vt 0.331056 0.203124
vt 0.269784 0.243467
vt 0.407328 0.210687
vt 0.476440 0.202150
vt 0.476336 0.167860
vt 0.399613 0.177289
vt 0.554271 0.209960
vt 0.562104 0.176738
vt 0.732309 0.214765
vt 0.659886 0.171029
vt 0.788979 0.271948
vt 0.816215 0.250946
vt 0.754256 0.188302
vt 0.675332 0.140349
vt 0.831532 0.340269
vt 0.858262 0.416159
vt 0.891855 0.408807
vt 0.862698 0.325754
vt 0.867464 0.496049
vt 0.859155 0.576020
vt 0.892668 0.583607
vt 0.901833 0.496191
vt 0.833354 0.652154
vt 0.791751 0.721049
vt 0.818849 0.741892
vt 0.864392 0.666759
vt 0.736036 0.779300
vt 0.664383 0.824558
vt 0.679800 0.854640
vt 0.757882 0.805249
vt 0.574968 0.854471
vt 0.481117 0.866361
vt 0.481119 0.901382
vt 0.582910 0.887876
vt 0.396160 0.857551
vt 0.319621 0.830121
vt 0.304442 0.861161
vt 0.388333 0.891583
vt 0.251026 0.786151
vt 0.193586 0.728251
vt 0.166508 0.749307
vt 0.229337 0.812802
vt 0.150514 0.659032
vt 0.123536 0.582155
vt 0.090026 0.589325
vt 0.119447 0.673483
vt 0.114378 0.501280
vt 0.123003 0.420420
vt 0.089670 0.412394
vt 0.080118 0.500832
vt 0.149378 0.343592
vt 0.191743 0.274368
vt 0.165073 0.252756
vt 0.118633 0.328401
vt 0.248340 0.216321
vt 0.316064 0.171863
vt 0.301190 0.140833
vt 0.227056 0.189361
vt 0.391809 0.143405
vt 0.476253 0.133087
vt 0.476185 0.098596
vt 0.384081 0.109790
vt 0.570073 0.143049
vt 0.577955 0.109614
vt 0.827121 0.051729
vt 0.825386 0.068477
vt 0.826088 0.068560
vt 0.830611 0.052359
vt 0.823650 0.085226
vt 0.825987 0.084731
vt 0.828840 0.086918
vt 0.829891 0.072138
vt 0.835065 0.056897
vt 0.828355 0.100392
vt 0.829057 0.100138
vt 0.833061 0.115557
vt 0.835203 0.114304
vt 0.836900 0.113241
vt 0.830784 0.100400
vt 0.843793 0.127260
vt 0.844330 0.126747
vt 0.854525 0.138963
vt 0.855924 0.136888
vt 0.857058 0.135235
vt 0.845959 0.125189
vt 0.869206 0.144837
vt 0.869471 0.144144
vt 0.883886 0.150712
vt 0.884247 0.148248
vt 0.882254 0.145202
vt 0.869290 0.142368
vt 0.899597 0.149668
vt 0.899531 0.148930
vt 0.915307 0.148625
vt 0.915240 0.145753
vt 0.911209 0.140933
vt 0.896306 0.144860
vt 0.931668 0.138918
vt 0.931293 0.138274
vt 0.948029 0.129211
vt 0.945725 0.127865
vt 0.940924 0.122496
vt 0.926729 0.133013
vt 0.957178 0.116328
vt 0.956572 0.115897
vt 0.966327 0.103444
vt 0.964056 0.102490
vt 0.959722 0.097961
vt 0.951855 0.110783
vt 0.969134 0.087898
vt 0.968403 0.087764
vt 0.971941 0.072352
vt 0.969453 0.072449
vt 0.966657 0.070138
vt 0.964725 0.084118
vt 0.967765 0.057085
vt 0.967047 0.057274
vt 0.963590 0.041818
vt 0.961384 0.042976
vt 0.959621 0.043931
vt 0.965308 0.056904
vt 0.953223 0.029813
vt 0.952657 0.030293
vt 0.942856 0.017808
vt 0.941363 0.019815
vt 0.940140 0.021401
vt 0.950940 0.031755
vt 0.928297 0.011455
vt 0.927996 0.012132
vt 0.913738 0.005102
vt 0.913249 0.007571
vt 0.915116 0.010654
vt 0.928093 0.013895
vt 0.897804 0.005712
vt 0.897819 0.006456
vt 0.881869 0.006323
vt 0.882464 0.008742
vt 0.886291 0.013637
vt 0.900877 0.010590
vt 0.867625 0.013709
vt 0.867939 0.014387
vt 0.853382 0.021094
vt 0.854101 0.023668
vt 0.858715 0.029110
vt 0.872276 0.019729
vt 0.840252 0.036412
vt 0.840803 0.036860
vt 0.845493 0.042027
vt 0.521362 0.465057
vt 0.521656 0.475371
vt 0.506113 0.465123
vt 0.477706 0.499682
vt 0.533488 0.479925
vt 0.529125 0.490383
vt 0.538065 0.498632
vt 0.529442 0.507194
vt 0.534198 0.517522
vt 0.522547 0.522514
vt 0.522646 0.532889
vt 0.507388 0.533321
vt 0.496057 0.541670
vt 0.479259 0.537434
vt 0.467399 0.542076
vt 0.460589 0.534019
vt 0.450087 0.534054
vt 0.447422 0.523802
vt 0.437955 0.519234
vt 0.439956 0.508815
vt 0.433394 0.500543
vt 0.439664 0.492014
vt 0.437301 0.481665
vt 0.446602 0.476709
vt 0.448908 0.466320
vt 0.459405 0.465919
vt 0.465930 0.457546
vt 0.477929 0.461784
vt 0.494525 0.457065
vt 0.845479 0.104576
vt 0.840719 0.110828
vt 0.849774 0.121540
vt 0.855665 0.115911
vt 0.859638 0.131511
vt 0.866022 0.127093
vt 0.911096 0.042851
vt 0.899561 0.051819
vt 0.911466 0.065432
vt 0.922512 0.055988
vt 0.887153 0.062185
vt 0.899318 0.075965
vt 0.911624 0.089700
vt 0.923531 0.079003
vt 0.934051 0.069086
vt 0.930694 0.029102
vt 0.921707 0.035170
vt 0.932417 0.047539
vt 0.940709 0.040474
vt 0.943211 0.059878
vt 0.950561 0.052008
vt 0.873921 0.074057
vt 0.886109 0.087679
vt 0.861707 0.085898
vt 0.873593 0.099016
vt 0.885363 0.112090
vt 0.898303 0.101249
vt 0.937359 0.024972
vt 0.946921 0.035181
vt 0.955652 0.046109
vt 0.852350 0.096168
vt 0.863525 0.108415
vt 0.874600 0.120662
vt 0.868220 0.138427
vt 0.876068 0.137534
vt 0.886761 0.134124
vt 0.899576 0.127887
vt 0.913788 0.118515
vt 0.927525 0.107492
vt 0.938918 0.096302
vt 0.948087 0.084952
vt 0.955154 0.073446
vt 0.959755 0.063147
vt 0.961526 0.055416
vt 0.921007 0.018446
vt 0.928989 0.017826
vt 0.897428 0.026870
vt 0.910016 0.021508
vt 0.871675 0.044258
vt 0.884657 0.034395
vt 0.847148 0.069967
vt 0.858457 0.056633
vt 0.835945 0.093677
vt 0.839892 0.082709
vt 0.834563 0.101693
vt 0.775440 0.162571
vt 0.690174 0.110517
vt 0.842602 0.230544
vt 0.877656 0.203385
vt 0.796244 0.137207
vt 0.714832 0.071029
vt 0.892932 0.311664
vt 0.924455 0.401683
vt 0.967743 0.392188
vt 0.922699 0.297787
vt 0.935193 0.496353
vt 0.925199 0.591007
vt 0.968352 0.600860
vt 0.968047 0.496524
vt 0.894527 0.680979
vt 0.845157 0.762136
vt 0.880069 0.789150
vt 0.924210 0.695005
vt 0.779070 0.830344
vt 0.694757 0.883694
vt 0.719788 0.920877
vt 0.799929 0.855013
vt 0.590710 0.920271
vt 0.481284 0.935465
vt 0.477088 0.983444
vt 0.598438 0.952161
vt 0.380837 0.924663
vt 0.289713 0.891251
vt 0.269927 0.931089
vt 0.373508 0.957267
vt 0.208253 0.838615
vt 0.140192 0.769709
vt 0.105020 0.796931
vt 0.187473 0.864010
vt 0.089260 0.687484
vt 0.057471 0.596268
vt 0.014007 0.605593
vt 0.059513 0.701262
vt 0.046837 0.500386
vt 0.057292 0.404595
vt 0.014087 0.394289
vt 0.014047 0.499941
vt 0.088771 0.313652
vt 0.139168 0.231779
vt 0.104613 0.203956
vt 0.059350 0.299123
vt 0.206381 0.163201
vt 0.286745 0.110735
vt 0.267407 0.070924
vt 0.186010 0.137440
vt 0.376598 0.077199
vt 0.476129 0.065151
vt 0.471064 0.019316
vt 0.369235 0.045120
vt 0.585529 0.077150
vt 0.592948 0.045172
vn -0.120381 -0.964179 -0.236361
vn -0.173134 -0.966278 -0.190608
vn -0.257146 -0.926549 -0.274560
vn -0.183512 -0.922873 -0.338568
vn -0.198047 -0.972836 -0.119866
vn -0.308584 -0.932289 -0.188717
vn -0.404610 -0.879686 -0.249886
vn -0.335937 -0.873903 -0.351339
vn -0.241499 -0.868594 -0.432692
vn -0.222481 -0.971863 -0.077359
vn -0.337377 -0.934581 -0.112847
vn -0.216983 -0.976075 -0.013974
vn -0.347342 -0.937414 -0.024657
vn -0.460116 -0.887183 -0.034645
vn -0.443750 -0.884078 -0.146602
vn -0.225172 -0.973659 0.035870
vn -0.342668 -0.937610 0.058880
vn -0.197622 -0.975951 0.092003
vn -0.317094 -0.937267 0.144853
vn -0.420518 -0.887183 0.189924
vn -0.452321 -0.888282 0.079756
vn -0.186329 -0.972099 0.142498
vn -0.279710 -0.934863 0.218618
vn -0.142210 -0.972527 0.184305
vn -0.223736 -0.931918 0.285431
vn -0.294743 -0.879686 0.373201
vn -0.366848 -0.884078 0.289532
vn -0.103609 -0.966879 0.233261
vn -0.150735 -0.927365 0.342451
vn -0.028867 -0.964337 0.263100
vn -0.054952 -0.922631 0.381748
vn -0.079544 -0.868669 0.488965
vn -0.196775 -0.874062 0.444179
vn 0.012483 -0.960041 0.279580
vn 0.014835 -0.920174 0.391228
vn 0.051384 -0.961089 0.271418
vn 0.073118 -0.920387 0.384112
vn 0.091211 -0.866753 0.490326
vn 0.015223 -0.866858 0.498323
vn 0.100483 -0.958786 0.265768
vn 0.139961 -0.920046 0.365960
vn 0.150930 -0.962232 0.226562
vn 0.212512 -0.922764 0.321474
vn 0.270247 -0.870608 0.411107
vn 0.179788 -0.867575 0.463670
vn 0.194603 -0.961260 0.195213
vn 0.270477 -0.924859 0.267352
vn 0.223131 -0.965268 0.135906
vn 0.316151 -0.928620 0.194199
vn 0.404610 -0.879686 0.249887
vn 0.345608 -0.874854 0.339391
vn 0.250056 -0.964435 0.085659
vn 0.346555 -0.930862 0.115741
vn 0.251573 -0.967686 0.017189
vn 0.358014 -0.933355 0.025974
vn 0.460116 -0.887183 0.034645
vn 0.443750 -0.884078 0.146602
vn 0.255275 -0.965936 -0.042449
vn 0.352975 -0.933633 -0.061137
vn 0.229260 -0.967611 -0.105686
vn 0.326829 -0.933281 -0.148895
vn 0.420518 -0.887183 -0.189924
vn 0.452321 -0.888282 -0.079756
vn 0.208327 -0.964596 -0.161720
vn 0.287159 -0.931001 -0.225339
vn 0.160658 -0.965094 -0.206838
vn 0.229194 -0.928445 -0.292335
vn 0.294743 -0.879686 -0.373201
vn 0.366848 -0.884078 -0.289532
vn 0.120271 -0.961466 -0.247220
vn 0.164610 -0.925043 -0.342343
vn 0.060774 -0.962088 -0.265883
vn 0.087570 -0.922615 -0.375650
vn 0.113343 -0.870608 -0.478744
vn 0.208687 -0.874854 -0.437128
vn 0.008463 -0.958855 -0.283770
vn 0.008979 -0.920221 -0.391295
vn -0.048101 -0.961174 -0.271719
vn -0.065881 -0.920318 -0.385584
vn -0.082967 -0.866758 -0.491779
vn 0.010669 -0.867586 -0.497172
vn -0.081351 -0.959550 -0.269530
vn -0.119043 -0.919775 -0.373956
vn -0.157326 -0.866961 -0.472892
vn -0.407698 -0.810136 -0.421263
vn -0.296260 -0.803236 -0.516761
vn -0.489923 -0.817678 -0.302288
vn -0.566805 -0.746067 -0.349451
vn -0.471945 -0.737107 -0.483674
vn -0.345192 -0.728995 -0.591108
vn -0.538486 -0.823686 -0.177692
vn -0.559186 -0.827978 -0.041987
vn -0.649575 -0.758739 -0.048660
vn -0.624469 -0.753431 -0.205864
vn -0.550044 -0.829485 0.096987
vn -0.511103 -0.827978 0.230708
vn -0.593759 -0.758738 0.267893
vn -0.639363 -0.760595 0.112737
vn -0.445237 -0.823686 0.351149
vn -0.356989 -0.817678 0.451622
vn -0.413104 -0.746067 0.522235
vn -0.516400 -0.753431 0.407030
vn -0.240143 -0.810257 0.534617
vn -0.102207 -0.803261 0.586792
vn -0.122700 -0.728982 0.673446
vn -0.279016 -0.737193 0.615384
vn 0.013287 -0.800424 0.599286
vn 0.108948 -0.800087 0.589907
vn 0.124499 -0.724723 0.677699
vn 0.011156 -0.725293 0.688350
vn 0.216981 -0.801291 0.557542
vn 0.325782 -0.805348 0.495258
vn 0.375097 -0.731090 0.569921
vn 0.249871 -0.726222 0.640442
vn 0.417504 -0.811083 0.409677
vn 0.489923 -0.817678 0.302288
vn 0.566805 -0.746067 0.349450
vn 0.481783 -0.738021 0.472451
vn 0.538486 -0.823686 0.177692
vn 0.559186 -0.827978 0.041987
vn 0.649575 -0.758738 0.048660
vn 0.624470 -0.753431 0.205864
vn 0.550044 -0.829485 -0.096987
vn 0.511103 -0.827978 -0.230708
vn 0.593759 -0.758738 -0.267893
vn 0.639364 -0.760595 -0.112737
vn 0.445237 -0.823686 -0.351149
vn 0.356988 -0.817678 -0.451622
vn 0.413104 -0.746067 -0.522235
vn 0.516400 -0.753431 -0.407030
vn 0.252208 -0.811083 -0.527765
vn 0.136747 -0.805348 -0.576815
vn 0.157551 -0.731090 -0.663841
vn 0.291140 -0.738021 -0.608738
vn 0.013470 -0.801297 -0.598115
vn -0.100245 -0.800096 -0.591437
vn -0.115540 -0.724734 -0.679272
vn 0.015982 -0.726225 -0.687272
vn -0.193553 -0.800548 -0.567151
vn -0.225884 -0.725422 -0.650184
vn -0.528211 -0.656765 -0.538194
vn -0.387901 -0.647948 -0.655512
vn -0.634627 -0.666609 -0.391000
vn -0.693140 -0.580858 -0.426804
vn -0.576404 -0.570769 -0.584792
vn -0.424335 -0.561831 -0.710131
vn -0.700878 -0.674889 -0.230857
vn -0.730333 -0.680906 -0.054596
vn -0.800896 -0.595814 -0.059762
vn -0.767282 -0.589492 -0.252543
vn -0.719315 -0.683007 0.126835
vn -0.667616 -0.680906 0.301092
vn -0.732156 -0.595814 0.330081
vn -0.789305 -0.598020 0.139175
vn -0.579653 -0.674889 0.456649
vn -0.462624 -0.666609 0.584475
vn -0.505363 -0.580858 0.638132
vn -0.634634 -0.589492 0.499738
vn -0.313093 -0.656819 0.685975
vn -0.140740 -0.647905 0.748606
vn -0.156229 -0.561765 0.812412
vn -0.342304 -0.570796 0.746338
vn 0.009051 -0.643634 0.765280
vn 0.137864 -0.642881 0.753458
vn 0.149114 -0.556396 0.817428
vn 0.007099 -0.557259 0.830309
vn 0.278328 -0.644566 0.712088
vn 0.417953 -0.649928 0.634752
vn 0.454387 -0.563622 0.689828
vn 0.302416 -0.558137 0.772676
vn 0.538028 -0.657611 0.527327
vn 0.634627 -0.666609 0.391000
vn 0.693140 -0.580858 0.426804
vn 0.586168 -0.571527 0.574251
vn 0.700878 -0.674889 0.230857
vn 0.730333 -0.680906 0.054596
vn 0.800896 -0.595814 0.059762
vn 0.767282 -0.589492 0.252543
vn 0.719315 -0.683007 -0.126835
vn 0.667615 -0.680906 -0.301092
vn 0.732156 -0.595814 -0.330081
vn 0.789305 -0.598020 -0.139175
vn 0.579653 -0.674888 -0.456649
vn 0.462625 -0.666609 -0.584475
vn 0.505363 -0.580858 -0.638132
vn 0.634634 -0.589492 -0.499739
vn 0.325225 -0.657611 -0.679541
vn 0.175649 -0.649928 -0.739419
vn 0.191049 -0.563622 -0.803636
vn 0.354413 -0.571527 -0.740101
vn 0.018181 -0.644565 -0.764333
vn -0.128777 -0.642893 -0.755053
vn -0.139976 -0.556409 -0.819033
vn 0.020060 -0.558133 -0.829509
vn -0.254038 -0.643762 -0.721828
vn -0.277982 -0.557381 -0.782338
vn -0.616586 -0.480601 -0.623574
vn -0.454590 -0.472120 -0.755282
vn -0.742261 -0.490260 -0.456830
vn -0.782100 -0.395988 -0.481158
vn -0.648983 -0.387400 -0.654785
vn -0.478890 -0.379919 -0.791407
vn -0.823405 -0.498644 -0.270848
vn -0.860836 -0.504824 -0.064136
vn -0.909968 -0.409113 -0.067709
vn -0.869198 -0.403527 -0.285764
vn -0.848862 -0.506981 0.149677
vn -0.786986 -0.504824 0.354691
vn -0.831933 -0.409113 0.374852
vn -0.897757 -0.411064 0.158298
vn -0.681112 -0.498644 0.536135
vn -0.541252 -0.490260 0.683148
vn -0.570368 -0.395988 0.719634
vn -0.719042 -0.403526 0.565813
vn -0.366670 -0.480604 0.796601
vn -0.169150 -0.472037 0.865199
vn -0.179566 -0.379822 0.907464
vn -0.386319 -0.387385 0.837073
vn 0.005380 -0.467642 0.883902
vn 0.158351 -0.466758 0.870093
vn 0.165696 -0.375056 0.912073
vn 0.003933 -0.375876 0.926662
vn 0.322287 -0.468430 0.822620
vn 0.484564 -0.473665 0.735418
vn 0.508747 -0.381180 0.771932
vn 0.338157 -0.376543 0.862476
vn 0.626284 -0.481247 0.613326
vn 0.742261 -0.490260 0.456830
vn 0.782100 -0.395988 0.481158
vn 0.658608 -0.387924 0.644788
vn 0.823405 -0.498644 0.270848
vn 0.860836 -0.504824 0.064136
vn 0.909968 -0.409113 0.067709
vn 0.869198 -0.403526 0.285764
vn 0.848862 -0.506981 -0.149677
vn 0.786986 -0.504824 -0.354691
vn 0.831933 -0.409113 -0.374852
vn 0.897757 -0.411064 -0.158299
vn 0.681112 -0.498644 -0.536135
vn 0.541252 -0.490260 -0.683148
vn 0.570368 -0.395988 -0.719634
vn 0.719042 -0.403527 -0.565813
vn 0.378745 -0.481247 -0.790540
vn 0.203813 -0.473666 -0.856797
vn 0.214050 -0.381180 -0.899380
vn 0.398359 -0.387924 -0.831159
vn 0.021621 -0.468425 -0.883239
vn -0.149208 -0.466771 -0.871700
vn -0.156571 -0.375070 -0.913678
vn 0.022874 -0.376536 -0.926120
vn -0.297803 -0.467757 -0.832176
vn -0.313670 -0.375985 -0.871921
vn -0.673425 -0.293941 -0.678304
vn -0.497176 -0.287883 -0.818499
vn -0.812300 -0.300939 -0.499605
vn -0.833903 -0.204154 -0.512765
vn -0.690856 -0.199178 -0.695015
vn -0.510176 -0.194899 -0.837696
vn -0.904090 -0.307138 -0.297131
vn -0.947548 -0.311754 -0.070442
vn -0.974606 -0.211900 -0.072394
vn -0.929141 -0.208589 -0.305265
vn -0.935205 -0.313366 0.164902
vn -0.866312 -0.311753 0.390274
vn -0.891070 -0.211900 0.401363
vn -0.962196 -0.213058 0.169661
vn -0.747942 -0.307138 0.588429
vn -0.592438 -0.300939 0.747297
vn -0.608237 -0.204154 0.767053
vn -0.768701 -0.208589 0.604640
vn -0.401131 -0.293912 0.867589
vn -0.187422 -0.287775 0.939180
vn -0.193012 -0.194781 0.961669
vn -0.411686 -0.199137 0.889303
vn 0.002790 -0.284531 0.958663
vn 0.171171 -0.283852 0.943466
vn 0.175029 -0.191998 0.965661
vn 0.001951 -0.192480 0.981299
vn 0.350038 -0.285067 0.892306
vn 0.526898 -0.288835 0.799346
vn 0.539788 -0.195531 0.818778
vn 0.358458 -0.192859 0.913408
vn 0.682977 -0.294332 0.668514
vn 0.812300 -0.300940 0.499605
vn 0.833903 -0.204154 0.512765
vn 0.700339 -0.199441 0.685382
vn 0.904090 -0.307138 0.297131
vn 0.947548 -0.311754 0.070442
vn 0.974606 -0.211900 0.072394
vn 0.929141 -0.208589 0.305265
vn 0.935205 -0.313366 -0.164902
vn 0.866312 -0.311754 -0.390274
vn 0.891070 -0.211900 -0.401363
vn 0.962196 -0.213059 -0.169661
vn 0.747942 -0.307138 -0.588429
vn 0.592437 -0.300940 -0.747298
vn 0.608236 -0.204154 -0.767053
vn 0.768701 -0.208589 -0.604640
vn 0.413143 -0.294332 -0.861790
vn 0.221730 -0.288835 -0.931349
vn 0.227196 -0.195531 -0.954018
vn 0.423690 -0.199441 -0.883578
vn 0.023811 -0.285059 -0.958214
vn -0.162076 -0.283867 -0.945067
vn -0.165958 -0.192012 -0.967259
vn 0.024481 -0.192850 -0.980923
vn -0.325575 -0.284635 -0.901656
vn -0.333996 -0.192582 -0.922691
vn -0.517606 -0.095903 -0.850228
vn -0.701019 -0.098132 -0.706359
vn -0.568755 0.582898 -0.580300
vn -0.413676 0.601476 -0.683446
vn -0.846932 -0.100728 -0.522073
vn -0.711107 0.539961 -0.450300
vn -0.142197 0.985895 -0.088269
vn -0.068125 0.995196 -0.070320
vn -0.036309 0.997445 -0.061524
vn -0.944696 -0.103025 -0.311344
vn -0.856681 0.426994 -0.289437
vn -0.991724 -0.104767 -0.074214
vn -0.871721 0.486107 -0.061659
vn -0.240548 0.970526 -0.014682
vn -0.330473 0.939812 -0.086839
vn -0.979326 -0.105362 0.172682
vn -0.848384 0.508299 0.147909
vn -0.906533 -0.104767 0.408927
vn -0.800377 0.483128 0.354943
vn -0.218468 0.971521 0.091753
vn -0.200920 0.979014 0.034105
vn -0.781238 -0.103025 0.615673
vn -0.695242 0.434149 0.572847
vn -0.617297 -0.100727 0.780255
vn -0.508268 0.547010 0.665165
vn -0.114445 0.983958 0.136853
vn -0.266661 0.942394 0.201952
vn -0.417191 -0.098163 0.903502
vn -0.334259 0.585777 0.738333
vn -0.195615 -0.095979 0.975973
vn -0.154947 0.602693 0.782785
vn -0.014861 0.997280 0.072196
vn -0.045133 0.994629 0.093145
vn 0.001678 -0.094758 0.995499
vn 0.001688 0.614709 0.788752
vn 0.177407 -0.094472 0.979593
vn 0.140153 0.615094 0.775897
vn 0.010112 0.998288 0.057604
vn 0.000152 0.998106 0.061514
vn 0.363346 -0.094902 0.926808
vn 0.287934 0.610527 0.737801
vn 0.547202 -0.096283 0.831444
vn 0.436659 0.602371 0.668190
vn 0.038769 0.997371 0.061214
vn 0.021766 0.998102 0.057604
vn 0.710532 -0.098281 0.696768
vn 0.575665 0.584705 0.571603
vn 0.846932 -0.100726 0.522073
vn 0.711106 0.539961 0.450300
vn 0.144543 0.985502 0.088843
vn 0.069325 0.995106 0.070412
vn 0.944696 -0.103023 0.311344
vn 0.856681 0.426994 0.289437
vn 0.991724 -0.104764 0.074214
vn 0.871721 0.486108 0.061659
vn 0.240548 0.970526 0.014682
vn 0.330474 0.939812 0.086839
vn 0.979326 -0.105364 -0.172682
vn 0.848384 0.508299 -0.147909
vn 0.906533 -0.104767 -0.408927
vn 0.800376 0.483129 -0.354943
vn 0.218468 0.971521 -0.091752
vn 0.200920 0.979014 -0.034105
vn 0.781238 -0.103025 -0.615673
vn 0.695242 0.434149 -0.572847
vn 0.617297 -0.100729 -0.780256
vn 0.508268 0.547009 -0.665165
vn 0.116450 0.983536 -0.138192
vn 0.266661 0.942395 -0.201952
vn 0.429373 -0.098286 -0.897763
vn 0.343462 0.587742 -0.732525
vn 0.229831 -0.096284 -0.968456
vn 0.181543 0.603715 -0.776254
vn 0.017445 0.997187 -0.072898
vn 0.046233 0.994529 -0.093670
vn 0.024455 -0.094910 -0.995185
vn 0.018703 0.611055 -0.791367
vn -0.168361 -0.094463 -0.981189
vn -0.133118 0.615101 -0.777129
vn -0.009694 0.998287 -0.057695
vn 0.001518 0.998041 -0.062541
vn -0.338945 -0.094703 -0.936028
vn -0.267926 0.614213 -0.742266
vn -0.020034 0.998157 -0.057287
vn -0.098110 -0.989471 -0.106408
vn -0.086235 -0.995028 -0.049830
vn -0.061550 -0.991118 -0.117887
vn 0.011116 -0.999936 -0.001960
vn -0.120644 -0.991864 -0.040638
vn -0.089889 -0.995936 -0.005697
vn -0.119840 -0.992568 0.021131
vn -0.082519 -0.995936 0.036097
vn -0.099469 -0.991864 0.079450
vn -0.063992 -0.995028 0.076319
vn -0.055799 -0.989471 0.133546
vn -0.017519 -0.991118 0.131829
vn 0.010960 -0.985777 0.167698
vn 0.026336 -0.989066 0.145106
vn 0.064113 -0.984912 0.160744
vn 0.077870 -0.990235 0.115629
vn 0.119286 -0.985764 0.118491
vn 0.112709 -0.991324 0.067621
vn 0.152797 -0.986926 0.051293
vn 0.124918 -0.992129 0.008667
vn 0.155526 -0.987451 -0.027423
vn 0.114420 -0.992129 -0.050869
vn 0.126039 -0.986926 -0.100459
vn 0.082784 -0.991324 -0.102092
vn 0.071566 -0.985764 -0.152143
vn 0.033627 -0.990235 -0.135288
vn 0.005269 -0.984912 -0.172978
vn -0.024881 -0.989066 -0.145362
vn -0.047057 -0.985777 -0.161333
vn 0.000000 1.000000 -0.000000
vn -0.023523 0.999723 0.001020
vn -0.020035 0.999791 0.004048
vn 0.000000 1.000000 -0.000000
vn -0.023097 0.999711 0.006625
vn 0.000000 1.000000 -0.000000
vn 0.000000 1.000000 -0.000000
vn 0.000000 1.000000 -0.000000
vn 0.000000 1.000000 -0.000000
vn 0.000000 1.000000 -0.000000
vn 0.000000 1.000000 -0.000000
vn 0.000000 1.000000 -0.000000
vn 0.000000 1.000000 -0.000000
vn 0.000000 1.000000 -0.000000
vn 0.000000 1.000000 -0.000000
vn 0.000000 1.000000 -0.000000
vn 0.000000 1.000000 -0.000000
vn 0.000000 1.000000 -0.000000
vn 0.000000 1.000000 -0.000000
vn 0.000000 1.000000 -0.000000
vn 0.000000 1.000000 -0.000000
vn 0.000000 1.000000 -0.000000
vn 0.000000 1.000000 -0.000000
vn 0.000000 1.000000 -0.000000
vn 0.000000 1.000000 -0.000000
vn 0.000000 1.000000 -0.000000
vn 0.000000 1.000000 -0.000000
vn 0.023097 0.999711 -0.006625
vn 0.020035 0.999791 -0.004048
vn 0.023523 0.999723 -0.001020
vn 0.000000 1.000000 -0.000000
vn 0.000000 1.000000 -0.000000
vn 0.000000 1.000000 -0.000000
vn -0.031367 0.999267 0.021928
vn -0.004552 0.999909 0.012716
vn -0.002694 0.999950 0.009580
vn -0.000626 0.999974 0.007243
vn 0.000343 0.999981 0.006119
vn 0.000969 0.999983 0.005704
vn 0.001690 0.999982 0.005704
vn 0.002740 0.999978 0.006102
vn 0.004479 0.999965 0.007104
vn 0.008939 0.999914 0.009615
vn 0.036975 0.999267 0.009877
vn 0.005112 0.999914 -0.012093
vn 0.031367 0.999267 -0.021928
vn 0.000488 0.999978 -0.006672
vn 0.001779 0.999965 -0.008208
vn -0.001041 0.999983 -0.005691
vn -0.000362 0.999982 -0.005938
vn -0.003066 0.999974 -0.006592
vn -0.001770 0.999981 -0.005867
vn -0.008626 0.999909 -0.010393
vn -0.005808 0.999950 -0.008081
vn -0.036975 0.999267 -0.009878
vn -0.699610 -0.124340 -0.703623
vn -0.516695 -0.121587 -0.847492
vn -0.844820 -0.127537 -0.519628
vn -0.847753 -0.100744 -0.520736
vn -0.702230 -0.098222 -0.705143
vn -0.518879 -0.096052 -0.849434
vn -0.941894 -0.130405 -0.309565
vn -0.988447 -0.132564 -0.073482
vn -0.991782 -0.104771 -0.073432
vn -0.945105 -0.103036 -0.310097
vn -0.976018 -0.133311 0.172098
vn -0.903704 -0.132563 0.407119
vn -0.906855 -0.104768 0.408213
vn -0.979326 -0.105364 0.172682
vn -0.779214 -0.130405 0.613042
vn -0.616149 -0.127537 0.777236
vn -0.618525 -0.100744 0.779280
vn -0.782049 -0.103036 0.614641
vn -0.416879 -0.124309 0.900422
vn -0.195738 -0.121504 0.973100
vn -0.197107 -0.095881 0.975682
vn -0.418788 -0.098154 0.902764
vn 0.001523 -0.119991 0.992774
vn 0.176965 -0.119688 0.976913
vn 0.177393 -0.094447 0.979598
vn 0.001043 -0.094648 0.995510
vn 0.362668 -0.120253 0.924127
vn 0.546223 -0.121972 0.828711
vn 0.548121 -0.096291 0.830838
vn 0.363907 -0.094919 0.926586
vn 0.709054 -0.124487 0.694078
vn 0.844820 -0.127537 0.519628
vn 0.847753 -0.100745 0.520735
vn 0.711528 -0.098298 0.695749
vn 0.941894 -0.130405 0.309565
vn 0.988447 -0.132564 0.073482
vn 0.991782 -0.104771 0.073432
vn 0.945105 -0.103036 0.310098
vn 0.976018 -0.133310 -0.172098
vn 0.903704 -0.132563 -0.407119
vn 0.906855 -0.104770 -0.408213
vn 0.979326 -0.105363 -0.172681
vn 0.779214 -0.130405 -0.613042
vn 0.616148 -0.127537 -0.777236
vn 0.618525 -0.100744 -0.779280
vn 0.782049 -0.103036 -0.614641
vn 0.428905 -0.124486 -0.894731
vn 0.229846 -0.121972 -0.965553
vn 0.230903 -0.096291 -0.968200
vn 0.430658 -0.098297 -0.897146
vn 0.024752 -0.120246 -0.992435
vn -0.167918 -0.119698 -0.978507
vn -0.168408 -0.094468 -0.981180
vn 0.025067 -0.094905 -0.995171
vn -0.338233 -0.120059 -0.933373
vn -0.339582 -0.094784 -0.935788
f 1/1/1 2/2/2 3/3/3
f 1/1/1 3/3/3 4/4/4
f 2/2/2 5/5/5 6/6/6
f 2/2/2 6/6/6 3/3/3
f 3/3/3 6/6/6 7/7/7
f 3/3/3 7/7/7 8/8/8
f 4/4/4 3/3/3 8/8/8
f 4/4/4 8/8/8 9/9/9
f 5/5/5 10/10/10 11/11/11
f 5/5/5 11/11/11 6/6/6
f 10/10/10 12/12/12 13/13/13
f 10/10/10 13/13/13 11/11/11
f 11/11/11 13/13/13 14/14/14
f 11/11/11 14/14/14 15/15/15
f 6/6/6 11/11/11 15/15/15
f 6/6/6 15/15/15 7/7/7
f 12/12/12 16/16/16 17/17/17
f 12/12/12 17/17/17 13/13/13
f 16/16/16 18/18/18 19/19/19
f 16/16/16 19/19/19 17/17/17
f 17/17/17 19/19/19 20/20/20
f 17/17/17 20/20/20 21/21/21
f 13/13/13 17/17/17 21/21/21
f 13/13/13 21/21/21 14/14/14
f 18/18/18 22/22/22 23/23/23
f 18/18/18 23/23/23 19/19/19
f 22/22/22 24/24/24 25/25/25
f 22/22/22 25/25/25 23/23/23
f 23/23/23 25/25/25 26/26/26
f 23/23/23 26/26/26 27/27/27
f 19/19/19 23/23/23 27/27/27
f 19/19/19 27/27/27 20/20/20
f 24/24/24 28/28/28 29/29/29
f 24/24/24 29/29/29 25/25/25
f 28/28/28 30/30/30 31/31/31
f 28/28/28 31/31/31 29/29/29
f 29/29/29 31/31/31 32/32/32
f 29/29/29 32/32/32 33/33/33
f 25/25/25 29/29/29 33/33/33
f 25/25/25 33/33/33 26/26/26
f 30/30/30 34/34/34 35/35/35
f 30/30/30 35/35/35 31/31/31
f 34/34/34 36/36/36 37/37/37
f 34/34/34 37/37/37 35/35/35
f 35/35/35 37/37/37 38/38/38
f 35/35/35 38/38/38 39/39/39
f 31/31/31 35/35/35 39/39/39
f 31/31/31 39/39/39 32/32/32
f 36/36/36 40/40/40 41/41/41
f 36/36/36 41/41/41 37/37/37
f 40/40/40 42/42/42 43/43/43
f 40/40/40 43/43/43 41/41/41
f 41/41/41 43/43/43 44/44/44
f 41/41/41 44/44/44 45/45/45
f 37/37/37 41/41/41 45/45/45
f 37/37/37 45/45/45 38/38/38
f 42/42/42 46/46/46 47/47/47
f 42/42/42 47/47/47 43/43/43
f 46/46/46 48/48/48 49/49/49
f 46/46/46 49/49/49 47/47/47
f 47/47/47 49/49/49 50/50/50
f 47/47/47 50/50/50 51/51/51
f 43/43/43 47/47/47 51/51/51
f 43/43/43 51/51/51 44/44/44
f 48/48/48 52/52/52 53/53/53
f 48/48/48 53/53/53 49/49/49
f 52/52/52 54/54/54 55/55/55
f 52/52/52 55/55/55 53/53/53
f 53/53/53 55/55/55 56/56/56
f 53/53/53 56/56/56 57/57/57
f 49/49/49 53/53/53 57/57/57
f 49/49/49 57/57/57 50/50/50
f 54/54/54 58/58/58 59/59/59
f 54/54/54 59/59/59 55/55/55
f 58/58/58 60/60/60 61/61/61
f 58/58/58 61/61/61 59/59/59
f 59/59/59 61/61/61 62/62/62
f 59/59/59 62/62/62 63/63/63
f 55/55/55 59/59/59 63/63/63
f 55/55/55 63/63/63 56/56/56
f 60/60/60 64/64/64 65/65/65
f 60/60/60 65/65/65 61/61/61
f 64/64/64 66/66/66 67/67/67
f 64/64/64 67/67/67 65/65/65
f 65/65/65 67/67/67 68/68/68
f 65/65/65 68/68/68 69/69/69
f 61/61/61 65/65/65 69/69/69
f 61/61/61 69/69/69 62/62/62
f 66/66/66 70/70/70 71/71/71
f 66/66/66 71/71/71 67/67/67
f 70/70/70 72/72/72 73/73/73
f 70/70/70 73/73/73 71/71/71
f 71/71/71 73/73/73 74/74/74
f 71/71/71 74/74/74 75/75/75
f 67/67/67 71/71/71 75/75/75
f 67/67/67 75/75/75 68/68/68
f 72/72/72 76/76/76 77/77/77
f 72/72/72 77/77/77 73/73/73
f 76/76/76 78/78/78 79/79/79
f 76/76/76 79/79/79 77/77/77
f 77/77/77 79/79/79 80/80/80
f 77/77/77 80/80/80 81/81/81
f 73/73/73 77/77/77 81/81/81
f 73/73/73 81/81/81 74/74/74
f 78/78/78 82/82/82 83/83/83
f 78/78/78 83/83/83 79/79/79
f 82/82/82 1/1/1 4/4/4
f 82/82/82 4/4/4 83/83/83
f 83/83/83 4/4/4 9/9/9
f 83/83/83 9/9/9 84/84/84
f 79/79/79 83/83/83 84/84/84
f 79/79/79 84/84/84 80/80/80
f 9/9/9 8/8/8 85/85/85
f 9/9/9 85/85/85 86/86/86
f 8/8/8 7/7/7 87/87/87
f 8/8/8 87/87/87 85/85/85
f 85/85/85 87/87/87 88/88/88
f 85/85/85 88/88/88 89/89/89
f 86/86/86 85/85/85 89/89/89
f 86/86/86 89/89/89 90/90/90
f 7/7/7 15/15/15 91/91/91
f 7/7/7 91/91/91 87/87/87
f 15/15/15 14/14/14 92/92/92
f 15/15/15 92/92/92 91/91/91
f 91/91/91 92/92/92 93/93/93
f 91/91/91 93/93/93 94/94/94
f 87/87/87 91/91/91 94/94/94
f 87/87/87 94/94/94 88/88/88
f 14/14/14 21/21/21 95/95/95
f 14/14/14 95/95/95 92/92/92
f 21/21/21 20/20/20 96/96/96
f 21/21/21 96/96/96 95/95/95
f 95/95/95 96/96/96 97/97/97
f 95/95/95 97/97/97 98/98/98
f 92/92/92 95/95/95 98/98/98
f 92/92/92 98/98/98 93/93/93
f 20/20/20 27/27/27 99/99/99
f 20/20/20 99/99/99 96/96/96
f 27/27/27 26/26/26 100/100/100
f 27/27/27 100/100/100 99/99/99
f 99/99/99 100/100/100 101/101/101
f 99/99/99 101/101/101 102/102/102
f 96/96/96 99/99/99 102/102/102
f 96/96/96 102/102/102 97/97/97
f 26/26/26 33/33/33 103/103/103
f 26/26/26 103/103/103 100/100/100
f 33/33/33 32/32/32 104/104/104
f 33/33/33 104/104/104 103/103/103
f 103/103/103 104/104/104 105/105/105
f 103/103/103 105/105/105 106/106/106
f 100/100/100 103/103/103 106/106/106
f 100/100/100 106/106/106 101/101/101
f 32/32/32 39/39/39 107/107/107
f 32/32/32 107/107/107 104/104/104
f 39/39/39 38/38/38 108/108/108
f 39/39/39 108/108/108 107/107/107
f 107/107/107 108/108/108 109/109/109
f 107/107/107 109/109/109 110/110/110
f 104/104/104 107/107/107 110/110/110
f 104/104/104 110/110/110 105/105/105
f 38/38/38 45/45/45 111/111/111
f 38/38/38 111/111/111 108/108/108
f 45/45/45 44/44/44 112/112/112
f 45/45/45 112/112/112 111/111/111
f 111/111/111 112/112/112 113/113/113
f 111/111/111 113/113/113 114/114/114
f 108/108/108 111/111/111 114/114/114
f 108/108/108 114/114/114 109/109/109
f 44/44/44 51/51/51 115/115/115
f 44/44/44 115/115/115 112/112/112
f 51/51/51 50/50/50 116/116/116
f 51/51/51 116/116/116 115/115/115
f 115/115/115 116/116/116 117/117/117
f 115/115/115 117/117/117 118/118/118
f 112/112/112 115/115/115 118/118/118
f 112/112/112 118/118/118 113/113/113
f 50/50/50 57/57/57 119/119/119
f 50/50/50 119/119/119 116/116/116
f 57/57/57 56/56/56 120/120/120
f 57/57/57 120/120/120 119/119/119
f 119/119/119 120/120/120 121/121/121
f 119/119/119 121/121/121 122/122/122
f 116/116/116 119/119/119 122/122/122
f 116/116/116 122/122/122 117/117/117
f 56/56/56 63/63/63 123/123/123
f 56/56/56 123/123/123 120/120/120
f 63/63/63 62/62/62 124/124/124
f 63/63/63 124/124/124 123/123/123
f 123/123/123 124/124/124 125/125/125
f 123/123/123 125/125/125 126/126/126
f 120/120/120 123/123/123 126/126/126
f 120/120/120 126/126/126 121/121/121
f 62/62/62 69/69/69 127/127/127
f 62/62/62 127/127/127 124/124/124
f 69/69/69 68/68/68 128/128/128
f 69/69/69 128/128/128 127/127/127
f 127/127/127 128/128/128 129/129/129
f 127/127/127 129/129/129 130/130/130
f 124/124/124 127/127/127 130/130/130
f 124/124/124 130/130/130 125/125/125
f 68/68/68 75/75/75 131/131/131
f 68/68/68 131/131/131 128/128/128
f 75/75/75 74/74/74 132/132/132
f 75/75/75 132/132/132 131/131/131
f 131/131/131 132/132/132 133/133/133
f 131/131/131 133/133/133 134/134/134
f 128/128/128 131/131/131 134/134/134
f 128/128/128 134/134/134 129/129/129
f 74/74/74 81/81/81 135/135/135
f 74/74/74 135/135/135 132/132/132
f 81/81/81 80/80/80 136/136/136
f 81/81/81 136/136/136 135/135/135
f 135/135/135 136/136/136 137/137/137
f 135/135/135 137/137/137 138/138/138
f 132/132/132 135/135/135 138/138/138
f 132/132/132 138/138/138 133/133/133
f 80/80/80 84/84/84 139/139/139
f 80/80/80 139/139/139 136/136/136
f 84/84/84 9/9/9 86/86/86
f 84/84/84 86/86/86 139/139/139
f 139/139/139 86/86/86 90/90/90
f 139/139/139 90/90/90 140/140/140
f 136/136/136 139/139/139 140/140/140
f 136/136/136 140/140/140 137/137/137
f 90/90/90 89/89/89 141/141/141
f 90/90/90 141/141/141 142/142/142
f 89/89/89 88/88/88 143/143/143
f 89/89/89 143/143/143 141/141/141
f 141/141/141 143/143/143 144/144/144
f 141/141/141 144/144/144 145/145/145
f 142/142/142 141/141/141 145/145/145
f 142/142/142 145/145/145 146/146/146
f 88/88/88 94/94/94 147/147/147
f 88/88/88 147/147/147 143/143/143
f 94/94/94 93/93/93 148/148/148
f 94/94/94 148/148/148 147/147/147
f 147/147/147 148/148/148 149/149/149
f 147/147/147 149/149/149 150/150/150
f 143/143/143 147/147/147 150/150/150
f 143/143/143 150/150/150 144/144/144
f 93/93/93 98/98/98 151/151/151
f 93/93/93 151/151/151 148/148/148
f 98/98/98 97/97/97 152/152/152
f 98/98/98 152/152/152 151/151/151
f 151/151/151 152/152/152 153/153/153
f 151/151/151 153/153/153 154/154/154
f 148/148/148 151/151/151 154/154/154
f 148/148/148 154/154/154 149/149/149
f 97/97/97 102/102/102 155/155/155
f 97/97/97 155/155/155 152/152/152
f 102/102/102 101/101/101 156/156/156
f 102/102/102 156/156/156 155/155/155
f 155/155/155 156/156/156 157/157/157
f 155/155/155 157/157/157 158/158/158
f 152/152/152 155/155/155 158/158/158
f 152/152/152 158/158/158 153/153/153
f 101/101/101 106/106/106 159/159/159
f 101/101/101 159/159/159 156/156/156
f 106/106/106 105/105/105 160/160/160
f 106/106/106 160/160/160 159/159/159
f 159/159/159 160/160/160 161/161/161
f 159/159/159 161/161/161 162/162/162
f 156/156/156 159/159/159 162/162/162
f 156/156/156 162/162/162 157/157/157
f 105/105/105 110/110/110 163/163/163
f 105/105/105 163/163/163 160/160/160
f 110/110/110 109/109/109 164/164/164
f 110/110/110 164/164/164 163/163/163
f 163/163/163 164/164/164 165/165/165
f 163/163/163 165/165/165 166/166/166
f 160/160/160 163/163/163 166/166/166
f 160/160/160 166/166/166 161/161/161
f 109/109/109 114/114/114 167/167/167
f 109/109/109 167/167/167 164/164/164
f 114/114/114 113/113/113 168/168/168
f 114/114/114 168/168/168 167/167/167
f 167/167/167 168/168/168 169/169/169
f 167/167/167 169/169/169 170/170/170
f 164/164/164 167/167/167 170/170/170
f 164/164/164 170/170/170 165/165/165
f 113/113/113 118/118/118 171/171/171
f 113/113/113 171/171/171 168/168/168
f 118/118/118 117/117/117 172/172/172
f 118/118/118 172/172/172 171/171/171
f 171/171/171 172/172/172 173/173/173
f 171/171/171 173/173/173 174/174/174
f 168/168/168 171/171/171 174/174/174
f 168/168/168 174/174/174 169/169/169
f 117/117/117 122/122/122 175/175/175
f 117/117/117 175/175/175 172/172/172
f 122/122/122 121/121/121 176/176/176
f 122/122/122 176/176/176 175/175/175
f 175/175/175 176/176/176 177/177/177
f 175/175/175 177/177/177 178/178/178
f 172/172/172 175/175/175 178/178/178
f 172/172/172 178/178/178 173/173/173
f 121/121/121 126/126/126 179/179/179
f 121/121/121 179/179/179 176/176/176
f 126/126/126 125/125/125 180/180/180
f 126/126/126 180/180/180 179/179/179
f 179/179/179 180/180/180 181/181/181
f 179/179/179 181/181/181 182/182/182
f 176/176/176 179/179/179 182/182/182
f 176/176/176 182/182/182 177/177/177
f 125/125/125 130/130/130 183/183/183
f 125/125/125 183/183/183 180/180/180
f 130/130/130 129/129/129 184/184/184
f 130/130/130 184/184/184 183/183/183
f 183/183/183 184/184/184 185/185/185
f 183/183/183 185/185/185 186/186/186
f 180/180/180 183/183/183 186/186/186
f 180/180/180 186/186/186 181/181/181
f 129/129/129 134/134/134 187/187/187
f 129/129/129 187/187/187 184/184/184
f 134/134/134 133/133/133 188/188/188
f 134/134/134 188/188/188 187/187/187
f 187/187/187 188/188/188 189/189/189
f 187/187/187 189/189/189 190/190/190
f 184/184/184 187/187/187 190/190/190
f 184/184/184 190/190/190 185/185/185
f 133/133/133 138/138/138 191/191/191
f 133/133/133 191/191/191 188/188/188
f 138/138/138 137/137/137 192/192/192
f 138/138/138 192/192/192 191/191/191
f 191/191/191 192/192/192 193/193/193
f 191/191/191 193/193/193 194/194/194
f 188/188/188 191/191/191 194/194/194
f 188/188/188 194/194/194 189/189/189
f 137/137/137 140/140/140 195/195/195
f 137/137/137 195/195/195 192/192/192
f 140/140/140 90/90/90 142/142/142
f 140/140/140 142/142/142 195/195/195
f 195/195/195 142/142/142 146/146/146
f 195/195/195 146/146/146 196/196/196
f 192/192/192 195/195/195 196/196/196
f 192/192/192 196/196/196 193/193/193
f 146/146/146 145/145/145 197/197/197
f 146/146/146 197/197/197 198/198/198
f 145/145/145 144/144/144 199/199/199
f 145/145/145 199/199/199 197/197/197
f 197/197/197 199/199/199 200/200/200
f 197/197/197 200/200/200 201/201/201
f 198/198/198 197/197/197 201/201/201
f 198/198/198 201/201/201 202/202/202
f 144/144/144 150/150/150 203/203/203
f 144/144/144 203/203/203 199/199/199
f 150/150/150 149/149/149 204/204/204
f 150/150/150 204/204/204 203/203/203
f 203/203/203 204/204/204 205/205/205
f 203/203/203 205/205/205 206/206/206
f 199/199/199 203/203/203 206/206/206
f 199/199/199 206/206/206 200/200/200
f 149/149/149 154/154/154 207/207/207
f 149/149/149 207/207/207 204/204/204
f 154/154/154 153/153/153 208/208/208
f 154/154/154 208/208/208 207/207/207
f 207/207/207 208/208/208 209/209/209
f 207/207/207 209/209/209 210/210/210
f 204/204/204 207/207/207 210/210/210
f 204/204/204 210/210/210 205/205/205
f 153/153/153 158/158/158 211/211/211
f 153/153/153 211/211/211 208/208/208
f 158/158/158 157/157/157 212/212/212
f 158/158/158 212/212/212 211/211/211
f 211/211/211 212/212/212 213/213/213
f 211/211/211 213/213/213 214/214/214
f 208/208/208 211/211/211 214/214/214
f 208/208/208 214/214/214 209/209/209
f 157/157/157 162/162/162 215/215/215
f 157/157/157 215/215/215 212/212/212
f 162/162/162 161/161/161 216/216/216
f 162/162/162 216/216/216 215/215/215
f 215/215/215 216/216/216 217/217/217
f 215/215/215 217/217/217 218/218/218
f 212/212/212 215/215/215 218/218/218
f 212/212/212 218/218/218 213/213/213
f 161/161/161 166/166/166 219/219/219
f 161/161/161 219/219/219 216/216/216
f 166/166/166 165/165/165 220/220/220
f 166/166/166 220/220/220 219/219/219
f 219/219/219 220/220/220 221/221/221
f 219/219/219 221/221/221 222/222/222
f 216/216/216 219/219/219 222/222/222
f 216/216/216 222/222/222 217/217/217
f 165/165/165 170/170/170 223/223/223
f 165/165/165 223/223/223 220/220/220
f 170/170/170 169/169/169 224/224/224
f 170/170/170 224/224/224 223/223/223
f 223/223/223 224/224/224 225/225/225
f 223/223/223 225/225/225 226/226/226
f 220/220/220 223/223/223 226/226/226
f 220/220/220 226/226/226 221/221/221
f 169/169/169 174/174/174 227/227/227
f 169/169/169 227/227/227 224/224/224
f 174/174/174 173/173/173 228/228/228
f 174/174/174 228/228/228 227/227/227
f 227/227/227 228/228/228 229/229/229
f 227/227/227 229/229/229 230/230/230
f 224/224/224 227/227/227 230/230/230
f 224/224/224 230/230/230 225/225/225
f 173/173/173 178/178/178 231/231/231
f 173/173/173 231/231/231 228/228/228
f 178/178/178 177/177/177 232/232/232
f 178/178/178 232/232/232 231/231/231
f 231/231/231 232/232/232 233/233/233
f 231/231/231 233/233/233 234/234/234
f 228/228/228 231/231/231 234/234/234
f 228/228/228 234/234/234 229/229/229
f 177/177/177 182/182/182 235/235/235
f 177/177/177 235/235/235 232/232/232
f 182/182/182 181/181/181 236/236/236
f 182/182/182 236/236/236 235/235/235
f 235/235/235 236/236/236 237/237/237
f 235/235/235 237/237/237 238/238/238
f 232/232/232 235/235/235 238/238/238
f 232/232/232 238/238/238 233/233/233
f 181/181/181 186/186/186 239/239/239
f 181/181/181 239/239/239 236/236/236
f 186/186/186 185/185/185 240/240/240
f 186/186/186 240/240/240 239/239/239
f 239/239/239 240/240/240 241/241/241
f 239/239/239 241/241/241 242/242/242
f 236/236/236 239/239/239 242/242/242
f 236/236/236 242/242/242 237/237/237
f 185/185/185 190/190/190 243/243/243
f 185/185/185 243/243/243 240/240/240
f 190/190/190 189/189/189 244/244/244
f 190/190/190 244/244/244 243/243/243
f 243/243/243 244/244/244 245/245/245
f 243/243/243 245/245/245 246/246/246
f 240/240/240 243/243/243 246/246/246
f 240/240/240 246/246/246 241/241/241
f 189/189/189 194/194/194 247/247/247
f 189/189/189 247/247/247 244/244/244
f 194/194/194 193/193/193 248/248/248
f 194/194/194 248/248/248 247/247/247
f 247/247/247 248/248/248 249/249/249
f 247/247/247 249/249/249 250/250/250
f 244/244/244 247/247/247 250/250/250
f 244/244/244 250/250/250 245/245/245
f 193/193/193 196/196/196 251/251/251
f 193/193/193 251/251/251 248/248/248
f 196/196/196 146/146/146 198/198/198
f 196/196/196 198/198/198 251/251/251
f 251/251/251 198/198/198 202/202/202
f 251/251/251 202/202/202 252/252/252
f 248/248/248 251/251/251 252/252/252
f 248/248/248 252/252/252 249/249/249
f 202/202/202 201/201/201 253/253/253
f 202/202/202 253/253/253 254/254/254
f 201/201/201 200/200/200 255/255/255
f 201/201/201 255/255/255 253/253/253
f 253/253/253 255/255/255 256/256/256
f 253/253/253 256/256/256 257/257/257
f 254/254/254 253/253/253 257/257/257
f 254/254/254 257/257/257 258/258/258
f 200/200/200 206/206/206 259/259/259
f 200/200/200 259/259/259 255/255/255
f 206/206/206 205/205/205 260/260/260
f 206/206/206 260/260/260 259/259/259
f 259/259/259 260/260/260 261/261/261
f 259/259/259 261/261/261 262/262/262
f 255/255/255 259/259/259 262/262/262
f 255/255/255 262/262/262 256/256/256
f 205/205/205 210/210/210 263/263/263
f 205/205/205 263/263/263 260/260/260
f 210/210/210 209/209/209 264/264/264
f 210/210/210 264/264/264 263/263/263
f 263/263/263 264/264/264 265/265/265
f 263/263/263 265/265/265 266/266/266
f 260/260/260 263/263/263 266/266/266
f 260/260/260 266/266/266 261/261/261
f 209/209/209 214/214/214 267/267/267
f 209/209/209 267/267/267 264/264/264
f 214/214/214 213/213/213 268/268/268
f 214/214/214 268/268/268 267/267/267
f 267/267/267 268/268/268 269/269/269
f 267/267/267 269/269/269 270/270/270
f 264/264/264 267/267/267 270/270/270
f 264/264/264 270/270/270 265/265/265
f 213/213/213 218/218/218 271/271/271
f 213/213/213 271/271/271 268/268/268
f 218/218/218 217/217/217 272/272/272
f 218/218/218 272/272/272 271/271/271
f 271/271/271 272/272/272 273/273/273
f 271/271/271 273/273/273 274/274/274
f 268/268/268 271/271/271 274/274/274
f 268/268/268 274/274/274 269/269/269
f 217/217/217 222/222/222 275/275/275
f 217/217/217 275/275/275 272/272/272
f 222/222/222 221/221/221 276/276/276
f 222/222/222 276/276/276 275/275/275
f 275/275/275 276/276/276 277/277/277
f 275/275/275 277/277/277 278/278/278
f 272/272/272 275/275/275 278/278/278
f 272/272/272 278/278/278 273/273/273
f 221/221/221 226/226/226 279/279/279
f 221/221/221 279/279/279 276/276/276
f 226/226/226 225/225/225 280/280/280
f 226/226/226 280/280/280 279/279/279
f 279/279/279 280/280/280 281/281/281
f 279/279/279 281/281/281 282/282/282
f 276/276/276 279/279/279 282/282/282
f 276/276/276 282/282/282 277/277/277
f 225/225/225 230/230/230 283/283/283
f 225/225/225 283/283/283 280/280/280
f 230/230/230 229/229/229 284/284/284
f 230/230/230 284/284/284 283/283/283
f 283/283/283 284/284/284 285/285/285
f 283/283/283 285/285/285 286/286/286
f 280/280/280 283/283/283 286/286/286
f 280/280/280 286/286/286 281/281/281
f 229/229/229 234/234/234 287/287/287
f 229/229/229 287/287/287 284/284/284
f 234/234/234 233/233/233 288/288/288
f 234/234/234 288/288/288 287/287/287
f 287/287/287 288/288/288 289/289/289
f 287/287/287 289/289/289 290/290/290
f 284/284/284 287/287/287 290/290/290
f 284/284/284 290/290/290 285/285/285
f 233/233/233 238/238/238 291/291/291
f 233/233/233 291/291/291 288/288/288
f 238/238/238 237/237/237 292/292/292
f 238/238/238 292/292/292 291/291/291
f 291/291/291 292/292/292 293/293/293
f 291/291/291 293/293/293 294/294/294
f 288/288/288 291/291/291 294/294/294
f 288/288/288 294/294/294 289/289/289
f 237/237/237 242/242/242 295/295/295
f 237/237/237 295/295/295 292/292/292
f 242/242/242 241/241/241 296/296/296
f 242/242/242 296/296/296 295/295/295
f 295/295/295 296/296/296 297/297/297
f 295/295/295 297/297/297 298/298/298
f 292/292/292 295/295/295 298/298/298
f 292/292/292 298/298/298 293/293/293
f 241/241/241 246/246/246 299/299/299
f 241/241/241 299/299/299 296/296/296
f 246/246/246 245/245/245 300/300/300
f 246/246/246 300/300/300 299/299/299
f 299/299/299 300/300/300 301/301/301
f 299/299/299 301/301/301 302/302/302
f 296/296/296 299/299/299 302/302/302
f 296/296/296 302/302/302 297/297/297
f 245/245/245 250/250/250 303/303/303
f 245/245/245 303/303/303 300/300/300
f 250/250/250 249/249/249 304/304/304
f 250/250/250 304/304/304 303/303/303
f 303/303/303 304/304/304 305/305/305
f 303/303/303 305/305/305 306/306/306
f 300/300/300 303/303/303 306/306/306
f 300/300/300 306/306/306 301/301/301
f 249/249/249 252/252/252 307/307/307
f 249/249/249 307/307/307 304/304/304
f 252/252/252 202/202/202 254/254/254
f 252/252/252 254/254/254 307/307/307
f 307/307/307 254/254/254 258/258/258
f 307/307/307 258/258/258 308/308/308
f 304/304/304 307/307/307 308/308/308
f 304/304/304 308/308/308 305/305/305
f 309/309/309 310/310/310 311/311/311
f 309/309/309 311/311/311 312/312/312
f 310/310/310 313/313/313 314/314/314
f 310/310/310 314/314/314 311/311/311
f 311/311/311 314/314/314 315/315/315
f 311/311/311 315/315/315 316/316/316
f 312/312/312 311/311/311 316/316/316
f 312/312/312 316/316/316 317/317/317
f 313/313/313 318/318/318 319/319/319
f 313/313/313 319/319/319 314/314/314
f 318/318/318 320/320/320 321/321/321
f 318/318/318 321/321/321 319/319/319
f 319/319/319 321/321/321 322/322/322
f 319/319/319 322/322/322 323/323/323
f 314/314/314 319/319/319 323/323/323
f 314/314/314 323/323/323 315/315/315
f 320/320/320 324/324/324 325/325/325
f 320/320/320 325/325/325 321/321/321
f 324/324/324 326/326/326 327/327/327
f 324/324/324 327/327/327 325/325/325
f 325/325/325 327/327/327 328/328/328
f 325/325/325 328/328/328 329/329/329
f 321/321/321 325/325/325 329/329/329
f 321/321/321 329/329/329 322/322/322
f 326/326/326 330/330/330 331/331/331
f 326/326/326 331/331/331 327/327/327
f 330/330/330 332/332/332 333/333/333
f 330/330/330 333/333/333 331/331/331
f 331/331/331 333/333/333 334/334/334
f 331/331/331 334/334/334 335/335/335
f 327/327/327 331/331/331 335/335/335
f 327/327/327 335/335/335 328/328/328
f 332/332/332 336/336/336 337/337/337
f 332/332/332 337/337/337 333/333/333
f 336/336/336 338/338/338 339/339/339
f 336/336/336 339/339/339 337/337/337
f 337/337/337 339/339/339 340/340/340
f 337/337/337 340/340/340 341/341/341
f 333/333/333 337/337/337 341/341/341
f 333/333/333 341/341/341 334/334/334
f 338/338/338 342/342/342 343/343/343
f 338/338/338 343/343/343 339/339/339
f 342/342/342 344/344/344 345/345/345
f 342/342/342 345/345/345 343/343/343
f 343/343/343 345/345/345 346/346/346
f 343/343/343 346/346/346 347/347/347
f 339/339/339 343/343/343 347/347/347
f 339/339/339 347/347/347 340/340/340
f 344/344/344 348/348/348 349/349/349
f 344/344/344 349/349/349 345/345/345
f 348/348/348 350/350/350 351/351/351
f 348/348/348 351/351/351 349/349/349
f 349/349/349 351/351/351 352/352/352
f 349/349/349 352/352/352 353/353/353
f 345/345/345 349/349/349 353/353/353
f 345/345/345 353/353/353 346/346/346
f 350/350/350 354/354/354 355/355/355
f 350/350/350 355/355/355 351/351/351
f 354/354/354 356/356/356 357/357/357
f 354/354/354 357/357/357 355/355/355
f 355/355/355 357/357/357 358/358/358
f 355/355/355 358/358/358 359/359/359
f 351/351/351 355/355/355 359/359/359
f 351/351/351 359/359/359 352/352/352
f 356/356/356 360/360/360 361/361/361
f 356/356/356 361/361/361 357/357/357
f 360/360/360 362/362/362 363/363/363
f 360/360/360 363/363/363 361/361/361
f 361/361/361 363/363/363 364/364/364
f 361/361/361 364/364/364 365/365/365
f 357/357/357 361/361/361 365/365/365
f 357/357/357 365/365/365 358/358/358
f 362/362/362 366/366/366 367/367/367
f 362/362/362 367/367/367 363/363/363
f 366/366/366 368/368/368 369/369/369
f 366/366/366 369/369/369 367/367/367
f 367/367/367 369/369/369 370/370/370
f 367/367/367 370/370/370 371/371/371
f 363/363/363 367/367/367 371/371/371
f 363/363/363 371/371/371 364/364/364
f 368/368/368 372/372/372 373/373/373
f 368/368/368 373/373/373 369/369/369
f 372/372/372 374/374/374 375/375/375
f 372/372/372 375/375/375 373/373/373
f 373/373/373 375/375/375 376/376/376
f 373/373/373 376/376/376 377/377/377
f 369/369/369 373/373/373 377/377/377
f 369/369/369 377/377/377 370/370/370
f 374/374/374 378/378/378 379/379/379
f 374/374/374 379/379/379 375/375/375
f 378/378/378 380/380/380 381/381/381
f 378/378/378 381/381/381 379/379/379
f 379/379/379 381/381/381 382/382/382
f 379/379/379 382/382/382 383/383/383
f 375/375/375 379/379/379 383/383/383
f 375/375/375 383/383/383 376/376/376
f 380/380/380 384/384/384 385/385/385
f 380/380/380 385/385/385 381/381/381
f 384/384/384 386/386/386 387/387/387
f 384/384/384 387/387/387 385/385/385
f 385/385/385 387/387/387 388/388/388
f 385/385/385 388/388/388 389/389/389
f 381/381/381 385/385/385 389/389/389
f 381/381/381 389/389/389 382/382/382
f 386/386/386 390/390/390 391/391/391
f 386/386/386 391/391/391 387/387/387
f 390/390/390 309/309/309 312/312/312
f 390/390/390 312/312/312 391/391/391
f 391/391/391 312/312/312 317/317/317
f 391/391/391 317/317/317 392/392/392
f 387/387/387 391/391/391 392/392/392
f 387/387/387 392/392/392 388/388/388
f 5/5/5 2/2/2 393/393/393
f 5/5/5 393/393/393 394/394/394
f 1/1/1 395/395/395 393/393/393
f 1/1/1 393/393/393 2/2/2
f 396/396/396 394/394/394 393/393/393
f 396/396/396 393/393/393 395/395/395
f 12/12/12 10/10/10 397/397/397
f 12/12/12 397/397/397 398/398/398
f 5/5/5 394/394/394 397/397/397
f 5/5/5 397/397/397 10/10/10
f 396/396/396 398/398/398 397/397/397
f 396/396/396 397/397/397 394/394/394
f 18/18/18 16/16/16 399/399/399
f 18/18/18 399/399/399 400/400/400
f 12/12/12 398/398/398 399/399/399
f 12/12/12 399/399/399 16/16/16
f 396/396/396 400/400/400 399/399/399
f 396/396/396 399/399/399 398/398/398
f 24/24/24 22/22/22 401/401/401
f 24/24/24 401/401/401 402/402/402
f 18/18/18 400/400/400 401/401/401
f 18/18/18 401/401/401 22/22/22
f 396/396/396 402/402/402 401/401/401
f 396/396/396 401/401/401 400/400/400
f 30/30/30 28/28/28 403/403/403
f 30/30/30 403/403/403 404/404/404
f 24/24/24 402/402/402 403/403/403
f 24/24/24 403/403/403 28/28/28
f 396/396/396 404/404/404 403/403/403
f 396/396/396 403/403/403 402/402/402
f 36/36/36 34/34/34 405/405/405
f 36/36/36 405/405/405 406/406/406
f 30/30/30 404/404/404 405/405/405
f 30/30/30 405/405/405 34/34/34
f 396/396/396 406/406/406 405/405/405
f 396/396/396 405/405/405 404/404/404
f 42/42/42 40/40/40 407/407/407
f 42/42/42 407/407/407 408/408/408
f 36/36/36 406/406/406 407/407/407
f 36/36/36 407/407/407 40/40/40
f 396/396/396 408/408/408 407/407/407
f 396/396/396 407/407/407 406/406/406
f 48/48/48 46/46/46 409/409/409
f 48/48/48 409/409/409 410/410/410
f 42/42/42 408/408/408 409/409/409
f 42/42/42 409/409/409 46/46/46
f 396/396/396 410/410/410 409/409/409
f 396/396/396 409/409/409 408/408/408
f 54/54/54 52/52/52 411/411/411
f 54/54/54 411/411/411 412/412/412
f 48/48/48 410/410/410 411/411/411
f 48/48/48 411/411/411 52/52/52
f 396/396/396 412/412/412 411/411/411
f 396/396/396 411/411/411 410/410/410
f 60/60/60 58/58/58 413/413/413
f 60/60/60 413/413/413 414/414/414
f 54/54/54 412/412/412 413/413/413
f 54/54/54 413/413/413 58/58/58
f 396/396/396 414/414/414 413/413/413
f 396/396/396 413/413/413 412/412/412
f 66/66/66 64/64/64 415/415/415
f 66/66/66 415/415/415 416/416/416
f 60/60/60 414/414/414 415/415/415
f 60/60/60 415/415/415 64/64/64
f 396/396/396 416/416/416 415/415/415
f 396/396/396 415/415/415 414/414/414
f 72/72/72 70/70/70 417/417/417
f 72/72/72 417/417/417 418/418/418
f 66/66/66 416/416/416 417/417/417
f 66/66/66 417/417/417 70/70/70
f 396/396/396 418/418/418 417/417/417
f 396/396/396 417/417/417 416/416/416
f 78/78/78 76/76/76 419/419/419
f 78/78/78 419/419/419 420/420/420
f 72/72/72 418/418/418 419/419/419
f 72/72/72 419/419/419 76/76/76
f 396/396/396 420/420/420 419/419/419
f 396/396/396 419/419/419 418/418/418
f 1/1/1 82/82/82 421/421/421
f 1/1/1 421/421/421 395/395/395
f 78/78/78 420/420/420 421/421/421
f 78/78/78 421/421/421 82/82/82
f 396/396/396 395/395/395 421/421/421
f 396/396/396 421/421/421 420/420/420
f 422/422/422 423/423/423 424/424/424
f 422/422/422 424/424/424 425/425/425
f 423/423/423 322/322/322 329/329/329
f 423/423/423 329/329/329 424/424/424
f 424/424/424 329/329/329 328/328/328
f 424/424/424 328/328/328 426/426/426
f 425/425/425 424/424/424 426/426/426
f 425/425/425 426/426/426 427/427/427
f 428/428/428 429/429/429 430/430/430
f 428/428/428 430/430/430 431/431/431
f 429/429/429 432/432/432 433/433/433
f 429/429/429 433/433/433 430/430/430
f 430/430/430 433/433/433 434/434/434
f 430/430/430 434/434/434 435/435/435
f 431/431/431 430/430/430 435/435/435
f 431/431/431 435/435/435 436/436/436
f 437/437/437 438/438/438 439/439/439
f 437/437/437 439/439/439 440/440/440
f 438/438/438 428/428/428 431/431/431
f 438/438/438 431/431/431 439/439/439
f 439/439/439 431/431/431 436/436/436
f 439/439/439 436/436/436 441/441/441
f 440/440/440 439/439/439 441/441/441
f 440/440/440 441/441/441 442/442/442
f 432/432/432 443/443/443 444/444/444
f 432/432/432 444/444/444 433/433/433
f 443/443/443 445/445/445 446/446/446
f 443/443/443 446/446/446 444/444/444
f 444/444/444 446/446/446 447/447/447
f 444/444/444 447/447/447 448/448/448
f 433/433/433 444/444/444 448/448/448
f 433/433/433 448/448/448 434/434/434
f 370/370/370 449/449/449 450/450/450
f 370/370/370 450/450/450 371/371/371
f 449/449/449 437/437/437 440/440/440
f 449/449/449 440/440/440 450/450/450
f 450/450/450 440/440/440 442/442/442
f 450/450/450 442/442/442 451/451/451
f 371/371/371 450/450/450 451/451/451
f 371/371/371 451/451/451 364/364/364
f 445/445/445 452/452/452 453/453/453
f 445/445/445 453/453/453 446/446/446
f 452/452/452 422/422/422 425/425/425
f 452/452/452 425/425/425 453/453/453
f 453/453/453 425/425/425 427/427/427
f 453/453/453 427/427/427 454/454/454
f 446/446/446 453/453/453 454/454/454
f 446/446/446 454/454/454 447/447/447
f 427/427/427 426/426/426 455/455/455
f 427/427/427 455/455/455 456/456/456
f 328/328/328 335/335/335 455/455/455
f 328/328/328 455/455/455 426/426/426
f 334/334/334 456/456/456 455/455/455
f 334/334/334 455/455/455 335/335/335
f 447/447/447 454/454/454 457/457/457
f 447/447/447 457/457/457 458/458/458
f 454/454/454 427/427/427 456/456/456
f 454/454/454 456/456/456 457/457/457
f 457/457/457 456/456/456 334/334/334
f 457/457/457 334/334/334 341/341/341
f 458/458/458 457/457/457 341/341/341
f 458/458/458 341/341/341 340/340/340
f 434/434/434 448/448/448 459/459/459
f 434/434/434 459/459/459 460/460/460
f 448/448/448 447/447/447 458/458/458
f 448/448/448 458/458/458 459/459/459
f 459/459/459 458/458/458 340/340/340
f 459/459/459 340/340/340 347/347/347
f 460/460/460 459/459/459 347/347/347
f 460/460/460 347/347/347 346/346/346
f 436/436/436 435/435/435 461/461/461
f 436/436/436 461/461/461 462/462/462
f 435/435/435 434/434/434 460/460/460
f 435/435/435 460/460/460 461/461/461
f 461/461/461 460/460/460 346/346/346
f 461/461/461 346/346/346 353/353/353
f 462/462/462 461/461/461 353/353/353
f 462/462/462 353/353/353 352/352/352
f 442/442/442 441/441/441 463/463/463
f 442/442/442 463/463/463 464/464/464
f 441/441/441 436/436/436 462/462/462
f 441/441/441 462/462/462 463/463/463
f 463/463/463 462/462/462 352/352/352
f 463/463/463 352/352/352 359/359/359
f 464/464/464 463/463/463 359/359/359
f 464/464/464 359/359/359 358/358/358
f 364/364/364 451/451/451 465/465/465
f 364/364/364 465/465/465 365/365/365
f 442/442/442 464/464/464 465/465/465
f 442/442/442 465/465/465 451/451/451
f 358/358/358 365/365/365 465/465/465
f 358/358/358 465/465/465 464/464/464
f 376/376/376 466/466/466 467/467/467
f 376/376/376 467/467/467 377/377/377
f 437/437/437 449/449/449 467/467/467
f 437/437/437 467/467/467 466/466/466
f 370/370/370 377/377/377 467/467/467
f 370/370/370 467/467/467 449/449/449
f 382/382/382 468/468/468 469/469/469
f 382/382/382 469/469/469 383/383/383
f 468/468/468 428/428/428 438/438/438
f 468/468/468 438/438/438 469/469/469
f 469/469/469 438/438/438 437/437/437
f 469/469/469 437/437/437 466/466/466
f 383/383/383 469/469/469 466/466/466
f 383/383/383 466/466/466 376/376/376
f 388/388/388 470/470/470 471/471/471
f 388/388/388 471/471/471 389/389/389
f 470/470/470 432/432/432 429/429/429
f 470/470/470 429/429/429 471/471/471
f 471/471/471 429/429/429 428/428/428
f 471/471/471 428/428/428 468/468/468
f 389/389/389 471/471/471 468/468/468
f 389/389/389 468/468/468 382/382/382
f 317/317/317 472/472/472 473/473/473
f 317/317/317 473/473/473 392/392/392
f 472/472/472 445/445/445 443/443/443
f 472/472/472 443/443/443 473/473/473
f 473/473/473 443/443/443 432/432/432
f 473/473/473 432/432/432 470/470/470
f 392/392/392 473/473/473 470/470/470
f 392/392/392 470/470/470 388/388/388
f 315/315/315 474/474/474 475/475/475
f 315/315/315 475/475/475 316/316/316
f 474/474/474 422/422/422 452/452/452
f 474/474/474 452/452/452 475/475/475
f 475/475/475 452/452/452 445/445/445
f 475/475/475 445/445/445 472/472/472
f 316/316/316 475/475/475 472/472/472
f 316/316/316 472/472/472 317/317/317
f 315/315/315 323/323/323 476/476/476
f 315/315/315 476/476/476 474/474/474
f 322/322/322 423/423/423 476/476/476
f 322/322/322 476/476/476 323/323/323
f 422/422/422 474/474/474 476/476/476
f 422/422/422 476/476/476 423/423/423
f 258/258/258 257/257/257 477/477/477
f 258/258/258 477/477/477 478/478/478
f 257/257/257 256/256/256 479/479/479
f 257/257/257 479/479/479 477/477/477
f 477/477/477 479/479/479 480/480/480
f 477/477/477 480/480/480 481/481/481
f 478/478/478 477/477/477 481/481/481
f 478/478/478 481/481/481 482/482/482
f 256/256/256 262/262/262 483/483/483
f 256/256/256 483/483/483 479/479/479
f 262/262/262 261/261/261 484/484/484
f 262/262/262 484/484/484 483/483/483
f 483/483/483 484/484/484 485/485/485
f 483/483/483 485/485/485 486/486/486
f 479/479/479 483/483/483 486/486/486
f 479/479/479 486/486/486 480/480/480
f 261/261/261 266/266/266 487/487/487
f 261/261/261 487/487/487 484/484/484
f 266/266/266 265/265/265 488/488/488
f 266/266/266 488/488/488 487/487/487
f 487/487/487 488/488/488 489/489/489
f 487/487/487 489/489/489 490/490/490
f 484/484/484 487/487/487 490/490/490
f 484/484/484 490/490/490 485/485/485
f 265/265/265 270/270/270 491/491/491
f 265/265/265 491/491/491 488/488/488
f 270/270/270 269/269/269 492/492/492
f 270/270/270 492/492/492 491/491/491
f 491/491/491 492/492/492 493/493/493
f 491/491/491 493/493/493 494/494/494
f 488/488/488 491/491/491 494/494/494
f 488/488/488 494/494/494 489/489/489
f 269/269/269 274/274/274 495/495/495
f 269/269/269 495/495/495 492/492/492
f 274/274/274 273/273/273 496/496/496
f 274/274/274 496/496/496 495/495/495
f 495/495/495 496/496/496 497/497/497
f 495/495/495 497/497/497 498/498/498
f 492/492/492 495/495/495 498/498/498
f 492/492/492 498/498/498 493/493/493
f 273/273/273 278/278/278 499/499/499
f 273/273/273 499/499/499 496/496/496
f 278/278/278 277/277/277 500/500/500
f 278/278/278 500/500/500 499/499/499
f 499/499/499 500/500/500 501/501/501
f 499/499/499 501/501/501 502/502/502
f 496/496/496 499/499/499 502/502/502
f 496/496/496 502/502/502 497/497/497
f 277/277/277 282/282/282 503/503/503
f 277/277/277 503/503/503 500/500/500
f 282/282/282 281/281/281 504/504/504
f 282/282/282 504/504/504 503/503/503
f 503/503/503 504/504/504 505/505/505
f 503/503/503 505/505/505 506/506/506
f 500/500/500 503/503/503 506/506/506
f 500/500/500 506/506/506 501/501/501
f 281/281/281 286/286/286 507/507/507
f 281/281/281 507/507/507 504/504/504
f 286/286/286 285/285/285 508/508/508
f 286/286/286 508/508/508 507/507/507
f 507/507/507 508/508/508 509/509/509
f 507/507/507 509/509/509 510/510/510
f 504/504/504 507/507/507 510/510/510
f 504/504/504 510/510/510 505/505/505
f 285/285/285 290/290/290 511/511/511
f 285/285/285 511/511/511 508/508/508
f 290/290/290 289/289/289 512/512/512
f 290/290/290 512/512/512 511/511/511
f 511/511/511 512/512/512 513/513/513
f 511/511/511 513/513/513 514/514/514
f 508/508/508 511/511/511 514/514/514
f 508/508/508 514/514/514 509/509/509
f 289/289/289 294/294/294 515/515/515
f 289/289/289 515/515/515 512/512/512
f 294/294/294 293/293/293 516/516/516
f 294/294/294 516/516/516 515/515/515
f 515/515/515 516/516/516 517/517/517
f 515/515/515 517/517/517 518/518/518
f 512/512/512 515/515/515 518/518/518
f 512/512/512 518/518/518 513/513/513
f 293/293/293 298/298/298 519/519/519
f 293/293/293 519/519/519 516/516/516
f 298/298/298 297/297/297 520/520/520
f 298/298/298 520/520/520 519/519/519
f 519/519/519 520/520/520 521/521/521
f 519/519/519 521/521/521 522/522/522
f 516/516/516 519/519/519 522/522/522
f 516/516/516 522/522/522 517/517/517
f 297/297/297 302/302/302 523/523/523
f 297/297/297 523/523/523 520/520/520
f 302/302/302 301/301/301 524/524/524
f 302/302/302 524/524/524 523/523/523
f 523/523/523 524/524/524 525/525/525
f 523/523/523 525/525/525 526/526/526
f 520/520/520 523/523/523 526/526/526
f 520/520/520 526/526/526 521/521/521
f 301/301/301 306/306/306 527/527/527
f 301/301/301 527/527/527 524/524/524
f 306/306/306 305/305/305 528/528/528
f 306/306/306 528/528/528 527/527/527
f 527/527/527 528/528/528 529/529/529
f 527/527/527 529/529/529 530/530/530
f 524/524/524 527/527/527 530/530/530
f 524/524/524 530/530/530 525/525/525
f 305/305/305 308/308/308 531/531/531
f 305/305/305 531/531/531 528/528/528
f 308/308/308 258/258/258 478/478/478
f 308/308/308 478/478/478 531/531/531
f 531/531/531 478/478/478 482/482/482
f 531/531/531 482/482/482 532/532/532
f 528/528/528 531/531/531 532/532/532
f 528/528/528 532/532/532 529/529/529
