# ship_canon_clou2_ship_canon1_clou_0_47
v -0.175727 -0.358235 0.033251
v -0.176179 -0.359109 0.030667
v -0.174624 -0.359102 0.030393
v -0.174172 -0.358227 0.032976
v -0.176638 -0.358235 0.028084
v -0.175083 -0.358227 0.027810
v -0.174197 -0.357544 0.028345
v -0.173587 -0.358223 0.030210
v -0.173523 -0.357544 0.032171
v -0.173523 -0.357544 0.032171
v -0.173587 -0.358223 0.030210
v -0.173252 -0.355598 0.030151
v -0.173143 -0.355600 0.032795
v -0.174197 -0.357544 0.028345
v -0.174054 -0.355600 0.027629
v -0.174215 -0.353658 0.028348
v -0.173611 -0.352977 0.030214
v -0.173540 -0.353658 0.032174
v -0.173540 -0.353658 0.032174
v -0.173611 -0.352977 0.030214
v -0.174656 -0.352107 0.030398
v -0.174196 -0.352982 0.032981
v -0.174215 -0.353658 0.028348
v -0.175107 -0.352982 0.027814
v -0.176662 -0.352989 0.028089
v -0.176210 -0.352114 0.030672
v -0.175751 -0.352989 0.033255
v -0.178898 -0.353683 0.033119
v -0.179638 -0.353005 0.031277
v -0.180140 -0.355630 0.031365
v -0.179171 -0.355628 0.033858
v -0.179572 -0.353683 0.029292
v -0.180082 -0.355628 0.028692
v -0.179555 -0.357569 0.029289
v -0.179614 -0.358251 0.031273
v -0.178880 -0.357569 0.033116
v -0.176638 -0.358235 0.028084
v -0.176802 -0.355612 0.027225
v -0.175247 -0.355604 0.026951
v -0.175083 -0.358227 0.027810
v -0.176662 -0.352989 0.028089
v -0.175107 -0.352982 0.027814
v -0.174215 -0.353658 0.028348
v -0.174054 -0.355600 0.027629
v -0.174197 -0.357544 0.028345
v -0.175751 -0.352989 0.033255
v -0.175587 -0.355612 0.034114
v -0.174032 -0.355604 0.033840
v -0.174196 -0.352982 0.032981
v -0.175727 -0.358235 0.033251
v -0.174172 -0.358227 0.032976
v -0.173523 -0.357544 0.032171
v -0.173143 -0.355600 0.032795
v -0.173540 -0.353658 0.032174
v -0.178068 -0.359118 0.031000
v -0.177617 -0.358243 0.033584
v -0.178527 -0.358243 0.028418
v -0.178691 -0.355621 0.027559
v -0.178527 -0.358243 0.028418
v -0.178551 -0.352998 0.028422
v -0.178100 -0.352123 0.031006
v -0.177640 -0.352998 0.033588
v -0.178551 -0.352998 0.028422
v -0.177477 -0.355621 0.034447
v -0.177640 -0.352998 0.033588
v -0.177617 -0.358243 0.033584
vt 0.299733 0.138479
vt 0.427587 0.142422
vt 0.426569 0.084749
vt 0.298824 0.087004
vt 0.555222 0.133968
vt 0.554314 0.082493
vt 0.553405 0.031019
vt 0.425660 0.033274
vt 0.297916 0.035530
vt 0.651550 0.947714
vt 0.776550 0.947714
vt 0.776550 0.822714
vt 0.651550 0.822714
vt 0.901550 0.947714
vt 0.901550 0.822714
vt 0.901550 0.697714
vt 0.776550 0.697714
vt 0.651550 0.697714
vt 0.311449 0.801997
vt 0.439193 0.799741
vt 0.438285 0.748267
vt 0.310540 0.750522
vt 0.566938 0.797486
vt 0.566029 0.746011
vt 0.565120 0.694537
vt 0.437266 0.690593
vt 0.309631 0.699048
vt 0.306938 0.546508
vt 0.434455 0.531384
vt 0.432427 0.416508
vt 0.317551 0.418536
vt 0.562427 0.541997
vt 0.547303 0.414479
vt 0.557916 0.286508
vt 0.430398 0.301632
vt 0.302427 0.291019
vt 0.710455 0.283814
vt 0.706512 0.411668
vt 0.764186 0.410650
vt 0.761930 0.282906
vt 0.714967 0.539303
vt 0.766441 0.538395
vt 0.817916 0.537486
vt 0.815660 0.409741
vt 0.813405 0.281997
vt 0.154398 0.549201
vt 0.158341 0.421347
vt 0.100668 0.422366
vt 0.102923 0.550110
vt 0.149887 0.293712
vt 0.098412 0.294621
vt 0.046938 0.295530
vt 0.049193 0.423275
vt 0.051449 0.551019
vt 0.428825 0.212493
vt 0.301080 0.214749
vt 0.556569 0.210238
vt 0.636441 0.412906
vt 0.634186 0.285161
vt 0.638697 0.540650
vt 0.436029 0.620522
vt 0.308284 0.622778
vt 0.563774 0.618267
vt 0.228412 0.420110
vt 0.230668 0.547855
vt 0.226157 0.292366
vn 0.059199 -0.948673 0.310668
vn 0.004519 -0.999989 -0.000797
vn 0.327112 -0.942340 -0.070659
vn 0.390565 -0.881949 0.263864
vn -0.050626 -0.948673 -0.312179
vn 0.299623 -0.886214 -0.353344
vn 0.653542 -0.661805 -0.367284
vn 0.645407 -0.748341 -0.153088
vn 0.806276 -0.566705 0.169603
vn 0.988168 -0.152674 -0.014667
vn 0.976629 -0.143160 -0.160316
vn 0.984797 0.004588 -0.173646
vn 0.999629 -0.007172 -0.026284
vn 0.906390 -0.203039 -0.370448
vn 0.948228 0.016247 -0.317176
vn 0.932170 0.161621 -0.323940
vn 0.971227 0.152235 -0.183144
vn 0.976554 0.211812 0.038435
vn 0.733737 0.668268 0.122669
vn 0.652053 0.754386 -0.075689
vn 0.323022 0.945369 -0.043977
vn 0.394380 0.889447 0.230972
vn 0.694491 0.573697 -0.434228
vn 0.268780 0.885021 -0.380125
vn -0.059199 0.948673 -0.310668
vn -0.004519 0.999989 0.000797
vn 0.050626 0.948673 0.312179
vn -0.668029 0.424693 0.611043
vn -0.784284 0.607640 0.125191
vn -0.984797 -0.004588 0.173646
vn -0.673023 0.026401 0.739150
vn -0.807296 0.500921 -0.312012
vn -0.884967 -0.033660 -0.464435
vn -0.832861 -0.431685 -0.346395
vn -0.774279 -0.614901 0.149626
vn -0.647338 -0.507698 0.568504
vn -0.163308 -0.316224 -0.934523
vn -0.173648 -0.000000 -0.984808
vn 0.161109 0.014297 -0.986833
vn 0.177736 -0.326137 -0.928464
vn -0.166166 0.316224 -0.934019
vn 0.191493 0.297560 -0.935301
vn 0.577035 0.251447 -0.777049
vn 0.518081 0.041710 -0.854314
vn 0.652755 -0.303535 -0.694102
vn 0.163308 0.316224 0.934523
vn 0.173648 -0.000000 0.984808
vn 0.489025 -0.011268 0.872197
vn 0.481609 0.329209 0.812203
vn 0.166166 -0.316224 0.934019
vn 0.502510 -0.294327 0.812930
vn 0.810245 -0.244983 0.532435
vn 0.779379 -0.035665 0.625537
vn 0.848011 0.310527 0.429476
vn -0.242646 -0.968476 0.056374
vn -0.220567 -0.911560 0.346999
vn -0.309602 -0.906458 -0.287193
vn -0.417254 -0.014544 -0.908673
vn -0.434066 -0.304715 -0.847783
vn -0.413965 0.335399 -0.846251
vn -0.256035 0.966152 0.031557
vn -0.200886 0.904080 0.377206
vn -0.334172 0.908976 -0.249183
vn -0.081427 0.012221 0.996604
vn -0.120672 0.302130 0.945598
vn -0.096523 -0.337778 0.936264
f 1/1/1 2/2/2 3/3/3
f 1/1/1 3/3/3 4/4/4
f 2/2/2 5/5/5 6/6/6
f 2/2/2 6/6/6 3/3/3
f 3/3/3 6/6/6 7/7/7
f 3/3/3 7/7/7 8/8/8
f 4/4/4 3/3/3 8/8/8
f 4/4/4 8/8/8 9/9/9
f 10/10/10 11/11/11 12/12/12
f 10/10/10 12/12/12 13/13/13
f 11/11/11 14/14/14 15/15/15
f 11/11/11 15/15/15 12/12/12
f 12/12/12 15/15/15 16/16/16
f 12/12/12 16/16/16 17/17/17
f 13/13/13 12/12/12 17/17/17
f 13/13/13 17/17/17 18/18/18
f 19/19/19 20/20/20 21/21/21
f 19/19/19 21/21/21 22/22/22
f 20/20/20 23/23/23 24/24/24
f 20/20/20 24/24/24 21/21/21
f 21/21/21 24/24/24 25/25/25
f 21/21/21 25/25/25 26/26/26
f 22/22/22 21/21/21 26/26/26
f 22/22/22 26/26/26 27/27/27
f 28/28/28 29/29/29 30/30/30
f 28/28/28 30/30/30 31/31/31
f 29/29/29 32/32/32 33/33/33
f 29/29/29 33/33/33 30/30/30
f 30/30/30 33/33/33 34/34/34
f 30/30/30 34/34/34 35/35/35
f 31/31/31 30/30/30 35/35/35
f 31/31/31 35/35/35 36/36/36
f 37/37/37 38/38/38 39/39/39
f 37/37/37 39/39/39 40/40/40
f 38/38/38 41/41/41 42/42/42
f 38/38/38 42/42/42 39/39/39
f 39/39/39 42/42/42 43/43/43
f 39/39/39 43/43/43 44/44/44
f 40/40/40 39/39/39 44/44/44
f 40/40/40 44/44/44 45/45/45
f 46/46/46 47/47/47 48/48/48
f 46/46/46 48/48/48 49/49/49
f 47/47/47 50/50/50 51/51/51
f 47/47/47 51/51/51 48/48/48
f 48/48/48 51/51/51 52/52/52
f 48/48/48 52/52/52 53/53/53
f 49/49/49 48/48/48 53/53/53
f 49/49/49 53/53/53 54/54/54
f 36/36/36 35/35/35 55/55/55
f 36/36/36 55/55/55 56/56/56
f 35/35/35 34/34/34 57/57/57
f 35/35/35 57/57/57 55/55/55
f 55/55/55 57/57/57 5/5/5
f 55/55/55 5/5/5 2/2/2
f 56/56/56 55/55/55 2/2/2
f 56/56/56 2/2/2 1/1/1
f 34/34/34 33/33/33 58/58/58
f 34/34/34 58/58/58 59/59/59
f 33/33/33 32/32/32 60/60/60
f 33/33/33 60/60/60 58/58/58
f 58/58/58 60/60/60 41/41/41
f 58/58/58 41/41/41 38/38/38
f 59/59/59 58/58/58 38/38/38
f 59/59/59 38/38/38 37/37/37
f 27/27/27 26/26/26 61/61/61
f 27/27/27 61/61/61 62/62/62
f 26/26/26 25/25/25 63/63/63
f 26/26/26 63/63/63 61/61/61
f 61/61/61 63/63/63 32/32/32
f 61/61/61 32/32/32 29/29/29
f 62/62/62 61/61/61 29/29/29
f 62/62/62 29/29/29 28/28/28
f 28/28/28 31/31/31 64/64/64
f 28/28/28 64/64/64 65/65/65
f 31/31/31 36/36/36 66/66/66
f 31/31/31 66/66/66 64/64/64
f 64/64/64 66/66/66 50/50/50
f 64/64/64 50/50/50 47/47/47
f 65/65/65 64/64/64 47/47/47
f 65/65/65 47/47/47 46/46/46
